<?xml version="1.0" encoding="UTF-8"?>
<svg version="1.1" xmlns="http://www.w3.org/2000/svg" width="187" height="193">
<path d="M0 0 C16.83 0 33.66 0 51 0 C51 1.65 51 3.3 51 5 C54.3 5 57.6 5 61 5 C61 8.3 61 11.6 61 15 C67.6 15 74.2 15 81 15 C81 18.3 81 21.6 81 25 C82.65 25 84.3 25 86 25 C86 26.65 86 28.3 86 30 C87.65 30 89.3 30 91 30 C91 31.65 91 33.3 91 35 C92.65 35 94.3 35 96 35 C96 36.65 96 38.3 96 40 C97.65 40 99.3 40 101 40 C101 41.65 101 43.3 101 45 C102.65 45 104.3 45 106 45 C106 48.3 106 51.6 106 55 C107.65 55 109.3 55 111 55 C111 59.95 111 64.9 111 70 C112.65 70 114.3 70 116 70 C116 88.48 116 106.96 116 126 C114.35 126 112.7 126 111 126 C111 129.3 111 132.6 111 136 C109.35 136 107.7 136 106 136 C106 139.3 106 142.6 106 146 C104.35 146 102.7 146 101 146 C101 147.65 101 149.3 101 151 C99.35 151 97.7 151 96 151 C96 152.65 96 154.3 96 156 C94.35 156 92.7 156 91 156 C91 157.65 91 159.3 91 161 C89.35 161 87.7 161 86 161 C86 162.65 86 164.3 86 166 C84.35 166 82.7 166 81 166 C81 169.3 81 172.6 81 176 C77.7 176 74.4 176 71 176 C71 177.65 71 179.3 71 181 C69.35 181 67.7 181 66 181 C66 182.65 66 184.3 66 186 C61.05 186 56.1 186 51 186 C51 187.65 51 189.3 51 191 C34.17 191 17.34 191 0 191 C0 189.35 0 187.7 0 186 C-3.3 186 -6.6 186 -10 186 C-10 184.35 -10 182.7 -10 181 C-13.3 181 -16.6 181 -20 181 C-20 179.35 -20 177.7 -20 176 C-24.95 176 -29.9 176 -35 176 C-35 171.05 -35 166.1 -35 161 C-39.95 161 -44.9 161 -50 161 C-50 157.7 -50 154.4 -50 151 C-51.65 151 -53.3 151 -55 151 C-55 149.35 -55 147.7 -55 146 C-56.65 146 -58.3 146 -60 146 C-60 142.7 -60 139.4 -60 136 C-61.65 136 -63.3 136 -65 136 C-65 132.7 -65 129.4 -65 126 C-66.65 126 -68.3 126 -70 126 C-70 107.52 -70 89.04 -70 70 C-68.35 70 -66.7 70 -65 70 C-65 65.05 -65 60.1 -65 55 C-63.35 55 -61.7 55 -60 55 C-60 51.7 -60 48.4 -60 45 C-58.35 45 -56.7 45 -55 45 C-55 43.35 -55 41.7 -55 40 C-53.35 40 -51.7 40 -50 40 C-50 38.35 -50 36.7 -50 35 C-46.7 35 -43.4 35 -40 35 C-40 33.35 -40 31.7 -40 30 C-38.35 30 -36.7 30 -35 30 C-35 25.05 -35 20.1 -35 15 C-26.75 15 -18.5 15 -10 15 C-10 11.7 -10 8.4 -10 5 C-6.7 5 -3.4 5 0 5 C0 3.35 0 1.7 0 0 Z " fill="#36464E" transform="translate(70,0)"/>
<path d="M0 0 C16.17 0 32.34 0 49 0 C49 1.65 49 3.3 49 5 C52.3 5 55.6 5 59 5 C59 8.3 59 11.6 59 15 C65.6 15 72.2 15 79 15 C79 18.3 79 21.6 79 25 C80.65 25 82.3 25 84 25 C84 26.65 84 28.3 84 30 C85.65 30 87.3 30 89 30 C89 31.65 89 33.3 89 35 C90.65 35 92.3 35 94 35 C94 36.65 94 38.3 94 40 C95.65 40 97.3 40 99 40 C99 41.65 99 43.3 99 45 C100.65 45 102.3 45 104 45 C104 48.3 104 51.6 104 55 C105.65 55 107.3 55 109 55 C109 59.62 109 64.24 109 69 C104.05 69 99.1 69 94 69 C94 67.68 94 66.36 94 65 C89.05 64.67 84.1 64.34 79 64 C79 69.28 79 74.56 79 80 C75.7 80 72.4 80 69 80 C69 81.32 69 82.64 69 84 C65.7 84 62.4 84 59 84 C59 85.65 59 87.3 59 89 C55.7 89 52.4 89 49 89 C49 87.68 49 86.36 49 85 C47.68 85 46.36 85 45 85 C45 86.65 45 88.3 45 90 C40.05 90 35.1 90 30 90 C30 91.65 30 93.3 30 95 C23.07 95 16.14 95 9 95 C9 96.32 9 97.64 9 99 C6.03 99 3.06 99 0 99 C0 100.65 0 102.3 0 104 C-3.63 104 -7.26 104 -11 104 C-11 105.65 -11 107.3 -11 109 C-18.92 109 -26.84 109 -35 109 C-35 114.28 -35 119.56 -35 125 C-39.95 125 -44.9 125 -50 125 C-50 126.65 -50 128.3 -50 130 C-53.3 130 -56.6 130 -60 130 C-60 131.32 -60 132.64 -60 134 C-61.65 134 -63.3 134 -65 134 C-65 130.7 -65 127.4 -65 124 C-66.65 124 -68.3 124 -70 124 C-70 106.18 -70 88.36 -70 70 C-68.35 70 -66.7 70 -65 70 C-65 65.05 -65 60.1 -65 55 C-63.35 55 -61.7 55 -60 55 C-60 51.7 -60 48.4 -60 45 C-58.35 45 -56.7 45 -55 45 C-55 43.35 -55 41.7 -55 40 C-53.35 40 -51.7 40 -50 40 C-50 38.35 -50 36.7 -50 35 C-46.7 35 -43.4 35 -40 35 C-40 33.35 -40 31.7 -40 30 C-38.35 30 -36.7 30 -35 30 C-35 25.05 -35 20.1 -35 15 C-26.75 15 -18.5 15 -10 15 C-10 11.7 -10 8.4 -10 5 C-6.7 5 -3.4 5 0 5 C0 3.35 0 1.7 0 0 Z " fill="#5C7784" transform="translate(71,1)"/>
<path d="M0 0 C16.83 0 33.66 0 51 0 C51 1.65 51 3.3 51 5 C54.3 5 57.6 5 61 5 C61 8.3 61 11.6 61 15 C67.6 15 74.2 15 81 15 C81 18.3 81 21.6 81 25 C82.65 25 84.3 25 86 25 C86 26.65 86 28.3 86 30 C87.65 30 89.3 30 91 30 C91 31.65 91 33.3 91 35 C92.65 35 94.3 35 96 35 C96 36.65 96 38.3 96 40 C97.65 40 99.3 40 101 40 C101 41.65 101 43.3 101 45 C102.65 45 104.3 45 106 45 C106 48.3 106 51.6 106 55 C107.65 55 109.3 55 111 55 C111 59.95 111 64.9 111 70 C112.65 70 114.3 70 116 70 C116 88.48 116 106.96 116 126 C114.35 126 112.7 126 111 126 C111 129.3 111 132.6 111 136 C109.35 136 107.7 136 106 136 C106 139.3 106 142.6 106 146 C104.35 146 102.7 146 101 146 C101 147.65 101 149.3 101 151 C99.35 151 97.7 151 96 151 C96 152.65 96 154.3 96 156 C94.35 156 92.7 156 91 156 C91 157.65 91 159.3 91 161 C89.35 161 87.7 161 86 161 C86 162.65 86 164.3 86 166 C84.35 166 82.7 166 81 166 C81 169.3 81 172.6 81 176 C77.7 176 74.4 176 71 176 C71 177.65 71 179.3 71 181 C69.35 181 67.7 181 66 181 C66 182.65 66 184.3 66 186 C61.05 186 56.1 186 51 186 C51 187.65 51 189.3 51 191 C34.17 191 17.34 191 0 191 C0 189.35 0 187.7 0 186 C-3.3 186 -6.6 186 -10 186 C-10 184.35 -10 182.7 -10 181 C-13.3 181 -16.6 181 -20 181 C-20 179.35 -20 177.7 -20 176 C-24.95 176 -29.9 176 -35 176 C-35 171.05 -35 166.1 -35 161 C-39.95 161 -44.9 161 -50 161 C-50 157.7 -50 154.4 -50 151 C-51.65 151 -53.3 151 -55 151 C-55 149.35 -55 147.7 -55 146 C-56.65 146 -58.3 146 -60 146 C-60 142.7 -60 139.4 -60 136 C-61.65 136 -63.3 136 -65 136 C-65 132.7 -65 129.4 -65 126 C-66.65 126 -68.3 126 -70 126 C-70 107.52 -70 89.04 -70 70 C-68.35 70 -66.7 70 -65 70 C-65 65.05 -65 60.1 -65 55 C-63.35 55 -61.7 55 -60 55 C-60 51.7 -60 48.4 -60 45 C-58.35 45 -56.7 45 -55 45 C-55 43.35 -55 41.7 -55 40 C-53.35 40 -51.7 40 -50 40 C-50 38.35 -50 36.7 -50 35 C-46.7 35 -43.4 35 -40 35 C-40 33.35 -40 31.7 -40 30 C-38.35 30 -36.7 30 -35 30 C-35 25.05 -35 20.1 -35 15 C-26.75 15 -18.5 15 -10 15 C-10 11.7 -10 8.4 -10 5 C-6.7 5 -3.4 5 0 5 C0 3.35 0 1.7 0 0 Z M1 1 C1 2.65 1 4.3 1 6 C-2.3 6 -5.6 6 -9 6 C-9 9.3 -9 12.6 -9 16 C-17.25 16 -25.5 16 -34 16 C-34 20.95 -34 25.9 -34 31 C-35.65 31 -37.3 31 -39 31 C-39 32.65 -39 34.3 -39 36 C-42.3 36 -45.6 36 -49 36 C-49 37.65 -49 39.3 -49 41 C-50.65 41 -52.3 41 -54 41 C-54 42.65 -54 44.3 -54 46 C-55.65 46 -57.3 46 -59 46 C-59 49.3 -59 52.6 -59 56 C-60.65 56 -62.3 56 -64 56 C-64 60.95 -64 65.9 -64 71 C-65.65 71 -67.3 71 -69 71 C-69 88.82 -69 106.64 -69 125 C-67.35 125 -65.7 125 -64 125 C-64 128.3 -64 131.6 -64 135 C-62.35 135 -60.7 135 -59 135 C-59 138.3 -59 141.6 -59 145 C-57.35 145 -55.7 145 -54 145 C-54 146.65 -54 148.3 -54 150 C-52.35 150 -50.7 150 -49 150 C-49 153.3 -49 156.6 -49 160 C-44.05 160 -39.1 160 -34 160 C-34 161.65 -34 163.3 -34 165 C-21.13 165 -8.26 165 5 165 C5 162.03 5 159.06 5 156 C3.50256881 154.50256881 2.01175761 154.66797307 -0.0625 154.4375 C-1.361875 154.293125 -2.66125 154.14875 -4 154 C-4.33 153.01 -4.66 152.02 -5 151 C-9.62 151 -14.24 151 -19 151 C-19 149.02 -19 147.04 -19 145 C-15.7 145 -12.4 145 -9 145 C-9 143.35 -9 141.7 -9 140 C-10.65 140 -12.3 140 -14 140 C-14 138.35 -14 136.7 -14 135 C-10.7 135 -7.4 135 -4 135 C-4 139.95 -4 144.9 -4 150 C-0.7 150 2.6 150 6 150 C6 151.65 6 153.3 6 155 C7.65 155 9.3 155 11 155 C11 152.03 11 149.06 11 146 C12.32 146 13.64 146 15 146 C15.33 147.32 15.66 148.64 16 150 C20.95 150 25.9 150 31 150 C31 151.65 31 153.3 31 155 C32.11126659 156.33901792 32.11126659 156.33901792 34.94140625 156.09765625 C36.13636719 156.08605469 37.33132812 156.07445312 38.5625 156.0625 C40.35880859 156.04896484 40.35880859 156.04896484 42.19140625 156.03515625 C43.58166016 156.01775391 43.58166016 156.01775391 45 156 C45.33 157.32 45.66 158.64 46 160 C47.94603274 160.59070014 47.94603274 160.59070014 50 161 C51.29633621 159.93354885 51.29633621 159.93354885 51.0625 157.4375 C51.041875 156.633125 51.02125 155.82875 51 155 C49.35 155 47.7 155 46 155 C46 153.68 46 152.36 46 151 C47.65 150.67 49.3 150.34 51 150 C51 148.35 51 146.7 51 145 C39.45 145 27.9 145 16 145 C16 143.35 16 141.7 16 140 C30.52 140 45.04 140 60 140 C60 138.35 60 136.7 60 135 C64.95 135 69.9 135 75 135 C75 133.35 75 131.7 75 130 C76.65 130 78.3 130 80 130 C80 128.35 80 126.7 80 125 C81.65 125 83.3 125 85 125 C85 123.35 85 121.7 85 120 C86.65 120 88.3 120 90 120 C90 116.7 90 113.4 90 110 C91.65 110 93.3 110 95 110 C95 108.35 95 106.7 95 105 C96.65 105 98.3 105 100 105 C100 103.35 100 101.7 100 100 C96.7 100 93.4 100 90 100 C90 98.35 90 96.7 90 95 C93.63 95 97.26 95 101 95 C101 93.68 101 92.36 101 91 C103.97 91 106.94 91 110 91 C110 92.32 110 93.64 110 95 C108.35 95 106.7 95 105 95 C105 96.98 105 98.96 105 101 C106.65 101 108.3 101 110 101 C110 102.65 110 104.3 110 106 C111.65 106 113.3 106 115 106 C115 94.45 115 82.9 115 71 C113.35 71 111.7 71 110 71 C110 66.05 110 61.1 110 56 C108.35 56 106.7 56 105 56 C105 52.7 105 49.4 105 46 C103.35 46 101.7 46 100 46 C100 44.35 100 42.7 100 41 C98.35 41 96.7 41 95 41 C95 39.35 95 37.7 95 36 C93.35 36 91.7 36 90 36 C90 34.35 90 32.7 90 31 C88.35 31 86.7 31 85 31 C85 29.35 85 27.7 85 26 C83.35 26 81.7 26 80 26 C80 22.7 80 19.4 80 16 C73.4 16 66.8 16 60 16 C60 12.7 60 9.4 60 6 C56.7 6 53.4 6 50 6 C50 4.35 50 2.7 50 1 C33.83 1 17.66 1 1 1 Z " fill="#323E44" transform="translate(70,0)"/>
<path d="M0 0 C1.65 0 3.3 0 5 0 C5 2.97 5 5.94 5 9 C7.97 9 10.94 9 14 9 C14 7.35 14 5.7 14 4 C15.98 4 17.96 4 20 4 C20 5.65 20 7.3 20 9 C26.27 9 32.54 9 39 9 C39 7.35 39 5.7 39 4 C42.63 4 46.26 4 50 4 C50 5.65 50 7.3 50 9 C53.3 9 56.6 9 60 9 C60 10.98 60 12.96 60 15 C56.7 15 53.4 15 50 15 C50 16.32 50 17.64 50 19 C51.65 19 53.3 19 55 19 C55 20.98 55 22.96 55 25 C53.02 25 51.04 25 49 25 C49 23.35 49 21.7 49 20 C41.08 20 33.16 20 25 20 C25 24.95 25 29.9 25 35 C18.07 35 11.14 35 4 35 C4 26.75 4 18.5 4 10 C2.68 10 1.36 10 0 10 C0 14.95 0 19.9 0 25 C-3.3 25 -6.6 25 -10 25 C-10 32.92 -10 40.84 -10 49 C-6.7 49 -3.4 49 0 49 C0 52.63 0 56.26 0 60 C-3.3 60 -6.6 60 -10 60 C-10 61.65 -10 63.3 -10 65 C-13.63 65 -17.26 65 -21 65 C-21 61.37 -21 57.74 -21 54 C-19.35 54 -17.7 54 -16 54 C-16 49.38 -16 44.76 -16 40 C-17.32 40 -18.64 40 -20 40 C-20 43.3 -20 46.6 -20 50 C-21.65 50 -23.3 50 -25 50 C-25 56.27 -25 62.54 -25 69 C-23.35 69 -21.7 69 -20 69 C-20 72.3 -20 75.6 -20 79 C-18.35 79 -16.7 79 -15 79 C-15 82.63 -15 86.26 -15 90 C-16.65 90 -18.3 90 -20 90 C-20 91.65 -20 93.3 -20 95 C-23.3 94.67 -26.6 94.34 -30 94 C-30 76.18 -30 58.36 -30 40 C-28.35 40 -26.7 40 -25 40 C-25 35.05 -25 30.1 -25 25 C-23.35 25 -21.7 25 -20 25 C-20 21.7 -20 18.4 -20 15 C-18.35 15 -16.7 15 -15 15 C-15 13.35 -15 11.7 -15 10 C-13.35 10 -11.7 10 -10 10 C-10 8.35 -10 6.7 -10 5 C-6.7 5 -3.4 5 0 5 C0 3.35 0 1.7 0 0 Z " fill="#999C9E" transform="translate(31,31)"/>
<path d="M0 0 C4.95 0 9.9 0 15 0 C15 1.65 15 3.3 15 5 C16.32 5 17.64 5 19 5 C19 3.35 19 1.7 19 0 C22.63 0 26.26 0 30 0 C30 1.98 30 3.96 30 6 C26.7 6 23.4 6 20 6 C20 8.97 20 11.94 20 15 C26.6 15 33.2 15 40 15 C40 11.7 40 8.4 40 5 C42.97 5 45.94 5 49 5 C49 3.35 49 1.7 49 0 C50.98 0 52.96 0 55 0 C55 1.65 55 3.3 55 5 C53.35 5.33 51.7 5.66 50 6 C50 8.97 50 11.94 50 15 C48.02 15 46.04 15 44 15 C44 16.98 44 18.96 44 21 C47.3 21 50.6 21 54 21 C54 22.65 54 24.3 54 26 C51.03 26 48.06 26 45 26 C45 27.65 45 29.3 45 31 C28.17 31 11.34 31 -6 31 C-6 29.35 -6 27.7 -6 26 C-9.3 26 -12.6 26 -16 26 C-16 24.35 -16 22.7 -16 21 C-19.3 21 -22.6 21 -26 21 C-26 19.35 -26 17.7 -26 16 C-30.95 16 -35.9 16 -41 16 C-41 12.37 -41 8.74 -41 5 C-27.47 5 -13.94 5 0 5 C0 3.35 0 1.7 0 0 Z " fill="#000102" transform="translate(76,160)"/>
<path d="M0 0 C16.17 0 32.34 0 49 0 C49 1.65 49 3.3 49 5 C52.3 5 55.6 5 59 5 C59 8.3 59 11.6 59 15 C57.68 15 56.36 15 55 15 C55 18.3 55 21.6 55 25 C53.35 25 51.7 25 50 25 C50 26.65 50 28.3 50 30 C48.02 30 46.04 30 44 30 C44 31.32 44 32.64 44 34 C41.03 34 38.06 34 35 34 C35 32.68 35 31.36 35 30 C31.37 30 27.74 30 24 30 C24 28.02 24 26.04 24 24 C27.3 24 30.6 24 34 24 C34 21.03 34 18.06 34 15 C29.38 15 24.76 15 20 15 C20 18.3 20 21.6 20 25 C5.15 25 -9.7 25 -25 25 C-25 26.65 -25 28.3 -25 30 C-28.3 30 -31.6 30 -35 30 C-35 25.05 -35 20.1 -35 15 C-26.75 15 -18.5 15 -10 15 C-10 11.7 -10 8.4 -10 5 C-6.7 5 -3.4 5 0 5 C0 3.35 0 1.7 0 0 Z " fill="#999C9E" transform="translate(71,1)"/>
<path d="M0 0 C10.71428571 -0.14285714 10.71428571 -0.14285714 15 1 C15 2.32 15 3.64 15 5 C16.53720703 4.98259766 16.53720703 4.98259766 18.10546875 4.96484375 C19.466144 4.95545978 20.82682124 4.94636023 22.1875 4.9375 C22.86103516 4.92912109 23.53457031 4.92074219 24.22851562 4.91210938 C28.05323378 4.89345221 31.20288716 5.24057743 35 6 C35 17.55 35 29.1 35 41 C33.35 41 31.7 41 30 41 C30 39.35 30 37.7 30 36 C28.35 36 26.7 36 25 36 C25 34.02 25 32.04 25 30 C26.65 30 28.3 30 30 30 C30 28.68 30 27.36 30 26 C27.03 26 24.06 26 21 26 C21 27.32 21 28.64 21 30 C17.37 30 13.74 30 10 30 C10 31.65 10 33.3 10 35 C7.03 35 4.06 35 1 35 C1 33.35 1 31.7 1 30 C-0.98 30 -2.96 30 -5 30 C-5 31.65 -5 33.3 -5 35 C-6.65 35 -8.3 35 -10 35 C-10 36.65 -10 38.3 -10 40 C-21.22 40 -32.44 40 -44 40 C-44 38.68 -44 37.36 -44 36 C-39.38 35.67 -34.76 35.34 -30 35 C-30.495 33.02 -30.495 33.02 -31 31 C-35.29 31 -39.58 31 -44 31 C-44.33 32.32 -44.66 33.64 -45 35 C-49.455 35.495 -49.455 35.495 -54 36 C-54.33 37.32 -54.66 38.64 -55 40 C-57.97 40 -60.94 40 -64 40 C-64 38.68 -64 37.36 -64 36 C-65.98 36 -67.96 36 -70 36 C-70 37.32 -70 38.64 -70 40 C-72.97 40 -75.94 40 -79 40 C-79 38.35 -79 36.7 -79 35 C-76.03 35 -73.06 35 -70 35 C-70 33.68 -70 32.36 -70 31 C-63.07 31 -56.14 31 -49 31 C-49 29.35 -49 27.7 -49 26 C-44.05 26 -39.1 26 -34 26 C-34 24.35 -34 22.7 -34 21 C-32.68 21 -31.36 21 -30 21 C-30 22.32 -30 23.64 -30 25 C-26.7 25 -23.4 25 -20 25 C-20 23.35 -20 21.7 -20 20 C-16.7 20 -13.4 20 -10 20 C-10 18.68 -10 17.36 -10 16 C-6.7 16 -3.4 16 0 16 C0 10.72 0 5.44 0 0 Z " fill="#435661" transform="translate(150,65)"/>
<path d="M0 0 C3.3 0 6.6 0 10 0 C10 4.95 10 9.9 10 15 C13.3 15 16.6 15 20 15 C20 16.65 20 18.3 20 20 C21.65 20 23.3 20 25 20 C25 17.03 25 14.06 25 11 C26.32 11 27.64 11 29 11 C29.495 12.485 29.495 12.485 30 14 C34.95 14.33 39.9 14.66 45 15 C45.495 17.475 45.495 17.475 46 20 C47.37285156 20.03867188 47.37285156 20.03867188 48.7734375 20.078125 C49.96195313 20.13484375 51.15046875 20.1915625 52.375 20.25 C53.55835938 20.29640625 54.74171875 20.3428125 55.9609375 20.390625 C59 21 59 21 60.4140625 23.046875 C60.60742188 23.69140625 60.80078125 24.3359375 61 25 C61.99 25 62.98 25 64 25 C64.33 23.35 64.66 21.7 65 20 C63.35 20 61.7 20 60 20 C60 18.68 60 17.36 60 16 C61.32 15.67 62.64 15.34 64 15 C64.33 13.35 64.66 11.7 65 10 C53.45 10 41.9 10 30 10 C30 8.68 30 7.36 30 6 C44.52 6 59.04 6 74 6 C74 7.32 74 8.64 74 10 C80.6 10.33 87.2 10.66 94 11 C94 12.32 94 13.64 94 15 C90.7 15 87.4 15 84 15 C84 16.65 84 18.3 84 20 C79.05 20 74.1 20 69 20 C69 23.3 69 26.6 69 30 C66.03 30 63.06 30 60 30 C60 33.3 60 36.6 60 40 C53.4 40 46.8 40 40 40 C40 37.03 40 34.06 40 31 C43.3 31 46.6 31 50 31 C50 29.02 50 27.04 50 25 C46.37 25 42.74 25 39 25 C39 26.65 39 28.3 39 30 C37.68 30 36.36 30 35 30 C35 28.35 35 26.7 35 25 C30.05 25 25.1 25 20 25 C20 26.65 20 28.3 20 30 C19.67 30 19.34 30 19 30 C18.67 27.03 18.34 24.06 18 21 C15.36 20.67 12.72 20.34 10 20 C9.67 18.68 9.34 17.36 9 16 C4.38 16 -0.24 16 -5 16 C-5 14.02 -5 12.04 -5 10 C-1.7 10 1.6 10 5 10 C5 8.35 5 6.7 5 5 C3.35 5 1.7 5 0 5 C0 3.35 0 1.7 0 0 Z " fill="#253138" transform="translate(56,135)"/>
<path d="M0 0 C3.63 0 7.26 0 11 0 C11 0.33 11 0.66 11 1 C7.7 1 4.4 1 1 1 C1 2.65 1 4.3 1 6 C-2.3 6 -5.6 6 -9 6 C-9 13.92 -9 21.84 -9 30 C-7.68 30 -6.36 30 -5 30 C-5 31.65 -5 33.3 -5 35 C-6.65 35 -8.3 35 -10 35 C-10 38.63 -10 42.26 -10 46 C-12.97922593 46.02683987 -15.95821295 46.04676037 -18.9375 46.0625 C-20.21270508 46.07506836 -20.21270508 46.07506836 -21.51367188 46.08789062 C-22.32255859 46.09111328 -23.13144531 46.09433594 -23.96484375 46.09765625 C-24.7137085 46.10289307 -25.46257324 46.10812988 -26.23413086 46.11352539 C-28 46 -28 46 -29 45 C-29 43.35 -29 41.7 -29 40 C-32.3 40 -35.6 40 -39 40 C-39 41.65 -39 43.3 -39 45 C-40.65 45 -42.3 45 -44 45 C-44 43.35 -44 41.7 -44 40 C-45.65 40 -47.3 40 -49 40 C-49 35.38 -49 30.76 -49 26 C-45.7 26 -42.4 26 -39 26 C-39 24.35 -39 22.7 -39 21 C-34.05 21 -29.1 21 -24 21 C-24 15.72 -24 10.44 -24 5 C-16.08 5 -8.16 5 0 5 C0 3.35 0 1.7 0 0 Z " fill="#455863" transform="translate(60,105)"/>
<path d="M0 0 C1.32 0 2.64 0 4 0 C4 1.65 4 3.3 4 5 C3.01 5.33 2.02 5.66 1 6 C-0.20882096 8.00016466 -0.20882096 8.00016466 -1 10 C-2.32 10 -3.64 10 -5 10 C-5.33 11.65 -5.66 13.3 -6 15 C-8.97 15 -11.94 15 -15 15 C-15 17.97 -15 20.94 -15 24 C-19.95 24.33 -24.9 24.66 -30 25 C-30.33 26.32 -30.66 27.64 -31 29 C-34.3 29 -37.6 29 -41 29 C-41 30.65 -41 32.3 -41 34 C-45.62 34 -50.24 34 -55 34 C-55 35.65 -55 37.3 -55 39 C-58.3 39 -61.6 39 -65 39 C-65 37.35 -65 35.7 -65 34 C-69.95 34 -74.9 34 -80 34 C-80 32.68 -80 31.36 -80 30 C-68.78 30 -57.56 30 -46 30 C-46 28.35 -46 26.7 -46 25 C-48.97 24.67 -51.94 24.34 -55 24 C-55 20.7 -55 17.4 -55 14 C-42.13 14 -29.26 14 -16 14 C-16 12.35 -16 10.7 -16 9 C-12.7 9 -9.4 9 -6 9 C-6 7.35 -6 5.7 -6 4 C-4.02 4 -2.04 4 0 4 C0 2.68 0 1.36 0 0 Z " fill="#253138" transform="translate(146,96)"/>
<path d="M0 0 C1.32 0 2.64 0 4 0 C4 4.62 4 9.24 4 14 C5.65 14 7.3 14 9 14 C9 15.65 9 17.3 9 19 C7.35 19 5.7 19 4 19 C4 22.3 4 25.6 4 29 C2.68 29 1.36 29 0 29 C-0.33 25.7 -0.66 22.4 -1 19 C-2.65 19 -4.3 19 -6 19 C-6 20.65 -6 22.3 -6 24 C-7.65 24 -9.3 24 -11 24 C-11 25.65 -11 27.3 -11 29 C-7.7 29.33 -4.4 29.66 -1 30 C-1 31.32 -1 32.64 -1 34 C-2.65 34 -4.3 34 -6 34 C-6 35.65 -6 37.3 -6 39 C-8.97 39 -11.94 39 -15 39 C-15.495 36.525 -15.495 36.525 -16 34 C-22.27 34 -28.54 34 -35 34 C-35 32.68 -35 31.36 -35 30 C-30.38 29.67 -25.76 29.34 -21 29 C-20.67 27.68 -20.34 26.36 -20 25 C-18.68 24.67 -17.36 24.34 -16 24 C-15.67 22.68 -15.34 21.36 -15 20 C-13.68 19.67 -12.36 19.34 -11 19 C-10.67 17.68 -10.34 16.36 -10 15 C-8.68 14.67 -7.36 14.34 -6 14 C-5.67 11.03 -5.34 8.06 -5 5 C-3.68 4.67 -2.36 4.34 -1 4 C-0.67 2.68 -0.34 1.36 0 0 Z " fill="#253138" transform="translate(166,106)"/>
<path d="M0 0 C1 4 1 4 1 4 Z M-5 4 C-3.35 4 -1.7 4 0 4 C-1.32 4.33 -2.64 4.66 -4 5 C-4 7.97 -4 10.94 -4 14 C-4.33 14 -4.66 14 -5 14 C-5 10.7 -5 7.4 -5 4 Z M-10 14 C-8.35 14 -6.7 14 -5 14 C-6.32 14.33 -7.64 14.66 -9 15 C-9.33 16.32 -9.66 17.64 -10 19 C-10 17.35 -10 15.7 -10 14 Z M-15 19 C-13.35 19 -11.7 19 -10 19 C-11.32 19.33 -12.64 19.66 -14 20 C-14.33 21.32 -14.66 22.64 -15 24 C-15 22.35 -15 20.7 -15 19 Z M-5 19 C-3.35 19 -1.7 19 0 19 C1.60725635 22.21451269 1.05748185 25.43612536 1 29 C2.32 29.33 3.64 29.66 5 30 C3.68 30 2.36 30 1 30 C0.67 31.32 0.34 32.64 0 34 C0 32.68 0 31.36 0 30 C-1.27875 30.020625 -2.5575 30.04125 -3.875 30.0625 C-7.75 30.125 -7.75 30.125 -10 29 C-10 27.35 -10 25.7 -10 24 C-8.35 24 -6.7 24 -5 24 C-5 22.35 -5 20.7 -5 19 Z M5 19 C6.65 19 8.3 19 10 19 C8.68 19.33 7.36 19.66 6 20 C6 22.97 6 25.94 6 29 C5.67 29 5.34 29 5 29 C5 25.7 5 22.4 5 19 Z M-20 24 C-18.35 24 -16.7 24 -15 24 C-16.32 24.33 -17.64 24.66 -19 25 C-19.33 26.32 -19.66 27.64 -20 29 C-20 27.35 -20 25.7 -20 24 Z M-35 29 C-30.05 29 -25.1 29 -20 29 C-20 29.33 -20 29.66 -20 30 C-24.62 30 -29.24 30 -34 30 C-34 31.32 -34 32.64 -34 34 C-27.73 34 -21.46 34 -15 34 C-14.505 36.475 -14.505 36.475 -14 39 C-11.03 39 -8.06 39 -5 39 C-5 39.33 -5 39.66 -5 40 C-7.97 40 -10.94 40 -14 40 C-14.33 41.32 -14.66 42.64 -15 44 C-15 42.68 -15 41.36 -15 40 C-16.27617187 40.01160156 -17.55234375 40.02320313 -18.8671875 40.03515625 C-20.53645687 40.04453417 -22.20572783 40.05363437 -23.875 40.0625 C-25.13763672 40.07506836 -25.13763672 40.07506836 -26.42578125 40.08789062 C-27.23144531 40.09111328 -28.03710938 40.09433594 -28.8671875 40.09765625 C-29.61081543 40.10289307 -30.35444336 40.10812988 -31.12060547 40.11352539 C-33 40 -33 40 -35 39 C-35 37.68 -35 36.36 -35 35 C-49.52 35 -64.04 35 -79 35 C-79 34.67 -79 34.34 -79 34 C-64.48 34 -49.96 34 -35 34 C-35 32.35 -35 30.7 -35 29 Z M-5 34 C-3.35 34 -1.7 34 0 34 C-1.32 34.33 -2.64 34.66 -4 35 C-4.33 36.32 -4.66 37.64 -5 39 C-5 37.35 -5 35.7 -5 34 Z M-25 44 C-21.7 44 -18.4 44 -15 44 C-15 44.33 -15 44.66 -15 45 C-17.97 45 -20.94 45 -24 45 C-24.33 46.32 -24.66 47.64 -25 49 C-25 47.35 -25 45.7 -25 44 Z M-40 49 C-35.05 49 -30.1 49 -25 49 C-25 49.33 -25 49.66 -25 50 C-29.62 50 -34.24 50 -39 50 C-39.33 51.32 -39.66 52.64 -40 54 C-40 52.35 -40 50.7 -40 49 Z " fill="#2E3C43" transform="translate(165,106)"/>
<path d="M0 0 C0.33 0 0.66 0 1 0 C1 2.97 1 5.94 1 9 C3.97 9 6.94 9 10 9 C10 7.35 10 5.7 10 4 C11.98 4 13.96 4 16 4 C16 5.65 16 7.3 16 9 C22.27 9 28.54 9 35 9 C35 7.35 35 5.7 35 4 C38.63 4 42.26 4 46 4 C46 5.65 46 7.3 46 9 C49.3 9 52.6 9 56 9 C56 10.98 56 12.96 56 15 C52.7 15 49.4 15 46 15 C46 16.32 46 17.64 46 19 C47.65 19 49.3 19 51 19 C51 20.98 51 22.96 51 25 C49.02 25 47.04 25 45 25 C45 23.35 45 21.7 45 20 C37.08 20 29.16 20 21 20 C21 24.95 21 29.9 21 35 C14.07 35 7.14 35 0 35 C0 26.75 0 18.5 0 10 C-1.32 9.67 -2.64 9.34 -4 9 C-2.68 9 -1.36 9 0 9 C0 6.03 0 3.06 0 0 Z M11 5 C11 6.65 11 8.3 11 10 C7.7 10 4.4 10 1 10 C1 17.92 1 25.84 1 34 C7.27 34 13.54 34 20 34 C20.33 29.38 20.66 24.76 21 20 C28.92 19.67 36.84 19.34 45 19 C45 17.68 45 16.36 45 15 C43.35 15 41.7 15 40 15 C40.33 13.35 40.66 11.7 41 10 C42.32 9.67 43.64 9.34 45 9 C45 7.68 45 6.36 45 5 C42.03 5 39.06 5 36 5 C36 6.65 36 8.3 36 10 C29.07 10 22.14 10 15 10 C15 8.35 15 6.7 15 5 C13.68 5 12.36 5 11 5 Z " fill="#7D8B92" transform="translate(35,31)"/>
<path d="M0 0 C3.3 0 6.6 0 10 0 C10 1.65 10 3.3 10 5 C7.03 5 4.06 5 1 5 C0.67 6.65 0.34 8.3 0 10 C-4.62 10 -9.24 10 -14 10 C-14 11.32 -14 12.64 -14 14 C-17.3 14 -20.6 14 -24 14 C-24 12.35 -24 10.7 -24 9 C-21.03 9 -18.06 9 -15 9 C-15 7.35 -15 5.7 -15 4 C-10.05 4 -5.1 4 0 4 C0 2.68 0 1.36 0 0 Z " fill="#3B4B54" transform="translate(120,121)"/>
<path d="M0 0 C1.65 0 3.3 0 5 0 C5 3.63 5 7.26 5 11 C11.6 11 18.2 11 25 11 C25 12.32 25 13.64 25 15 C15.1 15 5.2 15 -5 15 C-5 13.35 -5 11.7 -5 10 C-3.68 10 -2.36 10 -1 10 C-1.01160156 9.36191406 -1.02320312 8.72382812 -1.03515625 8.06640625 C-1.04869141 6.82697266 -1.04869141 6.82697266 -1.0625 5.5625 C-1.07410156 4.73878906 -1.08570312 3.91507812 -1.09765625 3.06640625 C-1 1 -1 1 0 0 Z " fill="#43555F" transform="translate(71,110)"/>
<path d="M0 0 C0 3.3 0 6.6 0 10 C-6.27 10 -12.54 10 -19 10 C-19 7.03 -19 4.06 -19 1 C-12.60753173 0.27972188 -6.43111423 -0.10372765 0 0 Z " fill="#37454C" transform="translate(115,165)"/>
<path d="M0 0 C1.32 0 2.64 0 4 0 C4 1.65 4 3.3 4 5 C3.01 5.33 2.02 5.66 1 6 C-0.20882096 8.00016466 -0.20882096 8.00016466 -1 10 C-2.32 10 -3.64 10 -5 10 C-5.33 11.65 -5.66 13.3 -6 15 C-8.97 15 -11.94 15 -15 15 C-15 17.97 -15 20.94 -15 24 C-15.33 24 -15.66 24 -16 24 C-16 21.03 -16 18.06 -16 15 C-28.87 15 -41.74 15 -55 15 C-55 14.67 -55 14.34 -55 14 C-42.13 14 -29.26 14 -16 14 C-16 12.35 -16 10.7 -16 9 C-12.7 9 -9.4 9 -6 9 C-6 7.35 -6 5.7 -6 4 C-4.02 4 -2.04 4 0 4 C0 2.68 0 1.36 0 0 Z " fill="#2B3941" transform="translate(146,96)"/>
<path d="M0 0 C1 4 1 4 1 4 Z M-5 4 C-3.35 4 -1.7 4 0 4 C-1.32 4.33 -2.64 4.66 -4 5 C-4 7.97 -4 10.94 -4 14 C-4.33 14 -4.66 14 -5 14 C-5 10.7 -5 7.4 -5 4 Z M-10 14 C-8.35 14 -6.7 14 -5 14 C-6.32 14.33 -7.64 14.66 -9 15 C-9.33 16.32 -9.66 17.64 -10 19 C-10 17.35 -10 15.7 -10 14 Z M-15 19 C-13.35 19 -11.7 19 -10 19 C-11.32 19.33 -12.64 19.66 -14 20 C-14.33 21.32 -14.66 22.64 -15 24 C-15 22.35 -15 20.7 -15 19 Z M-20 24 C-18.35 24 -16.7 24 -15 24 C-16.32 24.33 -17.64 24.66 -19 25 C-19.33 26.32 -19.66 27.64 -20 29 C-20 27.35 -20 25.7 -20 24 Z M-35 29 C-30.05 29 -25.1 29 -20 29 C-20 29.33 -20 29.66 -20 30 C-24.62 30 -29.24 30 -34 30 C-34 31.32 -34 32.64 -34 34 C-27.73 34 -21.46 34 -15 34 C-15 34.33 -15 34.66 -15 35 C-21.27 35 -27.54 35 -34 35 C-34.33 36.32 -34.66 37.64 -35 39 C-35 37.68 -35 36.36 -35 35 C-49.52 35 -64.04 35 -79 35 C-79 34.67 -79 34.34 -79 34 C-64.48 34 -49.96 34 -35 34 C-35 32.35 -35 30.7 -35 29 Z " fill="#2C3A41" transform="translate(165,106)"/>
<path d="M0 0 C3.3 0 6.6 0 10 0 C10 1.98 10 3.96 10 6 C6.7 6 3.4 6 0 6 C0 7.32 0 8.64 0 10 C1.65 10 3.3 10 5 10 C5 11.98 5 13.96 5 16 C3.02 16 1.04 16 -1 16 C-1 14.35 -1 12.7 -1 11 C-8.92 11 -16.84 11 -25 11 C-25 10.67 -25 10.34 -25 10 C-17.08 10 -9.16 10 -1 10 C-0.67 6.7 -0.34 3.4 0 0 Z " fill="#818F96" transform="translate(81,40)"/>
<path d="M0 0 C2.5625718 -0.02710123 5.12485365 -0.04688771 7.6875 -0.0625 C8.40873047 -0.07087891 9.12996094 -0.07925781 9.87304688 -0.08789062 C13.71555382 -0.10543632 17.26639526 0.06475779 21 1 C21 2.65 21 4.3 21 6 C17.68751813 6.02888146 14.37506833 6.04675799 11.0625 6.0625 C10.11697266 6.07087891 9.17144531 6.07925781 8.19726562 6.08789062 C6.84858398 6.09272461 6.84858398 6.09272461 5.47265625 6.09765625 C4.22367554 6.10551147 4.22367554 6.10551147 2.94946289 6.11352539 C1 6 1 6 0 5 C-0.04063832 3.33382885 -0.042721 1.66611905 0 0 Z " fill="#8D979C" transform="translate(35,85)"/>
<path d="M0 0 C3.3 0 6.6 0 10 0 C10 3.63 10 7.26 10 11 C6.7 11 3.4 11 0 11 C0 7.37 0 3.74 0 0 Z " fill="#929A9C" transform="translate(36,70)"/>
<path d="M0 0 C2.97 0 5.94 0 9 0 C9 2.97 9 5.94 9 9 C7.35 9 5.7 9 4 9 C4 10.65 4 12.3 4 14 C2.02 14 0.04 14 -2 14 C-1.34 9.38 -0.68 4.76 0 0 Z " fill="#35474F" transform="translate(161,71)"/>
<path d="M0 0 C0.33 1.32 0.66 2.64 1 4 C12.55 4 24.1 4 36 4 C36 5.65 36 7.3 36 9 C35.505 7.02 35.505 7.02 35 5 C23.78 5 12.56 5 1 5 C0.67 5.99 0.34 6.98 0 8 C0 7.01 0 6.02 0 5 C-1.32 4.67 -2.64 4.34 -4 4 C-2.68 4 -1.36 4 0 4 C0 2.68 0 1.36 0 0 Z M30 9 C31.65 9 33.3 9 35 9 C33.68 9.33 32.36 9.66 31 10 C31 11.32 31 12.64 31 14 C32.65 14 34.3 14 36 14 C36 15.65 36 17.3 36 19 C34.125 19.625 34.125 19.625 32 20 C31.34 19.34 30.68 18.68 30 18 C30 17.01 30 16.02 30 15 C25.71 15 21.42 15 17 15 C17 14.67 17 14.34 17 14 C21.29 14 25.58 14 30 14 C30 12.35 30 10.7 30 9 Z " fill="#2F3D44" transform="translate(85,141)"/>
<path d="M0 0 C7.92 0 15.84 0 24 0 C24 1.32 24 2.64 24 4 C16.08 4 8.16 4 0 4 C0 2.68 0 1.36 0 0 Z " fill="#36464E" transform="translate(106,106)"/>
<path d="M0 0 C0.99 0 1.98 0 3 0 C3 5.28 3 10.56 3 16 C-1.95 16 -6.9 16 -12 16 C-12 17.65 -12 19.3 -12 21 C-15.3 21 -18.6 21 -22 21 C-22 20.67 -22 20.34 -22 20 C-19.03 20 -16.06 20 -13 20 C-13 18.35 -13 16.7 -13 15 C-8.05 15 -3.1 15 2 15 C2 13.35 2 11.7 2 10 C0.68 10 -0.64 10 -2 10 C-2.1953125 3.9453125 -2.1953125 3.9453125 -2 2 C-1.34 1.34 -0.68 0.68 0 0 Z " fill="#506772" transform="translate(33,110)"/>
<path d="M0 0 C2.97 0 5.94 0 9 0 C9 2.97 9 5.94 9 9 C6.03 9 3.06 9 0 9 C0 6.03 0 3.06 0 0 Z " fill="#35474F" transform="translate(36,111)"/>
<path d="M0 0 C3.63 0 7.26 0 11 0 C11 1.98 11 3.96 11 6 C7.7 6 4.4 6 1 6 C1 8.97 1 11.94 1 15 C0.67 15 0.34 15 0 15 C0 12.03 0 9.06 0 6 C-1.32 5.67 -2.64 5.34 -4 5 C-2.68 5 -1.36 5 0 5 C0 3.35 0 1.7 0 0 Z " fill="#192024" transform="translate(95,160)"/>
<path d="M0 0 C6.27 0 12.54 0 19 0 C19 1.32 19 2.64 19 4 C12.73 4 6.46 4 0 4 C0 2.68 0 1.36 0 0 Z " fill="#38464D" transform="translate(131,141)"/>
<path d="M0 0 C1.65 0 3.3 0 5 0 C5 3.3 5 6.6 5 10 C1.7 10 -1.6 10 -5 10 C-5 8.35 -5 6.7 -5 5 C-3.35 5 -1.7 5 0 5 C0 3.35 0 1.7 0 0 Z " fill="#35434A" transform="translate(160,125)"/>
<path d="M0 0 C1.65 0 3.3 0 5 0 C5 4.95 5 9.9 5 15 C3.35 15 1.7 15 0 15 C0 10.05 0 5.1 0 0 Z " fill="#445660" transform="translate(56,120)"/>
<path d="M0 0 C1.65 0 3.3 0 5 0 C5 4.95 5 9.9 5 15 C3.35 15 1.7 15 0 15 C0 10.05 0 5.1 0 0 Z " fill="#5E7884" transform="translate(180,71)"/>
<path d="M0 0 C4.29 0 8.58 0 13 0 C13.33 1.65 13.66 3.3 14 5 C9.38 5 4.76 5 0 5 C0 3.35 0 1.7 0 0 Z " fill="#364751" transform="translate(106,95)"/>
<path d="M0 0 C1.98 0 3.96 0 6 0 C6 1.65 6 3.3 6 5 C5.505 3.02 5.505 3.02 5 1 C3.68 1 2.36 1 1 1 C1 2.65 1 4.3 1 6 C-3.95 6 -8.9 6 -14 6 C-14 7.65 -14 9.3 -14 11 C-20.6 11 -27.2 11 -34 11 C-34 10.67 -34 10.34 -34 10 C-30.7 9.67 -27.4 9.34 -24 9 C-24 8.01 -24 7.02 -24 6 C-22.68 6 -21.36 6 -20 6 C-20 7.32 -20 8.64 -20 10 C-18.35 10 -16.7 10 -15 10 C-15 8.35 -15 6.7 -15 5 C-10.05 5 -5.1 5 0 5 C0 3.35 0 1.7 0 0 Z " fill="#506874" transform="translate(115,85)"/>
<path d="M0 0 C3.3 0.33 6.6 0.66 10 1 C10 2.65 10 4.3 10 6 C8.68 6 7.36 6 6 6 C6 8.97 6 11.94 6 15 C5.67 15 5.34 15 5 15 C5 12.03 5 9.06 5 6 C3.35 6 1.7 6 0 6 C0 4.02 0 2.04 0 0 Z " fill="#3B515B" transform="translate(155,65)"/>
<path d="M0 0 C4.62 0 9.24 0 14 0 C14 1.32 14 2.64 14 4 C9.38 4 4.76 4 0 4 C0 2.68 0 1.36 0 0 Z " fill="#475962" transform="translate(106,126)"/>
<path d="M0 0 C0.33 1.32 0.66 2.64 1 4 C3.97 4 6.94 4 10 4 C10.33 2.68 10.66 1.36 11 0 C10.67 2.97 10.34 5.94 10 9 C7.03 9 4.06 9 1 9 C0.67 6.03 0.34 3.06 0 0 Z " fill="#6C818B" transform="translate(105,31)"/>
<path d="M0 0 C3.3 0 6.6 0 10 0 C10 4.95 10 9.9 10 15 C12.97 15 15.94 15 19 15 C19 15.33 19 15.66 19 16 C16.03 16 13.06 16 10 16 C9.67 16.99 9.34 17.98 9 19 C9 18.01 9 17.02 9 16 C4.38 16 -0.24 16 -5 16 C-5 15.67 -5 15.34 -5 15 C-0.38 15 4.24 15 9 15 C9 10.38 9 5.76 9 1 C6.03 1 3.06 1 0 1 C0 0.67 0 0.34 0 0 Z " fill="#2D3C43" transform="translate(56,135)"/>
<path d="M0 0 C0.33 0 0.66 0 1 0 C0.67 2.97 0.34 5.94 0 9 C-2.97 9 -5.94 9 -9 9 C-9 7.35 -9 5.7 -9 4 C-6.03 4 -3.06 4 0 4 C0 2.68 0 1.36 0 0 Z " fill="#485D68" transform="translate(80,96)"/>
<path d="M0 0 C2.97 0 5.94 0 9 0 C9 1.65 9 3.3 9 5 C5.7 5 2.4 5 -1 5 C-0.67 3.35 -0.34 1.7 0 0 Z " fill="#384750" transform="translate(131,100)"/>
<path d="M0 0 C1.98 0 3.96 0 6 0 C6 1.65 6 3.3 6 5 C4.35 5.33 2.7 5.66 1 6 C1 8.97 1 11.94 1 15 C0.67 15 0.34 15 0 15 C0 10.05 0 5.1 0 0 Z " fill="#10171B" transform="translate(125,160)"/>
<path d="M0 0 C3.3 0 6.6 0 10 0 C10 1.32 10 2.64 10 4 C6.7 4 3.4 4 0 4 C0 2.68 0 1.36 0 0 Z " fill="#455660" transform="translate(160,101)"/>
<path d="M0 0 C0.99 0.33 1.98 0.66 3 1 C2.67 3.97 2.34 6.94 2 10 C0.68 10 -0.64 10 -2 10 C-2.1953125 3.9453125 -2.1953125 3.9453125 -2 2 C-1.34 1.34 -0.68 0.68 0 0 Z " fill="#546E79" transform="translate(33,110)"/>
<path d="M0 0 C0.33 0 0.66 0 1 0 C1.02689216 1.47906892 1.04634621 2.95827483 1.0625 4.4375 C1.07410156 5.26121094 1.08570312 6.08492187 1.09765625 6.93359375 C1 9 1 9 0 10 C-1.66617115 10.04063832 -3.33388095 10.042721 -5 10 C-5 8.35 -5 6.7 -5 5 C-3.35 4.67 -1.7 4.34 0 4 C0 2.68 0 1.36 0 0 Z " fill="#77858C" transform="translate(80,36)"/>
<path d="M0 0 C2.97 0 5.94 0 9 0 C9 1.32 9 2.64 9 4 C6.03 4 3.06 4 0 4 C0 2.68 0 1.36 0 0 Z " fill="#000204" transform="translate(96,161)"/>
<path d="M0 0 C2.97 0 5.94 0 9 0 C9 1.32 9 2.64 9 4 C6.03 4 3.06 4 0 4 C0 2.68 0 1.36 0 0 Z " fill="#465961" transform="translate(96,131)"/>
<path d="M0 0 C2.97 0 5.94 0 9 0 C9 1.32 9 2.64 9 4 C6.03 4 3.06 4 0 4 C0 2.68 0 1.36 0 0 Z " fill="#465962" transform="translate(121,121)"/>
<path d="M0 0 C1.32 0 2.64 0 4 0 C4 2.97 4 5.94 4 9 C2.68 9 1.36 9 0 9 C0 6.03 0 3.06 0 0 Z " fill="#465862" transform="translate(141,111)"/>
<path d="M0 0 C2.97 0 5.94 0 9 0 C9 1.32 9 2.64 9 4 C6.03 4 3.06 4 0 4 C0 2.68 0 1.36 0 0 Z " fill="#253239" transform="translate(131,106)"/>
<path d="M0 0 C2.97 0 5.94 0 9 0 C9 1.32 9 2.64 9 4 C6.03 4 3.06 4 0 4 C0 2.68 0 1.36 0 0 Z " fill="#42555F" transform="translate(96,106)"/>
<path d="M0 0 C2.97 0 5.94 0 9 0 C9 1.32 9 2.64 9 4 C6.03 4 3.06 4 0 4 C0 2.68 0 1.36 0 0 Z " fill="#35474F" transform="translate(96,101)"/>
<path d="M0 0 C2.97 0 5.94 0 9 0 C9 1.32 9 2.64 9 4 C6.03 4 3.06 4 0 4 C0 2.68 0 1.36 0 0 Z " fill="#24313A" transform="translate(161,96)"/>
<path d="M0 0 C2.97 0 5.94 0 9 0 C9 1.32 9 2.64 9 4 C6.03 4 3.06 4 0 4 C0 2.68 0 1.36 0 0 Z " fill="#989EA2" transform="translate(81,41)"/>
<path d="M0 0 C1.98 0 3.96 0 6 0 C6 1.98 6 3.96 6 6 C4.02 6 2.04 6 0 6 C0 4.02 0 2.04 0 0 Z " fill="#86949D" transform="translate(85,30)"/>
<path d="M0 0 C1.32 0 2.64 0 4 0 C4 2.64 4 5.28 4 8 C2.68 8.33 1.36 8.66 0 9 C0 6.03 0 3.06 0 0 Z " fill="#546E78" transform="translate(31,71)"/>
<path d="M0 0 C2.64 0 5.28 0 8 0 C8 1.32 8 2.64 8 4 C5.03 4 2.06 4 -1 4 C-0.67 2.68 -0.34 1.36 0 0 Z " fill="#526F7B" transform="translate(67,66)"/>
<path d="M0 0 C4.62 0 9.24 0 14 0 C14 0.33 14 0.66 14 1 C10.7 1 7.4 1 4 1 C4 2.32 4 3.64 4 5 C2.68 5 1.36 5 0 5 C0 3.35 0 1.7 0 0 Z " fill="#536C77" transform="translate(136,80)"/>
<path d="M0 0 C1.65 0 3.3 0 5 0 C4.67 1.65 4.34 3.3 4 5 C2.68 5 1.36 5 0 5 C0 3.35 0 1.7 0 0 Z " fill="#354951" transform="translate(131,86)"/>
<path d="M0 0 C1.98 0 3.96 0 6 0 C5.67 1.65 5.34 3.3 5 5 C2.5 3.625 2.5 3.625 0 2 C0 1.34 0 0.68 0 0 Z " fill="#364852" transform="translate(120,91)"/>
<path d="M0 0 C0 1.65 0 3.3 0 5 C-1.65 5 -3.3 5 -5 5 C-5 3.68 -5 2.36 -5 1 C-1.125 0 -1.125 0 0 0 Z " fill="#576E79" transform="translate(56,80)"/>
<path d="M0 0 C1.32 0 2.64 0 4 0 C4 1.65 4 3.3 4 5 C2.68 5 1.36 5 0 5 C0 3.35 0 1.7 0 0 Z " fill="#384247" transform="translate(91,160)"/>
</svg>
