<svg width="41" height="42" viewBox="0 0 41 42" fill="none" xmlns="http://www.w3.org/2000/svg">
<g clip-path="url(#clip0_559_13587)">
<rect width="2.5625" height="2.5625" transform="matrix(-1 0 0 1 12.8125 28.6875)" fill="black"/>
<rect width="2.5625" height="2.5625" transform="matrix(-1 0 0 1 33.3125 23.5625)" fill="black"/>
<rect width="2.5625" height="2.5625" transform="matrix(-1 0 0 1 10.25 23.5625)" fill="black"/>
<rect width="2.5625" height="2.5625" transform="matrix(-1 0 0 1 10.25 26.125)" fill="black"/>
<rect width="2.5625" height="2.5625" transform="matrix(-1 0 0 1 12.8125 31.25)" fill="black"/>
<rect width="2.5625" height="2.5625" transform="matrix(-1 0 0 1 15.375 33.8125)" fill="black"/>
<rect width="2.5625" height="2.5625" transform="matrix(-1 0 0 1 33.3125 13.3125)" fill="black"/>
<rect width="2.5625" height="2.5625" transform="matrix(-1 0 0 1 30.75 8.1875)" fill="black"/>
<rect width="2.5625" height="2.5625" transform="matrix(-1 0 0 1 28.1875 5.625)" fill="black"/>
<rect width="2.5625" height="2.5625" transform="matrix(-1 0 0 1 25.625 5.625)" fill="black"/>
<rect width="2.5625" height="2.5625" transform="matrix(-1 0 0 1 17.9375 0.5)" fill="black"/>
<rect width="2.5625" height="2.5625" transform="matrix(-1 0 0 1 12.8125 3.0625)" fill="black"/>
<rect width="2.5625" height="2.5625" transform="matrix(-1 0 0 1 35.875 23.5625)" fill="black"/>
<rect width="2.5625" height="2.5625" transform="matrix(-1 0 0 1 35.875 15.875)" fill="black"/>
<rect width="2.5625" height="2.5625" transform="matrix(-1 0 0 1 35.875 18.4375)" fill="black"/>
<rect width="2.5625" height="2.5625" transform="matrix(-1 0 0 1 35.875 21)" fill="black"/>
<rect width="2.5625" height="2.5625" transform="matrix(-1 0 0 1 33.3125 10.75)" fill="black"/>
<rect width="2.5625" height="2.5625" transform="matrix(-1 0 0 1 20.5 21)" fill="black"/>
<rect width="2.5625" height="2.5625" transform="matrix(-1 0 0 1 17.9375 23.5625)" fill="black"/>
<rect width="2.5625" height="2.5625" transform="matrix(-1 0 0 1 20.5 28.6875)" fill="black"/>
<rect width="2.5625" height="2.5625" transform="matrix(-1 0 0 1 20.5 38.9375)" fill="black"/>
<rect width="2.5625" height="2.5625" transform="matrix(-1 0 0 1 30.75 28.6875)" fill="black"/>
<rect width="2.5625" height="2.5625" transform="matrix(-1 0 0 1 33.3125 26.125)" fill="black"/>
<rect width="2.5625" height="2.5625" transform="matrix(-1 0 0 1 23.0625 0.5)" fill="black"/>
<rect width="2.5625" height="2.5625" transform="matrix(-1 0 0 1 23.0625 3.0625)" fill="black"/>
<rect width="2.5625" height="2.5625" transform="matrix(-1 0 0 1 25.625 10.75)" fill="black"/>
<rect width="2.5625" height="2.5625" transform="matrix(-1 0 0 1 15.375 10.75)" fill="black"/>
<rect width="2.5625" height="2.5625" transform="matrix(-1 0 0 1 15.375 15.875)" fill="black"/>
<rect width="2.5625" height="2.5625" transform="matrix(-1 0 0 1 25.625 15.875)" fill="black"/>
<rect width="2.5625" height="2.5625" transform="matrix(-1 0 0 1 23.0625 28.6875)" fill="black"/>
<rect width="2.5625" height="2.5625" transform="matrix(-1 0 0 1 25.625 26.125)" fill="black"/>
<rect width="2.5625" height="2.5625" transform="matrix(-1 0 0 1 25.625 33.8125)" fill="black"/>
<rect width="2.5625" height="2.5625" transform="matrix(-1 0 0 1 28.1875 31.25)" fill="black"/>
<rect width="2.5625" height="2.5625" transform="matrix(-1 0 0 1 25.625 38.9375)" fill="black"/>
<rect width="2.5625" height="2.5625" transform="matrix(-1 0 0 1 15.375 38.9375)" fill="black"/>
<rect width="2.5625" height="2.5625" transform="matrix(-1 0 0 1 12.8125 36.375)" fill="black"/>
<rect width="2.5625" height="2.5625" transform="matrix(-1 0 0 1 17.9375 21)" fill="black"/>
<rect width="2.5625" height="2.5625" transform="matrix(-1 0 0 1 41 21)" fill="black"/>
<rect width="2.5625" height="2.5625" transform="matrix(-1 0 0 1 41 18.4375)" fill="black"/>
<rect width="2.5625" height="2.5625" transform="matrix(-1 0 0 1 41 15.875)" fill="black"/>
<rect width="2.5625" height="2.5625" transform="matrix(-1 0 0 1 41 23.5625)" fill="black"/>
<rect width="2.5625" height="2.5625" transform="matrix(-1 0 0 1 41 13.3125)" fill="black"/>
<rect width="2.5625" height="2.5625" transform="matrix(-1 0 0 1 41 26.125)" fill="black"/>
<rect width="2.5625" height="2.5625" transform="matrix(-1 0 0 1 38.4375 28.6875)" fill="black"/>
<rect width="2.5625" height="2.5625" transform="matrix(-1 0 0 1 38.4375 31.25)" fill="black"/>
<rect width="2.5625" height="2.5625" transform="matrix(-1 0 0 1 35.875 33.8125)" fill="black"/>
<rect width="2.5625" height="2.5625" transform="matrix(-1 0 0 1 38.4375 10.75)" fill="black"/>
<rect width="2.5625" height="2.5625" transform="matrix(-1 0 0 1 38.4375 8.1875)" fill="black"/>
<rect width="2.5625" height="2.5625" transform="matrix(-1 0 0 1 35.875 5.625)" fill="black"/>
<rect width="2.5625" height="2.5625" transform="matrix(-1 0 0 1 33.3125 3.0625)" fill="black"/>
<rect width="2.5625" height="2.5625" transform="matrix(-1 0 0 1 30.75 3.0625)" fill="black"/>
<rect width="2.5625" height="2.5625" transform="matrix(-1 0 0 1 33.3125 36.375)" fill="black"/>
<rect width="2.5625" height="2.5625" transform="matrix(-1 0 0 1 30.75 36.375)" fill="black"/>
<rect width="2.5625" height="2.5625" transform="matrix(-1 0 0 1 28.1875 38.9375)" fill="black"/>
<rect width="2.5625" height="2.5625" transform="matrix(-1 0 0 1 23.0625 38.9375)" fill="black"/>
<rect width="2.5625" height="2.5625" transform="matrix(-1 0 0 1 17.9375 38.9375)" fill="black"/>
<rect width="2.5625" height="2.5625" transform="matrix(-1 0 0 1 28.1875 0.5)" fill="black"/>
<rect width="2.5625" height="2.5625" transform="matrix(-1 0 0 1 25.625 0.5)" fill="black"/>
<rect width="2.5625" height="2.5625" transform="matrix(-1 0 0 1 20.5 0.5)" fill="black"/>
<rect width="2.5625" height="2.5625" transform="matrix(-1 0 0 1 15.375 0.5)" fill="black"/>
<rect width="2.5625" height="2.5625" transform="matrix(-1 0 0 1 10.25 3.0625)" fill="black"/>
<rect width="2.5625" height="2.5625" transform="matrix(-1 0 0 1 7.6875 5.625)" fill="black"/>
<rect width="2.5625" height="2.5625" transform="matrix(-1 0 0 1 5.125 8.1875)" fill="black"/>
<rect width="2.5625" height="2.5625" transform="matrix(-1 0 0 1 5.125 10.75)" fill="black"/>
<rect width="2.5625" height="2.5625" transform="matrix(-1 0 0 1 2.5625 13.3125)" fill="black"/>
<rect width="2.5625" height="2.5625" transform="matrix(-1 0 0 1 2.5625 15.875)" fill="black"/>
<rect width="2.5625" height="2.5625" transform="matrix(-1 0 0 1 2.5625 18.4375)" fill="black"/>
<rect width="2.5625" height="2.5625" transform="matrix(-1 0 0 1 2.5625 21)" fill="black"/>
<rect width="2.5625" height="2.5625" transform="matrix(-1 0 0 1 2.5625 23.5625)" fill="black"/>
<rect width="2.5625" height="2.5625" transform="matrix(-1 0 0 1 2.5625 26.125)" fill="black"/>
<rect width="2.5625" height="2.5625" transform="matrix(-1 0 0 1 5.125 28.6875)" fill="black"/>
<rect width="2.5625" height="2.5625" transform="matrix(-1 0 0 1 5.125 31.25)" fill="black"/>
<rect width="2.5625" height="2.5625" transform="matrix(-1 0 0 1 7.6875 33.8125)" fill="black"/>
<rect width="2.5625" height="2.5625" transform="matrix(-1 0 0 1 10.25 36.375)" fill="black"/>
<rect width="2.5625" height="2.5625" transform="matrix(-1 0 0 1 20.5 5.625)" fill="#FFBB00"/>
<rect width="2.5625" height="2.5625" transform="matrix(-1 0 0 1 17.9375 3.0625)" fill="black"/>
<rect width="2.5625" height="2.5625" transform="matrix(-1 0 0 1 15.375 5.625)" fill="#FFBB00"/>
<rect width="2.5625" height="2.5625" transform="matrix(-1 0 0 1 38.4375 33.8125)" fill="black"/>
<rect width="2.5625" height="2.5625" transform="matrix(-1 0 0 1 38.4375 36.375)" fill="black"/>
<rect width="2.5625" height="2.5625" transform="matrix(-1 0 0 1 5.125 33.8125)" fill="black"/>
<rect width="2.5625" height="2.5625" transform="matrix(-1 0 0 1 5.125 36.375)" fill="black"/>
<rect width="2.5625" height="2.5625" transform="matrix(-1 0 0 1 35.875 31.25)" fill="black"/>
<rect width="2.5625" height="2.5625" transform="matrix(-1 0 0 1 30.75 31.25)" fill="black"/>
<rect width="2.5625" height="2.5625" transform="matrix(-1 0 0 1 33.3125 31.25)" fill="black"/>
<rect width="2.5625" height="2.5625" transform="matrix(-1 0 0 1 28.1875 33.8125)" fill="black"/>
<rect width="2.5625" height="2.5625" transform="matrix(-1 0 0 1 10.25 31.25)" fill="black"/>
<rect width="2.5625" height="2.5625" transform="matrix(-1 0 0 1 7.6875 31.25)" fill="black"/>
<rect width="2.5625" height="2.5625" transform="matrix(-1 0 0 1 23.0625 33.8125)" fill="black"/>
<rect width="2.5625" height="2.5625" transform="matrix(-1 0 0 1 20.5 33.8125)" fill="black"/>
<rect width="2.5625" height="2.5625" transform="matrix(-1 0 0 1 17.9375 33.8125)" fill="black"/>
<rect width="2.5625" height="2.5625" transform="matrix(-1 0 0 1 7.6875 21)" fill="black"/>
<rect width="2.5625" height="2.5625" transform="matrix(-1 0 0 1 7.6875 18.4375)" fill="black"/>
<rect width="2.5625" height="2.5625" transform="matrix(-1 0 0 1 7.6875 15.875)" fill="black"/>
<rect width="2.5625" height="2.5625" transform="matrix(-1 0 0 1 30.75 38.9375)" fill="#FF8B00"/>
<rect width="2.5625" height="2.5625" transform="matrix(-1 0 0 1 33.3125 38.9375)" fill="#FF8B00"/>
<rect width="2.5625" height="2.5625" transform="matrix(-1 0 0 1 35.875 36.375)" fill="#FF8B00"/>
<rect width="2.5625" height="2.5625" transform="matrix(-1 0 0 1 12.8125 38.9375)" fill="#FF8B00"/>
<rect width="2.5625" height="2.5625" transform="matrix(-1 0 0 1 10.25 38.9375)" fill="#FF8B00"/>
<rect width="2.5625" height="2.5625" transform="matrix(-1 0 0 1 7.6875 36.375)" fill="#FF8B00"/>
<rect width="2.5625" height="2.5625" transform="matrix(-1 0 0 1 30.75 33.8125)" fill="black"/>
<rect width="2.5625" height="2.5625" transform="matrix(-1 0 0 1 33.3125 33.8125)" fill="#C3C3C3"/>
<rect width="2.5625" height="2.5625" transform="matrix(-1 0 0 1 25.625 36.375)" fill="black"/>
<rect width="2.5625" height="2.5625" transform="matrix(-1 0 0 1 23.0625 36.375)" fill="#C3C3C3"/>
<rect width="2.5625" height="2.5625" transform="matrix(-1 0 0 1 20.5 36.375)" fill="#C3C3C3"/>
<rect width="2.5625" height="2.5625" transform="matrix(-1 0 0 1 17.9375 36.375)" fill="#C3C3C3"/>
<rect width="2.5625" height="2.5625" transform="matrix(-1 0 0 1 15.375 36.375)" fill="#C3C3C3"/>
<rect width="2.5625" height="2.5625" transform="matrix(-1 0 0 1 28.1875 36.375)" fill="#C3C3C3"/>
<rect width="2.5625" height="2.5625" transform="matrix(-1 0 0 1 12.8125 33.8125)" fill="#C3C3C3"/>
<rect width="2.5625" height="2.5625" transform="matrix(-1 0 0 1 10.25 33.8125)" fill="#C3C3C3"/>
<rect width="2.5625" height="2.5625" transform="matrix(-1 0 0 1 38.4375 38.9375)" fill="#FF8B00"/>
<rect width="2.5625" height="2.5625" transform="matrix(-1 0 0 1 41 38.9375)" fill="black"/>
<rect width="2.5625" height="2.5625" transform="matrix(-1 0 0 1 5.125 38.9375)" fill="#FF8B00"/>
<rect width="2.5625" height="2.5625" transform="matrix(-1 0 0 1 2.5625 38.9375)" fill="black"/>
<rect width="2.5625" height="2.5625" transform="matrix(-1 0 0 1 35.875 38.9375)" fill="#FF8B00"/>
<rect width="2.5625" height="2.5625" transform="matrix(-1 0 0 1 7.6875 38.9375)" fill="#FF8B00"/>
<rect width="2.5625" height="2.5625" transform="matrix(-1 0 0 1 38.4375 15.875)" fill="#B0DCF7"/>
<rect width="2.5625" height="2.5625" transform="matrix(-1 0 0 1 38.4375 18.4375)" fill="#B0DCF7"/>
<rect width="2.5625" height="2.5625" transform="matrix(-1 0 0 1 38.4375 21)" fill="#B0DCF7"/>
<rect width="2.5625" height="2.5625" transform="matrix(-1 0 0 1 38.4375 23.5625)" fill="#B0DCF7"/>
<rect width="2.5625" height="2.5625" transform="matrix(-1 0 0 1 38.4375 26.125)" fill="#B0DCF7"/>
<rect width="2.5625" height="2.5625" transform="matrix(-1 0 0 1 35.875 26.125)" fill="#B0DCF7"/>
<rect width="2.5625" height="2.5625" transform="matrix(-1 0 0 1 35.875 28.6875)" fill="#B0DCF7"/>
<rect width="2.5625" height="2.5625" transform="matrix(-1 0 0 1 33.3125 28.6875)" fill="#B0DCF7"/>
<rect width="2.5625" height="2.5625" transform="matrix(-1 0 0 1 35.875 13.3125)" fill="#B0DCF7"/>
<rect width="2.5625" height="2.5625" transform="matrix(-1 0 0 1 38.4375 13.3125)" fill="#B0DCF7"/>
<rect width="2.5625" height="2.5625" transform="matrix(-1 0 0 1 35.875 10.75)" fill="#B0DCF7"/>
<rect width="2.5625" height="2.5625" transform="matrix(-1 0 0 1 33.3125 8.1875)" fill="#B0DCF7"/>
<rect width="2.5625" height="2.5625" transform="matrix(-1 0 0 1 35.875 8.1875)" fill="#B0DCF7"/>
<rect width="2.5625" height="2.5625" transform="matrix(-1 0 0 1 30.75 5.625)" fill="#B0DCF7"/>
<rect width="2.5625" height="2.5625" transform="matrix(-1 0 0 1 33.3125 5.625)" fill="#B0DCF7"/>
<rect width="2.5625" height="2.5625" transform="matrix(-1 0 0 1 28.1875 3.0625)" fill="#B0DCF7"/>
<rect width="2.5625" height="2.5625" transform="matrix(-1 0 0 1 25.625 3.0625)" fill="#B0DCF7"/>
<rect width="2.5625" height="2.5625" transform="matrix(-1 0 0 1 20.5 3.0625)" fill="#FFBB00"/>
<rect width="2.5625" height="2.5625" transform="matrix(-1 0 0 1 15.375 3.0625)" fill="#FFBB00"/>
<rect width="2.5625" height="2.5625" transform="matrix(-1 0 0 1 10.25 5.625)" fill="#B0DCF7"/>
<rect width="2.5625" height="2.5625" transform="matrix(-1 0 0 1 7.6875 10.75)" fill="#B0DCF7"/>
<rect width="2.5625" height="2.5625" transform="matrix(-1 0 0 1 7.6875 8.1875)" fill="#B0DCF7"/>
<rect width="2.5625" height="2.5625" transform="matrix(-1 0 0 1 7.6875 13.3125)" fill="#B0DCF7"/>
<rect width="2.5625" height="2.5625" transform="matrix(-1 0 0 1 5.125 13.3125)" fill="#B0DCF7"/>
<rect width="2.5625" height="2.5625" transform="matrix(-1 0 0 1 5.125 15.875)" fill="#B0DCF7"/>
<rect width="2.5625" height="2.5625" transform="matrix(-1 0 0 1 5.125 18.4375)" fill="#B0DCF7"/>
<rect width="2.5625" height="2.5625" transform="matrix(-1 0 0 1 5.125 21)" fill="#B0DCF7"/>
<rect width="2.5625" height="2.5625" transform="matrix(-1 0 0 1 5.125 23.5625)" fill="#B0DCF7"/>
<rect width="2.5625" height="2.5625" transform="matrix(-1 0 0 1 5.125 26.125)" fill="#B0DCF7"/>
<rect width="2.5625" height="2.5625" transform="matrix(-1 0 0 1 7.6875 23.5625)" fill="#B0DCF7"/>
<rect width="2.5625" height="2.5625" transform="matrix(-1 0 0 1 7.6875 26.125)" fill="#B0DCF7"/>
<rect width="2.5625" height="2.5625" transform="matrix(-1 0 0 1 10.25 28.6875)" fill="#B0DCF7"/>
<rect width="2.5625" height="2.5625" transform="matrix(-1 0 0 1 7.6875 28.6875)" fill="#B0DCF7"/>
<rect width="2.5625" height="2.5625" transform="matrix(-1 0 0 1 28.1875 10.75)" fill="#FFBB00"/>
<rect width="2.5625" height="2.5625" transform="matrix(-1 0 0 1 28.1875 13.3125)" fill="#FFBB86"/>
<rect width="2.5625" height="2.5625" transform="matrix(-1 0 0 1 28.1875 15.875)" fill="#FFBB86"/>
<rect width="2.5625" height="2.5625" transform="matrix(-1 0 0 1 30.75 13.3125)" fill="#FFB503"/>
<rect width="2.5625" height="2.5625" transform="matrix(-1 0 0 1 30.75 10.75)" fill="#FFB503"/>
<rect width="2.5625" height="2.5625" transform="matrix(-1 0 0 1 30.75 15.875)" fill="#FFB503"/>
<rect width="2.5625" height="2.5625" transform="matrix(-1 0 0 1 30.75 18.4375)" fill="#FFB503"/>
<rect width="2.5625" height="2.5625" transform="matrix(-1 0 0 1 33.3125 15.875)" fill="#FFB503"/>
<rect width="2.5625" height="2.5625" transform="matrix(-1 0 0 1 33.3125 18.4375)" fill="#FFBB86"/>
<rect width="2.5625" height="2.5625" transform="matrix(-1 0 0 1 33.3125 21)" fill="#FFBB86"/>
<rect width="2.5625" height="2.5625" transform="matrix(-1 0 0 1 28.1875 21)" fill="#FFBB86"/>
<rect width="2.5625" height="2.5625" transform="matrix(-1 0 0 1 17.9375 15.875)" fill="#FFBB86"/>
<rect width="2.5625" height="2.5625" transform="matrix(-1 0 0 1 17.9375 18.4375)" fill="#FFBB86"/>
<rect width="2.5625" height="2.5625" transform="matrix(-1 0 0 1 15.375 18.4375)" fill="#FFBB86"/>
<rect width="2.5625" height="2.5625" transform="matrix(-1 0 0 1 15.375 21)" fill="#FFBB86"/>
<rect width="2.5625" height="2.5625" transform="matrix(-1 0 0 1 15.375 23.5625)" fill="#FFBB86"/>
<rect width="2.5625" height="2.5625" transform="matrix(-1 0 0 1 15.375 26.125)" fill="#FFBB86"/>
<rect width="2.5625" height="2.5625" transform="matrix(-1 0 0 1 15.375 28.6875)" fill="#FFBB86"/>
<rect width="2.5625" height="2.5625" transform="matrix(-1 0 0 1 15.375 31.25)" fill="#FFBB86"/>
<rect width="2.5625" height="2.5625" transform="matrix(-1 0 0 1 17.9375 31.25)" fill="#FFBB86"/>
<rect width="2.5625" height="2.5625" transform="matrix(-1 0 0 1 17.9375 28.6875)" fill="#FFBB86"/>
<rect width="2.5625" height="2.5625" transform="matrix(-1 0 0 1 17.9375 26.125)" fill="#FFBB86"/>
<rect width="2.5625" height="2.5625" transform="matrix(-1 0 0 1 20.5 26.125)" fill="#FFBB86"/>
<rect width="2.5625" height="2.5625" transform="matrix(-1 0 0 1 20.5 23.5625)" fill="#FFBB86"/>
<rect width="2.5625" height="2.5625" transform="matrix(-1 0 0 1 23.0625 23.5625)" fill="#FFBB86"/>
<rect width="2.5625" height="2.5625" transform="matrix(-1 0 0 1 23.0625 26.125)" fill="#FFBB86"/>
<rect width="2.5625" height="2.5625" transform="matrix(-1 0 0 1 23.0625 21)" fill="#FFBB86"/>
<rect width="2.5625" height="2.5625" transform="matrix(-1 0 0 1 23.0625 18.4375)" fill="#FFBB86"/>
<rect width="2.5625" height="2.5625" transform="matrix(-1 0 0 1 23.0625 15.875)" fill="#FFBB86"/>
<rect width="2.5625" height="2.5625" transform="matrix(-1 0 0 1 23.0625 13.3125)" fill="#FFBB86"/>
<rect width="2.5625" height="2.5625" transform="matrix(-1 0 0 1 23.0625 10.75)" fill="#FFBB86"/>
<rect width="2.5625" height="2.5625" transform="matrix(-1 0 0 1 23.0625 8.1875)" fill="#FFB503"/>
<rect width="2.5625" height="2.5625" transform="matrix(-1 0 0 1 23.0625 5.625)" fill="#FFB503"/>
<rect width="2.5625" height="2.5625" transform="matrix(-1 0 0 1 20.5 8.1875)" fill="#FFB503"/>
<rect width="2.5625" height="2.5625" transform="matrix(-1 0 0 1 20.5 10.75)" fill="#FFBB86"/>
<rect width="2.5625" height="2.5625" transform="matrix(-1 0 0 1 20.5 13.3125)" fill="#FFBB86"/>
<rect width="2.5625" height="2.5625" transform="matrix(-1 0 0 1 20.5 15.875)" fill="#FFBB86"/>
<rect width="2.5625" height="2.5625" transform="matrix(-1 0 0 1 20.5 18.4375)" fill="#FFBB86"/>
<rect width="2.5625" height="2.5625" transform="matrix(-1 0 0 1 17.9375 13.3125)" fill="#FFBB86"/>
<rect width="2.5625" height="2.5625" transform="matrix(-1 0 0 1 17.9375 10.75)" fill="#FFBB86"/>
<rect width="2.5625" height="2.5625" transform="matrix(-1 0 0 1 17.9375 8.1875)" fill="#FFBB86"/>
<rect width="2.5625" height="2.5625" transform="matrix(-1 0 0 1 17.9375 5.625)" fill="#FFB503"/>
<rect width="2.5625" height="2.5625" transform="matrix(-1 0 0 1 15.375 8.1875)" fill="#FFBB86"/>
<rect width="2.5625" height="2.5625" transform="matrix(-1 0 0 1 12.8125 8.1875)" fill="#FFBB86"/>
<rect width="2.5625" height="2.5625" transform="matrix(-1 0 0 1 12.8125 10.75)" fill="#FFBB86"/>
<rect width="2.5625" height="2.5625" transform="matrix(-1 0 0 1 12.8125 13.3125)" fill="#FFBB86"/>
<rect width="2.5625" height="2.5625" transform="matrix(-1 0 0 1 12.8125 15.875)" fill="#FFBB86"/>
<rect width="2.5625" height="2.5625" transform="matrix(-1 0 0 1 12.8125 18.4375)" fill="#FFBB86"/>
<rect width="2.5625" height="2.5625" transform="matrix(-1 0 0 1 12.8125 21)" fill="#FFBB86"/>
<rect width="2.5625" height="2.5625" transform="matrix(-1 0 0 1 12.8125 23.5625)" fill="#FFBB86"/>
<rect width="2.5625" height="2.5625" transform="matrix(-1 0 0 1 12.8125 26.125)" fill="#FFBB86"/>
<rect width="2.5625" height="2.5625" transform="matrix(-1 0 0 1 10.25 21)" fill="#FFBB86"/>
<rect width="2.5625" height="2.5625" transform="matrix(-1 0 0 1 10.25 18.4375)" fill="#FFBB86"/>
<rect width="2.5625" height="2.5625" transform="matrix(-1 0 0 1 10.25 15.875)" fill="#FFBB86"/>
<rect width="2.5625" height="2.5625" transform="matrix(-1 0 0 1 10.25 13.3125)" fill="#FFBB86"/>
<rect width="2.5625" height="2.5625" transform="matrix(-1 0 0 1 10.25 10.75)" fill="#FFBB86"/>
<rect width="2.5625" height="2.5625" transform="matrix(-1 0 0 1 10.25 8.1875)" fill="#B0DCF7"/>
<rect width="2.5625" height="2.5625" transform="matrix(-1 0 0 1 15.375 13.3125)" fill="#FFBB86"/>
<rect width="2.5625" height="2.5625" transform="matrix(-1 0 0 1 12.8125 5.625)" fill="#B0DCF7"/>
<rect width="2.5625" height="2.5625" transform="matrix(-1 0 0 1 25.625 8.1875)" fill="#FFB503"/>
<rect width="2.5625" height="2.5625" transform="matrix(-1 0 0 1 28.1875 8.1875)" fill="#FFB503"/>
<rect width="2.5625" height="2.5625" transform="matrix(-1 0 0 1 25.625 13.3125)" fill="#FFBB86"/>
<rect width="2.5625" height="2.5625" transform="matrix(-1 0 0 1 25.625 18.4375)" fill="#FFBB86"/>
<rect width="2.5625" height="2.5625" transform="matrix(-1 0 0 1 25.625 21)" fill="#FFBB86"/>
<rect width="2.5625" height="2.5625" transform="matrix(-1 0 0 1 25.625 23.5625)" fill="#FFBB86"/>
<rect width="2.5625" height="2.5625" transform="matrix(-1 0 0 1 28.1875 23.5625)" fill="#FFBB86"/>
<rect width="2.5625" height="2.5625" transform="matrix(-1 0 0 1 28.1875 26.125)" fill="#FFBB86"/>
<rect width="2.5625" height="2.5625" transform="matrix(-1 0 0 1 28.1875 28.6875)" fill="#FFBB86"/>
<rect width="2.5625" height="2.5625" transform="matrix(-1 0 0 1 25.625 28.6875)" fill="#FFBB86"/>
<rect width="2.5625" height="2.5625" transform="matrix(-1 0 0 1 25.625 31.25)" fill="#FFBB86"/>
<rect width="2.5625" height="2.5625" transform="matrix(-1 0 0 1 23.0625 31.25)" fill="#FFBB86"/>
<rect width="2.5625" height="2.5625" transform="matrix(-1 0 0 1 20.5 31.25)" fill="#FFBB86"/>
<rect width="2.5625" height="2.5625" transform="matrix(-1 0 0 1 30.75 26.125)" fill="#FFBB86"/>
<rect width="2.5625" height="2.5625" transform="matrix(-1 0 0 1 30.75 23.5625)" fill="#FFBB86"/>
<rect width="2.5625" height="2.5625" transform="matrix(-1 0 0 1 30.75 21)" fill="#FFBB86"/>
<rect width="2.5625" height="2.5625" transform="matrix(-1 0 0 1 28.1875 18.4375)" fill="#FFBB86"/>
</g>
<defs>
<clipPath id="clip0_559_13587">
<rect width="41" height="41" fill="white" transform="matrix(-1 0 0 1 41 0.5)"/>
</clipPath>
</defs>
</svg>
