<svg width="23" height="21" viewBox="0 0 23 21" fill="none" xmlns="http://www.w3.org/2000/svg">
<path d="M6.04167 8.20898H5V9.25065H6.04167V8.20898Z" fill="#8F90B9"/>
<path d="M17.5026 8.20898H16.4609V9.25065H17.5026V8.20898Z" fill="#8F90B9"/>
<path d="M19.5807 6.125H18.5391V7.16667H19.5807V6.125Z" fill="#FBF6D8"/>
<path d="M17.5026 7.16602H16.4609V8.20768H17.5026V7.16602Z" fill="#FBF6D8"/>
<path d="M16.4557 8.20898H15.4141V9.25065H16.4557V8.20898Z" fill="#FBF6D8"/>
<path d="M3.95573 6.125H2.91406V7.16667H3.95573V6.125Z" fill="#FBF6D8"/>
<path d="M6.04167 7.16602H5V8.20768H6.04167V7.16602Z" fill="#FBF6D8"/>
<path d="M7.08073 8.20898H6.03906V9.25065H7.08073V8.20898Z" fill="#FBF6D8"/>
<path d="M5.0026 7.16602H3.96094V9.24935H5.0026V7.16602Z" fill="#A6A6A6"/>
<path d="M12.2943 9.25H10.2109V10.2917H12.2943V9.25Z" fill="#8F90B9"/>
<path d="M18.5417 7.16602H17.5V9.24935H18.5417V7.16602Z" fill="#A6A6A6"/>
<path d="M16.4557 9.25065V10.2923H14.3724V11.334H8.1224V10.2923H6.03906V9.25065H7.08073V8.20898H10.2057V10.2923H12.2891V8.20898H15.4141V9.25065H16.4557Z" fill="#A6A6A6"/>
<path d="M12.2943 8.20898H10.2109V9.25065H12.2943V8.20898Z" fill="#FBF6D8"/>
<path d="M16.4557 18.6243V19.666H6.03906V18.6243H7.08073V17.5827H8.1224V15.4993H9.16406V14.4577H10.2057V13.416H12.2891V14.4577H13.3307V15.4993H14.3724V17.5827H15.4141V18.6243H16.4557Z" fill="#FBF6D8"/>
<path d="M18.5443 17.5833V19.6667H16.4609V18.625H15.4193V17.5833H14.3776V15.5H13.3359V14.4583H12.2943V13.4167H10.2109V14.4583H9.16927V15.5H8.1276V17.5833H7.08594V18.625H6.04427V19.6667H3.96094V17.5833H5.0026V15.5H6.04427V13.4167H7.08594V12.375H15.4193V13.4167H16.4609V15.5H17.5026V17.5833H18.5443Z" fill="#8F90B9"/>
<path d="M16.4557 7.16602H6.03906V8.20768H16.4557V7.16602Z" fill="#513A77"/>
<path d="M18.5443 5.08398H16.4609V7.16732H18.5443V5.08398Z" fill="#513A77"/>
<path d="M21.6693 7.16667V8.20833H20.6276V9.25H19.5859V10.2917H17.5026V11.3333H15.4193V12.375H7.08594V11.3333H5.0026V10.2917H2.91927V9.25H1.8776V8.20833H0.835938V7.16667H1.8776V6.125H2.91927V7.16667H3.96094V9.25H6.04427V10.2917H8.1276V11.3333H14.3776V10.2917H16.4609V9.25H18.5443V7.16667H19.5859V6.125H20.6276V7.16667H21.6693Z" fill="#513A77"/>
<path d="M6.04427 5.08398H3.96094V7.16732H6.04427V5.08398Z" fill="#513A77"/>
<path d="M11.2474 4.04232V6.12565H10.2057V7.16732H6.03906V4.04232H7.08073V3.00065H8.1224V1.95898H9.16406V3.00065H10.2057V4.04232H11.2474Z" fill="#7DC2F9"/>
<path d="M14.3724 5.08398V6.12565H12.2891V7.16732H10.2057V6.12565H11.2474V4.04232H10.2057V3.00065H9.16406V1.95898H12.2891V3.00065H13.3307V5.08398H14.3724Z" fill="#3F9EEC"/>
<path d="M16.4557 4.04232V7.16732H12.2891V6.12565H14.3724V5.08398H13.3307V3.00065H12.2891V1.95898H14.3724V3.00065H15.4141V4.04232H16.4557Z" fill="#2B6DA3"/>
</svg>
