<svg width="21" height="21" viewBox="0 0 21 21" fill="none" xmlns="http://www.w3.org/2000/svg">
<path fill-rule="evenodd" clip-rule="evenodd" d="M5.80013 1.86621H15.8001V3.53288H5.80013V1.86621ZM4.13346 5.19954V3.53288H5.80013L5.80013 5.19954L4.13346 5.19954ZM4.13346 15.1995V5.19954H2.4668V15.1995H4.13346ZM5.80013 16.8662L5.80013 15.1995L4.13346 15.1995V16.8662H5.80013ZM15.8001 16.8662V18.5329H5.80013V16.8662H15.8001ZM17.4668 15.1995L17.4668 16.8662H15.8001L15.8001 15.1995L17.4668 15.1995ZM17.4668 5.19954H19.1335V15.1995H17.4668V5.19954ZM17.4668 5.19954L17.4668 3.53288H15.8001L15.8001 5.19954L17.4668 5.19954ZM9.9668 4.36621H11.6335V6.03288H14.1335V7.69954H11.6335H9.9668H9.13346V9.36621H12.4668H14.1335V11.0329V12.6995V14.3662H12.4668H11.6335V16.0329H9.9668V14.3662H7.4668V12.6995H9.9668H11.6335H12.4668V11.0329L9.13346 11.0329H7.4668V9.36621V7.69954V6.03288H9.13346H9.9668V4.36621Z" fill="white"/>
</svg>
