<svg xmlns="http://www.w3.org/2000/svg" xmlns:xlink="http://www.w3.org/1999/xlink" width="21px" height="21px" viewBox="0 0 21 21" version="1.1">
<g id="surface1">
<path style=" stroke:none;fill-rule:nonzero;fill:#ffffff;fill-opacity:1;" d="M 17.921875 4.429688 C 17.953125 4.457031 17.984375 4.480469 18.019531 4.507812 C 20.054688 6.226562 20.703125 9.664062 20.960938 12.179688 C 20.960938 12.21875 20.964844 12.257812 20.972656 12.292969 C 21.007812 12.699219 21.007812 13.101562 21.007812 13.503906 C 21.007812 13.625 21.007812 13.746094 21.007812 13.871094 C 21.011719 14.917969 20.917969 16.023438 20.21875 16.863281 C 19.785156 17.289062 19.328125 17.402344 18.742188 17.402344 C 17.707031 17.386719 16.75 16.773438 15.953125 16.160156 C 15.925781 16.140625 15.898438 16.117188 15.871094 16.097656 C 15.488281 15.804688 15.117188 15.507812 14.765625 15.175781 C 13.894531 14.378906 13.007812 13.957031 11.851562 13.742188 C 11.824219 13.734375 11.796875 13.730469 11.765625 13.722656 C 10.941406 13.574219 9.96875 13.585938 9.148438 13.742188 C 9.113281 13.746094 9.078125 13.753906 9.042969 13.757812 C 7.890625 13.976562 7.046875 14.445312 6.195312 15.238281 C 5.957031 15.460938 5.703125 15.660156 5.441406 15.859375 C 5.375 15.910156 5.3125 15.964844 5.246094 16.015625 C 4.390625 16.695312 3.332031 17.394531 2.207031 17.402344 C 2.171875 17.402344 2.132812 17.402344 2.097656 17.402344 C 1.601562 17.40625 1.1875 17.238281 0.820312 16.90625 C 0.746094 16.824219 0.679688 16.742188 0.617188 16.652344 C 0.578125 16.601562 0.578125 16.601562 0.542969 16.550781 C 0.375 16.296875 0.277344 16.035156 0.191406 15.746094 C 0.183594 15.710938 0.171875 15.679688 0.164062 15.644531 C -0.0117188 15.007812 -0.015625 14.34375 -0.0117188 13.6875 C -0.0117188 13.648438 -0.0117188 13.609375 -0.0117188 13.566406 C -0.0117188 12.894531 0.0273438 12.234375 0.125 11.566406 C 0.132812 11.492188 0.132812 11.492188 0.144531 11.417969 C 0.371094 9.847656 0.769531 8.3125 1.394531 6.851562 C 1.410156 6.816406 1.421875 6.78125 1.4375 6.75 C 1.636719 6.285156 1.886719 5.867188 2.171875 5.453125 C 2.191406 5.429688 2.207031 5.40625 2.226562 5.382812 C 2.632812 4.804688 3.117188 4.328125 3.734375 3.976562 C 3.761719 3.960938 3.789062 3.945312 3.820312 3.925781 C 4.734375 3.417969 5.914062 3.558594 6.890625 3.773438 C 6.929688 3.78125 6.972656 3.792969 7.011719 3.800781 C 7.277344 3.859375 7.539062 3.921875 7.804688 3.984375 C 9.519531 4.429688 9.519531 4.429688 11.277344 4.402344 C 11.34375 4.390625 11.34375 4.390625 11.40625 4.382812 C 11.84375 4.304688 12.273438 4.203125 12.703125 4.09375 C 12.925781 4.039062 13.148438 3.984375 13.371094 3.933594 C 13.414062 3.921875 13.457031 3.910156 13.503906 3.898438 C 13.832031 3.820312 14.160156 3.746094 14.492188 3.683594 C 14.550781 3.671875 14.550781 3.671875 14.609375 3.660156 C 15.800781 3.441406 16.996094 3.601562 17.921875 4.429688 Z M 3.507812 5.429688 C 1.527344 7.484375 0.953125 11.132812 0.972656 13.875 C 0.992188 15.09375 0.992188 15.09375 1.539062 16.144531 C 1.777344 16.355469 2.003906 16.386719 2.3125 16.378906 C 3.238281 16.285156 4.074219 15.628906 4.777344 15.0625 C 4.832031 15.015625 4.890625 14.972656 4.949219 14.925781 C 5.136719 14.777344 5.316406 14.625 5.492188 14.460938 C 5.71875 14.25 5.949219 14.050781 6.195312 13.863281 C 6.226562 13.839844 6.257812 13.8125 6.289062 13.789062 C 7.820312 12.65625 9.980469 12.46875 11.8125 12.714844 C 12.882812 12.886719 13.917969 13.203125 14.765625 13.90625 C 14.789062 13.925781 14.816406 13.945312 14.839844 13.964844 C 14.90625 14.023438 14.976562 14.078125 15.042969 14.136719 C 15.066406 14.160156 15.089844 14.179688 15.117188 14.199219 C 15.285156 14.347656 15.445312 14.496094 15.609375 14.648438 C 15.863281 14.882812 16.128906 15.09375 16.40625 15.296875 C 16.429688 15.316406 16.449219 15.332031 16.472656 15.351562 C 17.242188 15.925781 18.109375 16.511719 19.113281 16.40625 C 19.386719 16.308594 19.542969 16.113281 19.675781 15.863281 C 20.675781 13.699219 19.785156 10.261719 19.03125 8.121094 C 18.566406 6.863281 17.914062 5.441406 16.628906 4.839844 C 16.253906 4.6875 15.894531 4.625 15.488281 4.621094 C 15.453125 4.621094 15.417969 4.621094 15.378906 4.617188 C 14.625 4.613281 13.867188 4.832031 13.140625 5.011719 C 11.066406 5.53125 9.527344 5.421875 7.464844 4.917969 C 6.046875 4.574219 4.679688 4.332031 3.507812 5.429688 Z M 3.507812 5.429688 "/>
<path style=" stroke:none;fill-rule:nonzero;fill:#ffffff;fill-opacity:1;" d="M 6.496094 6.4375 C 6.832031 6.703125 7.105469 7.03125 7.167969 7.46875 C 7.171875 7.507812 7.175781 7.546875 7.179688 7.585938 C 7.222656 7.589844 7.269531 7.59375 7.316406 7.59375 C 7.625 7.632812 7.957031 7.804688 8.164062 8.039062 C 8.457031 8.445312 8.609375 8.824219 8.558594 9.328125 C 8.476562 9.785156 8.277344 10.105469 7.921875 10.398438 C 7.699219 10.550781 7.484375 10.625 7.21875 10.664062 C 7.210938 10.695312 7.203125 10.726562 7.195312 10.757812 C 7.058594 11.214844 6.820312 11.609375 6.398438 11.851562 C 6.371094 11.871094 6.339844 11.886719 6.3125 11.90625 C 5.953125 12.082031 5.464844 12.082031 5.082031 11.972656 C 4.71875 11.820312 4.351562 11.496094 4.1875 11.132812 C 4.136719 10.976562 4.097656 10.824219 4.0625 10.664062 C 4.03125 10.660156 4 10.652344 3.96875 10.648438 C 3.519531 10.554688 3.199219 10.355469 2.929688 9.984375 C 2.683594 9.582031 2.628906 9.195312 2.714844 8.734375 C 2.824219 8.332031 3.035156 8.035156 3.382812 7.808594 C 3.613281 7.679688 3.832031 7.574219 4.101562 7.585938 C 4.105469 7.5625 4.109375 7.535156 4.113281 7.507812 C 4.1875 7.097656 4.339844 6.75 4.6875 6.496094 C 5.277344 6.117188 5.882812 6.085938 6.496094 6.4375 Z M 5.25 7.300781 C 5.085938 7.515625 5.082031 7.734375 5.074219 8 C 5.054688 8.3125 5.054688 8.3125 4.945312 8.421875 C 4.78125 8.527344 4.683594 8.539062 4.484375 8.546875 C 4.109375 8.5625 4.109375 8.5625 3.800781 8.757812 C 3.699219 8.914062 3.660156 9.046875 3.691406 9.226562 C 3.777344 9.386719 3.863281 9.503906 4.019531 9.597656 C 4.152344 9.617188 4.152344 9.617188 4.300781 9.621094 C 4.808594 9.648438 4.808594 9.648438 4.96875 9.808594 C 5.0625 9.949219 5.066406 10.039062 5.070312 10.207031 C 5.070312 10.554688 5.070312 10.554688 5.226562 10.847656 C 5.382812 10.988281 5.382812 10.988281 5.578125 11.035156 C 5.789062 11.015625 5.917969 10.988281 6.070312 10.828125 C 6.195312 10.640625 6.167969 10.417969 6.175781 10.203125 C 6.195312 10.039062 6.230469 9.941406 6.316406 9.804688 C 6.550781 9.648438 6.796875 9.664062 7.070312 9.660156 C 7.242188 9.636719 7.332031 9.585938 7.464844 9.476562 C 7.554688 9.320312 7.585938 9.21875 7.585938 9.042969 C 7.535156 8.859375 7.476562 8.785156 7.34375 8.65625 C 7.144531 8.550781 6.9375 8.558594 6.722656 8.554688 C 6.578125 8.550781 6.488281 8.535156 6.363281 8.464844 C 6.191406 8.273438 6.183594 8.078125 6.179688 7.835938 C 6.164062 7.601562 6.152344 7.46875 5.988281 7.300781 C 5.867188 7.203125 5.796875 7.179688 5.640625 7.164062 C 5.480469 7.179688 5.386719 7.210938 5.25 7.300781 Z M 5.25 7.300781 "/>
<path style=" stroke:none;fill-rule:nonzero;fill:#ffffff;fill-opacity:1;" d="M 15.625 6.480469 C 15.835938 6.648438 15.953125 6.871094 15.996094 7.136719 C 16.007812 7.40625 15.953125 7.65625 15.789062 7.875 C 15.585938 8.074219 15.371094 8.199219 15.078125 8.203125 C 14.800781 8.1875 14.5625 8.128906 14.367188 7.921875 C 14.1875 7.695312 14.085938 7.480469 14.097656 7.1875 C 14.132812 6.9375 14.222656 6.714844 14.40625 6.542969 C 14.792969 6.253906 15.210938 6.242188 15.625 6.480469 Z M 15.625 6.480469 "/>
<path style=" stroke:none;fill-rule:nonzero;fill:#ffffff;fill-opacity:1;" d="M 17.566406 8.414062 C 17.75 8.613281 17.851562 8.839844 17.863281 9.109375 C 17.84375 9.425781 17.746094 9.648438 17.511719 9.863281 C 17.296875 10.027344 17.066406 10.074219 16.800781 10.066406 C 16.535156 10.023438 16.3125 9.898438 16.140625 9.695312 C 15.996094 9.476562 15.941406 9.230469 15.964844 8.972656 C 16.027344 8.660156 16.203125 8.46875 16.445312 8.285156 C 16.796875 8.066406 17.261719 8.15625 17.566406 8.414062 Z M 17.566406 8.414062 "/>
<path style=" stroke:none;fill-rule:nonzero;fill:#ffffff;fill-opacity:1;" d="M 13.820312 8.40625 C 14.035156 8.621094 14.121094 8.816406 14.125 9.117188 C 14.121094 9.355469 14.097656 9.535156 13.945312 9.71875 C 13.6875 9.960938 13.457031 10.066406 13.105469 10.058594 C 12.824219 10.03125 12.636719 9.925781 12.449219 9.714844 C 12.277344 9.5 12.238281 9.285156 12.246094 9.015625 C 12.285156 8.765625 12.398438 8.539062 12.59375 8.367188 C 12.984375 8.105469 13.449219 8.097656 13.820312 8.40625 Z M 13.820312 8.40625 "/>
<path style=" stroke:none;fill-rule:nonzero;fill:#ffffff;fill-opacity:1;" d="M 15.476562 10.109375 C 15.707031 10.246094 15.875 10.441406 15.972656 10.6875 C 16.027344 11.011719 16 11.261719 15.8125 11.53125 C 15.632812 11.75 15.472656 11.875 15.183594 11.90625 C 14.859375 11.921875 14.636719 11.875 14.398438 11.65625 C 14.199219 11.445312 14.125 11.265625 14.097656 10.976562 C 14.125 10.664062 14.207031 10.441406 14.441406 10.230469 C 14.734375 10.007812 15.136719 9.960938 15.476562 10.109375 Z M 15.476562 10.109375 "/>
</g>
</svg>