<svg width="40" height="41" viewBox="0 0 40 41" fill="none" xmlns="http://www.w3.org/2000/svg">
<path d="M6.66471 30.5H4.99805V32.1667H6.66471V30.5Z" fill="black"/>
<path d="M8.33268 32.167H6.66602V33.8337H8.33268V32.167Z" fill="black"/>
<path d="M9.9987 33.833H8.33203V35.4997H9.9987V33.833Z" fill="black"/>
<path d="M8.33268 7.16699H6.66602V8.83366H8.33268V7.16699Z" fill="black"/>
<path d="M4.9987 27.167H3.33203V30.5003H4.9987V27.167Z" fill="black"/>
<path d="M6.66471 8.83301H4.99805V10.4997H6.66471V8.83301Z" fill="black"/>
<path d="M13.3314 35.5H9.99805V37.1667H13.3314V35.5Z" fill="black"/>
<path d="M3.33268 13.833H1.66602V27.1663H3.33268V13.833Z" fill="black"/>
<path d="M26.6654 2.16699H13.332V3.83366H26.6654V2.16699Z" fill="black"/>
<path d="M4.9987 10.5H3.33203V13.8333H4.9987V10.5Z" fill="black"/>
<path d="M26.6654 37.167H13.332V38.8337H26.6654V37.167Z" fill="black"/>
<path d="M29.9993 35.5H26.666V37.1667H29.9993V35.5Z" fill="black"/>
<path d="M29.9993 3.83301H26.666V5.49967H29.9993V3.83301Z" fill="black"/>
<path d="M9.9987 5.5H8.33203V7.16667H9.9987V5.5Z" fill="black"/>
<path d="M13.3314 3.83301H9.99805V5.49967H13.3314V3.83301Z" fill="black"/>
<path d="M31.6647 5.5H29.998V7.16667H31.6647V5.5Z" fill="black"/>
<path d="M31.6647 33.833H29.998V35.4997H31.6647V33.833Z" fill="black"/>
<path d="M33.3327 7.16699H31.666V8.83366H33.3327V7.16699Z" fill="black"/>
<path d="M33.3327 32.167H31.666V33.8337H33.3327V32.167Z" fill="black"/>
<path d="M36.6647 27.167H34.998V30.5003H36.6647V27.167Z" fill="black"/>
<path d="M34.9987 8.83301H33.332V10.4997H34.9987V8.83301Z" fill="black"/>
<path d="M36.6647 10.5H34.998V13.8333H36.6647V10.5Z" fill="black"/>
<path d="M34.9987 30.5H33.332V32.1667H34.9987V30.5Z" fill="black"/>
<path d="M38.3327 13.833H36.666V27.1663H38.3327V13.833Z" fill="black"/>
<path d="M24.998 32.167H14.998V33.8337H24.998V32.167Z" fill="black"/>
<path d="M36.6647 13.8333V27.1667H34.998V30.5H33.3314V32.1667H31.6647V33.8333H29.998V35.5H26.6647V37.1667H13.3314V35.5H9.99805V33.8333H13.3314V32.1667H14.998V33.8333H24.998V32.1667H28.3314V30.5H29.998V28.8333H31.6647V25.5H33.3314V15.5H31.6647V13.8333H33.3314V10.5H34.998V13.8333H36.6647Z" fill="#CBA600"/>
<path d="M33.3327 15.5H31.666V25.5H33.3327V15.5Z" fill="black"/>
<path d="M33.332 8.83301V13.833H31.6654V12.1663H29.9987V10.4997H28.332V8.83301H24.9987V7.16634H14.9987V8.83301H11.6654V10.4997H9.9987V12.1663H8.33203V15.4997H6.66536V25.4997H8.33203V28.833H9.9987V30.4997H11.6654V32.1663H13.332V33.833H8.33203V32.1663H6.66536V30.4997H4.9987V27.1663H3.33203V13.833H4.9987V10.4997H6.66536V8.83301H8.33203V7.16634H9.9987V5.49967H13.332V3.83301H26.6654V5.49967H29.9987V7.16634H31.6654V8.83301H33.332Z" fill="#FFD100"/>
<path d="M31.6647 25.5H29.998V28.8333H31.6647V25.5Z" fill="black"/>
<path d="M31.6647 12.167H29.998V15.5003H31.6647V12.167Z" fill="black"/>
<path d="M29.9987 28.833H28.332V30.4997H29.9987V28.833Z" fill="black"/>
<path d="M29.9987 10.5H28.332V12.1667H29.9987V10.5Z" fill="black"/>
<path d="M28.3314 8.83301H24.998V10.4997H28.3314V8.83301Z" fill="black"/>
<path d="M28.3314 30.5H24.998V32.1667H28.3314V30.5Z" fill="black"/>
<path d="M24.9987 20.5H23.332V23.8333H24.9987V20.5Z" fill="black"/>
<path d="M24.9987 17.167H23.332V18.8337H24.9987V17.167Z" fill="black"/>
<path d="M24.998 7.16699H14.998V8.83366H24.998V7.16699Z" fill="black"/>
<path d="M23.3314 20.5V23.8333H19.998V22.1667H21.6647V20.5H23.3314Z" fill="#CB7419"/>
<path d="M16.6647 17.1663V18.833H23.3314V20.4997H16.6647V23.833H23.3314V25.4997H21.6647V27.1663H19.998V25.4997H18.3314V27.1663H16.6647V25.4997H14.998V15.4997H16.6647V13.833H18.3314V15.4997H19.998V13.833H21.6647V15.4997H23.3314V17.1663H16.6647Z" fill="black"/>
<path d="M23.3327 17.167H21.666V18.8337H23.3327V17.167Z" fill="#CB7419"/>
<path d="M21.666 17.167H16.666V18.8337H21.666V17.167Z" fill="#FFA33E"/>
<path d="M31.666 15.5V25.5H29.9993V28.8333H28.3327V30.5H24.9993V32.1667H14.9993V30.5H11.666V28.8333H14.9993V27.1667H18.3327V25.5H19.9993V27.1667H21.666V25.5H23.3327V23.8333H24.9993V20.5H23.3327V18.8333H24.9993V17.1667H23.3327V15.5H24.9993V12.1667H26.666V10.5H28.3327V12.1667H29.9993V15.5H31.666Z" fill="#CB7419"/>
<path d="M21.666 20.5V22.1667H19.9993V23.8333H16.666V20.5H21.666Z" fill="#FFA33E"/>
<path d="M14.9993 8.83301H11.666V10.4997H14.9993V8.83301Z" fill="black"/>
<path d="M14.9993 30.5H11.666V32.1667H14.9993V30.5Z" fill="black"/>
<path d="M11.6647 28.833H9.99805V30.4997H11.6647V28.833Z" fill="black"/>
<path d="M11.6647 10.5H9.99805V12.1667H11.6647V10.5Z" fill="black"/>
<path d="M9.9987 25.5H8.33203V28.8333H9.9987V25.5Z" fill="black"/>
<path d="M26.6654 10.4997V12.1663H24.9987V15.4997H21.6654V13.833H19.9987V15.4997H18.332V13.833H16.6654V15.4997H14.9987V25.4997H16.6654V27.1663H14.9987V28.833H9.9987V25.4997H8.33203V15.4997H9.9987V12.1663H11.6654V10.4997H14.9987V8.83301H24.9987V10.4997H26.6654Z" fill="#FFAA4D"/>
<path d="M9.9987 12.167H8.33203V15.5003H9.9987V12.167Z" fill="black"/>
<path d="M8.33268 15.5H6.66602V25.5H8.33268V15.5Z" fill="black"/>
</svg>
