<svg width="20" height="21" viewBox="0 0 20 21" fill="none" xmlns="http://www.w3.org/2000/svg">
<path d="M10.8327 5.5H9.16602V7.16667H10.8327V5.5Z" fill="white" fill-opacity="0.72"/>
<path d="M10.8327 8.83398H9.16602V15.5007H10.8327V8.83398Z" fill="white" fill-opacity="0.72"/>
<path d="M17.4993 4.66699V3.83366H16.666V3.00033H15.8327V2.16699H4.16602V3.00033H3.33268V3.83366H2.49935V4.66699H1.66602V16.3337H2.49935V17.167H3.33268V18.0003H4.16602V18.8337H15.8327V18.0003H16.666V17.167H17.4993V16.3337H18.3327V4.66699H17.4993ZM16.666 14.667H15.8327V15.5003H14.9993V16.3337H14.166V17.167H5.83268V16.3337H4.99935V15.5003H4.16602V14.667H3.33268V6.33366H4.16602V5.50033H4.99935V4.66699H5.83268V3.83366H14.166V4.66699H14.9993V5.50033H15.8327V6.33366H16.666V14.667Z" fill="white" fill-opacity="0.72"/>
</svg>
