<svg width="40" height="41" viewBox="0 0 40 41" fill="none" xmlns="http://www.w3.org/2000/svg">
<path d="M28.334 37.167H3.33398V38.8337H28.334V37.167Z" fill="black"/>
<path d="M3.33268 3.83301H1.66602V37.1663H3.33268V3.83301Z" fill="black"/>
<path d="M28.334 2.16699H3.33398V3.83366H28.334V2.16699Z" fill="black"/>
<path d="M36.6667 15.5H35V17.1667H36.6667V15.5Z" fill="black"/>
<path d="M35.0007 17.167H33.334V18.8337H35.0007V17.167Z" fill="black"/>
<path d="M36.6673 10.5H33.334V12.1667H36.6673V10.5Z" fill="black"/>
<path d="M38.3327 12.167H36.666V15.5003H38.3327V12.167Z" fill="black"/>
<path d="M33.3327 18.833H31.666V20.4997H33.3327V18.833Z" fill="black"/>
<path d="M33.3327 17.167H31.666V18.8337H33.3327V17.167Z" fill="#BC703C"/>
<path d="M33.3327 15.5H31.666V17.1667H33.3327V15.5Z" fill="black"/>
<path d="M36.666 12.167V15.5003H34.9993V17.167H33.3327V15.5003H31.666V13.8337H33.3327V12.167H36.666Z" fill="#C3332F"/>
<path d="M33.3327 12.167H31.666V13.8337H33.3327V12.167Z" fill="black"/>
<path d="M31.6667 20.5H30V22.1667H31.6667V20.5Z" fill="black"/>
<path d="M31.6667 18.833H30V20.4997H31.6667V18.833Z" fill="#BC703C"/>
<path d="M31.6673 13.833V15.4997H30.0007V17.1663H28.334V3.83301H30.0007V13.833H31.6673Z" fill="black"/>
<path d="M29.9993 22.167V37.167H28.3327V25.5003H26.666V23.8337H28.3327V22.167H29.9993Z" fill="black"/>
<path d="M30.0007 20.5H28.334V22.1667H30.0007V20.5Z" fill="#BC703C"/>
<path d="M28.3327 22.167H26.666V23.8337H28.3327V22.167Z" fill="#BC703C"/>
<path d="M28.3327 17.167H26.666V18.8337H28.3327V17.167Z" fill="black"/>
<path d="M26.6667 25.5H25V27.1667H26.6667V25.5Z" fill="black"/>
<path d="M26.6667 23.833H25V25.4997H26.6667V23.833Z" fill="#BC703C"/>
<path d="M26.6667 18.833H25V20.4997H26.6667V18.833Z" fill="black"/>
<path d="M25.0007 27.167H23.334V28.8337H25.0007V27.167Z" fill="black"/>
<path d="M25.0007 25.5H23.334V27.1667H25.0007V25.5Z" fill="#BC703C"/>
<path d="M25.0007 20.5H23.334V22.1667H25.0007V20.5Z" fill="black"/>
<path d="M5 5.5V35.5H15V33.8333H16.6667V32.1667H18.3333V25.5H20V23.8333H21.6667V22.1667H23.3333V20.5H25V18.8333H26.6667V5.5H5ZM13.3333 10.5H15V8.83333H16.6667V10.5H18.3333V12.1667H16.6667V13.8333H15V12.1667H13.3333V10.5ZM6.66667 10.5H8.33333V8.83333H10V10.5H11.6667V12.1667H10V13.8333H8.33333V12.1667H6.66667V10.5ZM15 28.8333H6.66667V27.1667H15V28.8333ZM16.6667 23.8333H6.66667V22.1667H16.6667V23.8333ZM21.6667 18.8333H6.66667V17.1667H21.6667V18.8333ZM25 12.1667H23.3333V13.8333H21.6667V12.1667H20V10.5H21.6667V8.83333H23.3333V10.5H25V12.1667Z" fill="#F8F8F8"/>
<path d="M23.334 28.8333V30.5H18.334V25.5H20.0007V28.8333H23.334Z" fill="black"/>
<path d="M23.3327 27.167H21.666V28.8337H23.3327V27.167Z" fill="#BC703C"/>
<path d="M23.3327 22.167H21.666V23.8337H23.3327V22.167Z" fill="black"/>
<path d="M25 10.4997V12.1663H23.3333V13.833H21.6667V12.1663H20V10.4997H21.6667V8.83301H23.3333V10.4997H25Z" fill="#FFD100"/>
<path d="M31.6667 15.5V18.8333H30V20.5H28.3333V22.1667H26.6667V23.8333H25V25.5H23.3333V27.1667H21.6667V28.8333H20V25.5H21.6667V23.8333H23.3333V22.1667H25V20.5H26.6667V18.8333H28.3333V17.1667H30V15.5H31.6667Z" fill="#DBC693"/>
<path d="M21.6667 23.833H20V25.4997H21.6667V23.833Z" fill="black"/>
<path d="M26.6667 30.5V35.5H15V33.8333H16.6667V32.1667H25V30.5H26.6667Z" fill="#DAD9D9"/>
<path d="M18.334 10.4997V12.1663H16.6673V13.833H15.0007V12.1663H13.334V10.4997H15.0007V8.83301H16.6673V10.4997H18.334Z" fill="#FFD100"/>
<path d="M14.9993 27.167H6.66602V28.8337H14.9993V27.167Z" fill="#A6A6A6"/>
<path d="M11.666 10.4997V12.1663H9.99935V13.833H8.33268V12.1663H6.66602V10.4997H8.33268V8.83301H9.99935V10.4997H11.666Z" fill="#FFD100"/>
<path d="M16.666 22.167H6.66602V23.8337H16.666V22.167Z" fill="#A6A6A6"/>
<path d="M21.666 17.167H6.66602V18.8337H21.666V17.167Z" fill="#A6A6A6"/>
<path d="M26.6673 17.1663V5.49967H5.00065V35.4997H26.6673V30.4997H25.0007V32.1663H18.334V30.4997H23.334V28.833H25.0007V27.1663H26.6673V25.4997H28.334V37.1663H3.33398V3.83301H28.334V17.1663H26.6673Z" fill="#A6A6A6"/>
</svg>
