<svg width="40" height="41" viewBox="0 0 40 41" fill="none" xmlns="http://www.w3.org/2000/svg">
<path d="M30.0013 13.833V12.1663H28.3346V10.4997H26.668V8.83301H23.3346V10.4997H21.668V12.1663H20.0013V13.833H18.3346V15.4997H16.668V17.1663H15.0013V18.833H13.3346V20.4997H11.668V25.4997H13.3346V23.833H15.0013V22.1663H18.3346V25.4997H16.668V27.1663H15.0013V28.833H20.0013V27.1663H21.668V25.4997H23.3346V23.833H25.0013V22.1663H26.668V20.4997H28.3346V18.833H30.0013V17.1663H31.668V13.833H30.0013ZM28.3346 17.1663H26.668V18.833H23.3346V17.1663H21.668V13.833H23.3346V12.1663H26.668V13.833H28.3346V17.1663Z" fill="#D0EDF4"/>
<path d="M11.6667 25.5H10V27.1667H11.6667V25.5Z" fill="#FFD100"/>
<path d="M13.3333 30.5003V33.8337H10V35.5003H5V30.5003H6.66667V27.167H10V28.8337H8.33333V32.167H11.6667V30.5003H13.3333Z" fill="#FFD100"/>
<path d="M15.0007 28.833H13.334V30.4997H15.0007V28.833Z" fill="#FFD100"/>
<path d="M28.3346 13.8337V17.167H26.668V18.8337H23.3346V17.167H21.668V13.8337H23.3346V12.167H26.668V13.8337H28.3346Z" fill="#1A6A8A"/>
<path d="M18.334 28.8337V32.167H16.6673V33.8337H15.0007V35.5003H11.6673V37.167H3.33398V28.8337H5.00065V25.5003H6.66732V23.8337H8.33398V22.167H11.6673V25.5003H10.0007V27.167H6.66732V30.5003H5.00065V35.5003H10.0007V33.8337H13.334V30.5003H15.0007V28.8337H18.334Z" fill="#EF9520"/>
<path d="M15.0007 17.167V18.8337H13.334V20.5003H11.6673V22.167H8.33398V23.8337H3.33398V20.5003H5.00065V18.8337H6.66732V17.167H15.0007Z" fill="#BC131A"/>
<path d="M23.3346 25.5V33.8333H21.668V35.5H20.0013V37.1667H16.668V32.1667H18.3346V28.8333H20.0013V27.1667H21.668V25.5H23.3346Z" fill="#BC131A"/>
<path d="M18.334 22.167V25.5003H16.6673V27.167H15.0007V28.8337H13.334V30.5003H11.6673V32.167H8.33398V28.8337H10.0007V27.167H11.6673V25.5003H13.334V23.8337H15.0007V22.167H18.334Z" fill="#BC131A"/>
<path d="M36.6667 3.83301V12.1663H35V13.833H33.3333V15.4997H31.6667V13.833H30V12.1663H28.3333V10.4997H26.6667V8.83301H25V7.16634H26.6667V5.49967H28.3333V3.83301H36.6667Z" fill="#BC131A"/>
<path d="M20.0007 12.167H18.334V13.8337H20.0007V12.167Z" fill="black"/>
<path d="M21.6667 10.5H20V12.1667H21.6667V10.5Z" fill="black"/>
<path d="M36.6667 12.167H35V13.8337H36.6667V12.167Z" fill="black"/>
<path d="M35.0007 13.833H33.334V15.4997H35.0007V13.833Z" fill="black"/>
<path d="M33.3346 15.5H31.668V17.1667H33.3346V15.5Z" fill="black"/>
<path d="M31.6667 17.167H30V18.8337H31.6667V17.167Z" fill="black"/>
<path d="M30.0007 18.833H28.334V20.4997H30.0007V18.833Z" fill="black"/>
<path d="M28.3346 20.5H26.668V22.1667H28.3346V20.5Z" fill="black"/>
<path d="M26.6667 22.167H25V23.8337H26.6667V22.167Z" fill="black"/>
<path d="M5.00065 18.833H3.33398V20.4997H5.00065V18.833Z" fill="black"/>
<path d="M6.66667 17.167H5V18.8337H6.66667V17.167Z" fill="black"/>
<path d="M3.33464 20.5H1.66797V23.8333H3.33464V20.5Z" fill="black"/>
<path d="M6.66732 23.833V25.4997H5.00065V28.833H3.33398V23.833H6.66732Z" fill="black"/>
<path d="M11.668 37.1663V38.833H1.66797V28.833H3.33464V37.1663H11.668Z" fill="black"/>
<path d="M16.668 15.5H6.66797V17.1667H16.668V15.5Z" fill="black"/>
<path d="M20.0013 37.167H16.668V38.8337H20.0013V37.167Z" fill="black"/>
<path d="M16.668 33.833V37.1663H11.668V35.4997H15.0013V33.833H16.668Z" fill="black"/>
<path d="M18.3346 13.833H16.668V15.4997H18.3346V13.833Z" fill="black"/>
<path d="M21.6667 35.5H20V37.1667H21.6667V35.5Z" fill="black"/>
<path d="M23.3346 8.83301H21.668V10.4997H23.3346V8.83301Z" fill="black"/>
<path d="M23.3346 33.833H21.668V35.4997H23.3346V33.833Z" fill="black"/>
<path d="M26.6667 5.5H25V7.16667H26.6667V5.5Z" fill="black"/>
<path d="M25.0007 7.16699H23.334V8.83366H25.0007V7.16699Z" fill="black"/>
<path d="M25.0007 23.833H23.334V33.833H25.0007V23.833Z" fill="black"/>
<path d="M28.3346 3.83301H26.668V5.49967H28.3346V3.83301Z" fill="black"/>
<path d="M38.334 2.16699V12.167H36.6673V3.83366H28.334V2.16699H38.334Z" fill="black"/>
</svg>
