<svg width="18" height="20" viewBox="0 0 18 20" fill="none" xmlns="http://www.w3.org/2000/svg">
<path d="M6.68555 15.9941C6.13555 15.9941 5.66471 15.7983 5.27305 15.4066C4.88138 15.015 4.68555 14.5441 4.68555 13.9941V1.99414C4.68555 1.44414 4.88138 0.973307 5.27305 0.581641C5.66471 0.189974 6.13555 -0.00585938 6.68555 -0.00585938H15.6855C16.2355 -0.00585938 16.7064 0.189974 17.098 0.581641C17.4897 0.973307 17.6855 1.44414 17.6855 1.99414V13.9941C17.6855 14.5441 17.4897 15.015 17.098 15.4066C16.7064 15.7983 16.2355 15.9941 15.6855 15.9941H6.68555ZM6.68555 13.9941H15.6855V1.99414H6.68555V13.9941ZM2.68555 19.9941C2.13555 19.9941 1.66471 19.7983 1.27305 19.4066C0.88138 19.015 0.685547 18.5441 0.685547 17.9941V3.99414H2.68555V17.9941H13.6855V19.9941H2.68555Z" fill="white"/>
</svg>
