<svg width="139" height="138" viewBox="0 0 139 138" fill="none" xmlns="http://www.w3.org/2000/svg">
<g filter="url(#filter0_d_624_17059)">
<rect x="18.5" y="18" width="102" height="102" rx="51" fill="#2B6DA3" fill-opacity="0.8" shape-rendering="crispEdges"/>
<rect x="15.6667" y="15.1667" width="107.667" height="107.667" rx="53.8333" stroke="#235786" stroke-opacity="0.7" stroke-width="5.66667" shape-rendering="crispEdges"/>
<path d="M48.839 59.9102H44.707V64.0421H48.839V59.9102Z" fill="#8F90B9"/>
<path d="M94.2941 59.9102H90.1621V64.0421H94.2941V59.9102Z" fill="#8F90B9"/>
<path d="M102.55 51.6455H98.418V55.7775H102.55V51.6455Z" fill="#FBF6D8"/>
<path d="M94.2941 55.7773H90.1621V59.9093H94.2941V55.7773Z" fill="#FBF6D8"/>
<path d="M90.1573 59.9102H86.0254V64.0421H90.1573V59.9102Z" fill="#FBF6D8"/>
<path d="M40.5714 51.6455H36.4395V55.7775H40.5714V51.6455Z" fill="#FBF6D8"/>
<path d="M48.839 55.7773H44.707V59.9093H48.839V55.7773Z" fill="#FBF6D8"/>
<path d="M52.9659 59.9102H48.834V64.0421H52.9659V59.9102Z" fill="#FBF6D8"/>
<path d="M44.7101 55.7773H40.5781V64.0412H44.7101V55.7773Z" fill="#A6A6A6"/>
<path d="M73.633 64.042H65.3691V68.1739H73.633V64.042Z" fill="#8F90B9"/>
<path d="M98.4249 55.7773H94.293V64.0412H98.4249V55.7773Z" fill="#A6A6A6"/>
<path d="M90.1534 64.0421V68.174H81.8895V72.306H57.0979V68.174H48.834V64.0421H52.9659V59.9102H65.3618V68.174H73.6257V59.9102H86.0215V64.0421H90.1534Z" fill="#A6A6A6"/>
<path d="M73.633 59.9102H65.3691V64.0421H73.633V59.9102Z" fill="#FBF6D8"/>
<path d="M90.1534 101.228V105.36H48.834V101.228H52.9659V97.0961H57.0979V88.8322H61.2298V84.7003H65.3618V80.5684H73.6257V84.7003H77.7576V88.8322H81.8895V97.0961H86.0215V101.228H90.1534Z" fill="#FBF6D8"/>
<path d="M98.4253 97.0972V105.361H90.1615V101.229H86.0295V97.0972H81.8976V88.8333H77.7656V84.7014H73.6337V80.5694H65.3698V84.7014H61.2378V88.8333H57.1059V97.0972H52.974V101.229H48.842V105.361H40.5781V97.0972H44.7101V88.8333H48.842V80.5694H52.974V76.4375H86.0295V80.5694H90.1615V88.8333H94.2934V97.0972H98.4253Z" fill="#8F90B9"/>
<path d="M90.1534 55.7773H48.834V59.9093H90.1534V55.7773Z" fill="#513A77"/>
<path d="M98.426 47.5137H90.1621V55.7776H98.426V47.5137Z" fill="#513A77"/>
<path d="M110.822 55.7775V59.9094H106.691V64.0413H102.559V68.1733H94.2947V72.3052H86.0308V76.4372H52.9753V72.3052H44.7114V68.1733H36.4475V64.0413H32.3155V59.9094H28.1836V55.7775H32.3155V51.6455H36.4475V55.7775H40.5794V64.0413H48.8433V68.1733H57.1072V72.3052H81.8989V68.1733H90.1628V64.0413H98.4266V55.7775H102.559V51.6455H106.691V55.7775H110.822Z" fill="#513A77"/>
<path d="M48.842 47.5137H40.5781V55.7776H48.842V47.5137Z" fill="#513A77"/>
<path d="M69.4937 43.3811V51.645H65.3618V55.7769H48.834V43.3811H52.9659V39.2491H57.0979V35.1172H61.2298V39.2491H65.3618V43.3811H69.4937Z" fill="#7DC2F9"/>
<path d="M81.8921 47.513V51.645H73.6283V55.7769H65.3644V51.645H69.4963V43.3811H65.3644V39.2491H61.2324V35.1172H73.6283V39.2491H77.7602V47.513H81.8921Z" fill="#3F9EEC"/>
<path d="M90.1547 43.3811V55.7769H73.627V51.645H81.8908V47.513H77.7589V39.2491H73.627V35.1172H81.8908V39.2491H86.0228V43.3811H90.1547Z" fill="#2B6DA3"/>
</g>
<defs>
<filter id="filter0_d_624_17059" x="0.650649" y="0.149673" width="137.699" height="137.701" filterUnits="userSpaceOnUse" color-interpolation-filters="sRGB">
<feFlood flood-opacity="0" result="BackgroundImageFix"/>
<feColorMatrix in="SourceAlpha" type="matrix" values="0 0 0 0 0 0 0 0 0 0 0 0 0 0 0 0 0 0 127 0" result="hardAlpha"/>
<feOffset/>
<feGaussianBlur stdDeviation="6.09167"/>
<feComposite in2="hardAlpha" operator="out"/>
<feColorMatrix type="matrix" values="0 0 0 0 0.317647 0 0 0 0 0.227451 0 0 0 0 0.466667 0 0 0 1 0"/>
<feBlend mode="normal" in2="BackgroundImageFix" result="effect1_dropShadow_624_17059"/>
<feBlend mode="normal" in="SourceGraphic" in2="effect1_dropShadow_624_17059" result="shape"/>
</filter>
</defs>
</svg>
