<svg width="25" height="20" viewBox="0 0 25 20" fill="none" xmlns="http://www.w3.org/2000/svg">
<path d="M7.80078 7H6.80078V8H7.80078V7Z" fill="#8F90B9"/>
<path d="M18.8008 7H17.8008V8H18.8008V7Z" fill="#8F90B9"/>
<path d="M20.8008 5H19.8008V6H20.8008V5Z" fill="#FBF6D8"/>
<path d="M18.8008 6H17.8008V7H18.8008V6Z" fill="#FBF6D8"/>
<path d="M17.8008 7H16.8008V8H17.8008V7Z" fill="#FBF6D8"/>
<path d="M5.80078 5H4.80078V6H5.80078V5Z" fill="#FBF6D8"/>
<path d="M7.80078 6H6.80078V7H7.80078V6Z" fill="#FBF6D8"/>
<path d="M8.80078 7H7.80078V8H8.80078V7Z" fill="#FBF6D8"/>
<path d="M6.80078 6H5.80078V8H6.80078V6Z" fill="#A6A6A6"/>
<path d="M13.8008 8H11.8008V9H13.8008V8Z" fill="#8F90B9"/>
<path d="M19.8008 6H18.8008V8H19.8008V6Z" fill="#A6A6A6"/>
<path d="M17.8008 8V9H15.8008V10H9.80078V9H7.80078V8H8.80078V7H11.8008V9H13.8008V7H16.8008V8H17.8008Z" fill="#A6A6A6"/>
<path d="M13.8008 7H11.8008V8H13.8008V7Z" fill="#FBF6D8"/>
<path d="M17.8008 17V18H7.80078V17H8.80078V16H9.80078V14H10.8008V13H11.8008V12H13.8008V13H14.8008V14H15.8008V16H16.8008V17H17.8008Z" fill="#FBF6D8"/>
<path d="M19.8008 16V18H17.8008V17H16.8008V16H15.8008V14H14.8008V13H13.8008V12H11.8008V13H10.8008V14H9.80078V16H8.80078V17H7.80078V18H5.80078V16H6.80078V14H7.80078V12H8.80078V11H16.8008V12H17.8008V14H18.8008V16H19.8008Z" fill="#8F90B9"/>
<path d="M17.8008 6H7.80078V7H17.8008V6Z" fill="#513A77"/>
<path d="M19.8008 4H17.8008V6H19.8008V4Z" fill="#513A77"/>
<path d="M22.8008 6V7H21.8008V8H20.8008V9H18.8008V10H16.8008V11H8.80078V10H6.80078V9H4.80078V8H3.80078V7H2.80078V6H3.80078V5H4.80078V6H5.80078V8H7.80078V9H9.80078V10H15.8008V9H17.8008V8H19.8008V6H20.8008V5H21.8008V6H22.8008Z" fill="#513A77"/>
<path d="M7.80078 4H5.80078V6H7.80078V4Z" fill="#513A77"/>
<path d="M12.8008 3V5H11.8008V6H7.80078V3H8.80078V2H9.80078V1H10.8008V2H11.8008V3H12.8008Z" fill="#7DC2F9"/>
<path d="M15.8008 4V5H13.8008V6H11.8008V5H12.8008V3H11.8008V2H10.8008V1H13.8008V2H14.8008V4H15.8008Z" fill="#3F9EEC"/>
<path d="M17.8008 3V6H13.8008V5H15.8008V4H14.8008V2H13.8008V1H15.8008V2H16.8008V3H17.8008Z" fill="#2B6DA3"/>
</svg>
