<svg width="21" height="21" viewBox="0 0 21 21" fill="none" xmlns="http://www.w3.org/2000/svg">
<g clip-path="url(#clip0_1166_13272)">
<path fill-rule="evenodd" clip-rule="evenodd" d="M9.96484 2.06738H4.96484V3.73405L3.29883 3.73405V8.73405H4.96484V10.4007H9.96484V8.73401L11.6315 8.73401V3.73401H9.96484V2.06738ZM9.96484 8.73401H4.96549V3.73405L9.96484 3.73405V8.73401ZM0.798828 13.734L2.46484 13.734V12.0674H12.4648V13.734H14.1315V18.734H12.4648V18.734H2.46549H2.46484H0.798828V13.734ZM2.46549 17.0674H12.4648V13.734L2.46549 13.734V17.0674ZM13.2988 2.06738H16.6322V3.73405H13.2988V2.06738ZM16.6322 8.73405H13.2988V10.4007H16.6322V8.73405ZM16.6328 3.73401H18.2995V8.73401H16.6328V3.73401ZM20.7995 13.734H19.1328V17.0673H20.7995V13.734ZM15.7988 12.0674H19.1322V13.734H15.7988V12.0674ZM20.7988 17.0674H15.7988V18.734H20.7988V17.0674Z" fill="white"/>
</g>
<defs>
<clipPath id="clip0_1166_13272">
<rect width="20" height="20" fill="white" transform="translate(0.800781 0.400391)"/>
</clipPath>
</defs>
</svg>
