<svg width="40" height="41" viewBox="0 0 40 41" fill="none" xmlns="http://www.w3.org/2000/svg">
<path d="M20.0007 13.833H13.334V15.4997H20.0007V13.833Z" fill="#835331"/>
<path d="M23.3333 12.167H20V13.8337H23.3333V12.167Z" fill="#835331"/>
<path d="M13.3346 10.5H11.668V13.8333H13.3346V10.5Z" fill="#5F2F0C"/>
<path d="M38.3346 10.5H36.668V23.8333H38.3346V10.5Z" fill="black"/>
<path d="M36.6667 23.833H35V25.4997H36.6667V23.833Z" fill="black"/>
<path d="M36.6667 22.167H35V23.8337H36.6667V22.167Z" fill="#835331"/>
<path d="M36.6667 8.83301H35V10.4997H36.6667V8.83301Z" fill="black"/>
<path d="M35.0007 25.5H33.334V27.1667H35.0007V25.5Z" fill="black"/>
<path d="M35.0007 20.5H33.334V22.1667H35.0007V20.5Z" fill="#835331"/>
<path d="M35.0007 7.16699H33.334V8.83366H35.0007V7.16699Z" fill="black"/>
<path d="M33.3346 27.167H31.668V28.8337H33.3346V27.167Z" fill="black"/>
<path d="M33.3346 25.5H31.668V27.1667H33.3346V25.5Z" fill="#835331"/>
<path d="M33.3346 18.833H31.668V20.4997H33.3346V18.833Z" fill="#835331"/>
<path d="M33.3346 5.5H31.668V7.16667H33.3346V5.5Z" fill="black"/>
<path d="M31.6667 28.833H30V30.4997H31.6667V28.833Z" fill="black"/>
<path d="M31.6667 23.833H30V25.4997H31.6667V23.833Z" fill="#835331"/>
<path d="M31.6667 17.167H30V18.8337H31.6667V17.167Z" fill="#835331"/>
<path d="M31.6673 3.83301H8.33398V5.49967H31.6673V3.83301Z" fill="black"/>
<path d="M30.0007 30.5H28.334V32.1667H30.0007V30.5Z" fill="black"/>
<path d="M30.0007 28.833H28.334V30.4997H30.0007V28.833Z" fill="#835331"/>
<path d="M30.0007 22.167H28.334V23.8337H30.0007V22.167Z" fill="#835331"/>
<path d="M33.3346 10.5V12.1667H31.668V15.5H30.0013V17.1667H28.3346V15.5H26.668V13.8333H28.3346V12.1667H30.0013V10.5H33.3346Z" fill="#835331"/>
<path d="M30.0007 10.5H28.334V12.1667H30.0007V10.5Z" fill="#5F2F0C"/>
<path d="M28.3346 32.167H26.668V33.8337H28.3346V32.167Z" fill="black"/>
<path d="M28.3346 27.167H26.668V28.8337H28.3346V27.167Z" fill="#835331"/>
<path d="M28.3346 20.5H26.668V22.1667H28.3346V20.5Z" fill="#835331"/>
<path d="M26.6667 33.833H25V35.4997H26.6667V33.833Z" fill="black"/>
<path d="M26.6667 32.167H25V33.8337H26.6667V32.167Z" fill="#835331"/>
<path d="M26.6667 25.5H25V27.1667H26.6667V25.5Z" fill="#835331"/>
<path d="M28.3333 12.167H25V13.8337H28.3333V12.167Z" fill="#5F2F0C"/>
<path d="M25.0007 30.5H23.334V32.1667H25.0007V30.5Z" fill="#835331"/>
<path d="M25.0007 23.833H23.334V25.4997H25.0007V23.833Z" fill="#835331"/>
<path d="M25.0013 35.5H21.668V37.1667H25.0013V35.5Z" fill="black"/>
<path d="M25 32.1667V35.5H21.6667V33.8333H20V32.1667H21.6667V30.5H23.3333V32.1667H25Z" fill="#FECF8F"/>
<path d="M23.3346 28.833H21.668V30.4997H23.3346V28.833Z" fill="#835331"/>
<path d="M21.6667 30.5H20V32.1667H21.6667V30.5Z" fill="#835331"/>
<path d="M25 10.5H20V12.1667H25V10.5Z" fill="#5F2F0C"/>
<path d="M21.6673 33.833H18.334V35.4997H21.6673V33.833Z" fill="black"/>
<path d="M20.0007 32.167H18.334V33.8337H20.0007V32.167Z" fill="#835331"/>
<path d="M36.6673 10.5V22.1667H35.0007V20.5H33.334V18.8333H31.6673V17.1667H30.0007V15.5H31.6673V12.1667H33.334V10.5H28.334V12.1667H25.0007V10.5H20.0007V13.8333H13.334V10.5H15.0007V8.83333H16.6673V7.16667H20.0007V5.5H31.6673V7.16667H33.334V8.83333H35.0007V10.5H36.6673Z" fill="#BC703C"/>
<path d="M18.3346 33.833H16.668V35.4997H18.3346V33.833Z" fill="#835331"/>
<path d="M18.3346 27.167H16.668V28.8337H18.3346V27.167Z" fill="#5F2F0C"/>
<path d="M20.0013 5.5H16.668V7.16667H20.0013V5.5Z" fill="#5F2F0C"/>
<path d="M18.3333 35.5H15V37.1667H18.3333V35.5Z" fill="black"/>
<path d="M16.6667 28.833H15V30.4997H16.6667V28.833Z" fill="#5F2F0C"/>
<path d="M16.6667 7.16699H15V8.83366H16.6667V7.16699Z" fill="#5F2F0C"/>
<path d="M15.0007 33.833H13.334V35.4997H15.0007V33.833Z" fill="black"/>
<path d="M21.6673 27.167V30.5003H20.0007V32.167H18.334V33.8337H16.6673V35.5003H15.0007V33.8337H13.334V32.167H15.0007V30.5003H16.6673V28.8337H18.334V27.167H21.6673Z" fill="#BC703C"/>
<path d="M15.0007 30.5H13.334V32.1667H15.0007V30.5Z" fill="#5F2F0C"/>
<path d="M15.0007 23.833H13.334V25.4997H15.0007V23.833Z" fill="#5F2F0C"/>
<path d="M15.0007 8.83301H13.334V10.4997H15.0007V8.83301Z" fill="#5F2F0C"/>
<path d="M13.3346 32.167H11.668V33.8337H13.3346V32.167Z" fill="black"/>
<path d="M18.3333 23.833V27.1663H16.6667V28.833H15V30.4997H13.3333V32.1663H11.6667V30.4997H10V28.833H11.6667V27.1663H13.3333V25.4997H15V23.833H18.3333Z" fill="#BC703C"/>
<path d="M13.3346 25.5H11.668V27.1667H13.3346V25.5Z" fill="#5F2F0C"/>
<path d="M11.6667 30.5H10V32.1667H11.6667V30.5Z" fill="black"/>
<path d="M11.6667 27.167H10V28.8337H11.6667V27.167Z" fill="#5F2F0C"/>
<path d="M11.6667 20.5H10V22.1667H11.6667V20.5Z" fill="#5F2F0C"/>
<path d="M10.0007 28.833H8.33398V30.4997H10.0007V28.833Z" fill="black"/>
<path d="M10.0007 22.167H8.33398V23.8337H10.0007V22.167Z" fill="#5F2F0C"/>
<path d="M8.33464 27.167H6.66797V28.8337H8.33464V27.167Z" fill="black"/>
<path d="M15.0013 20.5V23.8333H13.3346V25.5H11.668V27.1667H10.0013V28.8333H8.33464V27.1667H6.66797V25.5H8.33464V23.8333H10.0013V22.1667H11.668V20.5H15.0013Z" fill="#BC703C"/>
<path d="M8.33464 23.833H6.66797V25.4997H8.33464V23.833Z" fill="#5F2F0C"/>
<path d="M8.33464 5.5H6.66797V7.16667H8.33464V5.5Z" fill="black"/>
<path d="M6.66667 25.5H5V27.1667H6.66667V25.5Z" fill="black"/>
<path d="M11.6673 17.167V20.5003H10.0007V22.167H8.33398V23.8337H6.66732V25.5003H5.00065V23.8337H3.33398V22.167H5.00065V20.5003H6.66732V18.8337H8.33398V17.167H11.6673Z" fill="#BC703C"/>
<path d="M6.66667 7.16699H5V8.83366H6.66667V7.16699Z" fill="black"/>
<path d="M5.00065 23.833H3.33398V25.4997H5.00065V23.833Z" fill="black"/>
<path d="M35.0007 22.1667V25.5H31.6673V23.8333H30.0007V22.1667H28.334V20.5H26.6673V22.1667H28.334V23.8333H30.0007V25.5H31.6673V28.8333H28.334V27.1667H26.6673V25.5H25.0007V23.8333H23.334V25.5H25.0007V27.1667H26.6673V28.8333H28.334V32.1667H25.0007V30.5H23.334V28.8333H21.6673V27.1667H18.334V23.8333H15.0007V20.5H11.6673V17.1667H8.33398V18.8333H6.66732V20.5H5.00065V22.1667H3.33398V10.5H5.00065V8.83333H6.66732V7.16667H8.33398V5.5H16.6673V7.16667H15.0007V8.83333H13.334V10.5H11.6673V13.8333H13.334V15.5H20.0007V13.8333H23.334V12.1667H25.0007V13.8333H26.6673V15.5H28.334V17.1667H30.0007V18.8333H31.6673V20.5H33.334V22.1667H35.0007Z" fill="#FECF8F"/>
<path d="M5.00065 8.83301H3.33398V10.4997H5.00065V8.83301Z" fill="black"/>
<path d="M3.33464 10.5H1.66797V23.8333H3.33464V10.5Z" fill="black"/>
</svg>
