<svg width="56" height="56" viewBox="0 0 56 56" fill="none" xmlns="http://www.w3.org/2000/svg">
<path d="M39.6673 51.333H16.334V53.6663H39.6673V51.333Z" fill="black"/>
<path d="M53.6673 42H51.334V51.3333H53.6673V42Z" fill="black"/>
<path d="M46.6673 46.6663H44.334V23.333H46.6673V37.333H49.0007V39.6663H46.6673V46.6663Z" fill="black"/>
<path d="M51.3333 51.333H42V53.6663H51.3333V51.333Z" fill="black"/>
<path d="M41.9993 18.667H39.666V21.0003H41.9993V18.667Z" fill="black"/>
<path d="M44.3333 21H42V23.3333H44.3333V21Z" fill="black"/>
<path d="M51.3333 39.667H49V42.0003H51.3333V39.667Z" fill="black"/>
<path d="M44.3333 46.667H42V49.0003H44.3333V46.667Z" fill="black"/>
<path d="M41.9993 49H39.666V51.3333H41.9993V49Z" fill="black"/>
<path d="M13.9993 46.667H11.666V49.0003H13.9993V46.667Z" fill="black"/>
<path d="M16.3333 49H14V51.3333H16.3333V49Z" fill="black"/>
<path d="M9.33333 39.6663H7V37.333H9.33333V23.333H11.6667V46.6663H9.33333V39.6663Z" fill="black"/>
<path d="M4.66732 42H2.33398V51.3333H4.66732V42Z" fill="black"/>
<path d="M13.9993 51.333H4.66602V53.6663H13.9993V51.333Z" fill="black"/>
<path d="M6.99935 39.667H4.66602V42.0003H6.99935V39.667Z" fill="black"/>
<path d="M13.9993 21H11.666V23.3333H13.9993V21Z" fill="black"/>
<path d="M16.3333 18.667H14V21.0003H16.3333V18.667Z" fill="black"/>
<path d="M18.6673 16.333H16.334V18.6663H18.6673V16.333Z" fill="black"/>
<path d="M39.6673 16.333H37.334V18.6663H39.6673V16.333Z" fill="black"/>
<path d="M37.3333 11.667H35V16.3337H37.3333V11.667Z" fill="black"/>
<path d="M20.9993 11.667H18.666V16.3337H20.9993V11.667Z" fill="black"/>
<path d="M20.9993 7H18.666V9.33333H20.9993V7Z" fill="black"/>
<path d="M23.3333 9.33301H21V11.6663H23.3333V9.33301Z" fill="black"/>
<path d="M34.9993 9.33301H32.666V11.6663H34.9993V9.33301Z" fill="black"/>
<path d="M37.3333 7H35V9.33333H37.3333V7Z" fill="black"/>
<path d="M39.6673 4.66699H37.334V7.00033H39.6673V4.66699Z" fill="black"/>
<path d="M37.3327 2.33301H18.666V4.66634H37.3327V2.33301Z" fill="black"/>
<path d="M18.6673 4.66699H16.334V7.00033H18.6673V4.66699Z" fill="black"/>
<path d="M35 11.6663V16.333H21V11.6663H23.3333V9.33301H32.6667V11.6663H35Z" fill="#B57018"/>
<path d="M37.334 30.333V25.6663H32.6673V23.333H23.334V25.6663H18.6673V30.333H16.334V37.333H18.6673V41.9997H23.334V44.333H32.6673V41.9997H37.334V37.333H39.6673V30.333H37.334ZM28.0007 39.6663V41.9997H25.6673V39.6663H23.334V37.333H30.334V34.9997H23.334V27.9997H28.0007V25.6663H30.334V27.9997H32.6673V30.333H25.6673V32.6663H32.6673V39.6663H28.0007Z" fill="#B57018"/>
<path d="M30.3327 44.333H25.666V51.333H30.3327V44.333Z" fill="white"/>
<path d="M25.6673 4.66699H23.334V9.33366H25.6673V4.66699Z" fill="white"/>
<path d="M32.6673 4.66699H30.334V9.33366H32.6673V4.66699Z" fill="white"/>
<path d="M32.6673 16.333V18.6663H30.334V23.333H25.6673V18.6663H23.334V16.333H32.6673Z" fill="white"/>
<path d="M37.3327 4.66699V7.00033H34.9993V9.33366H32.666V4.66699H37.3327Z" fill="#FFD100"/>
<path d="M30.3327 4.66699H25.666V9.33366H30.3327V4.66699Z" fill="#FFD100"/>
<path d="M23.3327 4.66699V9.33366H20.9993V7.00033H18.666V4.66699H23.3327Z" fill="#FFD100"/>
<path d="M25.6673 30.3337V32.667H32.6673V39.667H28.0007V42.0003H25.6673V39.667H23.334V37.3337H30.334V35.0003H23.334V28.0003H28.0007V25.667H30.334V28.0003H32.6673V30.3337H25.6673Z" fill="#FFD100"/>
<path d="M16.3327 30.333V37.333H18.666V41.9997H23.3327V44.333H25.666V51.333H16.3327V48.9997H13.9993V46.6663H11.666V23.333H13.9993V20.9997H16.3327V18.6663H18.666V16.333H23.3327V18.6663H25.666V23.333H23.3327V25.6663H18.666V30.333H16.3327Z" fill="#FFD100"/>
<path d="M13.9993 49.0003V51.3337H4.66602V42.0003H6.99935V39.667H9.33268V46.667H11.666V49.0003H13.9993Z" fill="#FFD100"/>
<path d="M51.3333 42.0003V51.3337H42V49.0003H44.3333V46.667H46.6667V39.667H49V42.0003H51.3333Z" fill="#FFD100"/>
<path d="M44.334 23.333V46.6663H42.0007V48.9997H39.6673V51.333H30.334V44.333H32.6673V41.9997H37.334V37.333H39.6673V30.333H37.334V25.6663H32.6673V23.333H30.334V18.6663H32.6673V16.333H37.334V18.6663H39.6673V20.9997H42.0007V23.333H44.334Z" fill="#FFD100"/>
</svg>
