<?xml version="1.0" encoding="UTF-8"?>
<svg version="1.1" xmlns="http://www.w3.org/2000/svg" width="100" height="100">
<path d="M0 0 C33 0 66 0 100 0 C100 33 100 66 100 100 C67 100 34 100 0 100 C0 67 0 34 0 0 Z " fill="#010001" transform="translate(0,0)"/>
<path d="M0 0 C3.214197 1.63631847 5.24693202 2.97308912 7.375 5.875 C8.66211255 10.25118265 8.3510327 13.21017643 6.5 17.375 C6.005 18.24125 5.51 19.1075 5 20 C5.886875 19.154375 6.77375 18.30875 7.6875 17.4375 C10.6008348 14.97396749 10.6008348 14.97396749 13.875 15.1875 C14.57625 15.455625 15.2775 15.72375 16 16 C15.67 17.32 15.34 18.64 15 20 C13.02 19.67 11.04 19.34 9 19 C9.99 20.32 10.98 21.64 12 23 C6.25 26 6.25 26 4 26 C3.67 24.68 3.34 23.36 3 22 C3.103125 23.258125 3.20625 24.51625 3.3125 25.8125 C3.28496925 29.68745308 3.28496925 29.68745308 1.0625 32.125 C-3.31241595 33.37497599 -6.72348495 32.29506665 -11 31 C-11.33 31.66 -11.66 32.32 -12 33 C-8.04 33.33 -4.08 33.66 0 34 C-2.25 36.5 -2.25 36.5 -5 39 C-6.32 39 -7.64 39 -9 39 C-8.67 39.99 -8.34 40.98 -8 42 C-9.32 41.67 -10.64 41.34 -12 41 C-11.67 40.01 -11.34 39.02 -11 38 C-11.928125 38.2784375 -11.928125 38.2784375 -12.875 38.5625 C-15 39 -15 39 -17 38 C-16.67 39.32 -16.34 40.64 -16 42 C-17.32 41.67 -18.64 41.34 -20 41 C-19.42316338 37.10635283 -17.45178223 34.98810959 -15 32 C-14.67 31.01 -14.34 30.02 -14 29 C-15.32 29 -16.64 29 -18 29 C-17.8125 26.625 -17.8125 26.625 -17 24 C-14.4375 22.6875 -14.4375 22.6875 -12 22 C-12.33 20.02 -12.66 18.04 -13 16 C-13.66 16 -14.32 16 -15 16 C-16.6431994 12.71360119 -16.77675035 9.52474947 -16 6 C-12.10312365 0.18522525 -6.68381154 -1.43398138 0 0 Z " fill="#F7F7F5" transform="translate(45,11)"/>
<path d="M0 0 C2.90398503 2.11912421 3.84245093 3.50634623 4.9375 6.9375 C5.01327396 10.65042412 4.3135507 12.12800603 2 15 C-0.54229606 16.92863839 -1.78345018 17.00902291 -5 16.875 C-8.51132158 15.85086454 -9.85059493 14.94548102 -12 12 C-13.14695938 8.40619396 -13.316323 6.73253748 -11.8125 3.25 C-8.25338701 -1.16820922 -5.43293055 -1.58460474 0 0 Z " fill="#5DA3E7" transform="translate(47,14)"/>
<path d="M0 0 C5.94 1.485 5.94 1.485 12 3 C11.01 3.33 10.02 3.66 9 4 C9.66 4.33 10.32 4.66 11 5 C11 5.66 11 6.32 11 7 C11.66 7.66 12.32 8.32 13 9 C12.505 9.45375 12.01 9.9075 11.5 10.375 C9.77390663 11.87635519 9.77390663 11.87635519 10 14 C5.545 13.01 5.545 13.01 1 12 C0.67 12.66 0.34 13.32 0 14 C3.96 14.33 7.92 14.66 12 15 C9.75 17.5 9.75 17.5 7 20 C5.68 20 4.36 20 3 20 C3.33 20.99 3.66 21.98 4 23 C2.68 22.67 1.36 22.34 0 22 C0.33 21.01 0.66 20.02 1 19 C0.38125 19.185625 -0.2375 19.37125 -0.875 19.5625 C-3 20 -3 20 -5 19 C-4.67 20.32 -4.34 21.64 -4 23 C-5.32 22.67 -6.64 22.34 -8 22 C-7.42316338 18.10635283 -5.45178223 15.98810959 -3 13 C-2.67 12.01 -2.34 11.02 -2 10 C-3.32 10 -4.64 10 -6 10 C-5.8125 7.625 -5.8125 7.625 -5 5 C-2.4375 3.6875 -2.4375 3.6875 0 3 C0 2.01 0 1.02 0 0 Z " fill="#E7E0D0" transform="translate(33,30)"/>
<path d="M0 0 C-2.25 2.5 -2.25 2.5 -5 5 C-6.32 5 -7.64 5 -9 5 C-8.67 5.99 -8.34 6.98 -8 8 C-9.32 7.67 -10.64 7.34 -12 7 C-11.67 6.01 -11.34 5.02 -11 4 C-11.61875 4.185625 -12.2375 4.37125 -12.875 4.5625 C-15 5 -15 5 -17 4 C-16.67 5.32 -16.34 6.64 -16 8 C-17.32 7.67 -18.64 7.34 -20 7 C-19.78149563 3.94093884 -18.91568348 2.91334136 -16.75 0.6875 C-11.81665685 -2.43533052 -5.47323059 -0.74708785 0 0 Z " fill="#F7F6ED" transform="translate(45,45)"/>
<path d="M0 0 C3.47782675 1.08682086 4.85775164 2.00182632 7 4.9375 C8.14695938 8.53130604 8.316323 10.20496252 6.8125 13.6875 C4.88971429 16.0744064 3.93359496 17.09933001 1 17.9375 C-2.25 17.5625 -2.25 17.5625 -5 16.9375 C-5 16.6075 -5 16.2775 -5 15.9375 C-3.88625 15.710625 -2.7725 15.48375 -1.625 15.25 C2.16038373 14.33126342 2.16038373 14.33126342 3.4375 11.3125 C3.623125 10.52875 3.80875 9.745 4 8.9375 C4.66 8.9375 5.32 8.9375 6 8.9375 C6 8.2775 6 7.6175 6 6.9375 C5.34 6.6075 4.68 6.2775 4 5.9375 C4 5.2775 4 4.6175 4 3.9375 C0.37 3.6075 -3.26 3.2775 -7 2.9375 C-3 -0.0625 -3 -0.0625 0 0 Z " fill="#4D65B4" transform="translate(44,13.0625)"/>
<path d="M0 0 C0.680625 0.28875 1.36125 0.5775 2.0625 0.875 C1.7325 2.195 1.4025 3.515 1.0625 4.875 C-1.9075 4.38 -1.9075 4.38 -4.9375 3.875 C-3.9475 5.195 -2.9575 6.515 -1.9375 7.875 C-7.6875 10.875 -7.6875 10.875 -9.9375 10.875 C-10.375 8.75 -10.375 8.75 -9.9375 5.875 C-7.13830412 2.42740281 -4.56579113 -0.19428898 0 0 Z " fill="#EFEDED" transform="translate(58.9375,26.125)"/>
<path d="M0 0 C1.61949011 2.57213134 2.04408751 3.67669159 1.625 6.75 C1.41875 7.4925 1.2125 8.235 1 9 C-0.8125 9.6875 -0.8125 9.6875 -3 10 C-4.75 8.5625 -4.75 8.5625 -6 7 C-5.071875 6.1028125 -5.071875 6.1028125 -4.125 5.1875 C-1.86323046 2.99188856 -1.86323046 2.99188856 0 0 Z " fill="#FFFFFF" transform="translate(46,33)"/>
<path d="M0 0 C0.90492187 0.23396484 0.90492187 0.23396484 1.828125 0.47265625 C3.02695312 0.76462891 3.02695312 0.76462891 4.25 1.0625 C5.43335938 1.35833984 5.43335938 1.35833984 6.640625 1.66015625 C9.10394822 2.01497267 10.65604132 1.76877544 13 1 C12.67 1.99 12.34 2.98 12 4 C10.20841511 4.02696365 8.41671527 4.04637917 6.625 4.0625 C5.62726562 4.07410156 4.62953125 4.08570313 3.6015625 4.09765625 C1 4 1 4 -1 3 C-0.67 2.01 -0.34 1.02 0 0 Z " fill="#6F3198" transform="translate(34,41)"/>
<path d="M0 0 C1.67542976 0.28604898 3.34385343 0.61781233 5 1 C4.67 2.32 4.34 3.64 4 5 C1.69 5 -0.62 5 -3 5 C-1.125 1.125 -1.125 1.125 0 0 Z " fill="#F8F6EA" transform="translate(56,26)"/>
<path d="M0 0 C0.66 0.33 1.32 0.66 2 1 C1.38461538 6.53846154 1.38461538 6.53846154 -0.5625 8.875 C-1.2740625 9.431875 -1.2740625 9.431875 -2 10 C-2.66 9.67 -3.32 9.34 -4 9 C-3.01 7.02 -2.02 5.04 -1 3 C-1.66 2.34 -2.32 1.68 -3 1 C-2.01 0.67 -1.02 0.34 0 0 Z " fill="#D9D4AD" transform="translate(32,37)"/>
<path d="M0 0 C0 0.99 0 1.98 0 3 C-3.465 4.485 -3.465 4.485 -7 6 C-6.67 4.35 -6.34 2.7 -6 1 C-3 0 -3 0 0 0 Z " fill="#FFFEF6" transform="translate(34,34)"/>
<path d="M0 0 C1.98 0.66 3.96 1.32 6 2 C5.34 3.98 4.68 5.96 4 8 C3.34 8 2.68 8 2 8 C2.04125 7.236875 2.0825 6.47375 2.125 5.6875 C2.22080824 2.77281584 2.22080824 2.77281584 0 0 Z " fill="#9F81B0" transform="translate(33,30)"/>
</svg>
