<?xml version="1.0" encoding="UTF-8"?>
<svg version="1.1" xmlns="http://www.w3.org/2000/svg" width="500" height="500">
<path d="M0 0 C0.495 1.98 0.495 1.98 1 4 C2.918125 3.938125 2.918125 3.938125 4.875 3.875 C7.0546875 3.8046875 7.0546875 3.8046875 9 4 C11 6 11 6 11 10 C13.97 10 16.94 10 20 10 C20 11.32 20 12.64 20 14 C21.65 14 23.3 14 25 14 C25 15.65 25 17.3 25 19 C26.2065625 18.9690625 26.2065625 18.9690625 27.4375 18.9375 C30 19 30 19 31 20 C31.07179964 21.51928038 31.08392007 23.04167482 31.0625 24.5625 C31.05347656 25.38878906 31.04445313 26.21507813 31.03515625 27.06640625 C31.01775391 28.02353516 31.01775391 28.02353516 31 29 C32.32 29.33 33.64 29.66 35 30 C35 33.3 35 36.6 35 40 C36.65 40 38.3 40 40 40 C40 49.57 40 59.14 40 69 C38.02 69.99 38.02 69.99 36 71 C35.30367785 72.95365445 35.30367785 72.95365445 35.25 75.125 C35.1675 76.40375 35.085 77.6825 35 79 C33.68 79.33 32.36 79.66 31 80 C31.02320313 80.62648438 31.04640625 81.25296875 31.0703125 81.8984375 C31.08835937 82.71570313 31.10640625 83.53296875 31.125 84.375 C31.14820313 85.18710938 31.17140625 85.99921875 31.1953125 86.8359375 C31 89 31 89 29 91 C27.68 91 26.36 91 25 91 C25 92.65 25 94.3 25 96 C23.35 96 21.7 96 20 96 C20 98.97 20 101.94 20 105 C21.32 104.67 22.64 104.34 24 104 C24.33 102.35 24.66 100.7 25 99 C27.97 99 30.94 99 34 99 C34 97.68 34 96.36 34 95 C35.65 95 37.3 95 39 95 C39.33 93.35 39.66 91.7 40 90 C41.65 90 43.3 90 45 90 C45 88.35 45 86.7 45 85 C47.475 84.505 47.475 84.505 50 84 C50.33 82.35 50.66 80.7 51 79 C51.99 79 52.98 79 54 79 C54.33 77.68 54.66 76.36 55 75 C61.6 75 68.2 75 75 75 C75.33 76.32 75.66 77.64 76 79 C77.32 79 78.64 79 80 79 C81.42597611 81.85195222 81.1320252 84.32461175 81.125 87.5 C81.12757813 88.6653125 81.13015625 89.830625 81.1328125 91.03125 C81 94 81 94 80 96 C78.68 96 77.36 96 76 96 C76 97.32 76 98.64 76 100 C74.02 100 72.04 100 70 100 C69.67 101.65 69.34 103.3 69 105 C68.01 105.33 67.02 105.66 66 106 C65.26676204 108.01508358 65.26676204 108.01508358 65 110 C63.68 110.33 62.36 110.66 61 111 C61 112.32 61 113.64 61 115 C57.7 115 54.4 115 51 115 C50.67 116.98 50.34 118.96 50 121 C46.7 121 43.4 121 40 121 C40 122.32 40 123.64 40 125 C37.04335481 126.4783226 34.25770263 126.06032783 31 126 C30.67 127.32 30.34 128.64 30 130 C26.7 130 23.4 130 20 130 C19.67 131.65 19.34 133.3 19 135 C18.01 135.33 17.02 135.66 16 136 C16.02320313 136.91523438 16.04640625 137.83046875 16.0703125 138.7734375 C16.08835938 139.96195313 16.10640625 141.15046875 16.125 142.375 C16.14820313 143.55835938 16.17140625 144.74171875 16.1953125 145.9609375 C16 149 16 149 14 151 C13.01 151 12.02 151 11 151 C11.04125 151.928125 11.0825 152.85625 11.125 153.8125 C11 157 11 157 9 160 C8.01 160.33 7.02 160.66 6 161 C5.896875 162.093125 5.79375 163.18625 5.6875 164.3125 C4.988068 168.06399892 4.74005005 168.69835795 2 171 C0.82425289 173.09989652 0.82425289 173.09989652 0 175 C-1.32 175 -2.64 175 -4 175 C-3.979375 175.804375 -3.95875 176.60875 -3.9375 177.4375 C-4 180 -4 180 -5 181 C-6.66617115 181.04063832 -8.33388095 181.042721 -10 181 C-10 182.65 -10 184.3 -10 186 C-12.97 186 -15.94 186 -19 186 C-19 187.32 -19 188.64 -19 190 C-20.98 190 -22.96 190 -25 190 C-25 191.65 -25 193.3 -25 195 C-26.32 195 -27.64 195 -29 195 C-29.99 197.97 -29.99 197.97 -31 201 C-31.99 201 -32.98 201 -34 201 C-34.33 202.32 -34.66 203.64 -35 205 C-36.65 205 -38.3 205 -40 205 C-40 206.65 -40 208.3 -40 210 C-45.28 210 -50.56 210 -56 210 C-56 208.35 -56 206.7 -56 205 C-57.32 205 -58.64 205 -60 205 C-61.60725635 201.78548731 -61.05748185 198.56387464 -61 195 C-63.64 195.33 -66.28 195.66 -69 196 C-69.66 198.97 -70.32 201.94 -71 205 C-73.31 205.33 -75.62 205.66 -78 206 C-78.33 207.32 -78.66 208.64 -79 210 C-84.28 210 -89.56 210 -95 210 C-95.495 208.02 -95.495 208.02 -96 206 C-97.32 205.67 -98.64 205.34 -100 205 C-100.17855281 199.82196838 -100.07828238 195.84932556 -98 191 C-97.01 190.01 -97.01 190.01 -96 189 C-95.3574765 186.93125966 -95.3574765 186.93125966 -95 185 C-93.68 185 -92.36 185 -91 185 C-91 183.35 -91 181.7 -91 180 C-89.35 180 -87.7 180 -86 180 C-86.020625 179.195625 -86.04125 178.39125 -86.0625 177.5625 C-86 175 -86 175 -85 174 C-83.33382885 173.95936168 -81.66611905 173.957279 -80 174 C-79.67 172.35 -79.34 170.7 -79 169 C-78.01 169 -77.02 169 -76 169 C-76.020625 167.72125 -76.04125 166.4425 -76.0625 165.125 C-76.125 161.25 -76.125 161.25 -75 159 C-73.68 159 -72.36 159 -71 159 C-71.01160156 158.00097656 -71.02320313 157.00195312 -71.03515625 155.97265625 C-71.04417969 154.68230469 -71.05320313 153.39195312 -71.0625 152.0625 C-71.07410156 150.77472656 -71.08570313 149.48695313 -71.09765625 148.16015625 C-71 145 -71 145 -70 144 C-68.33382885 143.95936168 -66.66611905 143.957279 -65 144 C-65 143.01 -65 142.02 -65 141 C-71.6 141 -78.2 141 -85 141 C-85 142.32 -85 143.64 -85 145 C-86.98 145 -88.96 145 -91 145 C-91.33 143.35 -91.66 141.7 -92 140 C-92.66 141.65 -93.32 143.3 -94 145 C-95.98 145 -97.96 145 -100 145 C-99.979375 145.804375 -99.95875 146.60875 -99.9375 147.4375 C-100 150 -100 150 -101 151 C-102.8125 151.1328125 -102.8125 151.1328125 -105 151.125 C-105.721875 151.12757813 -106.44375 151.13015625 -107.1875 151.1328125 C-109 151 -109 151 -110 150 C-110.04063832 148.33382885 -110.042721 146.66611905 -110 145 C-111.65 145 -113.3 145 -115 145 C-115 140.05 -115 135.1 -115 130 C-112.04335481 128.5216774 -109.25770263 128.93967217 -106 129 C-106 127.68 -106 126.36 -106 125 C-105.05125 124.9175 -104.1025 124.835 -103.125 124.75 C-99.89538209 124.34925077 -99.89538209 124.34925077 -98.625 121.9375 C-98.315625 120.9784375 -98.315625 120.9784375 -98 120 C-95.36 120 -92.72 120 -90 120 C-90 121.32 -90 122.64 -90 124 C-88.68 124 -87.36 124 -86 124 C-86 122.68 -86 121.36 -86 120 C-81.05 120 -76.1 120 -71 120 C-70.505 118.02 -70.505 118.02 -70 116 C-66.5647952 113.70986347 -65.014669 113.82157027 -61 114 C-60.505 112.02 -60.505 112.02 -60 110 C-58.02 109.505 -58.02 109.505 -56 109 C-56 106.03 -56 103.06 -56 100 C-57.32 100 -58.64 100 -60 100 C-60.33 98.68 -60.66 97.36 -61 96 C-62.32 95.67 -63.64 95.34 -65 95 C-65 93.68 -65 92.36 -65 91 C-65.61875 90.9175 -66.2375 90.835 -66.875 90.75 C-69 90 -69 90 -70.25 88.3125 C-71.1758912 85.45766881 -71.135557 82.98225393 -71 80 C-72.32 79.67 -73.64 79.34 -75 79 C-75.10957031 78.443125 -75.21914062 77.88625 -75.33203125 77.3125 C-75.49058594 76.549375 -75.64914063 75.78625 -75.8125 75 C-75.96332031 74.2575 -76.11414063 73.515 -76.26953125 72.75 C-76.97302638 69.8167998 -76.97302638 69.8167998 -78.54296875 66.4921875 C-80.70308537 60.8370433 -80.51367365 55.10722045 -80.5 49.125 C-80.52835938 48.00480469 -80.55671875 46.88460937 -80.5859375 45.73046875 C-80.60301049 38.41469277 -79.72280343 31.87206085 -75 26 C-72.83007812 25.23486328 -72.83007812 25.23486328 -71 25 C-70.87625 24.38125 -70.7525 23.7625 -70.625 23.125 C-70 21 -70 21 -68 19 C-67.01 19 -66.02 19 -65 19 C-64.9071875 18.1646875 -64.9071875 18.1646875 -64.8125 17.3125 C-63.64327572 13.98470782 -61.64677196 12.26866168 -59 10 C-58.01 10 -57.02 10 -56 10 C-55.89751953 9.07574219 -55.89751953 9.07574219 -55.79296875 8.1328125 C-55 6 -55 6 -52.92578125 4.8046875 C-51.63220703 4.34449219 -51.63220703 4.34449219 -50.3125 3.875 C-49.39984375 3.54628906 -48.4871875 3.21757813 -47.546875 2.87890625 C-46.70640625 2.58886719 -45.8659375 2.29882812 -45 2 C-44.030625 1.608125 -43.06125 1.21625 -42.0625 0.8125 C-28.81250399 -2.70280506 -13.47939119 -1.4296324 0 0 Z M-70 65 C-70 69.95 -70 74.9 -70 80 C-68.35 80 -66.7 80 -65 80 C-65 75.05 -65 70.1 -65 65 C-66.65 65 -68.3 65 -70 65 Z M-65 80 C-65 83.3 -65 86.6 -65 90 C-63.35 90 -61.7 90 -60 90 C-60 86.7 -60 83.4 -60 80 C-61.65 80 -63.3 80 -65 80 Z M-60 90 C-60 91.65 -60 93.3 -60 95 C-58.35 95 -56.7 95 -55 95 C-55 93.35 -55 91.7 -55 90 C-56.65 90 -58.3 90 -60 90 Z M-65 135 C-65 136.65 -65 138.3 -65 140 C-63.35 140 -61.7 140 -60 140 C-60 138.35 -60 136.7 -60 135 C-61.65 135 -63.3 135 -65 135 Z M-50 180 C-50 181.65 -50 183.3 -50 185 C-48.35 185 -46.7 185 -45 185 C-45 183.35 -45 181.7 -45 180 C-46.65 180 -48.3 180 -50 180 Z M-55 185 C-55 186.65 -55 188.3 -55 190 C-53.35 190 -51.7 190 -50 190 C-50 188.35 -50 186.7 -50 185 C-51.65 185 -53.3 185 -55 185 Z M-60 190 C-60 191.65 -60 193.3 -60 195 C-58.35 195 -56.7 195 -55 195 C-55 193.35 -55 191.7 -55 190 C-56.65 190 -58.3 190 -60 190 Z " fill="#E8E29C" transform="translate(225,55)"/>
<path d="M0 0 C6.6 0 13.2 0 20 0 C20 1.65 20 3.3 20 5 C23.3 5 26.6 5 30 5 C30 6.65 30 8.3 30 10 C33.3 10 36.6 10 40 10 C40 11.65 40 13.3 40 15 C41.65 15 43.3 15 45 15 C45 18.3 45 21.6 45 25 C46.65 25 48.3 25 50 25 C50 28.3 50 31.6 50 35 C51.65 35 53.3 35 55 35 C55 41.6 55 48.2 55 55 C53.35 55 51.7 55 50 55 C50 58.3 50 61.6 50 65 C48.35 65 46.7 65 45 65 C45 68.3 45 71.6 45 75 C43.35 75 41.7 75 40 75 C40 76.65 40 78.3 40 80 C36.7 80 33.4 80 30 80 C30 81.65 30 83.3 30 85 C26.7 85 23.4 85 20 85 C20 86.65 20 88.3 20 90 C13.4 90 6.8 90 0 90 C0 88.35 0 86.7 0 85 C-3.3 85 -6.6 85 -10 85 C-10 83.35 -10 81.7 -10 80 C-13.3 80 -16.6 80 -20 80 C-20 78.35 -20 76.7 -20 75 C-21.65 75 -23.3 75 -25 75 C-25 71.7 -25 68.4 -25 65 C-26.65 65 -28.3 65 -30 65 C-30 61.7 -30 58.4 -30 55 C-31.65 55 -33.3 55 -35 55 C-35 48.4 -35 41.8 -35 35 C-33.35 35 -31.7 35 -30 35 C-30 31.7 -30 28.4 -30 25 C-28.35 25 -26.7 25 -25 25 C-25 21.7 -25 18.4 -25 15 C-23.35 15 -21.7 15 -20 15 C-20 13.35 -20 11.7 -20 10 C-16.7 10 -13.4 10 -10 10 C-10 8.35 -10 6.7 -10 5 C-6.7 5 -3.4 5 0 5 C0 3.35 0 1.7 0 0 Z " fill="#4D9AE5" transform="translate(205,65)"/>
<path d="M0 0 C0.495 1.98 0.495 1.98 1 4 C2.918125 3.938125 2.918125 3.938125 4.875 3.875 C7.0546875 3.8046875 7.0546875 3.8046875 9 4 C11 6 11 6 11 10 C13.97 10 16.94 10 20 10 C20 11.32 20 12.64 20 14 C21.65 14 23.3 14 25 14 C25 15.65 25 17.3 25 19 C26.2065625 18.9690625 26.2065625 18.9690625 27.4375 18.9375 C30 19 30 19 31 20 C31.07179964 21.51928038 31.08392007 23.04167482 31.0625 24.5625 C31.05347656 25.38878906 31.04445313 26.21507813 31.03515625 27.06640625 C31.02355469 27.70449219 31.01195312 28.34257813 31 29 C32.98 29.495 32.98 29.495 35 30 C35 33.3 35 36.6 35 40 C36.65 40 38.3 40 40 40 C40 49.57 40 59.14 40 69 C38.02 69.99 38.02 69.99 36 71 C35.30367785 72.95365445 35.30367785 72.95365445 35.25 75.125 C35.1675 76.40375 35.085 77.6825 35 79 C33.68 79.33 32.36 79.66 31 80 C31.02320313 80.62648438 31.04640625 81.25296875 31.0703125 81.8984375 C31.08835937 82.71570313 31.10640625 83.53296875 31.125 84.375 C31.14820313 85.18710938 31.17140625 85.99921875 31.1953125 86.8359375 C31 89 31 89 29 91 C27.68 91 26.36 91 25 91 C25 92.65 25 94.3 25 96 C23.35 96 21.7 96 20 96 C20 98.97 20 101.94 20 105 C21.32 104.67 22.64 104.34 24 104 C24.33 102.35 24.66 100.7 25 99 C27.97 99 30.94 99 34 99 C34 97.68 34 96.36 34 95 C35.65 95 37.3 95 39 95 C39.33 93.35 39.66 91.7 40 90 C41.65 90 43.3 90 45 90 C45 88.35 45 86.7 45 85 C46.65 84.67 48.3 84.34 50 84 C50.33 82.35 50.66 80.7 51 79 C51.99 79 52.98 79 54 79 C54.33 77.68 54.66 76.36 55 75 C61.6 75 68.2 75 75 75 C75.33 76.32 75.66 77.64 76 79 C77.32 79 78.64 79 80 79 C81.42597611 81.85195222 81.1320252 84.32461175 81.125 87.5 C81.12757813 88.6653125 81.13015625 89.830625 81.1328125 91.03125 C81 94 81 94 80 96 C78.68 96 77.36 96 76 96 C76 97.32 76 98.64 76 100 C69.07 100 62.14 100 55 100 C55 98.35 55 96.7 55 95 C51.7 95 48.4 95 45 95 C45 101.6 45 108.2 45 115 C41.7 115 38.4 115 35 115 C35 116.65 35 118.3 35 120 C31.7 120 28.4 120 25 120 C25 121.65 25 123.3 25 125 C23.35 125 21.7 125 20 125 C20 120.05 20 115.1 20 110 C18.35 110 16.7 110 15 110 C15 108.35 15 106.7 15 105 C13.35 105 11.7 105 10 105 C10 113.25 10 121.5 10 130 C9.67 130 9.34 130 9 130 C9 123.4 9 116.8 9 110 C6.36 110.33 3.72 110.66 1 111 C0.505 112.98 0.505 112.98 0 115 C-0.33 113.68 -0.66 112.36 -1 111 C-10.57 110.67 -20.14 110.34 -30 110 C-30 108.35 -30 106.7 -30 105 C-33.3 105 -36.6 105 -40 105 C-40 103.35 -40 101.7 -40 100 C-43.3 100 -46.6 100 -50 100 C-50 98.35 -50 96.7 -50 95 C-51.65 95 -53.3 95 -55 95 C-55 93.35 -55 91.7 -55 90 C-56.65 90 -58.3 90 -60 90 C-60 86.7 -60 83.4 -60 80 C-61.65 80 -63.3 80 -65 80 C-65 75.05 -65 70.1 -65 65 C-68.3 65 -71.6 65 -75 65 C-75 53.45 -75 41.9 -75 30 C-73.35 30 -71.7 30 -70 30 C-70.02320313 29.37351562 -70.04640625 28.74703125 -70.0703125 28.1015625 C-70.09738281 26.87566406 -70.09738281 26.87566406 -70.125 25.625 C-70.14820313 24.81289062 -70.17140625 24.00078125 -70.1953125 23.1640625 C-70 21 -70 21 -68 19 C-67.01 19 -66.02 19 -65 19 C-64.938125 18.443125 -64.87625 17.88625 -64.8125 17.3125 C-63.64327572 13.98470782 -61.64677196 12.26866168 -59 10 C-58.01 10 -57.02 10 -56 10 C-55.89751953 9.07574219 -55.89751953 9.07574219 -55.79296875 8.1328125 C-55 6 -55 6 -52.92578125 4.8046875 C-52.06339844 4.49789062 -51.20101562 4.19109375 -50.3125 3.875 C-49.39984375 3.54628906 -48.4871875 3.21757813 -47.546875 2.87890625 C-46.70640625 2.58886719 -45.8659375 2.29882812 -45 2 C-44.030625 1.608125 -43.06125 1.21625 -42.0625 0.8125 C-28.81250399 -2.70280506 -13.47939119 -1.4296324 0 0 Z M-20 10 C-20 11.65 -20 13.3 -20 15 C-23.3 15 -26.6 15 -30 15 C-30 16.65 -30 18.3 -30 20 C-33.3 20 -36.6 20 -40 20 C-40 21.65 -40 23.3 -40 25 C-41.65 25 -43.3 25 -45 25 C-45 28.3 -45 31.6 -45 35 C-46.65 35 -48.3 35 -50 35 C-50 38.3 -50 41.6 -50 45 C-51.65 45 -53.3 45 -55 45 C-55 51.6 -55 58.2 -55 65 C-53.35 65 -51.7 65 -50 65 C-50 68.3 -50 71.6 -50 75 C-48.35 75 -46.7 75 -45 75 C-45 78.3 -45 81.6 -45 85 C-43.35 85 -41.7 85 -40 85 C-40 86.65 -40 88.3 -40 90 C-36.7 90 -33.4 90 -30 90 C-30 91.65 -30 93.3 -30 95 C-26.7 95 -23.4 95 -20 95 C-20 96.65 -20 98.3 -20 100 C-13.4 100 -6.8 100 0 100 C0 98.35 0 96.7 0 95 C3.3 95 6.6 95 10 95 C10 93.35 10 91.7 10 90 C13.3 90 16.6 90 20 90 C20 88.35 20 86.7 20 85 C21.65 85 23.3 85 25 85 C25 81.7 25 78.4 25 75 C26.65 75 28.3 75 30 75 C30 71.7 30 68.4 30 65 C31.65 65 33.3 65 35 65 C35 58.4 35 51.8 35 45 C33.35 45 31.7 45 30 45 C30 41.7 30 38.4 30 35 C28.35 35 26.7 35 25 35 C25 31.7 25 28.4 25 25 C23.35 25 21.7 25 20 25 C20 23.35 20 21.7 20 20 C16.7 20 13.4 20 10 20 C10 18.35 10 16.7 10 15 C6.7 15 3.4 15 0 15 C0 13.35 0 11.7 0 10 C-6.6 10 -13.2 10 -20 10 Z " fill="#F6F8F8" transform="translate(225,55)"/>
<path d="M0 0 C3.3 0 6.6 0 10 0 C10 1.65 10 3.3 10 5 C14.95 5 19.9 5 25 5 C24.67 6.65 24.34 8.3 24 10 C23.01 10.33 22.02 10.66 21 11 C20.26676204 13.01508358 20.26676204 13.01508358 20 15 C18.68 15.33 17.36 15.66 16 16 C16 17.32 16 18.64 16 20 C12.7 20 9.4 20 6 20 C5.67 21.98 5.34 23.96 5 26 C1.7 26 -1.6 26 -5 26 C-5 27.32 -5 28.64 -5 30 C-7.95664519 31.4783226 -10.74229737 31.06032783 -14 31 C-14.33 32.32 -14.66 33.64 -15 35 C-18.3 35 -21.6 35 -25 35 C-25.33 36.65 -25.66 38.3 -26 40 C-27.485 40.495 -27.485 40.495 -29 41 C-28.98839844 41.92683594 -28.97679687 42.85367188 -28.96484375 43.80859375 C-28.95582031 45.00613281 -28.94679688 46.20367187 -28.9375 47.4375 C-28.92589844 48.63246094 -28.91429687 49.82742187 -28.90234375 51.05859375 C-29 54 -29 54 -30 55 C-31.66617115 55.04063832 -33.33388095 55.042721 -35 55 C-35 56.65 -35 58.3 -35 60 C-38.3 60 -41.6 60 -45 60 C-45 61.65 -45 63.3 -45 65 C-48.3 65 -51.6 65 -55 65 C-55 66.65 -55 68.3 -55 70 C-58.3 70 -61.6 70 -65 70 C-65 68.35 -65 66.7 -65 65 C-69.95 65 -74.9 65 -80 65 C-80 63.35 -80 61.7 -80 60 C-84.95 60 -89.9 60 -95 60 C-95 55.05 -95 50.1 -95 45 C-93.35 45 -91.7 45 -90 45 C-90 43.35 -90 41.7 -90 40 C-88.35 40 -86.7 40 -85 40 C-85 36.7 -85 33.4 -85 30 C-83.35 30 -81.7 30 -80 30 C-80 26.7 -80 23.4 -80 20 C-68.12 20 -56.24 20 -44 20 C-44 18.68 -44 17.36 -44 16 C-41.36 15.67 -38.72 15.34 -36 15 C-35.67 13.35 -35.34 11.7 -35 10 C-33.35 10 -31.7 10 -30 10 C-30 11.65 -30 13.3 -30 15 C-28.35 15 -26.7 15 -25 15 C-25 19.95 -25 24.9 -25 30 C-23.35 30 -21.7 30 -20 30 C-20 28.35 -20 26.7 -20 25 C-16.7 25 -13.4 25 -10 25 C-10 23.35 -10 21.7 -10 20 C-6.7 20 -3.4 20 0 20 C0 13.4 0 6.8 0 0 Z " fill="#FCFBFC" transform="translate(270,150)"/>
<path d="M0 0 C4.95 0 9.9 0 15 0 C15 1.65 15 3.3 15 5 C31.5 5 48 5 65 5 C65 6.65 65 8.3 65 10 C63.68 10 62.36 10 61 10 C61.020625 10.804375 61.04125 11.60875 61.0625 12.4375 C61 15 61 15 60 16 C58.33382885 16.04063832 56.66611905 16.042721 55 16 C55 17.65 55 19.3 55 21 C52.03 21 49.06 21 46 21 C46 22.32 46 23.64 46 25 C44.02 25 42.04 25 40 25 C40 26.65 40 28.3 40 30 C38.68 30 37.36 30 36 30 C35.34 31.98 34.68 33.96 34 36 C33.01 36 32.02 36 31 36 C30.67 37.32 30.34 38.64 30 40 C28.35 40 26.7 40 25 40 C25 41.65 25 43.3 25 45 C19.72 45 14.44 45 9 45 C9 43.35 9 41.7 9 40 C7.68 40 6.36 40 5 40 C3.39274365 36.78548731 3.94251815 33.56387464 4 30 C-0.62 30 -5.24 30 -10 30 C-10 28.35 -10 26.7 -10 25 C-13.3 25 -16.6 25 -20 25 C-20 24.67 -20 24.34 -20 24 C-18.35 24 -16.7 24 -15 24 C-15 21.03 -15 18.06 -15 15 C-13.35 15 -11.7 15 -10 15 C-10 13.35 -10 11.7 -10 10 C-8.35 10 -6.7 10 -5 10 C-5 8.35 -5 6.7 -5 5 C-3.35 5 -1.7 5 0 5 C0 3.35 0 1.7 0 0 Z M15 15 C15 16.65 15 18.3 15 20 C16.65 20 18.3 20 20 20 C20 18.35 20 16.7 20 15 C18.35 15 16.7 15 15 15 Z M10 20 C10 21.65 10 23.3 10 25 C11.65 25 13.3 25 15 25 C15 23.35 15 21.7 15 20 C13.35 20 11.7 20 10 20 Z M5 25 C5 26.65 5 28.3 5 30 C6.65 30 8.3 30 10 30 C10 28.35 10 26.7 10 25 C8.35 25 6.7 25 5 25 Z " fill="#F9F9F8" transform="translate(160,220)"/>
<path d="M0 0 C6.6 0 13.2 0 20 0 C20 1.65 20 3.3 20 5 C23.3 5 26.6 5 30 5 C30 6.65 30 8.3 30 10 C33.3 10 36.6 10 40 10 C40 11.65 40 13.3 40 15 C41.65 15 43.3 15 45 15 C45 18.3 45 21.6 45 25 C46.65 25 48.3 25 50 25 C50 28.3 50 31.6 50 35 C51.65 35 53.3 35 55 35 C55 41.6 55 48.2 55 55 C53.35 55 51.7 55 50 55 C50 58.3 50 61.6 50 65 C48.35 65 46.7 65 45 65 C45 68.3 45 71.6 45 75 C43.35 75 41.7 75 40 75 C40 76.65 40 78.3 40 80 C36.7 80 33.4 80 30 80 C30 81.65 30 83.3 30 85 C26.7 85 23.4 85 20 85 C20 86.65 20 88.3 20 90 C13.4 90 6.8 90 0 90 C0 88.35 0 86.7 0 85 C-3.3 85 -6.6 85 -10 85 C-9.67 83.35 -9.34 81.7 -9 80 C-1.08 80 6.84 80 15 80 C15 78.35 15 76.7 15 75 C18.3 75 21.6 75 25 75 C25 73.35 25 71.7 25 70 C26.65 70 28.3 70 30 70 C30 68.35 30 66.7 30 65 C31.65 65 33.3 65 35 65 C35 58.4 35 51.8 35 45 C38.3 45 41.6 45 45 45 C45 41.37 45 37.74 45 34 C41.7 34 38.4 34 35 34 C35 32.68 35 31.36 35 30 C36.65 30 38.3 30 40 30 C40 26.7 40 23.4 40 20 C38.35 20 36.7 20 35 20 C35 18.35 35 16.7 35 15 C31.7 15 28.4 15 25 15 C25 16.65 25 18.3 25 20 C21.7 20 18.4 20 15 20 C15 18.35 15 16.7 15 15 C3.45 15 -8.1 15 -20 15 C-20 13.35 -20 11.7 -20 10 C-16.7 10 -13.4 10 -10 10 C-10 8.35 -10 6.7 -10 5 C-6.7 5 -3.4 5 0 5 C0 3.35 0 1.7 0 0 Z " fill="#5066B2" transform="translate(205,65)"/>
<path d="M0 0 C3.3 0 6.6 0 10 0 C10 1.65 10 3.3 10 5 C14.95 5 19.9 5 25 5 C24.67 6.65 24.34 8.3 24 10 C23.01 10.33 22.02 10.66 21 11 C20.26676204 13.01508358 20.26676204 13.01508358 20 15 C18.68 15.33 17.36 15.66 16 16 C16 17.32 16 18.64 16 20 C12.7 20 9.4 20 6 20 C5.67 21.98 5.34 23.96 5 26 C1.7 26 -1.6 26 -5 26 C-5 27.32 -5 28.64 -5 30 C-7.95664519 31.4783226 -10.74229737 31.06032783 -14 31 C-14.33 32.32 -14.66 33.64 -15 35 C-18.3 35 -21.6 35 -25 35 C-25.495 37.475 -25.495 37.475 -26 40 C-27.485 40.495 -27.485 40.495 -29 41 C-29 45.29 -29 49.58 -29 54 C-29.33 54 -29.66 54 -30 54 C-30 47.73 -30 41.46 -30 35 C-31.65 35 -33.3 35 -35 35 C-35 26.75 -35 18.5 -35 10 C-33.35 10 -31.7 10 -30 10 C-30 11.65 -30 13.3 -30 15 C-28.35 15 -26.7 15 -25 15 C-25 19.95 -25 24.9 -25 30 C-23.35 30 -21.7 30 -20 30 C-20 28.35 -20 26.7 -20 25 C-16.7 25 -13.4 25 -10 25 C-10 23.35 -10 21.7 -10 20 C-6.7 20 -3.4 20 0 20 C0 13.4 0 6.8 0 0 Z " fill="#CBC5C5" transform="translate(270,150)"/>
<path d="M0 0 C6.6 0 13.2 0 20 0 C20.495 1.98 20.495 1.98 21 4 C22.32 4 23.64 4 25 4 C26.42597611 6.85195222 26.1320252 9.32461175 26.125 12.5 C26.12886719 14.24796875 26.12886719 14.24796875 26.1328125 16.03125 C26 19 26 19 25 21 C23.68 21 22.36 21 21 21 C21 22.32 21 23.64 21 25 C14.07 25 7.14 25 0 25 C0 23.35 0 21.7 0 20 C-3.3 20 -6.6 20 -10 20 C-10 21.65 -10 23.3 -10 25 C-11.65 25 -13.3 25 -15 25 C-15 23.68 -15 22.36 -15 21 C-16.65 21 -18.3 21 -20 21 C-20 22.32 -20 23.64 -20 25 C-23.3 25 -26.6 25 -30 25 C-30 24.67 -30 24.34 -30 24 C-27.03 24 -24.06 24 -21 24 C-21 22.68 -21 21.36 -21 20 C-19.35 20 -17.7 20 -16 20 C-15.67 18.35 -15.34 16.7 -15 15 C-13.35 15 -11.7 15 -10 15 C-10 13.35 -10 11.7 -10 10 C-8.35 9.67 -6.7 9.34 -5 9 C-4.67 7.35 -4.34 5.7 -4 4 C-3.01 4 -2.02 4 -1 4 C-0.67 2.68 -0.34 1.36 0 0 Z " fill="#F3F2F2" transform="translate(280,130)"/>
<path d="M0 0 C1.65 0 3.3 0 5 0 C5 1.65 5 3.3 5 5 C9.95 5 14.9 5 20 5 C20 6.65 20 8.3 20 10 C24.95 10 29.9 10 35 10 C35 11.65 35 13.3 35 15 C38.3 15 41.6 15 45 15 C45 13.35 45 11.7 45 10 C48.3 10 51.6 10 55 10 C55 8.35 55 6.7 55 5 C58.3 5 61.6 5 65 5 C65 3.35 65 1.7 65 0 C66.32 0.33 67.64 0.66 69 1 C68.01 1 67.02 1 66 1 C66.04125 1.928125 66.0825 2.85625 66.125 3.8125 C66 7 66 7 64 10 C63.01 10.33 62.02 10.66 61 11 C60.896875 12.093125 60.79375 13.18625 60.6875 14.3125 C59.99911245 18.00476048 59.77337462 18.7813003 57 21 C56.34 21.99 55.68 22.98 55 24 C55 22.68 55 21.36 55 20 C38.5 20 22 20 5 20 C5 18.35 5 16.7 5 15 C1.7 15 -1.6 15 -5 15 C-5 11.7 -5 8.4 -5 5 C-3.35 5 -1.7 5 0 5 C0 3.35 0 1.7 0 0 Z " fill="#713796" transform="translate(170,205)"/>
<path d="M0 0 C3.3 0 6.6 0 10 0 C10 1.65 10 3.3 10 5 C8.68 5 7.36 5 6 5 C6 7.97 6 10.94 6 14 C8.475 14.495 8.475 14.495 11 15 C11 16.65 11 18.3 11 20 C12.98 20 14.96 20 17 20 C16.34 23.3 15.68 26.6 15 30 C12.69 30.33 10.38 30.66 8 31 C7.67 32.32 7.34 33.64 7 35 C1.72 35 -3.56 35 -9 35 C-9.33 33.68 -9.66 32.36 -10 31 C-11.32 30.67 -12.64 30.34 -14 30 C-14.17855281 24.82196838 -14.07828238 20.84932556 -12 16 C-11.34 15.34 -10.68 14.68 -10 14 C-9.3574765 11.93125966 -9.3574765 11.93125966 -9 10 C-7.68 10 -6.36 10 -5 10 C-5 8.35 -5 6.7 -5 5 C-3.35 5 -1.7 5 0 5 C0 3.35 0 1.7 0 0 Z " fill="#FBF6AB" transform="translate(139,230)"/>
<path d="M0 0 C2.64 0 5.28 0 8 0 C8 1.32 8 2.64 8 4 C9.32 4 10.64 4 12 4 C12.33 2.68 12.66 1.36 13 0 C13 4.95 13 9.9 13 15 C11.35 15 9.7 15 8 15 C8 18.3 8 21.6 8 25 C7.67 25 7.34 25 7 25 C6.505 22.525 6.505 22.525 6 20 C5.01 22.475 5.01 22.475 4 25 C2.02 25 0.04 25 -2 25 C-1.979375 25.804375 -1.95875 26.60875 -1.9375 27.4375 C-2 30 -2 30 -3 31 C-4.8125 31.1328125 -4.8125 31.1328125 -7 31.125 C-7.721875 31.12757813 -8.44375 31.13015625 -9.1875 31.1328125 C-11 31 -11 31 -12 30 C-12.04063832 28.33382885 -12.042721 26.66611905 -12 25 C-13.65 25 -15.3 25 -17 25 C-17 20.05 -17 15.1 -17 10 C-14.04335481 8.5216774 -11.25770263 8.93967217 -8 9 C-8 7.68 -8 6.36 -8 5 C-7.05125 4.9175 -6.1025 4.835 -5.125 4.75 C-1.89538209 4.34925077 -1.89538209 4.34925077 -0.625 1.9375 C-0.315625 0.9784375 -0.315625 0.9784375 0 0 Z " fill="#F0EFF0" transform="translate(127,175)"/>
<path d="M0 0 C3.61328125 0.03255208 7.2265625 0.06510417 10.83984375 0.09765625 C10.83984375 5.04765625 10.83984375 9.99765625 10.83984375 15.09765625 C7.53984375 15.09765625 4.23984375 15.09765625 0.83984375 15.09765625 C0.83984375 16.74765625 0.83984375 18.39765625 0.83984375 20.09765625 C-4.11015625 20.09765625 -9.06015625 20.09765625 -14.16015625 20.09765625 C-14.16015625 22.07765625 -14.16015625 24.05765625 -14.16015625 26.09765625 C-15.81015625 26.09765625 -17.46015625 26.09765625 -19.16015625 26.09765625 C-19.16015625 27.41765625 -19.16015625 28.73765625 -19.16015625 30.09765625 C-20.81015625 30.09765625 -22.46015625 30.09765625 -24.16015625 30.09765625 C-24.16015625 26.79765625 -24.16015625 23.49765625 -24.16015625 20.09765625 C-22.51015625 20.09765625 -20.86015625 20.09765625 -19.16015625 20.09765625 C-19.16015625 15.14765625 -19.16015625 10.19765625 -19.16015625 5.09765625 C-14.54015625 5.09765625 -9.92015625 5.09765625 -5.16015625 5.09765625 C-4.83015625 3.77765625 -4.50015625 2.45765625 -4.16015625 1.09765625 C-3.16015625 0.09765625 -3.16015625 0.09765625 0 0 Z " fill="#FBFBFA" transform="translate(159.16015625,169.90234375)"/>
<path d="M0 0 C1.65 0 3.3 0 5 0 C5 1.32 5 2.64 5 4 C6.65 4 8.3 4 10 4 C10 8.95 10 13.9 10 19 C6.7 19 3.4 19 0 19 C0 20.65 0 22.3 0 24 C-3.3 24 -6.6 24 -10 24 C-10 25.65 -10 27.3 -10 29 C-11.65 29 -13.3 29 -15 29 C-15 22.73 -15 16.46 -15 10 C-13.35 10 -11.7 10 -10 10 C-10 8.02 -10 6.04 -10 4 C-6.7 4 -3.4 4 0 4 C0 2.68 0 1.36 0 0 Z " fill="#FDFDFC" transform="translate(260,151)"/>
<path d="M0 0 C0.33 0 0.66 0 1 0 C1 2.64 1 5.28 1 8 C-0.65 8 -2.3 8 -4 8 C-4 19.55 -4 31.1 -4 43 C-2.35 43 -0.7 43 1 43 C1 47.95 1 52.9 1 58 C2.65 58 4.3 58 6 58 C6 61.3 6 64.6 6 68 C7.65 68 9.3 68 11 68 C11 69.65 11 71.3 11 73 C14.3 73 17.6 73 21 73 C21 76.3 21 79.6 21 83 C19.35 82.67 17.7 82.34 16 82 C15.67 80.68 15.34 79.36 15 78 C13.68 78 12.36 78 11 78 C10.67 76.68 10.34 75.36 10 74 C8.68 73.67 7.36 73.34 6 73 C6 71.68 6 70.36 6 69 C5.38125 68.9175 4.7625 68.835 4.125 68.75 C2 68 2 68 0.75 66.3125 C-0.1758912 63.45766881 -0.135557 60.98225393 0 58 C-1.32 57.67 -2.64 57.34 -4 57 C-4.10957031 56.443125 -4.21914062 55.88625 -4.33203125 55.3125 C-4.49058594 54.549375 -4.64914063 53.78625 -4.8125 53 C-5.03873047 51.88625 -5.03873047 51.88625 -5.26953125 50.75 C-5.97302638 47.8167998 -5.97302638 47.8167998 -7.54296875 44.4921875 C-9.70308537 38.8370433 -9.51367365 33.10722045 -9.5 27.125 C-9.52835938 26.00480469 -9.55671875 24.88460937 -9.5859375 23.73046875 C-9.60301049 16.41469277 -8.72280343 9.87206085 -4 4 C-1.83007812 3.23486328 -1.83007812 3.23486328 0 3 C0 2.01 0 1.02 0 0 Z " fill="#CBC7C6" transform="translate(154,77)"/>
<path d="M0 0 C0.33 0 0.66 0 1 0 C1 7.92 1 15.84 1 24 C2.65 24 4.3 24 6 24 C6 25.65 6 27.3 6 29 C4.35 29 2.7 29 1 29 C1 32.3 1 35.6 1 39 C-0.65 39 -2.3 39 -4 39 C-4 40.65 -4 42.3 -4 44 C-5.65 44 -7.3 44 -9 44 C-7.02 43.505 -7.02 43.505 -5 43 C-5 41.68 -5 40.36 -5 39 C-6.32 38.67 -7.64 38.34 -9 38 C-9 33.38 -9 28.76 -9 24 C-10.65 24 -12.3 24 -14 24 C-14 22.35 -14 20.7 -14 19 C-10.7 19 -7.4 19 -4 19 C-4 17.02 -4 15.04 -4 13 C-3.01 12.67 -2.02 12.34 -1 12 C-1.01160156 11.21753906 -1.02320313 10.43507812 -1.03515625 9.62890625 C-1.04417969 8.61699219 -1.05320313 7.60507813 -1.0625 6.5625 C-1.07410156 5.55316406 -1.08570313 4.54382813 -1.09765625 3.50390625 C-1 1 -1 1 0 0 Z " fill="#ECE2B7" transform="translate(174,166)"/>
<path d="M0 0 C1.32 0.33 2.64 0.66 4 1 C3.01 1 2.02 1 1 1 C1.04125 1.928125 1.0825 2.85625 1.125 3.8125 C1 7 1 7 -1 10 C-1.99 10.33 -2.98 10.66 -4 11 C-4.103125 12.093125 -4.20625 13.18625 -4.3125 14.3125 C-5.00088755 18.00476048 -5.22662538 18.7813003 -8 21 C-8.66 21.99 -9.32 22.98 -10 24 C-10 22.35 -10 20.7 -10 19 C-18.91 19 -27.82 19 -37 19 C-35.68 17.68 -34.36 16.36 -33 15 C-32.67 13.68 -32.34 12.36 -32 11 C-35.96 11 -39.92 11 -44 11 C-44 10.67 -44 10.34 -44 10 C-39.38 10 -34.76 10 -30 10 C-30 11.65 -30 13.3 -30 15 C-26.7 15 -23.4 15 -20 15 C-20 13.35 -20 11.7 -20 10 C-16.7 10 -13.4 10 -10 10 C-10 8.35 -10 6.7 -10 5 C-6.7 5 -3.4 5 0 5 C0 3.35 0 1.7 0 0 Z " fill="#683482" transform="translate(235,205)"/>
<path d="M0 0 C1.65 0 3.3 0 5 0 C5 1.65 5 3.3 5 5 C6.65 5 8.3 5 10 5 C10 12.92 10 20.84 10 29 C8.02 29.99 8.02 29.99 6 31 C6 35.29 6 39.58 6 44 C5.67 44 5.34 44 5 44 C5 37.73 5 31.46 5 25 C3.35 25 1.7 25 0 25 C0 16.75 0 8.5 0 0 Z " fill="#673A83" transform="translate(235,160)"/>
<path d="M0 0 C3.3 0 6.6 0 10 0 C10 1.65 10 3.3 10 5 C14.95 5 19.9 5 25 5 C24.67 6.65 24.34 8.3 24 10 C23.01 10.33 22.02 10.66 21 11 C20.26676204 13.01508358 20.26676204 13.01508358 20 15 C18.68 15.33 17.36 15.66 16 16 C15.67 17.32 15.34 18.64 15 20 C15 18.35 15 16.7 15 15 C11.7 15 8.4 15 5 15 C5 13.35 5 11.7 5 10 C3.35 10 1.7 10 0 10 C0 6.7 0 3.4 0 0 Z " fill="#713B92" transform="translate(270,150)"/>
<path d="M0 0 C3.3 0 6.6 0 10 0 C10 8.25 10 16.5 10 25 C6.7 25 3.4 25 0 25 C0 16.75 0 8.5 0 0 Z " fill="#703097" transform="translate(175,165)"/>
<path d="M0 0 C2.64 0 5.28 0 8 0 C8 1.32 8 2.64 8 4 C9.32 4 10.64 4 12 4 C12.33 2.68 12.66 1.36 13 0 C13 4.95 13 9.9 13 15 C11.35 15 9.7 15 8 15 C8 18.3 8 21.6 8 25 C7.67 25 7.34 25 7 25 C6.67 23.35 6.34 21.7 6 20 C5.01 22.475 5.01 22.475 4 25 C3.67 25 3.34 25 3 25 C3 20.05 3 15.1 3 10 C1.35 10 -0.3 10 -2 10 C-2 8.35 -2 6.7 -2 5 C-2.99 4.67 -3.98 4.34 -5 4 C-4.01 4 -3.02 4 -2 4 C-1.34 2.68 -0.68 1.36 0 0 Z " fill="#562E70" transform="translate(127,175)"/>
<path d="M0 0 C0.33 0 0.66 0 1 0 C1 6.27 1 12.54 1 19 C-2.3 19 -5.6 19 -9 19 C-9 20.65 -9 22.3 -9 24 C-10.65 24 -12.3 24 -14 24 C-14 22.68 -14 21.36 -14 20 C-15.65 20 -17.3 20 -19 20 C-19 21.32 -19 22.64 -19 24 C-22.3 24 -25.6 24 -29 24 C-29 23.67 -29 23.34 -29 23 C-26.03 23 -23.06 23 -20 23 C-20 21.68 -20 20.36 -20 19 C-18.35 19 -16.7 19 -15 19 C-14.67 17.35 -14.34 15.7 -14 14 C-12.35 14 -10.7 14 -9 14 C-9 12.35 -9 10.7 -9 9 C-7.35 8.67 -5.7 8.34 -4 8 C-3.67 6.35 -3.34 4.7 -3 3 C-2.01 3 -1.02 3 0 3 C0 2.01 0 1.02 0 0 Z " fill="#EFE8B7" transform="translate(279,131)"/>
<path d="M0 0 C3.3 0 6.6 0 10 0 C10 1.65 10 3.3 10 5 C11.65 5 13.3 5 15 5 C15 8.3 15 11.6 15 15 C10.05 15 5.1 15 0 15 C0 10.05 0 5.1 0 0 Z " fill="#FBF9FB" transform="translate(130,250)"/>
<path d="M0 0 C0.33 1.32 0.66 2.64 1 4 C3.97 4.495 3.97 4.495 7 5 C7.04254356 6.99954746 7.04080783 9.00041636 7 11 C6 12 6 12 3.93359375 12.09765625 C3.10988281 12.08605469 2.28617188 12.07445312 1.4375 12.0625 C0.61121094 12.05347656 -0.21507812 12.04445312 -1.06640625 12.03515625 C-1.70449219 12.02355469 -2.34257812 12.01195312 -3 12 C-3 12.66 -3 13.32 -3 14 C-0.03 14.33 2.94 14.66 6 15 C5.67 15.66 5.34 16.32 5 17 C1.7 16.67 -1.6 16.34 -5 16 C-5 14.35 -5 12.7 -5 11 C-6.65 11 -8.3 11 -10 11 C-10 7.7 -10 4.4 -10 1 C-6.41220825 0.10305206 -3.65381163 -0.08304117 0 0 Z " fill="#5A99DB" transform="translate(190,129)"/>
<path d="M0 0 C3.3 0 6.6 0 10 0 C10 1.65 10 3.3 10 5 C11.98 5 13.96 5 16 5 C15.34 8.3 14.68 11.6 14 15 C12.329375 15.12375 12.329375 15.12375 10.625 15.25 C9.42875 15.4975 8.2325 15.745 7 16 C6.34 17.32 5.68 18.64 5 20 C5 16.7 5 13.4 5 10 C3.35 10 1.7 10 0 10 C0 6.7 0 3.4 0 0 Z " fill="#6F3397" transform="translate(140,245)"/>
<path d="M0 0 C11.55 0 23.1 0 35 0 C35 1.65 35 3.3 35 5 C23.45 5 11.9 5 0 5 C0 3.35 0 1.7 0 0 Z " fill="#D6D3D4" transform="translate(190,200)"/>
<path d="M0 0 C11.55 0 23.1 0 35 0 C35 1.65 35 3.3 35 5 C23.45 5 11.9 5 0 5 C0 3.35 0 1.7 0 0 Z " fill="#D8D5D6" transform="translate(195,190)"/>
<path d="M0 0 C3.3 0 6.6 0 10 0 C10 1.65 10 3.3 10 5 C11.65 5 13.3 5 15 5 C15 8.3 15 11.6 15 15 C11.7 15 8.4 15 5 15 C5 13.35 5 11.7 5 10 C3.35 10 1.7 10 0 10 C0 6.7 0 3.4 0 0 Z " fill="#F5FAFD" transform="translate(230,80)"/>
<path d="M0 0 C1.65 0 3.3 0 5 0 C4.67 0.66 4.34 1.32 4 2 C3.01 2 2.02 2 1 2 C1 7.61 1 13.22 1 19 C1.99 18.01 2.98 17.02 4 16 C6.625 15.375 6.625 15.375 9 15 C9.33 14.67 9.66 14.34 10 14 C11.99958364 13.95919217 14.00045254 13.95745644 16 14 C16.33 17.63 16.66 21.26 17 25 C13.1496895 27.56687367 11.41430237 26.83288724 7 26 C7 26.99 7 27.98 7 29 C7.99 29.33 8.98 29.66 10 30 C8.35 30 6.7 30 5 30 C5 26.7 5 23.4 5 20 C3.35 20 1.7 20 0 20 C0 13.4 0 6.8 0 0 Z " fill="#5F9BD7" transform="translate(170,100)"/>
<path d="M0 0 C9.57 0 19.14 0 29 0 C29.33 1.65 29.66 3.3 30 5 C20.1 5 10.2 5 0 5 C0 3.35 0 1.7 0 0 Z " fill="#D8D4D5" transform="translate(195,165)"/>
<path d="M0 0 C5.28 0 10.56 0 16 0 C15.34 1.98 14.68 3.96 14 6 C13.01 6 12.02 6 11 6 C10.67 7.32 10.34 8.64 10 10 C6.7 10 3.4 10 0 10 C0 6.7 0 3.4 0 0 Z " fill="#713994" transform="translate(180,250)"/>
<path d="M0 0 C0.33 0 0.66 0 1 0 C1 3.3 1 6.6 1 10 C-0.65 10 -2.3 10 -4 10 C-4 11.65 -4 13.3 -4 15 C-5.65 15 -7.3 15 -9 15 C-9 16.65 -9 18.3 -9 20 C-10.32 20 -11.64 20 -13 20 C-13 19.34 -13 18.68 -13 18 C-12.34 17.67 -11.68 17.34 -11 17 C-11.84188612 15.05270463 -11.84188612 15.05270463 -13 14 C-13.14193337 10.99668982 -13.04236378 8.00782866 -13 5 C-8.71 5 -4.42 5 0 5 C0 3.35 0 1.7 0 0 Z " fill="#D9D3CF" transform="translate(164,210)"/>
<path d="M0 0 C4.95 0 9.9 0 15 0 C14.67 1.65 14.34 3.3 14 5 C13.01 5.33 12.02 5.66 11 6 C10.26676204 8.01508358 10.26676204 8.01508358 10 10 C8.68 10.33 7.36 10.66 6 11 C5.67 12.32 5.34 13.64 5 15 C5 13.02 5 11.04 5 9 C2.69 9 0.38 9 -2 9 C-1.42415568 6.61435923 -0.77772405 4.33317216 0 2 C1.32 2.33 2.64 2.66 4 3 C4.33 2.34 4.66 1.68 5 1 C3.35 1 1.7 1 0 1 C0 0.67 0 0.34 0 0 Z " fill="#6E3196" transform="translate(280,155)"/>
<path d="M0 0 C0 1.32 0 2.64 0 4 C-1.65 4 -3.3 4 -5 4 C-5 5.65 -5 7.3 -5 9 C-8.3 9 -11.6 9 -15 9 C-15 10.65 -15 12.3 -15 14 C-16.65 14 -18.3 14 -20 14 C-20 15.65 -20 17.3 -20 19 C-22.64 19 -25.28 19 -28 19 C-27.01 18.67 -26.02 18.34 -25 18 C-24.87625 17.4225 -24.7525 16.845 -24.625 16.25 C-23.68433209 12.86359553 -21.62026608 11.24594236 -19 9 C-18.01 9 -17.02 9 -16 9 C-15.93683594 8.38511719 -15.87367188 7.77023438 -15.80859375 7.13671875 C-15 5 -15 5 -12.78515625 3.76953125 C-11.43744141 3.29580078 -11.43744141 3.29580078 -10.0625 2.8125 C-9.16660156 2.48894531 -8.27070313 2.16539063 -7.34765625 1.83203125 C-6.57292969 1.55746094 -5.79820312 1.28289063 -5 1 C-3 0 -3 0 0 0 Z " fill="#B9B6B7" transform="translate(185,56)"/>
<path d="M0 0 C3.3 0 6.6 0 10 0 C10 1.65 10 3.3 10 5 C11.65 5 13.3 5 15 5 C15 6.65 15 8.3 15 10 C10.05 10 5.1 10 0 10 C0 6.7 0 3.4 0 0 Z " fill="#FBF9F8" transform="translate(170,255)"/>
<path d="M0 0 C0.33 0 0.66 0 1 0 C1 4.95 1 9.9 1 15 C-0.65 15 -2.3 15 -4 15 C-4 18.63 -4 22.26 -4 26 C-5.65 25.67 -7.3 25.34 -9 25 C-9.17855281 19.82196838 -9.07828238 15.84932556 -7 11 C-6.34 10.34 -5.68 9.68 -5 9 C-4.3574765 6.93125966 -4.3574765 6.93125966 -4 5 C-2.68 5 -1.36 5 0 5 C0 3.35 0 1.7 0 0 Z " fill="#DCD6CA" transform="translate(134,235)"/>
<path d="M0 0 C3.3 0 6.6 0 10 0 C10 1.65 10 3.3 10 5 C8.35 5 6.7 5 5 5 C5 6.65 5 8.3 5 10 C3.35 10 1.7 10 0 10 C0 11.32 0 12.64 0 14 C-1.65 14 -3.3 14 -5 14 C-5 11.03 -5 8.06 -5 5 C-3.35 5 -1.7 5 0 5 C0 3.35 0 1.7 0 0 Z " fill="#D7D4D2" transform="translate(185,230)"/>
<path d="M0 0 C3.3 0 6.6 0 10 0 C10 8.25 10 16.5 10 25 C6.7 25 3.4 25 0 25 C0 16.75 0 8.5 0 0 Z M3 2 C1.77215191 3.00559794 1.77215191 3.00559794 1.88647461 5.04125977 C1.89171143 5.91580811 1.89694824 6.79035645 1.90234375 7.69140625 C1.90556641 8.63564453 1.90878906 9.57988281 1.91210938 10.55273438 C1.92048828 11.54595703 1.92886719 12.53917969 1.9375 13.5625 C1.94201172 14.55958984 1.94652344 15.55667969 1.95117188 16.58398438 C1.96299993 19.05604849 1.97948151 21.52799518 2 24 C3.98 24 5.96 24 8 24 C8 16.74 8 9.48 8 2 C6.35 2 4.7 2 3 2 Z " fill="#6D4387" transform="translate(175,165)"/>
<path d="M0 0 C0.99 0 1.98 0 3 0 C3 1.32 3 2.64 3 4 C4.65 4 6.3 4 8 4 C8 10.6 8 17.2 8 24 C7.34 24 6.68 24 6 24 C6 21.03 6 18.06 6 15 C5.01 15.33 4.02 15.66 3 16 C2.01 15.67 1.02 15.34 0 15 C0 10.05 0 5.1 0 0 Z " fill="#6F3097" transform="translate(237,161)"/>
<path d="M0 0 C1.65 0 3.3 0 5 0 C5 3.3 5 6.6 5 10 C3.35 10 1.7 10 0 10 C0 13.3 0 16.6 0 20 C-0.33 20 -0.66 20 -1 20 C-1 18.35 -1 16.7 -1 15 C-2.32 15 -3.64 15 -5 15 C-6.60725635 11.78548731 -6.05748185 8.56387464 -6 5 C-4.02 5 -2.04 5 0 5 C0 3.35 0 1.7 0 0 Z " fill="#D7D4CC" transform="translate(170,245)"/>
<path d="M0 0 C2.64 0 5.28 0 8 0 C8 1.65 8 3.3 8 5 C11.3 5 14.6 5 18 5 C18 8.3 18 11.6 18 15 C15.525 14.505 15.525 14.505 13 14 C12.67 12.68 12.34 11.36 12 10 C10.68 10 9.36 10 8 10 C7.67 8.68 7.34 7.36 7 6 C5.68 5.67 4.36 5.34 3 5 C3 3.68 3 2.36 3 1 C2.01 0.67 1.02 0.34 0 0 Z " fill="#BFBCBC" transform="translate(157,145)"/>
<path d="M0 0 C1.65 0 3.3 0 5 0 C5 1.32 5 2.64 5 4 C6.65 4 8.3 4 10 4 C10 5.98 10 7.96 10 10 C8.35 10 6.7 10 5 10 C5 11.65 5 13.3 5 15 C3.35 15 1.7 15 0 15 C0 10.05 0 5.1 0 0 Z " fill="#F8F09E" transform="translate(175,240)"/>
<path d="M0 0 C3.3 0 6.6 0 10 0 C10 3.3 10 6.6 10 10 C6.7 10 3.4 10 0 10 C0 6.7 0 3.4 0 0 Z " fill="#F8EB29" transform="translate(205,210)"/>
<path d="M0 0 C1.9375 0.375 1.9375 0.375 4 1 C4.33 1.66 4.66 2.32 5 3 C7.02463255 3.65213292 7.02463255 3.65213292 9 4 C9 6.64 9 9.28 9 12 C6.525 11.01 6.525 11.01 4 10 C4 10.66 4 11.32 4 12 C3.34 12 2.68 12 2 12 C1.67 13.98 1.34 15.96 1 18 C0.67 18 0.34 18 0 18 C0 14.7 0 11.4 0 8 C-1.65 8 -3.3 8 -5 8 C-4.01 7.34 -3.02 6.68 -2 6 C-2.33 5.34 -2.66 4.68 -3 4 C-2.34 4 -1.68 4 -1 4 C-0.67 2.68 -0.34 1.36 0 0 Z " fill="#713796" transform="translate(130,177)"/>
<path d="M0 0 C1.65 0 3.3 0 5 0 C5 1.65 5 3.3 5 5 C8.3 5 11.6 5 15 5 C15 6.65 15 8.3 15 10 C10.05 10 5.1 10 0 10 C0 6.7 0 3.4 0 0 Z " fill="#D9D3D6" transform="translate(270,160)"/>
<path d="M0 0 C3.3 0 6.6 0 10 0 C10 3.3 10 6.6 10 10 C6.7 10 3.4 10 0 10 C0 6.7 0 3.4 0 0 Z " fill="#F3F9FD" transform="translate(240,100)"/>
<path d="M0 0 C0.33 0 0.66 0 1 0 C1 4.95 1 9.9 1 15 C-0.32 15 -1.64 15 -3 15 C-2.67 17.97 -2.34 20.94 -2 24 C-1.34 24 -0.68 24 0 24 C-0.33 25.32 -0.66 26.64 -1 28 C-1.66 28 -2.32 28 -3 28 C-3.33 30.31 -3.66 32.62 -4 35 C-4.165 34.360625 -4.33 33.72125 -4.5 33.0625 C-5.781786 30.83880759 -5.781786 30.83880759 -7.9140625 30.51171875 C-9.93575155 30.2724022 -11.96841939 30.13106972 -14 30 C-14 29.67 -14 29.34 -14 29 C-12.35 29 -10.7 29 -9 29 C-8.67 27.35 -8.34 25.7 -8 24 C-7.01 24 -6.02 24 -5 24 C-5.020625 22.72125 -5.04125 21.4425 -5.0625 20.125 C-5.125 16.25 -5.125 16.25 -4 14 C-2.68 14 -1.36 14 0 14 C0 9.38 0 4.76 0 0 Z " fill="#9A9790" transform="translate(154,200)"/>
<path d="M0 0 C0.33 0 0.66 0 1 0 C1 2.64 1 5.28 1 8 C-0.65 8 -2.3 8 -4 8 C-4 11.3 -4 14.6 -4 18 C-5.32 18 -6.64 18 -8 18 C-8 25.26 -8 32.52 -8 40 C-8.33 40 -8.66 40 -9 40 C-9.14688806 35.87538319 -9.23460044 31.75145076 -9.3125 27.625 C-9.35439453 26.46871094 -9.39628906 25.31242187 -9.43945312 24.12109375 C-9.54512914 16.63923179 -8.89346406 9.99864906 -4 4 C-1.8293457 3.23681641 -1.8293457 3.23681641 0 3 C0 2.01 0 1.02 0 0 Z " fill="#B5B1B1" transform="translate(154,77)"/>
<path d="M0 0 C0.33 0 0.66 0 1 0 C1 1.98 1 3.96 1 6 C2.65 6 4.3 6 6 6 C5.67 6.66 5.34 7.32 5 8 C4.7724985 9.87056791 4.59037189 11.74685958 4.4375 13.625 C4.35371094 14.62789062 4.26992187 15.63078125 4.18359375 16.6640625 C4.12300781 17.43492187 4.06242188 18.20578125 4 19 C3.01 19.33 2.02 19.66 1 20 C1 17.03 1 14.06 1 11 C-2.96 11 -6.92 11 -11 11 C-11 10.67 -11 10.34 -11 10 C-9.02 10 -7.04 10 -5 10 C-4.67 8.68 -4.34 7.36 -4 6 C-2.68 5.67 -1.36 5.34 0 5 C0 3.35 0 1.7 0 0 Z " fill="#D9D3D0" transform="translate(169,159)"/>
<path d="M0 0 C0.33 0 0.66 0 1 0 C1 2.97 1 5.94 1 9 C2.65 8.67 4.3 8.34 6 8 C6 8.66 6 9.32 6 10 C4.35 10 2.7 10 1 10 C1 11.32 1 12.64 1 14 C-0.65 14 -2.3 14 -4 14 C-4 12.35 -4 10.7 -4 9 C-5.65 9 -7.3 9 -9 9 C-9 7.35 -9 5.7 -9 4 C-6.03 4 -3.06 4 0 4 C0 2.68 0 1.36 0 0 Z " fill="#B4B1B8" transform="translate(244,151)"/>
<path d="M0 0 C4.95 0 9.9 0 15 0 C15 1.98 15 3.96 15 6 C9.84828377 6.09038099 5.08086796 5.84681133 0 5 C0 3.35 0 1.7 0 0 Z " fill="#BBB8B6" transform="translate(145,190)"/>
<path d="M0 0 C1.98 0 3.96 0 6 0 C6 0.99 6 1.98 6 3 C8.97 3.495 8.97 3.495 12 4 C12.04254356 5.99954746 12.04080783 8.00041636 12 10 C11 11 11 11 7.9375 11.0625 C6.968125 11.041875 5.99875 11.02125 5 11 C5 9.02 5 7.04 5 5 C3.35 5 1.7 5 0 5 C0 3.35 0 1.7 0 0 Z " fill="#679FD6" transform="translate(185,130)"/>
<path d="M0 0 C3.3 0 6.6 0 10 0 C9.34 0.99 8.68 1.98 8 3 C7.43182698 4.21714128 6.88996248 5.44690856 6.375 6.6875 C5.92125 7.780625 5.4675 8.87375 5 10 C4.34 9.01 3.68 8.02 3 7 C0.19189856 6.48895078 0.19189856 6.48895078 -3.1015625 6.48828125 C-4.31328125 6.45283203 -5.525 6.41738281 -6.7734375 6.38085938 C-8.04445312 6.35830078 -9.31546875 6.33574219 -10.625 6.3125 C-12.543125 6.26125977 -12.543125 6.26125977 -14.5 6.20898438 C-17.66657932 6.12627521 -20.83287364 6.05719915 -24 6 C-24 5.67 -24 5.34 -24 5 C-16.08 5 -8.16 5 0 5 C0 3.35 0 1.7 0 0 Z " fill="#476ABA" transform="translate(220,140)"/>
<path d="M0 0 C2.97 0 5.94 0 9 0 C9 2.97 9 5.94 9 9 C7.35 9 5.7 9 4 9 C4 8.34 4 7.68 4 7 C2.68 7 1.36 7 0 7 C0 4.69 0 2.38 0 0 Z " fill="#D8D2D1" transform="translate(166,196)"/>
<path d="M0 0 C16.5 0 33 0 50 0 C50 1.65 50 3.3 50 5 C48.68 5 47.36 5 46 5 C46 6.65 46 8.3 46 10 C45.67 10 45.34 10 45 10 C44.875 7.125 44.875 7.125 45 4 C45.66 3.34 46.32 2.68 47 2 C23.735 1.505 23.735 1.505 0 1 C0 0.67 0 0.34 0 0 Z " fill="#F4DDFD" transform="translate(175,225)"/>
<path d="M0 0 C1.65 0 3.3 0 5 0 C4.49339844 0.84304687 4.49339844 0.84304687 3.9765625 1.703125 C2.8310942 4.39726644 2.9529974 5.88038233 3.375 8.75 C3.48585937 9.54921875 3.59671875 10.3484375 3.7109375 11.171875 C3.85402344 12.07679688 3.85402344 12.07679688 4 13 C5.32 13 6.64 13 8 13 C8 11.68 8 10.36 8 9 C8.66 9.33 9.32 9.66 10 10 C9.67 11.65 9.34 13.3 9 15 C6.03 15 3.06 15 0 15 C0 10.05 0 5.1 0 0 Z " fill="#F9F597" transform="translate(155,200)"/>
<path d="M0 0 C1.98 0 3.96 0 6 0 C5.649375 0.7425 5.29875 1.485 4.9375 2.25 C3.66081932 5.18064999 3.66081932 5.18064999 5 9 C1.7 9 -1.6 9 -5 9 C-5 7.35 -5 5.7 -5 4 C-3.35 4 -1.7 4 0 4 C0 2.68 0 1.36 0 0 Z " fill="#D6CFD1" transform="translate(250,176)"/>
<path d="M0 0 C1.32 0.33 2.64 0.66 4 1 C3.34 3.97 2.68 6.94 2 10 C0.329375 10.12375 0.329375 10.12375 -1.375 10.25 C-2.57125 10.4975 -3.7675 10.745 -5 11 C-5.66 12.32 -6.32 13.64 -7 15 C-7 11.7 -7 8.4 -7 5 C-5.35 5 -3.7 5 -2 5 C-2 5.66 -2 6.32 -2 7 C-1.34 7 -0.68 7 0 7 C0 4.69 0 2.38 0 0 Z " fill="#5D3578" transform="translate(152,250)"/>
<path d="M0 0 C1.65 0 3.3 0 5 0 C5 1.65 5 3.3 5 5 C4.34 5 3.68 5 3 5 C2.67 5.66 2.34 6.32 2 7 C0.35 6.67 -1.3 6.34 -3 6 C-2.814375 6.5775 -2.62875 7.155 -2.4375 7.75 C-1.95976454 10.20692525 -2.24270636 11.64397534 -3 14 C-0.69 14 1.62 14 4 14 C4 14.33 4 14.66 4 15 C1.03 15 -1.94 15 -5 15 C-5 11.7 -5 8.4 -5 5 C-3.35 5 -1.7 5 0 5 C0 3.35 0 1.7 0 0 Z " fill="#6E4085" transform="translate(170,205)"/>
<path d="M0 0 C1.98 0 3.96 0 6 0 C6 3.3 6 6.6 6 10 C4.35 10 2.7 10 1 10 C0 9 0 9 -0.09765625 6.93359375 C-0.08605469 6.10988281 -0.07445312 5.28617188 -0.0625 4.4375 C-0.05347656 3.61121094 -0.04445312 2.78492188 -0.03515625 1.93359375 C-0.02355469 1.29550781 -0.01195312 0.65742188 0 0 Z " fill="#FAF9C6" transform="translate(224,175)"/>
<path d="M0 0 C1.65 0 3.3 0 5 0 C5 1.65 5 3.3 5 5 C3.68 5 2.36 5 1 5 C1 14.57 1 24.14 1 34 C1.99 34.33 2.98 34.66 4 35 C2.68 35 1.36 35 0 35 C0 23.45 0 11.9 0 0 Z " fill="#F6F4F4" transform="translate(150,85)"/>
<path d="M0 0 C0.33 0 0.66 0 1 0 C1 6.27 1 12.54 1 19 C-0.65 19 -2.3 19 -4 19 C-4 17.02 -4 15.04 -4 13 C-3.01 12.67 -2.02 12.34 -1 12 C-1.01160156 11.21753906 -1.02320313 10.43507812 -1.03515625 9.62890625 C-1.04417969 8.61699219 -1.05320313 7.60507813 -1.0625 6.5625 C-1.07410156 5.55316406 -1.08570313 4.54382813 -1.09765625 3.50390625 C-1 1 -1 1 0 0 Z " fill="#DCCFDB" transform="translate(174,166)"/>
<path d="M0 0 C1.65 0 3.3 0 5 0 C4.67 1.32 4.34 2.64 4 4 C4.66 4 5.32 4 6 4 C6 5.65 6 7.3 6 9 C4.35 9 2.7 9 1 9 C1 7.68 1 6.36 1 5 C-0.65 5 -2.3 5 -4 5 C-4 6.32 -4 7.64 -4 9 C-7.3 9 -10.6 9 -14 9 C-14 8.67 -14 8.34 -14 8 C-11.03 8 -8.06 8 -5 8 C-5 6.68 -5 5.36 -5 4 C-3.35 4 -1.7 4 0 4 C0 2.68 0 1.36 0 0 Z " fill="#B1AE84" transform="translate(264,146)"/>
<path d="M0 0 C0.33 0 0.66 0 1 0 C1 2.31 1 4.62 1 7 C-0.65 7 -2.3 7 -4 7 C-4 8.65 -4 10.3 -4 12 C-6.64 12 -9.28 12 -12 12 C-11.01 11.67 -10.02 11.34 -9 11 C-8.87625 10.4225 -8.7525 9.845 -8.625 9.25 C-7.68433209 5.86359553 -5.62026608 4.24594236 -3 2 C-2.01 2 -1.02 2 0 2 C0 1.34 0 0.68 0 0 Z " fill="#A09D9E" transform="translate(169,63)"/>
<path d="M0 0 C1.65 0 3.3 0 5 0 C5 1.65 5 3.3 5 5 C6.65 5 8.3 5 10 5 C10 5.33 10 5.66 10 6 C8.35 6 6.7 6 5 6 C5 7.32 5 8.64 5 10 C3.35 10 1.7 10 0 10 C0 6.7 0 3.4 0 0 Z " fill="#E7DFA3" transform="translate(135,190)"/>
<path d="M0 0 C0.33 0 0.66 0 1 0 C1 2.97 1 5.94 1 9 C-0.65 9 -2.3 9 -4 9 C-4 12.3 -4 15.6 -4 19 C-4.33 19 -4.66 19 -5 19 C-5.33 17.35 -5.66 15.7 -6 14 C-6.66 15.65 -7.32 17.3 -8 19 C-8.33 19 -8.66 19 -9 19 C-8.67 14.71 -8.34 10.42 -8 6 C-7.67 6.66 -7.34 7.32 -7 8 C-6.34 8 -5.68 8 -5 8 C-5 7.34 -5 6.68 -5 6 C-2.525 6.99 -2.525 6.99 0 8 C0 5.36 0 2.72 0 0 Z " fill="#6B3689" transform="translate(139,181)"/>
<path d="M0 0 C2.97 0 5.94 0 9 0 C9 1.65 9 3.3 9 5 C8.01 4.67 7.02 4.34 6 4 C5.67 4.99 5.34 5.98 5 7 C4.01 6.34 3.02 5.68 2 5 C1.67 6.32 1.34 7.64 1 9 C2.98 9.495 2.98 9.495 5 10 C3.35 10 1.7 10 0 10 C0 6.7 0 3.4 0 0 Z " fill="#693585" transform="translate(140,245)"/>
<path d="M0 0 C6.6 0 13.2 0 20 0 C20 1.65 20 3.3 20 5 C19.34 5 18.68 5 18 5 C18 4.01 18 3.02 18 2 C15.51979503 2.11341491 13.04155031 2.24014686 10.5625 2.375 C9.85544922 2.4059375 9.14839844 2.436875 8.41992188 2.46875 C6.60760812 2.57280629 4.80182012 2.77919892 3 3 C2.67 3.66 2.34 4.32 2 5 C1.34 5 0.68 5 0 5 C0 3.35 0 1.7 0 0 Z " fill="#5E6FA6" transform="translate(205,65)"/>
<path d="M0 0 C3.3 0 6.6 0 10 0 C10 1.65 10 3.3 10 5 C6.37 5.33 2.74 5.66 -1 6 C-0.67 4.02 -0.34 2.04 0 0 Z " fill="#C7C3B9" transform="translate(139,230)"/>
<path d="M0 0 C4.95 0 9.9 0 15 0 C14.67 1.65 14.34 3.3 14 5 C13.01 5.33 12.02 5.66 11 6 C10.26676204 8.01508358 10.26676204 8.01508358 10 10 C8.68 10.33 7.36 10.66 6 11 C5.67 12.32 5.34 13.64 5 15 C5 13.02 5 11.04 5 9 C6.32 9 7.64 9 9 9 C9 7.68 9 6.36 9 5 C9.99 4.34 10.98 3.68 12 3 C6.06 2.01 6.06 2.01 0 1 C0 0.67 0 0.34 0 0 Z " fill="#552D69" transform="translate(280,155)"/>
<path d="M0 0 C3.3 0.33 6.6 0.66 10 1 C10 2.65 10 4.3 10 6 C6.7 6 3.4 6 0 6 C0 4.02 0 2.04 0 0 Z " fill="#F7F0AF" transform="translate(170,159)"/>
<path d="M0 0 C3.3 0 6.6 0 10 0 C10 1.65 10 3.3 10 5 C6.7 5 3.4 5 0 5 C0 3.35 0 1.7 0 0 Z " fill="#D6D3CF" transform="translate(160,185)"/>
<path d="M0 0 C1.65 0 3.3 0 5 0 C5 3.3 5 6.6 5 10 C3.35 10 1.7 10 0 10 C0 6.7 0 3.4 0 0 Z " fill="#851136" transform="translate(215,175)"/>
<path d="M0 0 C1.65 0 3.3 0 5 0 C5 3.3 5 6.6 5 10 C3.35 10 1.7 10 0 10 C0 6.7 0 3.4 0 0 Z " fill="#121212" transform="translate(205,175)"/>
<path d="M0 0 C1.65 0 3.3 0 5 0 C5 3.3 5 6.6 5 10 C3.35 10 1.7 10 0 10 C0 6.7 0 3.4 0 0 Z " fill="#D9D1D8" transform="translate(185,170)"/>
<path d="M0 0 C3.3 0 6.6 0 10 0 C10 1.65 10 3.3 10 5 C6.7 5 3.4 5 0 5 C0 3.35 0 1.7 0 0 Z " fill="#B4AFB4" transform="translate(185,165)"/>
<path d="M0 0 C3.3 0 6.6 0 10 0 C10 1.65 10 3.3 10 5 C6.7 5 3.4 5 0 5 C0 3.35 0 1.7 0 0 Z " fill="#D6D4D4" transform="translate(185,160)"/>
<path d="M0 0 C1.65 0 3.3 0 5 0 C5 3.3 5 6.6 5 10 C3.35 10 1.7 10 0 10 C0 6.7 0 3.4 0 0 Z " fill="#D1F2FF" transform="translate(180,115)"/>
<path d="M0 0 C1.32 0 2.64 0 4 0 C4 2.97 4 5.94 4 9 C1.36 9 -1.28 9 -4 9 C-4 8.01 -4 7.02 -4 6 C-3.01 5.67 -2.02 5.34 -1 5 C-0.67 3.35 -0.34 1.7 0 0 Z " fill="#FBF8A6" transform="translate(170,185)"/>
<path d="M0 0 C3.3 0 6.6 0 10 0 C9.67 1.98 9.34 3.96 9 6 C5.7 6 2.4 6 -1 6 C-0.67 4.02 -0.34 2.04 0 0 Z " fill="#A5A09F" transform="translate(266,170)"/>
<path d="M0 0 C1.65 0 3.3 0 5 0 C5 3.3 5 6.6 5 10 C3.35 9.67 1.7 9.34 0 9 C0 6.03 0 3.06 0 0 Z " fill="#D8D5D3" transform="translate(155,135)"/>
<path d="M0 0 C4.95 0 9.9 0 15 0 C14.34 1.98 13.68 3.96 13 6 C12.01 6 11.02 6 10 6 C9.67 7.32 9.34 8.64 9 10 C7.35 10 5.7 10 4 10 C6 7 6 7 8.625 5.4375 C9.40875 4.963125 10.1925 4.48875 11 4 C11 3.34 11 2.68 11 2 C7.37 1.67 3.74 1.34 0 1 C0 0.67 0 0.34 0 0 Z " fill="#633979" transform="translate(181,250)"/>
<path d="M0 0 C1.65 0 3.3 0 5 0 C5 6.6 5 13.2 5 20 C4.34 20 3.68 20 3 20 C3 14.39 3 8.78 3 3 C2.34 3 1.68 3 1 3 C0.67 2.01 0.34 1.02 0 0 Z " fill="#724A8F" transform="translate(240,165)"/>
<path d="M0 0 C1.65 0 3.3 0 5 0 C5 1.65 5 3.3 5 5 C3.35 5 1.7 5 0 5 C0 6.32 0 7.64 0 9 C-1.65 9 -3.3 9 -5 9 C-5 7.68 -5 6.36 -5 5 C-3.68 4.67 -2.36 4.34 -1 4 C-0.67 2.68 -0.34 1.36 0 0 Z " fill="#D9D8D7" transform="translate(165,240)"/>
<path d="M0 0 C0.33 1.32 0.66 2.64 1 4 C2.65 4.33 4.3 4.66 6 5 C6 8.3 6 11.6 6 15 C5.67 15 5.34 15 5 15 C5 13.35 5 11.7 5 10 C3.68 10 2.36 10 1 10 C-0.60725635 6.78548731 -0.05748185 3.56387464 0 0 Z " fill="#9E9899" transform="translate(164,250)"/>
<path d="M0 0 C0.66 0 1.32 0 2 0 C2 1.65 2 3.3 2 5 C-1.3 5 -4.6 5 -8 5 C-8 6.65 -8 8.3 -8 10 C-11.3 10 -14.6 10 -18 10 C-18 9.67 -18 9.34 -18 9 C-15.36 9 -12.72 9 -10 9 C-9.67 7.35 -9.34 5.7 -9 4 C-4.545 3.505 -4.545 3.505 0 3 C0 2.01 0 1.02 0 0 Z " fill="#5F6DA7" transform="translate(243,140)"/>
<path d="M0 0 C0.33 0 0.66 0 1 0 C0.67 2.64 0.34 5.28 0 8 C-0.99 8.33 -1.98 8.66 -3 9 C-1.68 9.33 -0.36 9.66 1 10 C-0.65 10 -2.3 10 -4 10 C-4.12375 9.195625 -4.2475 8.39125 -4.375 7.5625 C-4.684375 6.2940625 -4.684375 6.2940625 -5 5 C-5.66 4.67 -6.32 4.34 -7 4 C-6.67 3.01 -6.34 2.02 -6 1 C-4.35 1.33 -2.7 1.66 -1 2 C-0.67 1.34 -0.34 0.68 0 0 Z " fill="#5E70B4" transform="translate(244,75)"/>
<path d="M0 0 C0.33 0 0.66 0 1 0 C1.28571429 8.57142857 1.28571429 8.57142857 -1 12 C-1 11.34 -1 10.68 -1 10 C-3.31 9.67 -5.62 9.34 -8 9 C-6.68 8.67 -5.36 8.34 -4 8 C-3.67 6.35 -3.34 4.7 -3 3 C-2.01 3 -1.02 3 0 3 C0 2.01 0 1.02 0 0 Z " fill="#9F9C99" transform="translate(279,131)"/>
<path d="M0 0 C6.6 0 13.2 0 20 0 C20 0.33 20 0.66 20 1 C15.05 1 10.1 1 5 1 C5 2.32 5 3.64 5 5 C3.35 5 1.7 5 0 5 C0 3.35 0 1.7 0 0 Z " fill="#D1CECF" transform="translate(280,130)"/>
<path d="M0 0 C0.33 0 0.66 0 1 0 C1 3.63 1 7.26 1 11 C-0.65 11 -2.3 11 -4 11 C-3.67 8.03 -3.34 5.06 -3 2 C-2.34 2 -1.68 2 -1 2 C-0.67 1.34 -0.34 0.68 0 0 Z " fill="#D9D0CD" transform="translate(279,139)"/>
<path d="M0 0 C2.31 0 4.62 0 7 0 C7.5625 1.9375 7.5625 1.9375 8 4 C7 5 7 5 3.4375 5.0625 C2.303125 5.041875 1.16875 5.02125 0 5 C0 3.35 0 1.7 0 0 Z " fill="#D5D0CF" transform="translate(145,190)"/>
<path d="M0 0 C2 1 2 1 3 2 C3.04092937 4.33297433 3.04241723 6.66705225 3 9 C1.35 8.67 -0.3 8.34 -2 8 C-2 6.02 -2 4.04 -2 2 C-1.34 2 -0.68 2 0 2 C0 1.34 0 0.68 0 0 Z " fill="#CFCAC8" transform="translate(127,252)"/>
<path d="M0 0 C3.63 0 7.26 0 11 0 C11 0.66 11 1.32 11 2 C8.69 2.33 6.38 2.66 4 3 C4 3.66 4 4.32 4 5 C2.68 5 1.36 5 0 5 C0 3.35 0 1.7 0 0 Z " fill="#5365A2" transform="translate(185,75)"/>
<path d="M0 0 C0.33 0 0.66 0 1 0 C1 1.98 1 3.96 1 6 C-0.98 6.99 -0.98 6.99 -3 8 C-2.67 9.98 -2.34 11.96 -2 14 C-3.65 14 -5.3 14 -7 14 C-6.30058404 10.85262818 -5.23921302 7.97411124 -4 5 C-2.68 5 -1.36 5 0 5 C0 3.35 0 1.7 0 0 Z " fill="#A9A497" transform="translate(134,235)"/>
<path d="M0 0 C6.93 0.495 6.93 0.495 14 1 C14 2.98 14 4.96 14 7 C13.67 7 13.34 7 13 7 C13 5.35 13 3.7 13 2 C9.7 2 6.4 2 3 2 C3 3.65 3 5.3 3 7 C2.34 7 1.68 7 1 7 C0.67 4.69 0.34 2.38 0 0 Z " fill="#FDFACB" transform="translate(202,208)"/>
<path d="M0 0 C0.33 0 0.66 0 1 0 C1.33609819 3.61305558 1.19511045 5.62603831 -0.5 8.875 C-3.23887433 11.20304318 -3.83109612 11.30643811 -7.25 11.3125 C-8.4875 11.209375 -9.725 11.10625 -11 11 C-11 10.67 -11 10.34 -11 10 C-9.02 10 -7.04 10 -5 10 C-4.67 8.68 -4.34 7.36 -4 6 C-2.68 5.67 -1.36 5.34 0 5 C0 3.35 0 1.7 0 0 Z " fill="#65635D" transform="translate(169,159)"/>
<path d="M0 0 C3.3 0.33 6.6 0.66 10 1 C10 1.99 10 2.98 10 4 C6.7 4 3.4 4 0 4 C0 2.68 0 1.36 0 0 Z " fill="#5D6DB1" transform="translate(195,146)"/>
<path d="M0 0 C0.66 0.33 1.32 0.66 2 1 C2 4.3 2 7.6 2 11 C0.68 11 -0.64 11 -2 11 C-1.34 7.37 -0.68 3.74 0 0 Z " fill="#5364A6" transform="translate(253,119)"/>
<path d="M0 0 C3.63 0 7.26 0 11 0 C11 0.33 11 0.66 11 1 C8.69 1 6.38 1 4 1 C4 2.32 4 3.64 4 5 C2.35 5 0.7 5 -1 5 C-0.67 3.35 -0.34 1.7 0 0 Z " fill="#D4D2D0" transform="translate(186,55)"/>
<path d="M0 0 C0.99 0.33 1.98 0.66 3 1 C2.67 3.31 2.34 5.62 2 8 C2.99 8.66 3.98 9.32 5 10 C1.7 10 -1.6 10 -5 10 C-5 9.67 -5 9.34 -5 9 C-3.35 9 -1.7 9 0 9 C0 6.03 0 3.06 0 0 Z " fill="#F6ECE3" transform="translate(145,235)"/>
<path d="M0 0 C0.33 0 0.66 0 1 0 C1 2.97 1 5.94 1 9 C0.01 9 -0.98 9 -2 9 C-1.34 10.65 -0.68 12.3 0 14 C-2.97 14 -5.94 14 -9 14 C-9 13.67 -9 13.34 -9 13 C-7.35 13 -5.7 13 -4 13 C-3.67 11.35 -3.34 9.7 -3 8 C-2.01 8 -1.02 8 0 8 C0 5.36 0 2.72 0 0 Z " fill="#757270" transform="translate(149,216)"/>
<path d="M0 0 C0.33 0 0.66 0 1 0 C1 2.64 1 5.28 1 8 C-0.98 8 -2.96 8 -5 8 C-4.34 6.35 -3.68 4.7 -3 3 C-2.01 3 -1.02 3 0 3 C0 2.01 0 1.02 0 0 Z " fill="#9E989A" transform="translate(154,77)"/>
<path d="M0 0 C1.32 0 2.64 0 4 0 C4 1.65 4 3.3 4 5 C1.36 5 -1.28 5 -4 5 C-3.01 4.67 -2.02 4.34 -1 4 C-0.26676204 1.98491642 -0.26676204 1.98491642 0 0 Z " fill="#A8A5A6" transform="translate(161,70)"/>
<path d="M0 0 C2.96175123 0.61277612 4.38058783 1.25372522 7 3 C7 3.66 7 4.32 7 5 C5.02 5 3.04 5 1 5 C0.67 3.35 0.34 1.7 0 0 Z " fill="#FAF787" transform="translate(177,244)"/>
<path d="M0 0 C0 3.3 0 6.6 0 10 C-0.33 10 -0.66 10 -1 10 C-1.33 8.35 -1.66 6.7 -2 5 C-2.66 6.65 -3.32 8.3 -4 10 C-4.33 10 -4.66 10 -5 10 C-4.51171875 3.9453125 -4.51171875 3.9453125 -4 2 C-1 0 -1 0 0 0 Z " fill="#5E455A" transform="translate(135,190)"/>
<path d="M0 0 C1.32 0 2.64 0 4 0 C4 1.65 4 3.3 4 5 C7.3 5 10.6 5 14 5 C14 5.33 14 5.66 14 6 C12.2300132 6.19532961 10.45895721 6.38098882 8.6875 6.5625 C7.70136719 6.66691406 6.71523438 6.77132812 5.69921875 6.87890625 C3 7 3 7 0 6 C0.33 5.01 0.66 4.02 1 3 C1 3.66 1 4.32 1 5 C1.66 5 2.32 5 3 5 C3 3.68 3 2.36 3 1 C2.01 0.67 1.02 0.34 0 0 Z " fill="#CEBAD5" transform="translate(271,160)"/>
<path d="M0 0 C1.65 0 3.3 0 5 0 C5 0.66 5 1.32 5 2 C4.01 2 3.02 2 2 2 C2 4.64 2 7.28 2 10 C1.34 10 0.68 10 0 10 C0 6.7 0 3.4 0 0 Z " fill="#659CD2" transform="translate(175,90)"/>
<path d="M0 0 C1.65 0 3.3 0 5 0 C5 1.65 5 3.3 5 5 C3.35 5 1.7 5 0 5 C0 3.35 0 1.7 0 0 Z " fill="#D5D4D1" transform="translate(170,235)"/>
<path d="M0 0 C1.65 0 3.3 0 5 0 C5 1.65 5 3.3 5 5 C3.35 5 1.7 5 0 5 C0 3.35 0 1.7 0 0 Z " fill="#DACFDB" transform="translate(170,220)"/>
<path d="M0 0 C1.65 0 3.3 0 5 0 C5 1.65 5 3.3 5 5 C3.35 5 1.7 5 0 5 C0 3.35 0 1.7 0 0 Z " fill="#D9D3CF" transform="translate(175,190)"/>
<path d="M0 0 C1.65 0 3.3 0 5 0 C5 1.65 5 3.3 5 5 C3.35 5 1.7 5 0 5 C0 3.35 0 1.7 0 0 Z " fill="#B5B2A8" transform="translate(165,185)"/>
<path d="M0 0 C1.65 0 3.3 0 5 0 C5 1.65 5 3.3 5 5 C3.35 5 1.7 5 0 5 C0 3.35 0 1.7 0 0 Z " fill="#DBD8CF" transform="translate(225,160)"/>
<path d="M0 0 C1.65 0 3.3 0 5 0 C5 1.65 5 3.3 5 5 C3.35 5 1.7 5 0 5 C0 3.35 0 1.7 0 0 Z " fill="#B6ADAF" transform="translate(180,160)"/>
<path d="M0 0 C1.65 0 3.3 0 5 0 C5 1.65 5 3.3 5 5 C3.35 5 1.7 5 0 5 C0 3.35 0 1.7 0 0 Z " fill="#DBCEDE" transform="translate(280,150)"/>
<path d="M0 0 C1.65 0 3.3 0 5 0 C5 1.65 5 3.3 5 5 C3.35 5 1.7 5 0 5 C0 3.35 0 1.7 0 0 Z " fill="#E3FAFF" transform="translate(190,135)"/>
<path d="M0 0 C1.65 0 3.3 0 5 0 C5 1.65 5 3.3 5 5 C3.35 5 1.7 5 0 5 C0 3.35 0 1.7 0 0 Z " fill="#DEF8FE" transform="translate(185,130)"/>
<path d="M0 0 C1.65 0 3.3 0 5 0 C5 1.65 5 3.3 5 5 C3.35 5 1.7 5 0 5 C0 3.35 0 1.7 0 0 Z " fill="#D6D2D3" transform="translate(150,85)"/>
<path d="M0 0 C1.65 0 3.3 0 5 0 C5 1.65 5 3.3 5 5 C3.35 5 1.7 5 0 5 C0 3.35 0 1.7 0 0 Z " fill="#5271B6" transform="translate(180,80)"/>
<path d="M0 0 C0 1.32 0 2.64 0 4 C-3.63 4 -7.26 4 -11 4 C-11 3.67 -11 3.34 -11 3 C-10.05125 2.690625 -9.1025 2.38125 -8.125 2.0625 C-2.05882353 0 -2.05882353 0 0 0 Z " fill="#918E8D" transform="translate(185,56)"/>
<path d="M0 0 C2 2 2 2 2 5 C1.030625 5.12375 0.06125 5.2475 -0.9375 5.375 C-2.4534375 5.684375 -2.4534375 5.684375 -4 6 C-4.33 6.66 -4.66 7.32 -5 8 C-4.6875 5.625 -4.6875 5.625 -4 3 C-3.01 2.34 -2.02 1.68 -1 1 C-0.67 0.67 -0.34 0.34 0 0 Z " fill="#FBF99F" transform="translate(272,144)"/>
<path d="M0 0 C1.65 0 3.3 0 5 0 C4.01 0.495 4.01 0.495 3 1 C2.6278958 2.32303717 2.29369827 3.65737935 2 5 C1 6 1 6 -1.5625 6.0625 C-2.7690625 6.0315625 -2.7690625 6.0315625 -4 6 C-4.33 6.66 -4.66 7.32 -5 8 C-5 7.01 -5 6.02 -5 5 C-3.35 5 -1.7 5 0 5 C0 3.35 0 1.7 0 0 Z " fill="#446BBC" transform="translate(235,130)"/>
<path d="M0 0 C0.99 0 1.98 0 3 0 C3 2.64 3 5.28 3 8 C2.01 8 1.02 8 0 8 C0 5.36 0 2.72 0 0 Z " fill="#F8FEFE" transform="translate(181,116)"/>
<path d="M0 0 C1.32 0 2.64 0 4 0 C4 1.65 4 3.3 4 5 C2.35 5 0.7 5 -1 5 C-0.67 3.35 -0.34 1.7 0 0 Z " fill="#DBD7D8" transform="translate(156,75)"/>
<path d="M0 0 C1.65 0 3.3 0 5 0 C5 2.97 5 5.94 5 9 C4.34 9 3.68 9 3 9 C3 6.69 3 4.38 3 2 C2.01 1.67 1.02 1.34 0 1 C0 0.67 0 0.34 0 0 Z " fill="#F5F2A0" transform="translate(160,195)"/>
<path d="M0 0 C2.5 1.3125 2.5 1.3125 5 3 C5 3.99 5 4.98 5 6 C3.35 5.67 1.7 5.34 0 5 C-0.5625 3.0625 -0.5625 3.0625 -1 1 C-0.67 0.67 -0.34 0.34 0 0 Z " fill="#A9A6A1" transform="translate(170,154)"/>
<path d="M0 0 C1.65 0 3.3 0 5 0 C5 1.98 5 3.96 5 6 C2.5 4.6875 2.5 4.6875 0 3 C0 2.01 0 1.02 0 0 Z " fill="#B4B3B2" transform="translate(170,151)"/>
<path d="M0 0 C0.78375 0.04125 1.5675 0.0825 2.375 0.125 C1.385 0.455 0.395 0.785 -0.625 1.125 C-1.35823796 3.14008358 -1.35823796 3.14008358 -1.625 5.125 C-3.275 5.125 -4.925 5.125 -6.625 5.125 C-3.31352459 0.15778689 -3.31352459 0.15778689 0 0 Z " fill="#512568" transform="translate(191.625,254.875)"/>
<path d="M0 0 C0.99 0 1.98 0 3 0 C3 2.31 3 4.62 3 7 C2.01 7 1.02 7 0 7 C0 4.69 0 2.38 0 0 Z " fill="#FEF5A6" transform="translate(226,176)"/>
<path d="M0 0 C0.33 0.66 0.66 1.32 1 2 C1.99 2.33 2.98 2.66 4 3 C3 6 3 6 2 7 C-0.33944736 6.71269945 -2.6739143 6.38063221 -5 6 C-5 5.67 -5 5.34 -5 5 C-3.35 5 -1.7 5 0 5 C0 3.35 0 1.7 0 0 Z " fill="#E4E499" transform="translate(270,140)"/>
<path d="M0 0 C1.32 0 2.64 0 4 0 C4 1.65 4 3.3 4 5 C2.68 5 1.36 5 0 5 C0 3.35 0 1.7 0 0 Z " fill="#FAF7B6" transform="translate(230,160)"/>
<path d="M0 0 C3.3 0 6.6 0 10 0 C10 1.65 10 3.3 10 5 C9.01 4.67 8.02 4.34 7 4 C7 3.01 7 2.02 7 1 C4.69 1 2.38 1 0 1 C0 0.67 0 0.34 0 0 Z " fill="#E6EFFC" transform="translate(195,150)"/>
<path d="M0 0 C0 1.32 0 2.64 0 4 C-1.32 4 -2.64 4 -4 4 C-4 5.65 -4 7.3 -4 9 C-4.33 9 -4.66 9 -5 9 C-5.36666667 3.5 -5.36666667 3.5 -3.625 1.125 C-2 0 -2 0 0 0 Z " fill="#AFACAF" transform="translate(225,226)"/>
<path d="M0 0 C1.65 0 3.3 0 5 0 C4.01 0.495 4.01 0.495 3 1 C2.64587656 2.32796291 2.31478446 3.66216607 2 5 C1.34 5.99 0.68 6.98 0 8 C0 5.36 0 2.72 0 0 Z " fill="#E9F5FB" transform="translate(250,130)"/>
<path d="M0 0 C1.65 0 3.3 0 5 0 C5 1.98 5 3.96 5 6 C3.35 6 1.7 6 0 6 C1.32 5.67 2.64 5.34 4 5 C2.68 3.35 1.36 1.7 0 0 Z " fill="#F2ECAC" transform="translate(180,244)"/>
</svg>
