<?xml version="1.0" encoding="UTF-8"?>
<svg version="1.1" xmlns="http://www.w3.org/2000/svg" width="1000" height="1000">
<path d="M0 0 C3.3 0 6.6 0 10 0 C10 13.2 10 26.4 10 40 C13.3 40 16.6 40 20 40 C20 43.3 20 46.6 20 50 C23.3 50 26.6 50 30 50 C30 46.7 30 43.4 30 40 C33.3 40 36.6 40 40 40 C40 33.4 40 26.8 40 20 C43.3 20 46.6 20 50 20 C50 36.5 50 53 50 70 C56.6 70 63.2 70 70 70 C70 66.7 70 63.4 70 60 C76.6 60 83.2 60 90 60 C90 63.3 90 66.6 90 70 C93.3 70 96.6 70 100 70 C100 76.6 100 83.2 100 90 C113.2 90 126.4 90 140 90 C140 93.3 140 96.6 140 100 C146.6 100 153.2 100 160 100 C160 103.3 160 106.6 160 110 C146.8 110 133.6 110 120 110 C120 116.6 120 123.2 120 130 C123.3 130 126.6 130 130 130 C130 133.3 130 136.6 130 140 C133.3 140 136.6 140 140 140 C140 143.3 140 146.6 140 150 C136.7 150 133.4 150 130 150 C130 153.3 130 156.6 130 160 C126.7 160 123.4 160 120 160 C120 166.6 120 173.2 120 180 C116.7 180 113.4 180 110 180 C110 189.9 110 199.8 110 210 C116.6 210 123.2 210 130 210 C130 216.6 130 223.2 130 230 C123.4 230 116.8 230 110 230 C110 236.6 110 243.2 110 250 C100.1 250 90.2 250 80 250 C80 259.9 80 269.8 80 280 C76.7 280 73.4 280 70 280 C70 276.7 70 273.4 70 270 C66.7 270 63.4 270 60 270 C60 273.3 60 276.6 60 280 C53.4 280 46.8 280 40 280 C40 276.7 40 273.4 40 270 C36.7 270 33.4 270 30 270 C30 266.7 30 263.4 30 260 C26.7 260 23.4 260 20 260 C20 263.3 20 266.6 20 270 C16.7 270 13.4 270 10 270 C10 273.3 10 276.6 10 280 C6.7 280 3.4 280 0 280 C0 289.9 0 299.8 0 310 C-6.6 310 -13.2 310 -20 310 C-20 300.1 -20 290.2 -20 280 C-23.3 280 -26.6 280 -30 280 C-30 283.3 -30 286.6 -30 290 C-33.3 290 -36.6 290 -40 290 C-40 293.3 -40 296.6 -40 300 C-43.3 300 -46.6 300 -50 300 C-50 293.4 -50 286.8 -50 280 C-56.6 280 -63.2 280 -70 280 C-70 276.7 -70 273.4 -70 270 C-73.3 270 -76.6 270 -80 270 C-80 266.7 -80 263.4 -80 260 C-86.6 260 -93.2 260 -100 260 C-100 263.3 -100 266.6 -100 270 C-103.3 270 -106.6 270 -110 270 C-110 263.4 -110 256.8 -110 250 C-116.6 250 -123.2 250 -130 250 C-130 246.7 -130 243.4 -130 240 C-126.7 240 -123.4 240 -120 240 C-120 236.7 -120 233.4 -120 230 C-123.3 230 -126.6 230 -130 230 C-130 226.7 -130 223.4 -130 220 C-136.6 220 -143.2 220 -150 220 C-150 216.7 -150 213.4 -150 210 C-143.4 210 -136.8 210 -130 210 C-130 206.7 -130 203.4 -130 200 C-123.4 200 -116.8 200 -110 200 C-110 196.7 -110 193.4 -110 190 C-113.3 190 -116.6 190 -120 190 C-120 186.7 -120 183.4 -120 180 C-123.3 180 -126.6 180 -130 180 C-130 173.4 -130 166.8 -130 160 C-133.3 160 -136.6 160 -140 160 C-140 156.7 -140 153.4 -140 150 C-143.3 150 -146.6 150 -150 150 C-150 143.4 -150 136.8 -150 130 C-146.7 130 -143.4 130 -140 130 C-140 123.4 -140 116.8 -140 110 C-136.7 110 -133.4 110 -130 110 C-130 100.1 -130 90.2 -130 80 C-136.6 80 -143.2 80 -150 80 C-150 76.7 -150 73.4 -150 70 C-146.7 70 -143.4 70 -140 70 C-140 66.7 -140 63.4 -140 60 C-130.1 60 -120.2 60 -110 60 C-110 53.4 -110 46.8 -110 40 C-113.3 40 -116.6 40 -120 40 C-120 33.4 -120 26.8 -120 20 C-113.4 20 -106.8 20 -100 20 C-100 23.3 -100 26.6 -100 30 C-96.7 30 -93.4 30 -90 30 C-90 33.3 -90 36.6 -90 40 C-76.8 40 -63.6 40 -50 40 C-50 43.3 -50 46.6 -50 50 C-46.7 50 -43.4 50 -40 50 C-40 46.7 -40 43.4 -40 40 C-36.7 40 -33.4 40 -30 40 C-30 33.4 -30 26.8 -30 20 C-20.1 20 -10.2 20 0 20 C0 13.4 0 6.8 0 0 Z M-100 50 C-100 53.3 -100 56.6 -100 60 C-96.7 60 -93.4 60 -90 60 C-90 56.7 -90 53.4 -90 50 C-93.3 50 -96.6 50 -100 50 Z M-90 60 C-90 63.3 -90 66.6 -90 70 C-86.7 70 -83.4 70 -80 70 C-80 66.7 -80 63.4 -80 60 C-83.3 60 -86.6 60 -90 60 Z M-130 70 C-130 73.3 -130 76.6 -130 80 C-126.7 80 -123.4 80 -120 80 C-120 76.7 -120 73.4 -120 70 C-123.3 70 -126.6 70 -130 70 Z M80 70 C80 79.9 80 89.8 80 100 C83.3 100 86.6 100 90 100 C90 90.1 90 80.2 90 70 C86.7 70 83.4 70 80 70 Z M-120 100 C-120 103.3 -120 106.6 -120 110 C-116.7 110 -113.4 110 -110 110 C-110 106.7 -110 103.4 -110 100 C-113.3 100 -116.6 100 -120 100 Z M-100 100 C-100 103.3 -100 106.6 -100 110 C-96.7 110 -93.4 110 -90 110 C-90 106.7 -90 103.4 -90 100 C-93.3 100 -96.6 100 -100 100 Z M-140 130 C-140 133.3 -140 136.6 -140 140 C-136.7 140 -133.4 140 -130 140 C-130 136.7 -130 133.4 -130 130 C-133.3 130 -136.6 130 -140 130 Z M100 160 C100 166.6 100 173.2 100 180 C103.3 180 106.6 180 110 180 C110 173.4 110 166.8 110 160 C106.7 160 103.4 160 100 160 Z M100 210 C100 213.3 100 216.6 100 220 C103.3 220 106.6 220 110 220 C110 216.7 110 213.4 110 210 C106.7 210 103.4 210 100 210 Z M-70 260 C-70 263.3 -70 266.6 -70 270 C-66.7 270 -63.4 270 -60 270 C-60 266.7 -60 263.4 -60 260 C-63.3 260 -66.6 260 -70 260 Z M40 260 C40 263.3 40 266.6 40 270 C43.3 270 46.6 270 50 270 C50 266.7 50 263.4 50 260 C46.7 260 43.4 260 40 260 Z " fill="#CA513C" transform="translate(460,250)"/>
<path d="M0 0 C3.3 0 6.6 0 10 0 C10 13.2 10 26.4 10 40 C13.3 40 16.6 40 20 40 C20 43.3 20 46.6 20 50 C23.3 50 26.6 50 30 50 C30 46.7 30 43.4 30 40 C33.3 40 36.6 40 40 40 C40 33.4 40 26.8 40 20 C43.3 20 46.6 20 50 20 C50 36.5 50 53 50 70 C56.6 70 63.2 70 70 70 C70 66.7 70 63.4 70 60 C76.6 60 83.2 60 90 60 C90 63.3 90 66.6 90 70 C93.3 70 96.6 70 100 70 C100 76.6 100 83.2 100 90 C113.2 90 126.4 90 140 90 C140 93.3 140 96.6 140 100 C146.6 100 153.2 100 160 100 C160 103.3 160 106.6 160 110 C146.8 110 133.6 110 120 110 C120 116.6 120 123.2 120 130 C123.3 130 126.6 130 130 130 C130 133.3 130 136.6 130 140 C133.3 140 136.6 140 140 140 C140 143.3 140 146.6 140 150 C136.7 150 133.4 150 130 150 C130 153.3 130 156.6 130 160 C126.7 160 123.4 160 120 160 C120 166.6 120 173.2 120 180 C116.7 180 113.4 180 110 180 C110 173.4 110 166.8 110 160 C106.7 160 103.4 160 100 160 C100 153.4 100 146.8 100 140 C103.3 140 106.6 140 110 140 C110 136.7 110 133.4 110 130 C103.4 130 96.8 130 90 130 C90 123.4 90 116.8 90 110 C86.7 110 83.4 110 80 110 C80 113.3 80 116.6 80 120 C76.7 120 73.4 120 70 120 C70 126.6 70 133.2 70 140 C73.3 140 76.6 140 80 140 C80 149.9 80 159.8 80 170 C76.7 170 73.4 170 70 170 C70 163.4 70 156.8 70 150 C66.7 150 63.4 150 60 150 C60 133.5 60 117 60 100 C63.3 100 66.6 100 70 100 C70 96.7 70 93.4 70 90 C63.4 90 56.8 90 50 90 C50 93.3 50 96.6 50 100 C46.7 100 43.4 100 40 100 C40 103.3 40 106.6 40 110 C33.4 110 26.8 110 20 110 C20 103.4 20 96.8 20 90 C13.4 90 6.8 90 0 90 C0 86.7 0 83.4 0 80 C3.3 80 6.6 80 10 80 C10 76.7 10 73.4 10 70 C3.4 70 -3.2 70 -10 70 C-10 73.3 -10 76.6 -10 80 C-13.3 80 -16.6 80 -20 80 C-20 86.6 -20 93.2 -20 100 C-33.2 100 -46.4 100 -60 100 C-60 103.3 -60 106.6 -60 110 C-63.3 110 -66.6 110 -70 110 C-70 113.3 -70 116.6 -70 120 C-73.3 120 -76.6 120 -80 120 C-80 123.3 -80 126.6 -80 130 C-73.4 130 -66.8 130 -60 130 C-60 133.3 -60 136.6 -60 140 C-63.3 140 -66.6 140 -70 140 C-70 143.3 -70 146.6 -70 150 C-73.3 150 -76.6 150 -80 150 C-80 156.6 -80 163.2 -80 170 C-76.7 170 -73.4 170 -70 170 C-70 176.6 -70 183.2 -70 190 C-66.7 190 -63.4 190 -60 190 C-60 196.6 -60 203.2 -60 210 C-69.9 210 -79.8 210 -90 210 C-90 213.3 -90 216.6 -90 220 C-93.3 220 -96.6 220 -100 220 C-100 223.3 -100 226.6 -100 230 C-103.3 230 -106.6 230 -110 230 C-110 233.3 -110 236.6 -110 240 C-100.1 240 -90.2 240 -80 240 C-80 243.3 -80 246.6 -80 250 C-76.7 250 -73.4 250 -70 250 C-70 246.7 -70 243.4 -70 240 C-66.7 240 -63.4 240 -60 240 C-60 243.3 -60 246.6 -60 250 C-53.4 250 -46.8 250 -40 250 C-40 253.3 -40 256.6 -40 260 C-36.7 260 -33.4 260 -30 260 C-30 256.7 -30 253.4 -30 250 C-26.7 250 -23.4 250 -20 250 C-20 253.3 -20 256.6 -20 260 C-16.7 260 -13.4 260 -10 260 C-10 263.3 -10 266.6 -10 270 C-3.4 270 3.2 270 10 270 C10 273.3 10 276.6 10 280 C6.7 280 3.4 280 0 280 C0 289.9 0 299.8 0 310 C-6.6 310 -13.2 310 -20 310 C-20 300.1 -20 290.2 -20 280 C-23.3 280 -26.6 280 -30 280 C-30 283.3 -30 286.6 -30 290 C-33.3 290 -36.6 290 -40 290 C-40 293.3 -40 296.6 -40 300 C-43.3 300 -46.6 300 -50 300 C-50 293.4 -50 286.8 -50 280 C-56.6 280 -63.2 280 -70 280 C-70 276.7 -70 273.4 -70 270 C-73.3 270 -76.6 270 -80 270 C-80 266.7 -80 263.4 -80 260 C-86.6 260 -93.2 260 -100 260 C-100 263.3 -100 266.6 -100 270 C-103.3 270 -106.6 270 -110 270 C-110 263.4 -110 256.8 -110 250 C-116.6 250 -123.2 250 -130 250 C-130 246.7 -130 243.4 -130 240 C-126.7 240 -123.4 240 -120 240 C-120 236.7 -120 233.4 -120 230 C-123.3 230 -126.6 230 -130 230 C-130 226.7 -130 223.4 -130 220 C-136.6 220 -143.2 220 -150 220 C-150 216.7 -150 213.4 -150 210 C-143.4 210 -136.8 210 -130 210 C-130 206.7 -130 203.4 -130 200 C-123.4 200 -116.8 200 -110 200 C-110 196.7 -110 193.4 -110 190 C-113.3 190 -116.6 190 -120 190 C-120 186.7 -120 183.4 -120 180 C-123.3 180 -126.6 180 -130 180 C-130 173.4 -130 166.8 -130 160 C-133.3 160 -136.6 160 -140 160 C-140 156.7 -140 153.4 -140 150 C-143.3 150 -146.6 150 -150 150 C-150 143.4 -150 136.8 -150 130 C-146.7 130 -143.4 130 -140 130 C-140 123.4 -140 116.8 -140 110 C-136.7 110 -133.4 110 -130 110 C-130 100.1 -130 90.2 -130 80 C-136.6 80 -143.2 80 -150 80 C-150 76.7 -150 73.4 -150 70 C-146.7 70 -143.4 70 -140 70 C-140 66.7 -140 63.4 -140 60 C-130.1 60 -120.2 60 -110 60 C-110 53.4 -110 46.8 -110 40 C-113.3 40 -116.6 40 -120 40 C-120 33.4 -120 26.8 -120 20 C-113.4 20 -106.8 20 -100 20 C-100 23.3 -100 26.6 -100 30 C-96.7 30 -93.4 30 -90 30 C-90 33.3 -90 36.6 -90 40 C-76.8 40 -63.6 40 -50 40 C-50 43.3 -50 46.6 -50 50 C-46.7 50 -43.4 50 -40 50 C-40 46.7 -40 43.4 -40 40 C-36.7 40 -33.4 40 -30 40 C-30 33.4 -30 26.8 -30 20 C-20.1 20 -10.2 20 0 20 C0 13.4 0 6.8 0 0 Z M-100 50 C-100 53.3 -100 56.6 -100 60 C-96.7 60 -93.4 60 -90 60 C-90 56.7 -90 53.4 -90 50 C-93.3 50 -96.6 50 -100 50 Z M-90 60 C-90 63.3 -90 66.6 -90 70 C-86.7 70 -83.4 70 -80 70 C-80 66.7 -80 63.4 -80 60 C-83.3 60 -86.6 60 -90 60 Z M-130 70 C-130 73.3 -130 76.6 -130 80 C-126.7 80 -123.4 80 -120 80 C-120 76.7 -120 73.4 -120 70 C-123.3 70 -126.6 70 -130 70 Z M80 70 C80 79.9 80 89.8 80 100 C83.3 100 86.6 100 90 100 C90 90.1 90 80.2 90 70 C86.7 70 83.4 70 80 70 Z M-120 100 C-120 103.3 -120 106.6 -120 110 C-116.7 110 -113.4 110 -110 110 C-110 106.7 -110 103.4 -110 100 C-113.3 100 -116.6 100 -120 100 Z M-100 100 C-100 103.3 -100 106.6 -100 110 C-96.7 110 -93.4 110 -90 110 C-90 106.7 -90 103.4 -90 100 C-93.3 100 -96.6 100 -100 100 Z M-140 130 C-140 133.3 -140 136.6 -140 140 C-136.7 140 -133.4 140 -130 140 C-130 136.7 -130 133.4 -130 130 C-133.3 130 -136.6 130 -140 130 Z M-70 260 C-70 263.3 -70 266.6 -70 270 C-66.7 270 -63.4 270 -60 270 C-60 266.7 -60 263.4 -60 260 C-63.3 260 -66.6 260 -70 260 Z " fill="#8A172A" transform="translate(460,250)"/>
<path d="M0 0 C6.6 0 13.2 0 20 0 C20 3.3 20 6.6 20 10 C16.7 10 13.4 10 10 10 C10 13.3 10 16.6 10 20 C16.6 20 23.2 20 30 20 C30 26.6 30 33.2 30 40 C36.6 40 43.2 40 50 40 C50 53.2 50 66.4 50 80 C53.3 80 56.6 80 60 80 C60 83.3 60 86.6 60 90 C56.7 90 53.4 90 50 90 C50 96.6 50 103.2 50 110 C46.7 110 43.4 110 40 110 C40 116.6 40 123.2 40 130 C36.7 130 33.4 130 30 130 C30 136.6 30 143.2 30 150 C16.8 150 3.6 150 -10 150 C-10 153.3 -10 156.6 -10 160 C-13.3 160 -16.6 160 -20 160 C-20 156.7 -20 153.4 -20 150 C-23.3 150 -26.6 150 -30 150 C-30 146.7 -30 143.4 -30 140 C-33.3 140 -36.6 140 -40 140 C-40 136.7 -40 133.4 -40 130 C-43.3 130 -46.6 130 -50 130 C-50 126.7 -50 123.4 -50 120 C-53.3 120 -56.6 120 -60 120 C-60 113.4 -60 106.8 -60 100 C-63.3 100 -66.6 100 -70 100 C-70 93.4 -70 86.8 -70 80 C-66.7 80 -63.4 80 -60 80 C-60 76.7 -60 73.4 -60 70 C-56.7 70 -53.4 70 -50 70 C-50 66.7 -50 63.4 -50 60 C-56.6 60 -63.2 60 -70 60 C-70 56.7 -70 53.4 -70 50 C-66.7 50 -63.4 50 -60 50 C-60 46.7 -60 43.4 -60 40 C-56.7 40 -53.4 40 -50 40 C-50 36.7 -50 33.4 -50 30 C-36.8 30 -23.6 30 -10 30 C-10 23.4 -10 16.8 -10 10 C-6.7 10 -3.4 10 0 10 C0 6.7 0 3.4 0 0 Z " fill="#DC8B4C" transform="translate(450,320)"/>
<path d="M0 0 C6.6 0 13.2 0 20 0 C20 3.3 20 6.6 20 10 C26.6 10 33.2 10 40 10 C40 13.3 40 16.6 40 20 C30.1 20 20.2 20 10 20 C10 23.3 10 26.6 10 30 C13.3 30 16.6 30 20 30 C20 36.6 20 43.2 20 50 C23.3 50 26.6 50 30 50 C30 56.6 30 63.2 30 70 C26.7 70 23.4 70 20 70 C20 73.3 20 76.6 20 80 C16.7 80 13.4 80 10 80 C10 83.3 10 86.6 10 90 C13.3 90 16.6 90 20 90 C20 93.3 20 96.6 20 100 C26.6 100 33.2 100 40 100 C40 103.3 40 106.6 40 110 C49.9 110 59.8 110 70 110 C70 116.6 70 123.2 70 130 C60.1 130 50.2 130 40 130 C40 133.3 40 136.6 40 140 C36.7 140 33.4 140 30 140 C30 143.3 30 146.6 30 150 C26.7 150 23.4 150 20 150 C20 153.3 20 156.6 20 160 C29.9 160 39.8 160 50 160 C50 163.3 50 166.6 50 170 C53.3 170 56.6 170 60 170 C60 166.7 60 163.4 60 160 C63.3 160 66.6 160 70 160 C70 163.3 70 166.6 70 170 C76.6 170 83.2 170 90 170 C90 173.3 90 176.6 90 180 C93.3 180 96.6 180 100 180 C100 176.7 100 173.4 100 170 C103.3 170 106.6 170 110 170 C110 173.3 110 176.6 110 180 C113.3 180 116.6 180 120 180 C120 183.3 120 186.6 120 190 C126.6 190 133.2 190 140 190 C140 193.3 140 196.6 140 200 C136.7 200 133.4 200 130 200 C130 209.9 130 219.8 130 230 C123.4 230 116.8 230 110 230 C110 220.1 110 210.2 110 200 C106.7 200 103.4 200 100 200 C100 203.3 100 206.6 100 210 C96.7 210 93.4 210 90 210 C90 213.3 90 216.6 90 220 C86.7 220 83.4 220 80 220 C80 213.4 80 206.8 80 200 C73.4 200 66.8 200 60 200 C60 196.7 60 193.4 60 190 C56.7 190 53.4 190 50 190 C50 186.7 50 183.4 50 180 C43.4 180 36.8 180 30 180 C30 183.3 30 186.6 30 190 C26.7 190 23.4 190 20 190 C20 183.4 20 176.8 20 170 C13.4 170 6.8 170 0 170 C0 166.7 0 163.4 0 160 C3.3 160 6.6 160 10 160 C10 156.7 10 153.4 10 150 C6.7 150 3.4 150 0 150 C0 146.7 0 143.4 0 140 C-6.6 140 -13.2 140 -20 140 C-20 136.7 -20 133.4 -20 130 C-13.4 130 -6.8 130 0 130 C0 126.7 0 123.4 0 120 C6.6 120 13.2 120 20 120 C20 116.7 20 113.4 20 110 C16.7 110 13.4 110 10 110 C10 106.7 10 103.4 10 100 C6.7 100 3.4 100 0 100 C0 93.4 0 86.8 0 80 C-3.3 80 -6.6 80 -10 80 C-10 76.7 -10 73.4 -10 70 C-13.3 70 -16.6 70 -20 70 C-20 63.4 -20 56.8 -20 50 C-16.7 50 -13.4 50 -10 50 C-10 43.4 -10 36.8 -10 30 C-6.7 30 -3.4 30 0 30 C0 20.1 0 10.2 0 0 Z M-10 50 C-10 53.3 -10 56.6 -10 60 C-6.7 60 -3.4 60 0 60 C0 56.7 0 53.4 0 50 C-3.3 50 -6.6 50 -10 50 Z M60 180 C60 183.3 60 186.6 60 190 C63.3 190 66.6 190 70 190 C70 186.7 70 183.4 70 180 C66.7 180 63.4 180 60 180 Z " fill="#8A172A" transform="translate(330,330)"/>
<path d="M0 0 C3.3 0 6.6 0 10 0 C10 16.5 10 33 10 50 C16.6 50 23.2 50 30 50 C30 46.7 30 43.4 30 40 C36.6 40 43.2 40 50 40 C50 43.3 50 46.6 50 50 C53.3 50 56.6 50 60 50 C60 56.6 60 63.2 60 70 C73.2 70 86.4 70 100 70 C100 73.3 100 76.6 100 80 C106.6 80 113.2 80 120 80 C120 83.3 120 86.6 120 90 C106.8 90 93.6 90 80 90 C80 96.6 80 103.2 80 110 C83.3 110 86.6 110 90 110 C90 113.3 90 116.6 90 120 C93.3 120 96.6 120 100 120 C100 123.3 100 126.6 100 130 C96.7 130 93.4 130 90 130 C90 133.3 90 136.6 90 140 C86.7 140 83.4 140 80 140 C80 146.6 80 153.2 80 160 C76.7 160 73.4 160 70 160 C70 153.4 70 146.8 70 140 C66.7 140 63.4 140 60 140 C60 133.4 60 126.8 60 120 C63.3 120 66.6 120 70 120 C70 116.7 70 113.4 70 110 C63.4 110 56.8 110 50 110 C50 103.4 50 96.8 50 90 C46.7 90 43.4 90 40 90 C40 93.3 40 96.6 40 100 C36.7 100 33.4 100 30 100 C30 106.6 30 113.2 30 120 C33.3 120 36.6 120 40 120 C40 129.9 40 139.8 40 150 C36.7 150 33.4 150 30 150 C30 143.4 30 136.8 30 130 C26.7 130 23.4 130 20 130 C20 113.5 20 97 20 80 C23.3 80 26.6 80 30 80 C30 76.7 30 73.4 30 70 C23.4 70 16.8 70 10 70 C10 73.3 10 76.6 10 80 C6.7 80 3.4 80 0 80 C0 83.3 0 86.6 0 90 C-6.6 90 -13.2 90 -20 90 C-20 83.4 -20 76.8 -20 70 C-26.6 70 -33.2 70 -40 70 C-40 66.7 -40 63.4 -40 60 C-36.7 60 -33.4 60 -30 60 C-30 56.7 -30 53.4 -30 50 C-33.3 50 -36.6 50 -40 50 C-40 43.4 -40 36.8 -40 30 C-36.7 30 -33.4 30 -30 30 C-30 33.3 -30 36.6 -30 40 C-23.4 40 -16.8 40 -10 40 C-10 33.4 -10 26.8 -10 20 C-6.7 20 -3.4 20 0 20 C0 13.4 0 6.8 0 0 Z M40 50 C40 59.9 40 69.8 40 80 C43.3 80 46.6 80 50 80 C50 70.1 50 60.2 50 50 C46.7 50 43.4 50 40 50 Z " fill="#8A172A" transform="translate(500,270)"/>
<path d="M0 0 C3.3 0 6.6 0 10 0 C10 6.6 10 13.2 10 20 C13.3 20 16.6 20 20 20 C20 29.9 20 39.8 20 50 C26.6 50 33.2 50 40 50 C40 56.6 40 63.2 40 70 C33.4 70 26.8 70 20 70 C20 76.6 20 83.2 20 90 C10.1 90 0.2 90 -10 90 C-10 99.9 -10 109.8 -10 120 C-13.3 120 -16.6 120 -20 120 C-20 116.7 -20 113.4 -20 110 C-23.3 110 -26.6 110 -30 110 C-30 113.3 -30 116.6 -30 120 C-36.6 120 -43.2 120 -50 120 C-50 116.7 -50 113.4 -50 110 C-53.3 110 -56.6 110 -60 110 C-60 106.7 -60 103.4 -60 100 C-63.3 100 -66.6 100 -70 100 C-70 103.3 -70 106.6 -70 110 C-73.3 110 -76.6 110 -80 110 C-80 103.4 -80 96.8 -80 90 C-73.4 90 -66.8 90 -60 90 C-60 83.4 -60 76.8 -60 70 C-56.7 70 -53.4 70 -50 70 C-50 66.7 -50 63.4 -50 60 C-43.4 60 -36.8 60 -30 60 C-30 53.4 -30 46.8 -30 40 C-26.7 40 -23.4 40 -20 40 C-20 36.7 -20 33.4 -20 30 C-16.7 30 -13.4 30 -10 30 C-10 39.9 -10 49.8 -10 60 C-6.7 60 -3.4 60 0 60 C0 40.2 0 20.4 0 0 Z M10 50 C10 53.3 10 56.6 10 60 C13.3 60 16.6 60 20 60 C20 56.7 20 53.4 20 50 C16.7 50 13.4 50 10 50 Z M-50 100 C-50 103.3 -50 106.6 -50 110 C-46.7 110 -43.4 110 -40 110 C-40 106.7 -40 103.4 -40 100 C-43.3 100 -46.6 100 -50 100 Z " fill="#AF1D35" transform="translate(550,410)"/>
<path d="M0 0 C6.6 0 13.2 0 20 0 C20 3.3 20 6.6 20 10 C16.7 10 13.4 10 10 10 C10 13.3 10 16.6 10 20 C16.6 20 23.2 20 30 20 C30 26.6 30 33.2 30 40 C36.6 40 43.2 40 50 40 C50 53.2 50 66.4 50 80 C53.3 80 56.6 80 60 80 C60 83.3 60 86.6 60 90 C56.7 90 53.4 90 50 90 C50 96.6 50 103.2 50 110 C46.7 110 43.4 110 40 110 C40 103.4 40 96.8 40 90 C36.7 90 33.4 90 30 90 C30 83.4 30 76.8 30 70 C16.8 70 3.6 70 -10 70 C-10 66.7 -10 63.4 -10 60 C-13.3 60 -16.6 60 -20 60 C-20 63.3 -20 66.6 -20 70 C-23.3 70 -26.6 70 -30 70 C-30 66.7 -30 63.4 -30 60 C-33.3 60 -36.6 60 -40 60 C-40 56.7 -40 53.4 -40 50 C-43.3 50 -46.6 50 -50 50 C-50 53.3 -50 56.6 -50 60 C-56.6 60 -63.2 60 -70 60 C-70 56.7 -70 53.4 -70 50 C-66.7 50 -63.4 50 -60 50 C-60 46.7 -60 43.4 -60 40 C-56.7 40 -53.4 40 -50 40 C-50 36.7 -50 33.4 -50 30 C-36.8 30 -23.6 30 -10 30 C-10 23.4 -10 16.8 -10 10 C-6.7 10 -3.4 10 0 10 C0 6.7 0 3.4 0 0 Z " fill="#DC8B4C" transform="translate(450,320)"/>
<path d="M0 0 C6.6 0 13.2 0 20 0 C20 3.3 20 6.6 20 10 C23.3 10 26.6 10 30 10 C30 6.7 30 3.4 30 0 C36.6 0 43.2 0 50 0 C50 3.3 50 6.6 50 10 C53.3 10 56.6 10 60 10 C60 13.3 60 16.6 60 20 C73.2 20 86.4 20 100 20 C100 23.3 100 26.6 100 30 C86.8 30 73.6 30 60 30 C60 33.3 60 36.6 60 40 C56.7 40 53.4 40 50 40 C50 43.3 50 46.6 50 50 C46.7 50 43.4 50 40 50 C40 53.3 40 56.6 40 60 C46.6 60 53.2 60 60 60 C60 63.3 60 66.6 60 70 C56.7 70 53.4 70 50 70 C50 73.3 50 76.6 50 80 C46.7 80 43.4 80 40 80 C40 86.6 40 93.2 40 100 C43.3 100 46.6 100 50 100 C50 106.6 50 113.2 50 120 C43.4 120 36.8 120 30 120 C30 116.7 30 113.4 30 110 C23.4 110 16.8 110 10 110 C10 106.7 10 103.4 10 100 C6.7 100 3.4 100 0 100 C0 96.7 0 93.4 0 90 C3.3 90 6.6 90 10 90 C10 86.7 10 83.4 10 80 C13.3 80 16.6 80 20 80 C20 73.4 20 66.8 20 60 C16.7 60 13.4 60 10 60 C10 50.1 10 40.2 10 30 C13.3 30 16.6 30 20 30 C20 33.3 20 36.6 20 40 C23.3 40 26.6 40 30 40 C30 33.4 30 26.8 30 20 C23.4 20 16.8 20 10 20 C10 16.7 10 13.4 10 10 C6.7 10 3.4 10 0 10 C0 6.7 0 3.4 0 0 Z " fill="#AF1D35" transform="translate(340,320)"/>
<path d="M0 0 C3.3 0 6.6 0 10 0 C10 3.3 10 6.6 10 10 C13.3 10 16.6 10 20 10 C20 6.7 20 3.4 20 0 C23.3 0 26.6 0 30 0 C30 3.3 30 6.6 30 10 C43.2 10 56.4 10 70 10 C70 16.6 70 23.2 70 30 C73.3 30 76.6 30 80 30 C80 39.9 80 49.8 80 60 C60.2 60 40.4 60 20 60 C20 56.7 20 53.4 20 50 C13.4 50 6.8 50 0 50 C0 33.5 0 17 0 0 Z " fill="#E2B866" transform="translate(410,380)"/>
<path d="M0 0 C3.3 0 6.6 0 10 0 C10 3.3 10 6.6 10 10 C13.3 10 16.6 10 20 10 C20 13.3 20 16.6 20 20 C23.3 20 26.6 20 30 20 C30 23.3 30 26.6 30 30 C43.2 30 56.4 30 70 30 C70 33.3 70 36.6 70 40 C63.4 40 56.8 40 50 40 C50 43.3 50 46.6 50 50 C53.3 50 56.6 50 60 50 C60 56.6 60 63.2 60 70 C56.7 70 53.4 70 50 70 C50 66.7 50 63.4 50 60 C46.7 60 43.4 60 40 60 C40 56.7 40 53.4 40 50 C36.7 50 33.4 50 30 50 C30 53.3 30 56.6 30 60 C26.7 60 23.4 60 20 60 C20 56.7 20 53.4 20 50 C13.4 50 6.8 50 0 50 C0 46.7 0 43.4 0 40 C-3.3 40 -6.6 40 -10 40 C-10 43.3 -10 46.6 -10 50 C-13.3 50 -16.6 50 -20 50 C-20 46.7 -20 43.4 -20 40 C-29.9 40 -39.8 40 -50 40 C-50 36.7 -50 33.4 -50 30 C-46.7 30 -43.4 30 -40 30 C-40 26.7 -40 23.4 -40 20 C-36.7 20 -33.4 20 -30 20 C-30 16.7 -30 13.4 -30 10 C-20.1 10 -10.2 10 0 10 C0 6.7 0 3.4 0 0 Z " fill="#AF1D35" transform="translate(400,450)"/>
<path d="M0 0 C3.3 0 6.6 0 10 0 C10 3.3 10 6.6 10 10 C13.3 10 16.6 10 20 10 C20 16.6 20 23.2 20 30 C16.7 30 13.4 30 10 30 C10 36.6 10 43.2 10 50 C3.4 50 -3.2 50 -10 50 C-10 56.6 -10 63.2 -10 70 C-13.3 70 -16.6 70 -20 70 C-20 63.4 -20 56.8 -20 50 C-23.3 50 -26.6 50 -30 50 C-30 46.7 -30 43.4 -30 40 C-23.4 40 -16.8 40 -10 40 C-10 36.7 -10 33.4 -10 30 C-19.9 30 -29.8 30 -40 30 C-40 26.7 -40 23.4 -40 20 C-26.8 20 -13.6 20 0 20 C0 13.4 0 6.8 0 0 Z " fill="#CA513C" transform="translate(480,450)"/>
<path d="M0 0 C6.6 0 13.2 0 20 0 C20 3.3 20 6.6 20 10 C16.7 10 13.4 10 10 10 C10 19.9 10 29.8 10 40 C13.3 40 16.6 40 20 40 C20 43.3 20 46.6 20 50 C16.7 50 13.4 50 10 50 C10 53.3 10 56.6 10 60 C6.7 60 3.4 60 0 60 C0 66.6 0 73.2 0 80 C3.3 80 6.6 80 10 80 C10 89.9 10 99.8 10 110 C6.7 110 3.4 110 0 110 C0 103.4 0 96.8 0 90 C-3.3 90 -6.6 90 -10 90 C-10 73.5 -10 57 -10 40 C-6.7 40 -3.4 40 0 40 C0 26.8 0 13.6 0 0 Z " fill="#AF1D35" transform="translate(530,310)"/>
<path d="M0 0 C6.6 0 13.2 0 20 0 C20 3.3 20 6.6 20 10 C23.3 10 26.6 10 30 10 C30 16.6 30 23.2 30 30 C26.7 30 23.4 30 20 30 C20 33.3 20 36.6 20 40 C23.3 40 26.6 40 30 40 C30 46.6 30 53.2 30 60 C26.7 60 23.4 60 20 60 C20 56.7 20 53.4 20 50 C10.1 50 0.2 50 -10 50 C-10 53.3 -10 56.6 -10 60 C-16.6 60 -23.2 60 -30 60 C-30 56.7 -30 53.4 -30 50 C-26.7 50 -23.4 50 -20 50 C-20 46.7 -20 43.4 -20 40 C-10.1 40 -0.2 40 10 40 C10 33.4 10 26.8 10 20 C6.7 20 3.4 20 0 20 C0 13.4 0 6.8 0 0 Z " fill="#8A172A" transform="translate(340,270)"/>
<path d="M0 0 C6.6 0 13.2 0 20 0 C20 6.6 20 13.2 20 20 C13.4 20 6.8 20 0 20 C0 26.6 0 33.2 0 40 C-9.9 40 -19.8 40 -30 40 C-30 33.4 -30 26.8 -30 20 C-26.7 20 -23.4 20 -20 20 C-20 23.3 -20 26.6 -20 30 C-16.7 30 -13.4 30 -10 30 C-10 23.4 -10 16.8 -10 10 C-6.7 10 -3.4 10 0 10 C0 6.7 0 3.4 0 0 Z " fill="#8A172A" transform="translate(570,460)"/>
<path d="M0 0 C3.3 0 6.6 0 10 0 C10 3.3 10 6.6 10 10 C13.3 10 16.6 10 20 10 C20 13.3 20 16.6 20 20 C23.3 20 26.6 20 30 20 C30 23.3 30 26.6 30 30 C20.1 30 10.2 30 0 30 C0 26.7 0 23.4 0 20 C-3.3 20 -6.6 20 -10 20 C-10 23.3 -10 26.6 -10 30 C-13.3 30 -16.6 30 -20 30 C-20 23.4 -20 16.8 -20 10 C-13.4 10 -6.8 10 0 10 C0 6.7 0 3.4 0 0 Z " fill="#CA513C" transform="translate(400,450)"/>
<path d="M0 0 C3.3 0 6.6 0 10 0 C10 13.2 10 26.4 10 40 C13.3 40 16.6 40 20 40 C20 43.3 20 46.6 20 50 C23.3 50 26.6 50 30 50 C30 53.3 30 56.6 30 60 C23.4 60 16.8 60 10 60 C10 56.7 10 53.4 10 50 C6.7 50 3.4 50 0 50 C0 43.4 0 36.8 0 30 C-3.3 30 -6.6 30 -10 30 C-10 26.7 -10 23.4 -10 20 C-6.7 20 -3.4 20 0 20 C0 13.4 0 6.8 0 0 Z " fill="#AF1D35" transform="translate(460,250)"/>
<path d="M0 0 C6.6 0 13.2 0 20 0 C20 3.3 20 6.6 20 10 C23.3 10 26.6 10 30 10 C30 16.6 30 23.2 30 30 C26.7 30 23.4 30 20 30 C20 26.7 20 23.4 20 20 C16.7 20 13.4 20 10 20 C10 23.3 10 26.6 10 30 C3.4 30 -3.2 30 -10 30 C-10 26.7 -10 23.4 -10 20 C-6.7 20 -3.4 20 0 20 C0 13.4 0 6.8 0 0 Z " fill="#8A172A" transform="translate(510,500)"/>
<path d="M0 0 C6.6 0 13.2 0 20 0 C20 6.6 20 13.2 20 20 C16.7 20 13.4 20 10 20 C10 23.3 10 26.6 10 30 C3.4 30 -3.2 30 -10 30 C-10 23.4 -10 16.8 -10 10 C-6.7 10 -3.4 10 0 10 C0 6.7 0 3.4 0 0 Z " fill="#F0D095" transform="translate(440,410)"/>
<path d="M0 0 C6.6 0 13.2 0 20 0 C20 3.3 20 6.6 20 10 C16.7 10 13.4 10 10 10 C10 23.2 10 36.4 10 50 C6.7 50 3.4 50 0 50 C0 40.1 0 30.2 0 20 C-3.3 20 -6.6 20 -10 20 C-10 16.7 -10 13.4 -10 10 C-6.7 10 -3.4 10 0 10 C0 6.7 0 3.4 0 0 Z " fill="#CA513C" transform="translate(510,340)"/>
<path d="M0 0 C6.6 0 13.2 0 20 0 C20 3.3 20 6.6 20 10 C26.6 10 33.2 10 40 10 C40 13.3 40 16.6 40 20 C43.3 20 46.6 20 50 20 C50 23.3 50 26.6 50 30 C43.4 30 36.8 30 30 30 C30 26.7 30 23.4 30 20 C23.4 20 16.8 20 10 20 C10 16.7 10 13.4 10 10 C6.7 10 3.4 10 0 10 C0 6.7 0 3.4 0 0 Z " fill="#AF1D35" transform="translate(340,320)"/>
<path d="M0 0 C3.3 0 6.6 0 10 0 C10 9.9 10 19.8 10 30 C0.1 30 -9.8 30 -20 30 C-20 26.7 -20 23.4 -20 20 C-16.7 20 -13.4 20 -10 20 C-10 16.7 -10 13.4 -10 10 C-6.7 10 -3.4 10 0 10 C0 6.7 0 3.4 0 0 Z " fill="#AF1D35" transform="translate(370,460)"/>
<path d="M0 0 C3.3 0 6.6 0 10 0 C10 19.8 10 39.6 10 60 C6.7 60 3.4 60 0 60 C0 40.2 0 20.4 0 0 Z " fill="#CA513C" transform="translate(540,410)"/>
<path d="M0 0 C6.6 0 13.2 0 20 0 C20 3.3 20 6.6 20 10 C23.3 10 26.6 10 30 10 C30 16.6 30 23.2 30 30 C23.4 30 16.8 30 10 30 C10 23.4 10 16.8 10 10 C6.7 10 3.4 10 0 10 C0 6.7 0 3.4 0 0 Z " fill="#CA513C" transform="translate(360,410)"/>
<path d="M0 0 C3.3 0 6.6 0 10 0 C10 6.6 10 13.2 10 20 C13.3 20 16.6 20 20 20 C20 23.3 20 26.6 20 30 C10.1 30 0.2 30 -10 30 C-10 23.4 -10 16.8 -10 10 C-6.7 10 -3.4 10 0 10 C0 6.7 0 3.4 0 0 Z " fill="#AF1D35" transform="translate(420,290)"/>
<path d="M0 0 C9.9 0 19.8 0 30 0 C30 6.6 30 13.2 30 20 C26.7 20 23.4 20 20 20 C20 16.7 20 13.4 20 10 C16.7 10 13.4 10 10 10 C10 13.3 10 16.6 10 20 C6.7 20 3.4 20 0 20 C0 13.4 0 6.8 0 0 Z " fill="#8A172A" transform="translate(470,500)"/>
<path d="M0 0 C6.6 0 13.2 0 20 0 C20 6.6 20 13.2 20 20 C10.1 20 0.2 20 -10 20 C-10 16.7 -10 13.4 -10 10 C-6.7 10 -3.4 10 0 10 C0 6.7 0 3.4 0 0 Z " fill="#AF1D35" transform="translate(470,320)"/>
<path d="M0 0 C6.6 0 13.2 0 20 0 C20 3.3 20 6.6 20 10 C16.7 10 13.4 10 10 10 C10 16.6 10 23.2 10 30 C6.7 30 3.4 30 0 30 C0 20.1 0 10.2 0 0 Z " fill="#CA513C" transform="translate(550,380)"/>
<path d="M0 0 C6.6 0 13.2 0 20 0 C20 6.6 20 13.2 20 20 C13.4 20 6.8 20 0 20 C0 13.4 0 6.8 0 0 Z " fill="#CA513C" transform="translate(460,340)"/>
<path d="M0 0 C13.2 0 26.4 0 40 0 C40 3.3 40 6.6 40 10 C26.8 10 13.6 10 0 10 C0 6.7 0 3.4 0 0 Z " fill="#CA513C" transform="translate(400,340)"/>
<path d="M0 0 C6.6 0 13.2 0 20 0 C20 3.3 20 6.6 20 10 C16.7 10 13.4 10 10 10 C10 13.3 10 16.6 10 20 C6.7 20 3.4 20 0 20 C0 13.4 0 6.8 0 0 Z " fill="#CA513C" transform="translate(380,460)"/>
<path d="M0 0 C3.3 0 6.6 0 10 0 C10 9.9 10 19.8 10 30 C6.7 30 3.4 30 0 30 C0 20.1 0 10.2 0 0 Z " fill="#8A172A" transform="translate(560,430)"/>
<path d="M0 0 C3.3 0 6.6 0 10 0 C10 9.9 10 19.8 10 30 C6.7 30 3.4 30 0 30 C0 20.1 0 10.2 0 0 Z " fill="#DC8B4C" transform="translate(540,380)"/>
<path d="M0 0 C3.3 0 6.6 0 10 0 C10 3.3 10 6.6 10 10 C13.3 10 16.6 10 20 10 C20 13.3 20 16.6 20 20 C13.4 20 6.8 20 0 20 C0 13.4 0 6.8 0 0 Z " fill="#CA513C" transform="translate(370,330)"/>
<path d="M0 0 C3.3 0 6.6 0 10 0 C10 3.3 10 6.6 10 10 C13.3 10 16.6 10 20 10 C20 13.3 20 16.6 20 20 C13.4 20 6.8 20 0 20 C0 13.4 0 6.8 0 0 Z " fill="#CA513C" transform="translate(470,290)"/>
<path d="M0 0 C3.3 0 6.6 0 10 0 C10 6.6 10 13.2 10 20 C6.7 20 3.4 20 0 20 C0 13.4 0 6.8 0 0 Z " fill="#DC8B4C" transform="translate(460,500)"/>
<path d="M0 0 C6.6 0 13.2 0 20 0 C20 3.3 20 6.6 20 10 C13.4 10 6.8 10 0 10 C0 6.7 0 3.4 0 0 Z " fill="#8A172A" transform="translate(510,480)"/>
<path d="M0 0 C6.6 0 13.2 0 20 0 C20 3.3 20 6.6 20 10 C13.4 10 6.8 10 0 10 C0 6.7 0 3.4 0 0 Z " fill="#AF1D35" transform="translate(330,470)"/>
<path d="M0 0 C3.3 0 6.6 0 10 0 C10 6.6 10 13.2 10 20 C6.7 20 3.4 20 0 20 C0 13.4 0 6.8 0 0 Z " fill="#AF1D35" transform="translate(400,450)"/>
<path d="M0 0 C6.6 0 13.2 0 20 0 C20 3.3 20 6.6 20 10 C13.4 10 6.8 10 0 10 C0 6.7 0 3.4 0 0 Z " fill="#E2B866" transform="translate(440,450)"/>
<path d="M0 0 C6.6 0 13.2 0 20 0 C20 3.3 20 6.6 20 10 C13.4 10 6.8 10 0 10 C0 6.7 0 3.4 0 0 Z " fill="#E2B866" transform="translate(420,440)"/>
<path d="M0 0 C3.3 0 6.6 0 10 0 C10 6.6 10 13.2 10 20 C6.7 20 3.4 20 0 20 C0 13.4 0 6.8 0 0 Z " fill="#DC8B4C" transform="translate(530,420)"/>
<path d="M0 0 C3.3 0 6.6 0 10 0 C10 6.6 10 13.2 10 20 C6.7 20 3.4 20 0 20 C0 13.4 0 6.8 0 0 Z " fill="#DC8B4C" transform="translate(510,410)"/>
<path d="M0 0 C6.6 0 13.2 0 20 0 C20 3.3 20 6.6 20 10 C13.4 10 6.8 10 0 10 C0 6.7 0 3.4 0 0 Z " fill="#AF1D35" transform="translate(570,400)"/>
<path d="M0 0 C6.6 0 13.2 0 20 0 C20 3.3 20 6.6 20 10 C13.4 10 6.8 10 0 10 C0 6.7 0 3.4 0 0 Z " fill="#AF1D35" transform="translate(550,370)"/>
<path d="M0 0 C3.3 0 6.6 0 10 0 C10 6.6 10 13.2 10 20 C6.7 20 3.4 20 0 20 C0 13.4 0 6.8 0 0 Z " fill="#E2B866" transform="translate(510,370)"/>
<path d="M0 0 C3.3 0 6.6 0 10 0 C10 6.6 10 13.2 10 20 C6.7 20 3.4 20 0 20 C0 13.4 0 6.8 0 0 Z " fill="#AF1D35" transform="translate(500,310)"/>
<path d="M0 0 C6.6 0 13.2 0 20 0 C20 3.3 20 6.6 20 10 C13.4 10 6.8 10 0 10 C0 6.7 0 3.4 0 0 Z " fill="#8A172A" transform="translate(530,310)"/>
<path d="M0 0 C3.3 0 6.6 0 10 0 C10 6.6 10 13.2 10 20 C6.7 20 3.4 20 0 20 C0 13.4 0 6.8 0 0 Z " fill="#AF1D35" transform="translate(450,300)"/>
<path d="M0 0 C6.6 0 13.2 0 20 0 C20 3.3 20 6.6 20 10 C13.4 10 6.8 10 0 10 C0 6.7 0 3.4 0 0 Z " fill="#AF1D35" transform="translate(340,270)"/>
<path d="M0 0 C3.3 0 6.6 0 10 0 C10 3.3 10 6.6 10 10 C6.7 10 3.4 10 0 10 C0 6.7 0 3.4 0 0 Z " fill="#CA513C" transform="translate(450,510)"/>
<path d="M0 0 C3.3 0 6.6 0 10 0 C10 3.3 10 6.6 10 10 C6.7 10 3.4 10 0 10 C0 6.7 0 3.4 0 0 Z " fill="#CA513C" transform="translate(500,500)"/>
<path d="M0 0 C3.3 0 6.6 0 10 0 C10 3.3 10 6.6 10 10 C6.7 10 3.4 10 0 10 C0 6.7 0 3.4 0 0 Z " fill="#AF1D35" transform="translate(470,500)"/>
<path d="M0 0 C3.3 0 6.6 0 10 0 C10 3.3 10 6.6 10 10 C6.7 10 3.4 10 0 10 C0 6.7 0 3.4 0 0 Z " fill="#CA513C" transform="translate(420,500)"/>
<path d="M0 0 C3.3 0 6.6 0 10 0 C10 3.3 10 6.6 10 10 C6.7 10 3.4 10 0 10 C0 6.7 0 3.4 0 0 Z " fill="#CA513C" transform="translate(520,490)"/>
<path d="M0 0 C3.3 0 6.6 0 10 0 C10 3.3 10 6.6 10 10 C6.7 10 3.4 10 0 10 C0 6.7 0 3.4 0 0 Z " fill="#DC8B4C" transform="translate(380,490)"/>
<path d="M0 0 C3.3 0 6.6 0 10 0 C10 3.3 10 6.6 10 10 C6.7 10 3.4 10 0 10 C0 6.7 0 3.4 0 0 Z " fill="#CA513C" transform="translate(550,480)"/>
<path d="M0 0 C3.3 0 6.6 0 10 0 C10 3.3 10 6.6 10 10 C6.7 10 3.4 10 0 10 C0 6.7 0 3.4 0 0 Z " fill="#8A172A" transform="translate(380,480)"/>
<path d="M0 0 C3.3 0 6.6 0 10 0 C10 3.3 10 6.6 10 10 C6.7 10 3.4 10 0 10 C0 6.7 0 3.4 0 0 Z " fill="#CA513C" transform="translate(370,480)"/>
<path d="M0 0 C3.3 0 6.6 0 10 0 C10 3.3 10 6.6 10 10 C6.7 10 3.4 10 0 10 C0 6.7 0 3.4 0 0 Z " fill="#CA513C" transform="translate(350,480)"/>
<path d="M0 0 C3.3 0 6.6 0 10 0 C10 3.3 10 6.6 10 10 C6.7 10 3.4 10 0 10 C0 6.7 0 3.4 0 0 Z " fill="#CA513C" transform="translate(380,470)"/>
<path d="M0 0 C3.3 0 6.6 0 10 0 C10 3.3 10 6.6 10 10 C6.7 10 3.4 10 0 10 C0 6.7 0 3.4 0 0 Z " fill="#8A172A" transform="translate(530,460)"/>
<path d="M0 0 C3.3 0 6.6 0 10 0 C10 3.3 10 6.6 10 10 C6.7 10 3.4 10 0 10 C0 6.7 0 3.4 0 0 Z " fill="#AF1D35" transform="translate(490,460)"/>
<path d="M0 0 C3.3 0 6.6 0 10 0 C10 3.3 10 6.6 10 10 C6.7 10 3.4 10 0 10 C0 6.7 0 3.4 0 0 Z " fill="#DC8B4C" transform="translate(380,460)"/>
<path d="M0 0 C3.3 0 6.6 0 10 0 C10 3.3 10 6.6 10 10 C6.7 10 3.4 10 0 10 C0 6.7 0 3.4 0 0 Z " fill="#CA513C" transform="translate(370,460)"/>
<path d="M0 0 C3.3 0 6.6 0 10 0 C10 3.3 10 6.6 10 10 C6.7 10 3.4 10 0 10 C0 6.7 0 3.4 0 0 Z " fill="#8A172A" transform="translate(520,450)"/>
<path d="M0 0 C3.3 0 6.6 0 10 0 C10 3.3 10 6.6 10 10 C6.7 10 3.4 10 0 10 C0 6.7 0 3.4 0 0 Z " fill="#DC8B4C" transform="translate(490,450)"/>
<path d="M0 0 C3.3 0 6.6 0 10 0 C10 3.3 10 6.6 10 10 C6.7 10 3.4 10 0 10 C0 6.7 0 3.4 0 0 Z " fill="#CA513C" transform="translate(400,450)"/>
<path d="M0 0 C3.3 0 6.6 0 10 0 C10 3.3 10 6.6 10 10 C6.7 10 3.4 10 0 10 C0 6.7 0 3.4 0 0 Z " fill="#DC8B4C" transform="translate(500,440)"/>
<path d="M0 0 C3.3 0 6.6 0 10 0 C10 3.3 10 6.6 10 10 C6.7 10 3.4 10 0 10 C0 6.7 0 3.4 0 0 Z " fill="#AF1D35" transform="translate(350,440)"/>
<path d="M0 0 C3.3 0 6.6 0 10 0 C10 3.3 10 6.6 10 10 C6.7 10 3.4 10 0 10 C0 6.7 0 3.4 0 0 Z " fill="#AF1D35" transform="translate(340,430)"/>
<path d="M0 0 C3.3 0 6.6 0 10 0 C10 3.3 10 6.6 10 10 C6.7 10 3.4 10 0 10 C0 6.7 0 3.4 0 0 Z " fill="#F0D095" transform="translate(470,420)"/>
<path d="M0 0 C3.3 0 6.6 0 10 0 C10 3.3 10 6.6 10 10 C6.7 10 3.4 10 0 10 C0 6.7 0 3.4 0 0 Z " fill="#DC8B4C" transform="translate(430,410)"/>
<path d="M0 0 C3.3 0 6.6 0 10 0 C10 3.3 10 6.6 10 10 C6.7 10 3.4 10 0 10 C0 6.7 0 3.4 0 0 Z " fill="#F0D095" transform="translate(410,410)"/>
<path d="M0 0 C3.3 0 6.6 0 10 0 C10 3.3 10 6.6 10 10 C6.7 10 3.4 10 0 10 C0 6.7 0 3.4 0 0 Z " fill="#CA513C" transform="translate(490,400)"/>
<path d="M0 0 C3.3 0 6.6 0 10 0 C10 3.3 10 6.6 10 10 C6.7 10 3.4 10 0 10 C0 6.7 0 3.4 0 0 Z " fill="#F0D095" transform="translate(430,400)"/>
<path d="M0 0 C3.3 0 6.6 0 10 0 C10 3.3 10 6.6 10 10 C6.7 10 3.4 10 0 10 C0 6.7 0 3.4 0 0 Z " fill="#F0D095" transform="translate(450,390)"/>
<path d="M0 0 C3.3 0 6.6 0 10 0 C10 3.3 10 6.6 10 10 C6.7 10 3.4 10 0 10 C0 6.7 0 3.4 0 0 Z " fill="#DC8B4C" transform="translate(370,390)"/>
<path d="M0 0 C3.3 0 6.6 0 10 0 C10 3.3 10 6.6 10 10 C6.7 10 3.4 10 0 10 C0 6.7 0 3.4 0 0 Z " fill="#AF1D35" transform="translate(570,380)"/>
<path d="M0 0 C3.3 0 6.6 0 10 0 C10 3.3 10 6.6 10 10 C6.7 10 3.4 10 0 10 C0 6.7 0 3.4 0 0 Z " fill="#CA513C" transform="translate(530,380)"/>
<path d="M0 0 C3.3 0 6.6 0 10 0 C10 3.3 10 6.6 10 10 C6.7 10 3.4 10 0 10 C0 6.7 0 3.4 0 0 Z " fill="#E2B866" transform="translate(480,380)"/>
<path d="M0 0 C3.3 0 6.6 0 10 0 C10 3.3 10 6.6 10 10 C6.7 10 3.4 10 0 10 C0 6.7 0 3.4 0 0 Z " fill="#CA513C" transform="translate(390,380)"/>
<path d="M0 0 C3.3 0 6.6 0 10 0 C10 3.3 10 6.6 10 10 C6.7 10 3.4 10 0 10 C0 6.7 0 3.4 0 0 Z " fill="#CA513C" transform="translate(340,380)"/>
<path d="M0 0 C3.3 0 6.6 0 10 0 C10 3.3 10 6.6 10 10 C6.7 10 3.4 10 0 10 C0 6.7 0 3.4 0 0 Z " fill="#DC8B4C" transform="translate(530,370)"/>
<path d="M0 0 C3.3 0 6.6 0 10 0 C10 3.3 10 6.6 10 10 C6.7 10 3.4 10 0 10 C0 6.7 0 3.4 0 0 Z " fill="#CA513C" transform="translate(520,370)"/>
<path d="M0 0 C3.3 0 6.6 0 10 0 C10 3.3 10 6.6 10 10 C6.7 10 3.4 10 0 10 C0 6.7 0 3.4 0 0 Z " fill="#E2B866" transform="translate(400,370)"/>
<path d="M0 0 C3.3 0 6.6 0 10 0 C10 3.3 10 6.6 10 10 C6.7 10 3.4 10 0 10 C0 6.7 0 3.4 0 0 Z " fill="#CA513C" transform="translate(570,360)"/>
<path d="M0 0 C3.3 0 6.6 0 10 0 C10 3.3 10 6.6 10 10 C6.7 10 3.4 10 0 10 C0 6.7 0 3.4 0 0 Z " fill="#DC8B4C" transform="translate(510,360)"/>
<path d="M0 0 C3.3 0 6.6 0 10 0 C10 3.3 10 6.6 10 10 C6.7 10 3.4 10 0 10 C0 6.7 0 3.4 0 0 Z " fill="#E2B866" transform="translate(490,360)"/>
<path d="M0 0 C3.3 0 6.6 0 10 0 C10 3.3 10 6.6 10 10 C6.7 10 3.4 10 0 10 C0 6.7 0 3.4 0 0 Z " fill="#CA513C" transform="translate(480,360)"/>
<path d="M0 0 C3.3 0 6.6 0 10 0 C10 3.3 10 6.6 10 10 C6.7 10 3.4 10 0 10 C0 6.7 0 3.4 0 0 Z " fill="#CA513C" transform="translate(380,360)"/>
<path d="M0 0 C3.3 0 6.6 0 10 0 C10 3.3 10 6.6 10 10 C6.7 10 3.4 10 0 10 C0 6.7 0 3.4 0 0 Z " fill="#DC8B4C" transform="translate(500,350)"/>
<path d="M0 0 C3.3 0 6.6 0 10 0 C10 3.3 10 6.6 10 10 C6.7 10 3.4 10 0 10 C0 6.7 0 3.4 0 0 Z " fill="#E2B866" transform="translate(400,350)"/>
<path d="M0 0 C3.3 0 6.6 0 10 0 C10 3.3 10 6.6 10 10 C6.7 10 3.4 10 0 10 C0 6.7 0 3.4 0 0 Z " fill="#AF1D35" transform="translate(500,340)"/>
<path d="M0 0 C3.3 0 6.6 0 10 0 C10 3.3 10 6.6 10 10 C6.7 10 3.4 10 0 10 C0 6.7 0 3.4 0 0 Z " fill="#8A172A" transform="translate(460,330)"/>
<path d="M0 0 C3.3 0 6.6 0 10 0 C10 3.3 10 6.6 10 10 C6.7 10 3.4 10 0 10 C0 6.7 0 3.4 0 0 Z " fill="#CA513C" transform="translate(440,330)"/>
<path d="M0 0 C3.3 0 6.6 0 10 0 C10 3.3 10 6.6 10 10 C6.7 10 3.4 10 0 10 C0 6.7 0 3.4 0 0 Z " fill="#AF1D35" transform="translate(360,330)"/>
<path d="M0 0 C3.3 0 6.6 0 10 0 C10 3.3 10 6.6 10 10 C6.7 10 3.4 10 0 10 C0 6.7 0 3.4 0 0 Z " fill="#CA513C" transform="translate(350,330)"/>
<path d="M0 0 C3.3 0 6.6 0 10 0 C10 3.3 10 6.6 10 10 C6.7 10 3.4 10 0 10 C0 6.7 0 3.4 0 0 Z " fill="#CA513C" transform="translate(500,310)"/>
<path d="M0 0 C3.3 0 6.6 0 10 0 C10 3.3 10 6.6 10 10 C6.7 10 3.4 10 0 10 C0 6.7 0 3.4 0 0 Z " fill="#CA513C" transform="translate(390,310)"/>
<path d="M0 0 C3.3 0 6.6 0 10 0 C10 3.3 10 6.6 10 10 C6.7 10 3.4 10 0 10 C0 6.7 0 3.4 0 0 Z " fill="#CA513C" transform="translate(410,300)"/>
<path d="M0 0 C3.3 0 6.6 0 10 0 C10 3.3 10 6.6 10 10 C6.7 10 3.4 10 0 10 C0 6.7 0 3.4 0 0 Z " fill="#AF1D35" transform="translate(390,300)"/>
<path d="M0 0 C3.3 0 6.6 0 10 0 C10 3.3 10 6.6 10 10 C6.7 10 3.4 10 0 10 C0 6.7 0 3.4 0 0 Z " fill="#AF1D35" transform="translate(370,290)"/>
<path d="M0 0 C3.3 0 6.6 0 10 0 C10 3.3 10 6.6 10 10 C6.7 10 3.4 10 0 10 C0 6.7 0 3.4 0 0 Z " fill="#CA513C" transform="translate(440,280)"/>
<path d="M0 0 C3.3 0 6.6 0 10 0 C10 3.3 10 6.6 10 10 C6.7 10 3.4 10 0 10 C0 6.7 0 3.4 0 0 Z " fill="#AF1D35" transform="translate(360,280)"/>
</svg>
