<?xml version="1.0" encoding="UTF-8"?>
<svg version="1.1" xmlns="http://www.w3.org/2000/svg" width="500" height="500">
<path d="M0 0 C24.75 0 49.5 0 75 0 C75 1.65 75 3.3 75 5 C76.65 5 78.3 5 80 5 C80 9.95 80 14.9 80 20 C81.65 20 83.3 20 85 20 C85 23.3 85 26.6 85 30 C83.35 30 81.7 30 80 30 C80 31.65 80 33.3 80 35 C78.35 35 76.7 35 75 35 C75 38.3 75 41.6 75 45 C48.6 45 22.2 45 -5 45 C-5 43.35 -5 41.7 -5 40 C-6.65 40 -8.3 40 -10 40 C-10 36.7 -10 33.4 -10 30 C-11.65 30 -13.3 30 -15 30 C-15 26.7 -15 23.4 -15 20 C-13.35 20 -11.7 20 -10 20 C-10 15.05 -10 10.1 -10 5 C-6.7 5 -3.4 5 0 5 C0 3.35 0 1.7 0 0 Z " fill="#FE9F05" transform="translate(190,115)"/>
<path d="M0 0 C6.6 0 13.2 0 20 0 C20 1.65 20 3.3 20 5 C21.65 5 23.3 5 25 5 C25 9.95 25 14.9 25 20 C26.65 20 28.3 20 30 20 C30 23.3 30 26.6 30 30 C28.35 30 26.7 30 25 30 C25 31.65 25 33.3 25 35 C23.35 35 21.7 35 20 35 C20 38.3 20 41.6 20 45 C-6.4 45 -32.8 45 -60 45 C-60 43.35 -60 41.7 -60 40 C-61.65 40 -63.3 40 -65 40 C-65 36.7 -65 33.4 -65 30 C-66.65 30 -68.3 30 -70 30 C-70 26.7 -70 23.4 -70 20 C-68.35 20 -66.7 20 -65 20 C-65 15.05 -65 10.1 -65 5 C-61.7 5 -58.4 5 -55 5 C-55 6.65 -55 8.3 -55 10 C-56.65 10 -58.3 10 -60 10 C-60 14.95 -60 19.9 -60 25 C-58.35 25 -56.7 25 -55 25 C-55 29.95 -55 34.9 -55 40 C-46.75 40 -38.5 40 -30 40 C-30 38.35 -30 36.7 -30 35 C-28.35 35 -26.7 35 -25 35 C-25 31.7 -25 28.4 -25 25 C-23.35 25 -21.7 25 -20 25 C-20 23.35 -20 21.7 -20 20 C-18.35 20 -16.7 20 -15 20 C-15 24.95 -15 29.9 -15 35 C-16.65 35 -18.3 35 -20 35 C-20 36.65 -20 38.3 -20 40 C-21.65 40 -23.3 40 -25 40 C-25 41.32 -25 42.64 -25 44 C-15.1 44 -5.2 44 5 44 C5 42.68 5 41.36 5 40 C6.65 40 8.3 40 10 40 C9.67 38.35 9.34 36.7 9 35 C7.68 35 6.36 35 5 35 C5 31.7 5 28.4 5 25 C6.65 25 8.3 25 10 25 C10 21.7 10 18.4 10 15 C8.35 15 6.7 15 5 15 C5 13.35 5 11.7 5 10 C1.7 10 -1.6 10 -5 10 C-5 8.35 -5 6.7 -5 5 C-3.35 5 -1.7 5 0 5 C0 3.35 0 1.7 0 0 Z " fill="#FB6F00" transform="translate(245,115)"/>
<path d="M0 0 C3.3 0 6.6 0 10 0 C10 1.65 10 3.3 10 5 C8.35 5 6.7 5 5 5 C5 9.95 5 14.9 5 20 C6.65 20 8.3 20 10 20 C10 24.95 10 29.9 10 35 C18.25 35 26.5 35 35 35 C35 33.35 35 31.7 35 30 C36.65 30 38.3 30 40 30 C40 26.7 40 23.4 40 20 C41.65 20 43.3 20 45 20 C45 18.35 45 16.7 45 15 C46.65 15 48.3 15 50 15 C50 19.95 50 24.9 50 30 C48.35 30 46.7 30 45 30 C45 31.65 45 33.3 45 35 C43.35 35 41.7 35 40 35 C40 36.32 40 37.64 40 39 C49.9 39 59.8 39 70 39 C70 39.33 70 39.66 70 40 C48.55 40 27.1 40 5 40 C5 38.35 5 36.7 5 35 C3.35 35 1.7 35 0 35 C0 31.7 0 28.4 0 25 C-1.65 25 -3.3 25 -5 25 C-5 21.7 -5 18.4 -5 15 C-3.35 15 -1.7 15 0 15 C0 10.05 0 5.1 0 0 Z " fill="#FC9506" transform="translate(180,120)"/>
<path d="M0 0 C4.95 0 9.9 0 15 0 C15 1.65 15 3.3 15 5 C16.65 5 18.3 5 20 5 C20 6.65 20 8.3 20 10 C21.65 10 23.3 10 25 10 C25 11.65 25 13.3 25 15 C23.35 15 21.7 15 20 15 C20 19.62 20 24.24 20 29 C19.01 29 18.02 29 17 29 C17 28.01 17 27.02 17 26 C13.04 25.67 9.08 25.34 5 25 C5 26.65 5 28.3 5 30 C3.35 30 1.7 30 0 30 C0 26.7 0 23.4 0 20 C-1.65 20 -3.3 20 -5 20 C-5 15.05 -5 10.1 -5 5 C-3.35 5 -1.7 5 0 5 C0 3.35 0 1.7 0 0 Z " fill="#FBC106" transform="translate(190,120)"/>
<path d="M0 0 C0.98484375 0.02707031 1.9696875 0.05414063 2.984375 0.08203125 C3.73203125 0.11683594 4.4796875 0.15164062 5.25 0.1875 C5.25 1.1775 5.25 2.1675 5.25 3.1875 C3.6 3.1875 1.95 3.1875 0.25 3.1875 C0.25 4.8375 0.25 6.4875 0.25 8.1875 C3.55 8.1875 6.85 8.1875 10.25 8.1875 C10.25 9.8375 10.25 11.4875 10.25 13.1875 C11.9 13.1875 13.55 13.1875 15.25 13.1875 C15.25 16.4875 15.25 19.7875 15.25 23.1875 C13.6 23.1875 11.95 23.1875 10.25 23.1875 C10.25 26.4875 10.25 29.7875 10.25 33.1875 C12.725 32.6925 12.725 32.6925 15.25 32.1875 C15.25 34.1675 15.25 36.1475 15.25 38.1875 C11.95 38.1875 8.65 38.1875 5.25 38.1875 C5.25 36.5375 5.25 34.8875 5.25 33.1875 C3.6 33.1875 1.95 33.1875 0.25 33.1875 C0.25 34.8375 0.25 36.4875 0.25 38.1875 C-1.4 38.1875 -3.05 38.1875 -4.75 38.1875 C-4.75 34.8875 -4.75 31.5875 -4.75 28.1875 C-1.45 28.1875 1.85 28.1875 5.25 28.1875 C5.25 26.5375 5.25 24.8875 5.25 23.1875 C3.6 23.1875 1.95 23.1875 0.25 23.1875 C0.25 19.8875 0.25 16.5875 0.25 13.1875 C-1.4 13.1875 -3.05 13.1875 -4.75 13.1875 C-4.75 11.5375 -4.75 9.8875 -4.75 8.1875 C-6.4 8.1875 -8.05 8.1875 -9.75 8.1875 C-10 5.875 -10 5.875 -9.75 3.1875 C-6.64020257 0.07770257 -4.29687174 -0.15345971 0 0 Z " fill="#F97901" transform="translate(239.75,116.8125)"/>
<path d="M0 0 C3.3 0 6.6 0 10 0 C10 1.65 10 3.3 10 5 C11.65 5 13.3 5 15 5 C15 8.3 15 11.6 15 15 C16.65 15 18.3 15 20 15 C20 16.65 20 18.3 20 20 C18.35 20 16.7 20 15 20 C15 23.3 15 26.6 15 30 C13.35 30 11.7 30 10 30 C10 31.65 10 33.3 10 35 C1.75 35 -6.5 35 -15 35 C-15 33.35 -15 31.7 -15 30 C-13.35 30 -11.7 30 -10 30 C-10 28.35 -10 26.7 -10 25 C-8.37509046 24.97301811 -6.75005367 24.95361243 -5.125 24.9375 C-4.22007812 24.92589844 -3.31515625 24.91429687 -2.3828125 24.90234375 C0 25 0 25 2 26 C2 26.99 2 27.98 2 29 C2.99 29 3.98 29 5 29 C5 24.38 5 19.76 5 15 C6.65 15 8.3 15 10 15 C10 13.35 10 11.7 10 10 C8.35 10 6.7 10 5 10 C5 8.35 5 6.7 5 5 C3.35 5 1.7 5 0 5 C0 3.35 0 1.7 0 0 Z " fill="#FDA107" transform="translate(205,120)"/>
<path d="M0 0 C1.65 0 3.3 0 5 0 C5 4.95 5 9.9 5 15 C3.35 15 1.7 15 0 15 C0 16.65 0 18.3 0 20 C-1.65 20 -3.3 20 -5 20 C-5 21.32 -5 22.64 -5 24 C-15.89 24 -26.78 24 -38 24 C-37.505 22.515 -37.505 22.515 -37 21 C-34.33821779 19.6691089 -32.31260604 19.88731007 -29.3359375 19.90234375 C-28.21445313 19.90556641 -27.09296875 19.90878906 -25.9375 19.91210938 C-24.761875 19.92048828 -23.58625 19.92886719 -22.375 19.9375 C-21.19164062 19.94201172 -20.00828125 19.94652344 -18.7890625 19.95117188 C-15.85932493 19.96298533 -12.92968728 19.97945742 -10 20 C-10 18.35 -10 16.7 -10 15 C-8.35 15 -6.7 15 -5 15 C-5 11.7 -5 8.4 -5 5 C-3.35 5 -1.7 5 0 5 C0 3.35 0 1.7 0 0 Z " fill="#EF6D02" transform="translate(225,135)"/>
<path d="M0 0 C1.65 0 3.3 0 5 0 C5 1.65 5 3.3 5 5 C6.65 5 8.3 5 10 5 C10 8.3 10 11.6 10 15 C11.65 15 13.3 15 15 15 C15 17.97 15 20.94 15 24 C14.01 24 13.02 24 12 24 C12 23.01 12 22.02 12 21 C8.04 20.67 4.08 20.34 0 20 C0 21.65 0 23.3 0 25 C-1.65 25 -3.3 25 -5 25 C-5 20.05 -5 15.1 -5 10 C-3.35 10 -1.7 10 0 10 C0 6.7 0 3.4 0 0 Z " fill="#FEF104" transform="translate(195,125)"/>
<path d="M0 0 C9.9 0 19.8 0 30 0 C30 1.65 30 3.3 30 5 C31.65 5 33.3 5 35 5 C35 9.95 35 14.9 35 20 C33.35 20 31.7 20 30 20 C30 16.7 30 13.4 30 10 C28.35 10 26.7 10 25 10 C25 8.35 25 6.7 25 5 C16.75 5 8.5 5 0 5 C0 3.35 0 1.7 0 0 Z " fill="#F5620D" transform="translate(190,115)"/>
<path d="M0 0 C0.98484375 0.02707031 1.9696875 0.05414063 2.984375 0.08203125 C3.73203125 0.11683594 4.4796875 0.15164062 5.25 0.1875 C5.25 1.1775 5.25 2.1675 5.25 3.1875 C3.6 3.1875 1.95 3.1875 0.25 3.1875 C0.25 4.8375 0.25 6.4875 0.25 8.1875 C3.55 8.1875 6.85 8.1875 10.25 8.1875 C10.25 9.8375 10.25 11.4875 10.25 13.1875 C11.9 13.1875 13.55 13.1875 15.25 13.1875 C15.25 16.4875 15.25 19.7875 15.25 23.1875 C13.6 23.1875 11.95 23.1875 10.25 23.1875 C10.25 21.5375 10.25 19.8875 10.25 18.1875 C8.6 18.1875 6.95 18.1875 5.25 18.1875 C5.25 16.5375 5.25 14.8875 5.25 13.1875 C1.95 13.1875 -1.35 13.1875 -4.75 13.1875 C-4.75 11.5375 -4.75 9.8875 -4.75 8.1875 C-6.4 8.1875 -8.05 8.1875 -9.75 8.1875 C-10 5.875 -10 5.875 -9.75 3.1875 C-6.64020257 0.07770257 -4.29687174 -0.15345971 0 0 Z " fill="#FE8E04" transform="translate(239.75,116.8125)"/>
<path d="M0 0 C6.6 0 13.2 0 20 0 C20 1.65 20 3.3 20 5 C21.65 5 23.3 5 25 5 C25 9.95 25 14.9 25 20 C22.03 20.33 19.06 20.66 16 21 C14.49843126 17.99686252 14.90718796 15.20932478 14.9375 11.875 C14.94652344 10.59367187 14.95554687 9.31234375 14.96484375 7.9921875 C14.97644531 7.00476563 14.98804688 6.01734375 15 5 C13.35 5 11.7 5 10 5 C10 4.01 10 3.02 10 2 C6.7 2 3.4 2 0 2 C0 1.34 0 0.68 0 0 Z " fill="#ED6704" transform="translate(245,115)"/>
<path d="M0 0 C8.25 0 16.5 0 25 0 C25 0.66 25 1.32 25 2 C23.86111328 2.07347656 23.86111328 2.07347656 22.69921875 2.1484375 C21.20841797 2.26058594 21.20841797 2.26058594 19.6875 2.375 C18.20830078 2.47941406 18.20830078 2.47941406 16.69921875 2.5859375 C13.78471567 2.83865472 13.78471567 2.83865472 11 5 C10.27034634 7.56282742 10.27034634 7.56282742 10 10 C11.65 10 13.3 10 15 10 C15 11.65 15 13.3 15 15 C13.35 15 11.7 15 10 15 C10 16.65 10 18.3 10 20 C8.35 20 6.7 20 5 20 C5 15.05 5 10.1 5 5 C3.35 5 1.7 5 0 5 C0 3.35 0 1.7 0 0 Z " fill="#F8A712" transform="translate(220,115)"/>
<path d="M0 0 C1.65 0 3.3 0 5 0 C5 1.65 5 3.3 5 5 C6.65 5 8.3 5 10 5 C10 6.98 10 8.96 10 11 C9.34 11 8.68 11 8 11 C8 11.66 8 12.32 8 13 C28.46 13.33 48.92 13.66 70 14 C70 14.33 70 14.66 70 15 C48.55 15 27.1 15 5 15 C5 13.35 5 11.7 5 10 C3.35 10 1.7 10 0 10 C0 6.7 0 3.4 0 0 Z " fill="#E7711F" transform="translate(180,145)"/>
<path d="M0 0 C3.3 0 6.6 0 10 0 C10 3.3 10 6.6 10 10 C5.05 10 0.1 10 -5 10 C-5 8.35 -5 6.7 -5 5 C-3.35 5 -1.7 5 0 5 C0 3.35 0 1.7 0 0 Z " fill="#EC6D07" transform="translate(255,150)"/>
<path d="M0 0 C3.3 0 6.6 0 10 0 C10 1.65 10 3.3 10 5 C11.65 5 13.3 5 15 5 C15 8.3 15 11.6 15 15 C13.35 15 11.7 15 10 15 C10 13.35 10 11.7 10 10 C8.35 10 6.7 10 5 10 C5 8.35 5 6.7 5 5 C3.35 5 1.7 5 0 5 C0 3.35 0 1.7 0 0 Z " fill="#FC9506" transform="translate(205,120)"/>
<path d="M0 0 C3.3 0 6.6 0 10 0 C10 1.65 10 3.3 10 5 C8.35 5 6.7 5 5 5 C5 8.3 5 11.6 5 15 C3.35 15 1.7 15 0 15 C0 10.05 0 5.1 0 0 Z " fill="#E15811" transform="translate(180,120)"/>
<path d="M0 0 C1.65 0 3.3 0 5 0 C5 3.3 5 6.6 5 10 C3.35 10 1.7 10 0 10 C0 11.65 0 13.3 0 15 C-1.65 15 -3.3 15 -5 15 C-5 11.7 -5 8.4 -5 5 C-3.35 5 -1.7 5 0 5 C0 3.35 0 1.7 0 0 Z " fill="#D6550E" transform="translate(270,135)"/>
<path d="M0 0 C9.9 0 19.8 0 30 0 C30 0.33 30 0.66 30 1 C24.72 1 19.44 1 14 1 C14.33 2.32 14.66 3.64 15 5 C10.05 5 5.1 5 0 5 C0 3.35 0 1.7 0 0 Z " fill="#E07117" transform="translate(190,115)"/>
<path d="M0 0 C1.65 0 3.3 0 5 0 C5 1.65 5 3.3 5 5 C6.65 5 8.3 5 10 5 C10 6.65 10 8.3 10 10 C6.7 10 3.4 10 0 10 C0 6.7 0 3.4 0 0 Z " fill="#FA7100" transform="translate(240,130)"/>
<path d="M0 0 C3.3 0 6.6 0 10 0 C10 1.65 10 3.3 10 5 C8.35 5 6.7 5 5 5 C5 6.65 5 8.3 5 10 C3.35 10 1.7 10 0 10 C0 6.7 0 3.4 0 0 Z " fill="#FCD602" transform="translate(205,130)"/>
<path d="M0 0 C1.65 0 3.3 0 5 0 C5 4.95 5 9.9 5 15 C3.35 15 1.7 15 0 15 C0 10.05 0 5.1 0 0 Z " fill="#FB9900" transform="translate(185,125)"/>
<path d="M0 0 C1.65 0 3.3 0 5 0 C5 4.95 5 9.9 5 15 C3.35 15 1.7 15 0 15 C0 10.05 0 5.1 0 0 Z " fill="#DB5408" transform="translate(265,120)"/>
<path d="M0 0 C5.28 0 10.56 0 16 0 C15.67 1.32 15.34 2.64 15 4 C14.01 3.67 13.02 3.34 12 3 C11.67 3.33 11.34 3.66 11 4 C9.31391034 4.07205511 7.62499341 4.08386068 5.9375 4.0625 C5.01839844 4.05347656 4.09929687 4.04445313 3.15234375 4.03515625 C2.44207031 4.02355469 1.73179687 4.01195313 1 4 C0.67 2.68 0.34 1.36 0 0 Z " fill="#F4650C" transform="translate(204,116)"/>
<path d="M0 0 C1.65 0 3.3 0 5 0 C5 1.32 5 2.64 5 4 C6.65 4 8.3 4 10 4 C10 4.33 10 4.66 10 5 C8.35 5 6.7 5 5 5 C5 6.65 5 8.3 5 10 C3.35 10 1.7 10 0 10 C0 6.7 0 3.4 0 0 Z " fill="#FDD607" transform="translate(190,140)"/>
<path d="M0 0 C6.6 0 13.2 0 20 0 C20 1.65 20 3.3 20 5 C19.34 4.01 18.68 3.02 18 2 C17.01 1.67 16.02 1.34 15 1 C15 2.32 15 3.64 15 5 C13.35 5 11.7 5 10 5 C10 4.01 10 3.02 10 2 C6.7 2 3.4 2 0 2 C0 1.34 0 0.68 0 0 Z " fill="#DC6E1B" transform="translate(245,115)"/>
<path d="M0 0 C4.95 0 9.9 0 15 0 C14.67 0.66 14.34 1.32 14 2 C9.71 1.67 5.42 1.34 1 1 C1 1.99 1 2.98 1 4 C1.66 4 2.32 4 3 4 C4.125 10.75 4.125 10.75 3 13 C2.34 13 1.68 13 1 13 C0.67 13.66 0.34 14.32 0 15 C0 10.05 0 5.1 0 0 Z " fill="#FEBC0D" transform="translate(190,120)"/>
<path d="M0 0 C1.65 0 3.3 0 5 0 C5 3.3 5 6.6 5 10 C3.35 10 1.7 10 0 10 C0 6.7 0 3.4 0 0 Z " fill="#D6550E" transform="translate(260,150)"/>
<path d="M0 0 C1.65 0 3.3 0 5 0 C5 3.3 5 6.6 5 10 C3.35 10 1.7 10 0 10 C0 6.7 0 3.4 0 0 Z " fill="#F99B00" transform="translate(215,140)"/>
<path d="M0 0 C1.65 0 3.3 0 5 0 C5 3.3 5 6.6 5 10 C3.35 10 1.7 10 0 10 C0 6.7 0 3.4 0 0 Z " fill="#FE8C04" transform="translate(245,140)"/>
<path d="M0 0 C1.65 0 3.3 0 5 0 C5 3.3 5 6.6 5 10 C3.35 10 1.7 10 0 10 C0 6.7 0 3.4 0 0 Z " fill="#E06925" transform="translate(175,135)"/>
<path d="M0 0 C0.74926071 3.66305234 1.2380014 6.42355152 0 10 C-1.65 10 -3.3 10 -5 10 C-5.3669579 3.51707705 -5.3669579 3.51707705 -3.625 1.0625 C-2 0 -2 0 0 0 Z " fill="#EE6B04" transform="translate(265,140)"/>
<path d="M0 0 C1.65 0 3.3 0 5 0 C5 2.97 5 5.94 5 9 C4.01 9 3.02 9 2 9 C2 8.01 2 7.02 2 6 C1.34 6 0.68 6 0 6 C0 4.02 0 2.04 0 0 Z " fill="#FDE202" transform="translate(205,140)"/>
<path d="M0 0 C1.65 0 3.3 0 5 0 C5 4.95 5 9.9 5 15 C3.35 15 1.7 15 0 15 C0 14.34 0 13.68 0 13 C0.99 12.67 1.98 12.34 3 12 C3.2954439 6.97745369 2.98514628 4.10457614 0 0 Z " fill="#E87000" transform="translate(220,120)"/>
<path d="M0 0 C2.31 0.33 4.62 0.66 7 1 C7 1.99 7 2.98 7 4 C7.99 4.33 8.98 4.66 10 5 C6.7 5 3.4 5 0 5 C0 3.35 0 1.7 0 0 Z " fill="#FCC606" transform="translate(200,145)"/>
<path d="M0 0 C3.96 0 7.92 0 12 0 C11.01 0.495 11.01 0.495 10 1 C10 1.66 10 2.32 10 3 C7.36 3 4.72 3 2 3 C2 2.34 2 1.68 2 1 C1.34 0.67 0.68 0.34 0 0 Z " fill="#F35C25" transform="translate(204,116)"/>
<path d="M0 0 C1.65 0 3.3 0 5 0 C5.33 1.65 5.66 3.3 6 5 C4.02 5 2.04 5 0 5 C0 3.35 0 1.7 0 0 Z " fill="#FF9907" transform="translate(240,125)"/>
<path d="M0 0 C1.65 0 3.3 0 5 0 C5 1.65 5 3.3 5 5 C3.35 5 1.7 5 0 5 C0 3.35 0 1.7 0 0 Z " fill="#F97300" transform="translate(245,150)"/>
<path d="M0 0 C1.65 0 3.3 0 5 0 C5 1.65 5 3.3 5 5 C3.35 5 1.7 5 0 5 C0 3.35 0 1.7 0 0 Z " fill="#FDBF07" transform="translate(190,145)"/>
<path d="M0 0 C1.65 0 3.3 0 5 0 C5 1.65 5 3.3 5 5 C3.35 5 1.7 5 0 5 C0 3.35 0 1.7 0 0 Z " fill="#F39E00" transform="translate(195,145)"/>
<path d="M0 0 C1.65 0 3.3 0 5 0 C5 1.65 5 3.3 5 5 C3.35 5 1.7 5 0 5 C0 3.35 0 1.7 0 0 Z " fill="#FD9505" transform="translate(220,135)"/>
<path d="M0 0 C1.65 0 3.3 0 5 0 C5 1.65 5 3.3 5 5 C3.35 5 1.7 5 0 5 C0 3.35 0 1.7 0 0 Z " fill="#FEBB0D" transform="translate(215,135)"/>
<path d="M0 0 C1.65 0 3.3 0 5 0 C5 1.65 5 3.3 5 5 C3.35 5 1.7 5 0 5 C0 3.35 0 1.7 0 0 Z " fill="#FEBD0A" transform="translate(185,135)"/>
<path d="M0 0 C1.65 0 3.3 0 5 0 C5 1.65 5 3.3 5 5 C3.35 5 1.7 5 0 5 C0 3.35 0 1.7 0 0 Z " fill="#F06B03" transform="translate(265,135)"/>
<path d="M0 0 C1.65 0 3.3 0 5 0 C5 1.65 5 3.3 5 5 C3.35 5 1.7 5 0 5 C0 3.35 0 1.7 0 0 Z " fill="#F79C00" transform="translate(210,135)"/>
<path d="M0 0 C1.65 0 3.3 0 5 0 C5 1.65 5 3.3 5 5 C3.35 5 1.7 5 0 5 C0 3.35 0 1.7 0 0 Z " fill="#F27700" transform="translate(230,130)"/>
<path d="M0 0 C1.65 0 3.3 0 5 0 C5 1.65 5 3.3 5 5 C3.35 5 1.7 5 0 5 C0 3.35 0 1.7 0 0 Z " fill="#F89B01" transform="translate(215,130)"/>
<path d="M0 0 C0.33 0 0.66 0 1 0 C1 3.3 1 6.6 1 10 C-0.32 10 -1.64 10 -3 10 C-3 8.35 -3 6.7 -3 5 C-2.01 5 -1.02 5 0 5 C0 3.35 0 1.7 0 0 Z " fill="#ED6D02" transform="translate(184,125)"/>
<path d="M0 0 C1.65 0 3.3 0 5 0 C5 1.65 5 3.3 5 5 C3.35 5 1.7 5 0 5 C0 3.35 0 1.7 0 0 Z " fill="#FEBB0E" transform="translate(210,130)"/>
<path d="M0 0 C1.65 0 3.3 0 5 0 C5 1.65 5 3.3 5 5 C3.35 5 1.7 5 0 5 C0 3.35 0 1.7 0 0 Z " fill="#FEE706" transform="translate(195,125)"/>
<path d="M0 0 C1.65 0 3.3 0 5 0 C5 1.65 5 3.3 5 5 C3.35 5 1.7 5 0 5 C0 3.35 0 1.7 0 0 Z " fill="#F47500" transform="translate(235,125)"/>
<path d="M0 0 C1.65 0 3.3 0 5 0 C5 1.65 5 3.3 5 5 C3.35 5 1.7 5 0 5 C0 3.35 0 1.7 0 0 Z " fill="#F47500" transform="translate(230,120)"/>
<path d="M0 0 C1.32 0 2.64 0 4 0 C4 1.98 4 3.96 4 6 C2.68 6 1.36 6 0 6 C0 4.02 0 2.04 0 0 Z " fill="#F55E15" transform="translate(216,150)"/>
<path d="M0 0 C1.65 0 3.3 0 5 0 C5 1.65 5 3.3 5 5 C3.35 5 1.7 5 0 5 C0 3.35 0 1.7 0 0 Z " fill="#FEAD07" transform="translate(230,135)"/>
<path d="M0 0 C1.65 0 3.3 0 5 0 C3.75023244 3.65316671 3.32901247 4.78065836 0 7 C0 4.69 0 2.38 0 0 Z " fill="#FD920C" transform="translate(185,125)"/>
<path d="M0 0 C1.65 0 3.3 0 5 0 C5 1.65 5 3.3 5 5 C3.35 5 1.7 5 0 5 C0 3.35 0 1.7 0 0 Z " fill="#E97001" transform="translate(225,135)"/>
<path d="M0 0 C0.99 0 1.98 0 3 0 C3.1875 2.375 3.1875 2.375 3 5 C2.01 5.66 1.02 6.32 0 7 C-0.38133299 5.0085944 -0.71325582 3.00720923 -1 1 C-0.67 0.67 -0.34 0.34 0 0 Z " fill="#FC5F13" transform="translate(226,141)"/>
<path d="M0 0 C1.65 0 3.3 0 5 0 C5 1.65 5 3.3 5 5 C3.35 5 1.7 5 0 5 C0.33 4.01 0.66 3.02 1 2 C0.67 1.34 0.34 0.68 0 0 Z " fill="#FFA70F" transform="translate(230,125)"/>
<path d="M0 0 C1.65 0 3.3 0 5 0 C5 1.32 5 2.64 5 4 C3.35 4 1.7 4 0 4 C0 2.68 0 1.36 0 0 Z " fill="#FA7101" transform="translate(250,155)"/>
<path d="M0 0 C1.98 0 3.96 0 6 0 C6 0.99 6 1.98 6 3 C3.69 3 1.38 3 -1 3 C-0.67 2.01 -0.34 1.02 0 0 Z " fill="#F85F15" transform="translate(191,156)"/>
<path d="M0 0 C1.65 0 3.3 0 5 0 C5 1.32 5 2.64 5 4 C3.35 4 1.7 4 0 4 C0 2.68 0 1.36 0 0 Z " fill="#F77400" transform="translate(230,155)"/>
<path d="M0 0 C0.33 0 0.66 0 1 0 C1 3.3 1 6.6 1 10 C-0.32 10 -1.64 10 -3 10 C-2.67 8.68 -2.34 7.36 -2 6 C-1.34 6 -0.68 6 0 6 C0 4.02 0 2.04 0 0 Z " fill="#FD9307" transform="translate(219,140)"/>
<path d="M0 0 C1.65 0 3.3 0 5 0 C5 1.32 5 2.64 5 4 C3.35 4 1.7 4 0 4 C0 2.68 0 1.36 0 0 Z " fill="#FCEA01" transform="translate(195,140)"/>
<path d="M0 0 C1.32 0.66 2.64 1.32 4 2 C3.67 3.32 3.34 4.64 3 6 C2.01 6 1.02 6 0 6 C-0.38218767 4.34385343 -0.71395102 2.67542976 -1 1 C-0.67 0.67 -0.34 0.34 0 0 Z " fill="#FA5D14" transform="translate(216,118)"/>
<path d="M0 0 C1.32 0 2.64 0 4 0 C4 1.32 4 2.64 4 4 C2.35 4 0.7 4 -1 4 C-0.67 2.68 -0.34 1.36 0 0 Z " fill="#FC9F00" transform="translate(226,155)"/>
<path d="M0 0 C0.33 0 0.66 0 1 0 C1 2.97 1 5.94 1 9 C-0.32 9 -1.64 9 -3 9 C-3 8.34 -3 7.68 -3 7 C-2.34 7 -1.68 7 -1 7 C-0.67 4.69 -0.34 2.38 0 0 Z " fill="#F2C801" transform="translate(194,126)"/>
</svg>
