<?xml version="1.0" encoding="UTF-8"?>
<svg version="1.1" xmlns="http://www.w3.org/2000/svg" width="500" height="500">
<path d="M0 0 C16.5 0 33 0 50 0 C50 1.65 50 3.3 50 5 C53.3 5 56.6 5 60 5 C60 8.3 60 11.6 60 15 C66.6 15 73.2 15 80 15 C80 18.3 80 21.6 80 25 C81.65 25 83.3 25 85 25 C85 26.65 85 28.3 85 30 C86.65 30 88.3 30 90 30 C90 31.65 90 33.3 90 35 C91.65 35 93.3 35 95 35 C95 36.65 95 38.3 95 40 C96.65 40 98.3 40 100 40 C100 41.65 100 43.3 100 45 C101.65 45 103.3 45 105 45 C105 48.3 105 51.6 105 55 C106.65 55 108.3 55 110 55 C110 59.95 110 64.9 110 70 C111.65 70 113.3 70 115 70 C115 88.15 115 106.3 115 125 C113.35 125 111.7 125 110 125 C110 128.3 110 131.6 110 135 C108.35 135 106.7 135 105 135 C105 138.3 105 141.6 105 145 C103.35 145 101.7 145 100 145 C100 146.65 100 148.3 100 150 C98.35 150 96.7 150 95 150 C95 151.65 95 153.3 95 155 C93.35 155 91.7 155 90 155 C90 156.65 90 158.3 90 160 C88.35 160 86.7 160 85 160 C85 161.65 85 163.3 85 165 C83.35 165 81.7 165 80 165 C80 168.3 80 171.6 80 175 C76.7 175 73.4 175 70 175 C70 176.65 70 178.3 70 180 C68.35 180 66.7 180 65 180 C65 181.65 65 183.3 65 185 C60.05 185 55.1 185 50 185 C50 186.65 50 188.3 50 190 C33.5 190 17 190 0 190 C0 188.35 0 186.7 0 185 C-3.3 185 -6.6 185 -10 185 C-10 183.35 -10 181.7 -10 180 C-13.3 180 -16.6 180 -20 180 C-20 178.35 -20 176.7 -20 175 C-24.95 175 -29.9 175 -35 175 C-35 170.05 -35 165.1 -35 160 C-39.95 160 -44.9 160 -50 160 C-50 156.7 -50 153.4 -50 150 C-51.65 150 -53.3 150 -55 150 C-55 148.35 -55 146.7 -55 145 C-56.65 145 -58.3 145 -60 145 C-60 141.7 -60 138.4 -60 135 C-61.65 135 -63.3 135 -65 135 C-65 131.7 -65 128.4 -65 125 C-66.65 125 -68.3 125 -70 125 C-70 106.85 -70 88.7 -70 70 C-68.35 70 -66.7 70 -65 70 C-65 65.05 -65 60.1 -65 55 C-63.35 55 -61.7 55 -60 55 C-60 51.7 -60 48.4 -60 45 C-58.35 45 -56.7 45 -55 45 C-55 43.35 -55 41.7 -55 40 C-53.35 40 -51.7 40 -50 40 C-50 38.35 -50 36.7 -50 35 C-46.7 35 -43.4 35 -40 35 C-40 33.35 -40 31.7 -40 30 C-38.35 30 -36.7 30 -35 30 C-35 25.05 -35 20.1 -35 15 C-26.75 15 -18.5 15 -10 15 C-10 11.7 -10 8.4 -10 5 C-6.7 5 -3.4 5 0 5 C0 3.35 0 1.7 0 0 Z " fill="#5E7986" transform="translate(185,70)"/>
<path d="M0 0 C4.95 0 9.9 0 15 0 C15 1.65 15 3.3 15 5 C21.6 5 28.2 5 35 5 C35 23.15 35 41.3 35 60 C33.35 60 31.7 60 30 60 C30 63.3 30 66.6 30 70 C28.35 70 26.7 70 25 70 C25 73.3 25 76.6 25 80 C23.35 80 21.7 80 20 80 C20 81.65 20 83.3 20 85 C18.35 85 16.7 85 15 85 C15 86.65 15 88.3 15 90 C13.35 90 11.7 90 10 90 C10 91.65 10 93.3 10 95 C8.35 95 6.7 95 5 95 C5 96.65 5 98.3 5 100 C3.35 100 1.7 100 0 100 C0 103.3 0 106.6 0 110 C-3.3 110 -6.6 110 -10 110 C-10 111.65 -10 113.3 -10 115 C-11.65 115 -13.3 115 -15 115 C-15 116.65 -15 118.3 -15 120 C-19.95 120 -24.9 120 -30 120 C-30 121.65 -30 123.3 -30 125 C-46.5 125 -63 125 -80 125 C-80 123.35 -80 121.7 -80 120 C-83.3 120 -86.6 120 -90 120 C-90 118.35 -90 116.7 -90 115 C-93.3 115 -96.6 115 -100 115 C-100 113.35 -100 111.7 -100 110 C-104.95 110 -109.9 110 -115 110 C-115 105.05 -115 100.1 -115 95 C-119.95 95 -124.9 95 -130 95 C-130 91.7 -130 88.4 -130 85 C-131.65 85 -133.3 85 -135 85 C-135 83.35 -135 81.7 -135 80 C-136.65 80 -138.3 80 -140 80 C-140 75.05 -140 70.1 -140 65 C-136.7 65 -133.4 65 -130 65 C-130 63.35 -130 61.7 -130 60 C-125.05 60 -120.1 60 -115 60 C-115 55.05 -115 50.1 -115 45 C-106.75 45 -98.5 45 -90 45 C-90 43.35 -90 41.7 -90 40 C-86.7 40 -83.4 40 -80 40 C-80 38.35 -80 36.7 -80 35 C-76.7 35 -73.4 35 -70 35 C-70 33.35 -70 31.7 -70 30 C-63.4 30 -56.8 30 -50 30 C-50 28.35 -50 26.7 -50 25 C-45.05 25 -40.1 25 -35 25 C-35 23.35 -35 21.7 -35 20 C-33.35 20 -31.7 20 -30 20 C-30 21.65 -30 23.3 -30 25 C-26.7 25 -23.4 25 -20 25 C-20 23.35 -20 21.7 -20 20 C-17.03 19.67 -14.06 19.34 -11 19 C-10.67 17.68 -10.34 16.36 -10 15 C-6.7 15 -3.4 15 0 15 C0 10.05 0 5.1 0 0 Z " fill="#36464E" transform="translate(265,135)"/>
<path d="M0 0 C8.25 0 16.5 0 25 0 C25 3.3 25 6.6 25 10 C26.65 10 28.3 10 30 10 C30 11.65 30 13.3 30 15 C31.65 15 33.3 15 35 15 C35 16.65 35 18.3 35 20 C36.65 20 38.3 20 40 20 C40 21.65 40 23.3 40 25 C41.65 25 43.3 25 45 25 C45 26.65 45 28.3 45 30 C46.65 30 48.3 30 50 30 C50 33.3 50 36.6 50 40 C51.65 40 53.3 40 55 40 C55 44.95 55 49.9 55 55 C50.05 55 45.1 55 40 55 C40 53.35 40 51.7 40 50 C35.05 50 30.1 50 25 50 C25 54.95 25 59.9 25 65 C21.7 65 18.4 65 15 65 C14.67 66.65 14.34 68.3 14 70 C11.03 70 8.06 70 5 70 C5 71.65 5 73.3 5 75 C1.7 75 -1.6 75 -5 75 C-5 73.35 -5 71.7 -5 70 C-6.65 70 -8.3 70 -10 70 C-10 71.65 -10 73.3 -10 75 C-16.6 75 -23.2 75 -30 75 C-30 71.7 -30 68.4 -30 65 C-36.6 65 -43.2 65 -50 65 C-50 61.7 -50 58.4 -50 55 C-48.35 55 -46.7 55 -45 55 C-45.01160156 54.00097656 -45.02320313 53.00195312 -45.03515625 51.97265625 C-45.04417969 50.68230469 -45.05320313 49.39195312 -45.0625 48.0625 C-45.07410156 46.77472656 -45.08570313 45.48695313 -45.09765625 44.16015625 C-45 41 -45 41 -44 40 C-40.99668982 39.85806663 -38.00782866 39.95763622 -35 40 C-35 43.3 -35 46.6 -35 50 C-31.7 50 -28.4 50 -25 50 C-25 46.7 -25 43.4 -25 40 C-27.97 40 -30.94 40 -34 40 C-34.33 38.35 -34.66 36.7 -35 35 C-31.7 35 -28.4 35 -25 35 C-25 33.35 -25 31.7 -25 30 C-26.65 30 -28.3 30 -30 30 C-30 28.35 -30 26.7 -30 25 C-28.35 25 -26.7 25 -25 25 C-25 23.35 -25 21.7 -25 20 C-20.05 20 -15.1 20 -10 20 C-10 18.35 -10 16.7 -10 15 C-8.35 15 -6.7 15 -5 15 C-5 13.35 -5 11.7 -5 10 C-3.35 10 -1.7 10 0 10 C0 6.7 0 3.4 0 0 Z " fill="#55707C" transform="translate(240,85)"/>
<path d="M0 0 C1.65 0 3.3 0 5 0 C5 4.95 5 9.9 5 15 C6.65 15 8.3 15 10 15 C10 16.65 10 18.3 10 20 C8.35 20 6.7 20 5 20 C5 23.3 5 26.6 5 30 C3.35 30 1.7 30 0 30 C0 31.65 0 33.3 0 35 C-1.65 35 -3.3 35 -5 35 C-5 36.65 -5 38.3 -5 40 C-8.3 40 -11.6 40 -15 40 C-15 41.65 -15 43.3 -15 45 C-18.3 45 -21.6 45 -25 45 C-25 46.65 -25 48.3 -25 50 C-29.95 50 -34.9 50 -40 50 C-40 51.65 -40 53.3 -40 55 C-38.35 55 -36.7 55 -35 55 C-35 56.65 -35 58.3 -35 60 C-36.65 60 -38.3 60 -40 60 C-40 63.3 -40 66.6 -40 70 C-41.65 70 -43.3 70 -45 70 C-45 71.65 -45 73.3 -45 75 C-41.7 75 -38.4 75 -35 75 C-35 76.65 -35 78.3 -35 80 C-38.3 80 -41.6 80 -45 80 C-45 81.65 -45 83.3 -45 85 C-61.5 85 -78 85 -95 85 C-95 83.35 -95 81.7 -95 80 C-98.3 80 -101.6 80 -105 80 C-105 78.35 -105 76.7 -105 75 C-108.3 75 -111.6 75 -115 75 C-115 73.35 -115 71.7 -115 70 C-119.95 70 -124.9 70 -130 70 C-130 66.7 -130 63.4 -130 60 C-116.8 60 -103.6 60 -90 60 C-90 58.35 -90 56.7 -90 55 C-85.05 55 -80.1 55 -75 55 C-75 56.65 -75 58.3 -75 60 C-73.35 60 -71.7 60 -70 60 C-70 58.35 -70 56.7 -70 55 C-68.20963542 53.99088542 -66.41927083 52.98177083 -64.62890625 51.97265625 C-63.02121854 51.1027487 -63.02121854 51.1027487 -62 50 C-59.98035801 49.92755947 -57.95832876 49.91622812 -55.9375 49.9375 C-54.83277344 49.94652344 -53.72804688 49.95554688 -52.58984375 49.96484375 C-51.73519531 49.97644531 -50.88054687 49.98804688 -50 50 C-50 48.35 -50 46.7 -50 45 C-48.35 45 -46.7 45 -45 45 C-45 43.35 -45 41.7 -45 40 C-56.55 40 -68.1 40 -80 40 C-80 38.35 -80 36.7 -80 35 C-65.15 35 -50.3 35 -35 35 C-35 33.35 -35 31.7 -35 30 C-30.05 30 -25.1 30 -20 30 C-20 28.35 -20 26.7 -20 25 C-18.35 25 -16.7 25 -15 25 C-15 23.35 -15 21.7 -15 20 C-13.35 20 -11.7 20 -10 20 C-10 18.35 -10 16.7 -10 15 C-8.35 15 -6.7 15 -5 15 C-5 11.7 -5 8.4 -5 5 C-3.35 5 -1.7 5 0 5 C0 3.35 0 1.7 0 0 Z " fill="#253138" transform="translate(280,175)"/>
<path d="M0 0 C1.65 0 3.3 0 5 0 C5 3.3 5 6.6 5 10 C8.3 10 11.6 10 15 10 C15 8.35 15 6.7 15 5 C16.65 5 18.3 5 20 5 C20 6.65 20 8.3 20 10 C26.6 10 33.2 10 40 10 C40 8.35 40 6.7 40 5 C43.3 5 46.6 5 50 5 C50 6.65 50 8.3 50 10 C53.3 10 56.6 10 60 10 C60 11.65 60 13.3 60 15 C56.7 15 53.4 15 50 15 C50 16.65 50 18.3 50 20 C41.75 20 33.5 20 25 20 C25.495 26.93 25.495 26.93 26 34 C28.64 34.33 31.28 34.66 34 35 C34.495 37.475 34.495 37.475 35 40 C31.7 40 28.4 40 25 40 C25 43.3 25 46.6 25 50 C23.35 50 21.7 50 20 50 C20 51.65 20 53.3 20 55 C21.65 55 23.3 55 25 55 C25 56.65 25 58.3 25 60 C21.75001888 60.02909763 18.50007143 60.04683161 15.25 60.0625 C14.32960937 60.07087891 13.40921875 60.07925781 12.4609375 60.08789062 C11.57148438 60.09111328 10.68203125 60.09433594 9.765625 60.09765625 C8.94868164 60.10289307 8.13173828 60.10812988 7.29003906 60.11352539 C5 60 5 60 2.76464844 59.43139648 C2.18231445 59.28903564 1.59998047 59.1466748 1 59 C0.67 59.33 0.34 59.66 0 60 C-1.68608966 60.07205511 -3.37500659 60.08386068 -5.0625 60.0625 C-5.98160156 60.05347656 -6.90070313 60.04445312 -7.84765625 60.03515625 C-8.55792969 60.02355469 -9.26820313 60.01195312 -10 60 C-10 61.65 -10 63.3 -10 65 C-13.3 65 -16.6 65 -20 65 C-20 61.7 -20 58.4 -20 55 C-18.35 55 -16.7 55 -15 55 C-15 50.05 -15 45.1 -15 40 C-16.65 40 -18.3 40 -20 40 C-20 43.3 -20 46.6 -20 50 C-21.65 50 -23.3 50 -25 50 C-25 56.6 -25 63.2 -25 70 C-23.35 70 -21.7 70 -20 70 C-20 73.3 -20 76.6 -20 80 C-18.35 80 -16.7 80 -15 80 C-15 83.3 -15 86.6 -15 90 C-16.65 90 -18.3 90 -20 90 C-20 91.65 -20 93.3 -20 95 C-23.3 95 -26.6 95 -30 95 C-30 76.85 -30 58.7 -30 40 C-28.35 40 -26.7 40 -25 40 C-25 35.05 -25 30.1 -25 25 C-23.35 25 -21.7 25 -20 25 C-20 21.7 -20 18.4 -20 15 C-18.35 15 -16.7 15 -15 15 C-15 13.35 -15 11.7 -15 10 C-13.35 10 -11.7 10 -10 10 C-10 8.35 -10 6.7 -10 5 C-6.7 5 -3.4 5 0 5 C0 3.35 0 1.7 0 0 Z " fill="#617C89" transform="translate(145,100)"/>
<path d="M0 0 C4.95 0 9.9 0 15 0 C15 1.65 15 3.3 15 5 C21.6 5 28.2 5 35 5 C35 16.55 35 28.1 35 40 C33.35 40 31.7 40 30 40 C30 38.35 30 36.7 30 35 C28.35 35 26.7 35 25 35 C25 33.35 25 31.7 25 30 C26.65 30 28.3 30 30 30 C30 28.35 30 26.7 30 25 C26.7 25 23.4 25 20 25 C20 26.65 20 28.3 20 30 C16.7 30 13.4 30 10 30 C10 31.65 10 33.3 10 35 C6.7 35 3.4 35 0 35 C0 33.35 0 31.7 0 30 C-1.65 30 -3.3 30 -5 30 C-5 31.65 -5 33.3 -5 35 C-6.65 35 -8.3 35 -10 35 C-10 36.65 -10 38.3 -10 40 C-21.55 40 -33.1 40 -45 40 C-45 41.65 -45 43.3 -45 45 C-48.3 45 -51.6 45 -55 45 C-55 43.35 -55 41.7 -55 40 C-58.3 40 -61.6 40 -65 40 C-65 41.65 -65 43.3 -65 45 C-66.65 45 -68.3 45 -70 45 C-70 43.35 -70 41.7 -70 40 C-73.3 40 -76.6 40 -80 40 C-80 38.35 -80 36.7 -80 35 C-76.7 35 -73.4 35 -70 35 C-70 33.35 -70 31.7 -70 30 C-63.4 30 -56.8 30 -50 30 C-50 28.35 -50 26.7 -50 25 C-45.05 25 -40.1 25 -35 25 C-35 23.35 -35 21.7 -35 20 C-33.35 20 -31.7 20 -30 20 C-30 21.65 -30 23.3 -30 25 C-26.7 25 -23.4 25 -20 25 C-20 23.35 -20 21.7 -20 20 C-17.03 19.67 -14.06 19.34 -11 19 C-10.67 17.68 -10.34 16.36 -10 15 C-6.7 15 -3.4 15 0 15 C0 10.05 0 5.1 0 0 Z " fill="#42555F" transform="translate(265,135)"/>
<path d="M0 0 C16.5 0 33 0 50 0 C50 1.65 50 3.3 50 5 C53.3 5 56.6 5 60 5 C60 8.3 60 11.6 60 15 C58.35 15 56.7 15 55 15 C55 18.3 55 21.6 55 25 C53.35 25 51.7 25 50 25 C50 26.65 50 28.3 50 30 C48.35 30 46.7 30 45 30 C45 31.65 45 33.3 45 35 C41.7 35 38.4 35 35 35 C35 33.35 35 31.7 35 30 C31.7 30 28.4 30 25 30 C25 28.35 25 26.7 25 25 C28.3 25 31.6 25 35 25 C35 21.7 35 18.4 35 15 C30.05 15 25.1 15 20 15 C20 18.3 20 21.6 20 25 C5.15 25 -9.7 25 -25 25 C-25 26.65 -25 28.3 -25 30 C-28.3 30 -31.6 30 -35 30 C-35 25.05 -35 20.1 -35 15 C-26.75 15 -18.5 15 -10 15 C-10 11.7 -10 8.4 -10 5 C-6.7 5 -3.4 5 0 5 C0 3.35 0 1.7 0 0 Z " fill="#9C9E9F" transform="translate(185,70)"/>
<path d="M0 0 C8.25 0 16.5 0 25 0 C25 3.3 25 6.6 25 10 C26.65 10 28.3 10 30 10 C30 11.65 30 13.3 30 15 C31.65 15 33.3 15 35 15 C35 16.65 35 18.3 35 20 C36.65 20 38.3 20 40 20 C40 21.65 40 23.3 40 25 C41.65 25 43.3 25 45 25 C45 26.65 45 28.3 45 30 C46.65 30 48.3 30 50 30 C50 33.3 50 36.6 50 40 C51.65 40 53.3 40 55 40 C55 44.95 55 49.9 55 55 C50.05 55 45.1 55 40 55 C40 53.35 40 51.7 40 50 C38.35 50 36.7 50 35 50 C35 46.7 35 43.4 35 40 C25.1 40 15.2 40 5 40 C5 38.35 5 36.7 5 35 C0.05 35 -4.9 35 -10 35 C-10 33.35 -10 31.7 -10 30 C-6.7 30 -3.4 30 0 30 C0 28.35 0 26.7 0 25 C4.95 25 9.9 25 15 25 C15 23.35 15 21.7 15 20 C6.75 20 -1.5 20 -10 20 C-10 18.35 -10 16.7 -10 15 C-8.35 15 -6.7 15 -5 15 C-5 13.35 -5 11.7 -5 10 C-3.35 10 -1.7 10 0 10 C0 6.7 0 3.4 0 0 Z " fill="#607C8A" transform="translate(240,85)"/>
<path d="M0 0 C4.95 0 9.9 0 15 0 C15 1.65 15 3.3 15 5 C16.65 5 18.3 5 20 5 C20 8.3 20 11.6 20 15 C26.6 15 33.2 15 40 15 C40 11.7 40 8.4 40 5 C43.3 5 46.6 5 50 5 C50 8.3 50 11.6 50 15 C48.35 15 46.7 15 45 15 C45 16.65 45 18.3 45 20 C48.3 20 51.6 20 55 20 C55 21.65 55 23.3 55 25 C51.7 25 48.4 25 45 25 C45 26.65 45 28.3 45 30 C28.5 30 12 30 -5 30 C-5 28.35 -5 26.7 -5 25 C-8.3 25 -11.6 25 -15 25 C-15 23.35 -15 21.7 -15 20 C-18.3 20 -21.6 20 -25 20 C-25 18.35 -25 16.7 -25 15 C-29.95 15 -34.9 15 -40 15 C-40 11.7 -40 8.4 -40 5 C-26.8 5 -13.6 5 0 5 C0 3.35 0 1.7 0 0 Z " fill="#000001" transform="translate(190,230)"/>
<path d="M0 0 C3.3 0 6.6 0 10 0 C10 4.95 10 9.9 10 15 C13.3 15 16.6 15 20 15 C20 16.65 20 18.3 20 20 C21.65 20 23.3 20 25 20 C25 16.7 25 13.4 25 10 C38.2 10 51.4 10 65 10 C65 11.65 65 13.3 65 15 C63.35 15 61.7 15 60 15 C60 16.65 60 18.3 60 20 C58.78763672 20.03867188 58.78763672 20.03867188 57.55078125 20.078125 C49.47398682 20.44384653 49.47398682 20.44384653 43 25 C42.01 25 41.02 25 40 25 C40 26.65 40 28.3 40 30 C38.35 30 36.7 30 35 30 C35 28.35 35 26.7 35 25 C30.05 25 25.1 25 20 25 C20 26.65 20 28.3 20 30 C6.8 30 -6.4 30 -20 30 C-20 28.35 -20 26.7 -20 25 C-24.95 25 -29.9 25 -35 25 C-35 20.05 -35 15.1 -35 10 C-31.7 10 -28.4 10 -25 10 C-25 11.65 -25 13.3 -25 15 C-18.73 15 -12.46 15 -6 15 C-5.67 13.35 -5.34 11.7 -5 10 C-1.7 10 1.6 10 5 10 C5 8.35 5 6.7 5 5 C3.35 5 1.7 5 0 5 C0 3.35 0 1.7 0 0 Z " fill="#36464E" transform="translate(170,205)"/>
<path d="M0 0 C1.65 0 3.3 0 5 0 C5 3.3 5 6.6 5 10 C3.35 10 1.7 10 0 10 C0 14.95 0 19.9 0 25 C-3.3 25 -6.6 25 -10 25 C-10 33.25 -10 41.5 -10 50 C-6.7 50 -3.4 50 0 50 C0 53.3 0 56.6 0 60 C-3.3 60 -6.6 60 -10 60 C-10 61.65 -10 63.3 -10 65 C-13.3 65 -16.6 65 -20 65 C-20 61.7 -20 58.4 -20 55 C-18.35 55 -16.7 55 -15 55 C-15 50.05 -15 45.1 -15 40 C-16.65 40 -18.3 40 -20 40 C-20 43.3 -20 46.6 -20 50 C-21.65 50 -23.3 50 -25 50 C-25 56.6 -25 63.2 -25 70 C-23.35 70 -21.7 70 -20 70 C-20 73.3 -20 76.6 -20 80 C-18.35 80 -16.7 80 -15 80 C-15 83.3 -15 86.6 -15 90 C-16.65 90 -18.3 90 -20 90 C-20 91.65 -20 93.3 -20 95 C-23.3 95 -26.6 95 -30 95 C-30 76.85 -30 58.7 -30 40 C-28.35 40 -26.7 40 -25 40 C-25 35.05 -25 30.1 -25 25 C-23.35 25 -21.7 25 -20 25 C-20 21.7 -20 18.4 -20 15 C-18.35 15 -16.7 15 -15 15 C-15 13.35 -15 11.7 -15 10 C-13.35 10 -11.7 10 -10 10 C-10 8.35 -10 6.7 -10 5 C-6.7 5 -3.4 5 0 5 C0 3.35 0 1.7 0 0 Z " fill="#9C9E9F" transform="translate(145,100)"/>
<path d="M0 0 C4.95 0 9.9 0 15 0 C15 3.3 15 6.6 15 10 C11.7 10 8.4 10 5 10 C5 11.65 5 13.3 5 15 C8.3 15 11.6 15 15 15 C15 16.65 15 18.3 15 20 C13.35 20 11.7 20 10 20 C10 21.65 10 23.3 10 25 C8.35 25 6.7 25 5 25 C5 26.65 5 28.3 5 30 C6.65 30 8.3 30 10 30 C10 31.65 10 33.3 10 35 C6.7 35 3.4 35 0 35 C0.495 36.98 0.495 36.98 1 39 C3.97 39.33 6.94 39.66 10 40 C10 43.3 10 46.6 10 50 C6.7 50 3.4 50 0 50 C0 46.7 0 43.4 0 40 C-3.3 40 -6.6 40 -10 40 C-10 36.7 -10 33.4 -10 30 C-6.7 30 -3.4 30 0 30 C0 28.35 0 26.7 0 25 C-3.3 25 -6.6 25 -10 25 C-10 23.35 -10 21.7 -10 20 C-13.3 20 -16.6 20 -20 20 C-20 21.65 -20 23.3 -20 25 C-26.6 25 -33.2 25 -40 25 C-40 23.35 -40 21.7 -40 20 C-41.65 20 -43.3 20 -45 20 C-45 21.65 -45 23.3 -45 25 C-48.3 25 -51.6 25 -55 25 C-55 21.7 -55 18.4 -55 15 C-51.7 15 -48.4 15 -45 15 C-45 13.35 -45 11.7 -45 10 C-30.15 10 -15.3 10 0 10 C0 6.7 0 3.4 0 0 Z " fill="#617C88" transform="translate(205,85)"/>
<path d="M0 0 C4.95 0 9.9 0 15 0 C15 8.25 15 16.5 15 25 C16.65 25 18.3 25 20 25 C20 26.65 20 28.3 20 30 C21.65 30 23.3 30 25 30 C25 31.65 25 33.3 25 35 C21.7 35 18.4 35 15 35 C15 36.98 15 38.96 15 41 C8.4 40.67 1.8 40.34 -5 40 C-5 38.35 -5 36.7 -5 35 C-8.3 35 -11.6 35 -15 35 C-15 36.65 -15 38.3 -15 40 C-16.65 40 -18.3 40 -20 40 C-20 38.35 -20 36.7 -20 35 C-21.65 35 -23.3 35 -25 35 C-25 30.05 -25 25.1 -25 20 C-21.7 20 -18.4 20 -15 20 C-15 18.35 -15 16.7 -15 15 C-10.05 15 -5.1 15 0 15 C0 10.05 0 5.1 0 0 Z " fill="#465964" transform="translate(150,180)"/>
<path d="M0 0 C1.65 0 3.3 0 5 0 C5 1.65 5 3.3 5 5 C11.6 5 18.2 5 25 5 C25 3.35 25 1.7 25 0 C28.3 0 31.6 0 35 0 C35 1.65 35 3.3 35 5 C38.3 5 41.6 5 45 5 C45 6.65 45 8.3 45 10 C41.7 10 38.4 10 35 10 C35 11.65 35 13.3 35 15 C26.75 15 18.5 15 10 15 C10 19.95 10 24.9 10 30 C3.4 30 -3.2 30 -10 30 C-10 21.75 -10 13.5 -10 5 C-6.7 5 -3.4 5 0 5 C0 3.35 0 1.7 0 0 Z " fill="#9C9EA0" transform="translate(160,105)"/>
<path d="M0 0 C13.2 0 26.4 0 40 0 C40 3.3 40 6.6 40 10 C35.05 10 30.1 10 25 10 C25 11.65 25 13.3 25 15 C21.7 15 18.4 15 15 15 C15 16.65 15 18.3 15 20 C10.05 20 5.1 20 0 20 C0 21.65 0 23.3 0 25 C-3.3 25 -6.6 25 -10 25 C-10 23.35 -10 21.7 -10 20 C-14.95 20 -19.9 20 -25 20 C-25 18.35 -25 16.7 -25 15 C-13.45 15 -1.9 15 10 15 C10 13.35 10 11.7 10 10 C6.7 10 3.4 10 0 10 C0 6.7 0 3.4 0 0 Z " fill="#253138" transform="translate(205,180)"/>
<path d="M0 0 C9.9 0 19.8 0 30 0 C30.495 4.95 30.495 4.95 31 10 C29.02 10 27.04 10 25 10 C24.67 11.65 24.34 13.3 24 15 C21.03 15 18.06 15 15 15 C15 16.65 15 18.3 15 20 C11.7 20 8.4 20 5 20 C5 18.35 5 16.7 5 15 C3.35 15 1.7 15 0 15 C0 16.65 0 18.3 0 20 C-4.95 20 -9.9 20 -15 20 C-15 16.7 -15 13.4 -15 10 C-10.05 10 -5.1 10 0 10 C0 6.7 0 3.4 0 0 Z " fill="#607D8A" transform="translate(230,140)"/>
<path d="M0 0 C13.2 0 26.4 0 40 0 C40 1.65 40 3.3 40 5 C38.35 5 36.7 5 35 5 C35 6.65 35 8.3 35 10 C33.78763672 10.03867188 33.78763672 10.03867188 32.55078125 10.078125 C24.47398682 10.44384653 24.47398682 10.44384653 18 15 C17.01 15 16.02 15 15 15 C15 16.65 15 18.3 15 20 C13.35 20 11.7 20 10 20 C10 18.35 10 16.7 10 15 C5.05 15 0.1 15 -5 15 C-5 13.35 -5 11.7 -5 10 C-3.35 10 -1.7 10 0 10 C0 6.7 0 3.4 0 0 Z " fill="#263138" transform="translate(195,215)"/>
<path d="M0 0 C4.95 0 9.9 0 15 0 C15 11.55 15 23.1 15 35 C13.35 35 11.7 35 10 35 C10 33.35 10 31.7 10 30 C8.35 30 6.7 30 5 30 C5 28.35 5 26.7 5 25 C6.65 25 8.3 25 10 25 C10 23.35 10 21.7 10 20 C6.7 20 3.4 20 0 20 C0 21.65 0 23.3 0 25 C-3.3 25 -6.6 25 -10 25 C-10 21.7 -10 18.4 -10 15 C-8.35 15 -6.7 15 -5 15 C-5 13.35 -5 11.7 -5 10 C-3.35 10 -1.7 10 0 10 C0 6.7 0 3.4 0 0 Z " fill="#455964" transform="translate(285,140)"/>
<path d="M0 0 C4.95 0 9.9 0 15 0 C15 3.3 15 6.6 15 10 C16.65 10 18.3 10 20 10 C20 11.65 20 13.3 20 15 C15.05 15 10.1 15 5 15 C5 16.65 5 18.3 5 20 C1.7 20 -1.6 20 -5 20 C-5 21.65 -5 23.3 -5 25 C-6.65 25 -8.3 25 -10 25 C-10 21.7 -10 18.4 -10 15 C-8.35 15 -6.7 15 -5 15 C-5 13.35 -5 11.7 -5 10 C-3.35 10 -1.7 10 0 10 C0 6.7 0 3.4 0 0 Z " fill="#617C89" transform="translate(130,180)"/>
<path d="M0 0 C11.55 0 23.1 0 35 0 C35 1.65 35 3.3 35 5 C33.35 5 31.7 5 30 5 C30 6.65 30 8.3 30 10 C25.05 10 20.1 10 15 10 C15 8.35 15 6.7 15 5 C10.05 5 5.1 5 0 5 C0 3.35 0 1.7 0 0 Z " fill="#37464E" transform="translate(200,215)"/>
<path d="M0 0 C1.65 0 3.3 0 5 0 C5 3.3 5 6.6 5 10 C13.25 10 21.5 10 30 10 C30 11.65 30 13.3 30 15 C18.45 15 6.9 15 -5 15 C-5 13.35 -5 11.7 -5 10 C-3.35 10 -1.7 10 0 10 C0 6.7 0 3.4 0 0 Z " fill="#435660" transform="translate(185,180)"/>
<path d="M0 0 C6.6 0 13.2 0 20 0 C20 3.3 20 6.6 20 10 C13.4 10 6.8 10 0 10 C0 6.7 0 3.4 0 0 Z " fill="#38464D" transform="translate(210,235)"/>
<path d="M0 0 C4.95 0 9.9 0 15 0 C15 1.65 15 3.3 15 5 C13.35 5 11.7 5 10 5 C10 8.3 10 11.6 10 15 C6.7 15 3.4 15 0 15 C0 10.05 0 5.1 0 0 Z " fill="#455964" transform="translate(265,135)"/>
<path d="M0 0 C3.3 0 6.6 0 10 0 C10 4.95 10 9.9 10 15 C5.05 15 0.1 15 -5 15 C-5 13.35 -5 11.7 -5 10 C-1.7 10 1.6 10 5 10 C5 8.35 5 6.7 5 5 C3.35 5 1.7 5 0 5 C0 3.35 0 1.7 0 0 Z " fill="#253239" transform="translate(170,205)"/>
<path d="M0 0 C4.95 0 9.9 0 15 0 C15 1.65 15 3.3 15 5 C11.7 5 8.4 5 5 5 C5 6.65 5 8.3 5 10 C0.05 10 -4.9 10 -10 10 C-10 8.35 -10 6.7 -10 5 C-6.7 5 -3.4 5 0 5 C0 3.35 0 1.7 0 0 Z " fill="#475962" transform="translate(230,190)"/>
<path d="M0 0 C3.3 0 6.6 0 10 0 C10 3.3 10 6.6 10 10 C8.35 10 6.7 10 5 10 C5 11.65 5 13.3 5 15 C2.36 15 -0.28 15 -3 15 C-2.34 14.67 -1.68 14.34 -1 14 C-0.52998967 10.72444392 -0.52998967 10.72444392 -0.375 6.9375 C-0.30023438 5.64714844 -0.22546875 4.35679687 -0.1484375 3.02734375 C-0.09945313 2.02832031 -0.05046875 1.02929688 0 0 Z " fill="#35474F" transform="translate(275,140)"/>
<path d="M0 0 C0 6.6 0 13.2 0 20 C-1.65 20 -3.3 20 -5 20 C-5 18.35 -5 16.7 -5 15 C-6.65 15 -8.3 15 -10 15 C-10 13.35 -10 11.7 -10 10 C-8.35 10 -6.7 10 -5 10 C-4.95101563 9.36191406 -4.90203125 8.72382813 -4.8515625 8.06640625 C-4.77679688 7.24011719 -4.70203125 6.41382813 -4.625 5.5625 C-4.55539062 4.73878906 -4.48578125 3.91507813 -4.4140625 3.06640625 C-4.27742188 2.38449219 -4.14078125 1.70257813 -4 1 C-2 0 -2 0 0 0 Z " fill="#465963" transform="translate(300,155)"/>
<path d="M0 0 C6.6 0 13.2 0 20 0 C20 1.65 20 3.3 20 5 C13.4 5 6.8 5 0 5 C0 3.35 0 1.7 0 0 Z " fill="#38464D" transform="translate(245,210)"/>
<path d="M0 0 C3.3 0 6.6 0 10 0 C10 3.3 10 6.6 10 10 C6.7 10 3.4 10 0 10 C0 6.7 0 3.4 0 0 Z " fill="#35474F" transform="translate(150,180)"/>
<path d="M0 0 C6.6 0 13.2 0 20 0 C20 1.65 20 3.3 20 5 C13.4 5 6.8 5 0 5 C0 3.35 0 1.7 0 0 Z " fill="#999FA2" transform="translate(150,155)"/>
<path d="M0 0 C3.3 0 6.6 0 10 0 C10 3.3 10 6.6 10 10 C6.7 10 3.4 10 0 10 C0 6.7 0 3.4 0 0 Z " fill="#9E9D9C" transform="translate(150,140)"/>
<path d="M0 0 C3.3 0 6.6 0 10 0 C10.09765625 6.93359375 10.09765625 6.93359375 10 9 C9 10 9 10 7.1875 10.1328125 C6.465625 10.13023437 5.74375 10.12765625 5 10.125 C4.278125 10.12757813 3.55625 10.13015625 2.8125 10.1328125 C1 10 1 10 0 9 C-0.14193337 5.99668982 -0.04236378 3.00782866 0 0 Z " fill="#536E7A" transform="translate(170,140)"/>
<path d="M0 0 C5.28 0 10.56 0 16 0 C15.67 1.65 15.34 3.3 15 5 C10.05 5 5.1 5 0 5 C0 3.35 0 1.7 0 0 Z " fill="#536E7A" transform="translate(135,165)"/>
<path d="M0 0 C1.65 0 3.3 0 5 0 C5 3.3 5 6.6 5 10 C1.7 10 -1.6 10 -5 10 C-5 8.35 -5 6.7 -5 5 C-3.35 5 -1.7 5 0 5 C0 3.35 0 1.7 0 0 Z " fill="#37464D" transform="translate(275,195)"/>
<path d="M0 0 C4.95 0 9.9 0 15 0 C15 1.65 15 3.3 15 5 C10.05 5 5.1 5 0 5 C0 3.35 0 1.7 0 0 Z " fill="#465962" transform="translate(230,190)"/>
<path d="M0 0 C1.65 0 3.3 0 5 0 C5 4.95 5 9.9 5 15 C3.35 15 1.7 15 0 15 C0 10.05 0 5.1 0 0 Z " fill="#465963" transform="translate(170,190)"/>
<path d="M0 0 C4.95 0 9.9 0 15 0 C15 1.65 15 3.3 15 5 C10.05 5 5.1 5 0 5 C0 3.35 0 1.7 0 0 Z " fill="#536F7A" transform="translate(130,175)"/>
<path d="M0 0 C4.95 0 9.9 0 15 0 C15 1.65 15 3.3 15 5 C10.05 5 5.1 5 0 5 C0 3.35 0 1.7 0 0 Z " fill="#354650" transform="translate(220,165)"/>
<path d="M0 0 C1.65 0 3.3 0 5 0 C5 4.95 5 9.9 5 15 C3.35 15 1.7 15 0 15 C0 10.05 0 5.1 0 0 Z " fill="#465961" transform="translate(265,155)"/>
<path d="M0 0 C1.65 0 3.3 0 5 0 C5 4.95 5 9.9 5 15 C3.35 15 1.7 15 0 15 C0 10.05 0 5.1 0 0 Z " fill="#627C88" transform="translate(295,140)"/>
<path d="M0 0 C4.95 0 9.9 0 15 0 C15 1.65 15 3.3 15 5 C10.05 5 5.1 5 0 5 C0 3.35 0 1.7 0 0 Z " fill="#94A0A6" transform="translate(190,110)"/>
<path d="M0 0 C1.65 0 3.3 0 5 0 C5 1.65 5 3.3 5 5 C3.68 5.33 2.36 5.66 1 6 C0.67 7.32 0.34 8.64 0 10 C-1.65 10 -3.3 10 -5 10 C-5 8.35 -5 6.7 -5 5 C-3.35 5 -1.7 5 0 5 C0 3.35 0 1.7 0 0 Z " fill="#24333B" transform="translate(260,165)"/>
<path d="M0 0 C3.3 0 6.6 0 10 0 C10 1.65 10 3.3 10 5 C6.7 5 3.4 5 0 5 C0 3.35 0 1.7 0 0 Z " fill="#000204" transform="translate(210,230)"/>
<path d="M0 0 C3.3 0 6.6 0 10 0 C10 1.65 10 3.3 10 5 C6.7 5 3.4 5 0 5 C0 3.35 0 1.7 0 0 Z " fill="#253239" transform="translate(180,220)"/>
<path d="M0 0 C3.3 0 6.6 0 10 0 C10 1.65 10 3.3 10 5 C6.7 5 3.4 5 0 5 C0 3.35 0 1.7 0 0 Z " fill="#37464F" transform="translate(165,210)"/>
<path d="M0 0 C3.3 0 6.6 0 10 0 C10 1.65 10 3.3 10 5 C6.7 5 3.4 5 0 5 C0 3.35 0 1.7 0 0 Z " fill="#465961" transform="translate(210,200)"/>
<path d="M0 0 C1.65 0 3.3 0 5 0 C5 3.3 5 6.6 5 10 C3.35 10 1.7 10 0 10 C0 6.7 0 3.4 0 0 Z " fill="#465862" transform="translate(255,180)"/>
<path d="M0 0 C1.65 0 3.3 0 5 0 C5 3.3 5 6.6 5 10 C3.35 10 1.7 10 0 10 C0 6.7 0 3.4 0 0 Z " fill="#475962" transform="translate(185,180)"/>
<path d="M0 0 C3.3 0 6.6 0 10 0 C10 1.65 10 3.3 10 5 C6.7 5 3.4 5 0 5 C0 3.35 0 1.7 0 0 Z " fill="#253239" transform="translate(245,175)"/>
<path d="M0 0 C3.3 0 6.6 0 10 0 C10 1.65 10 3.3 10 5 C6.7 5 3.4 5 0 5 C0 3.35 0 1.7 0 0 Z " fill="#37464E" transform="translate(245,170)"/>
<path d="M0 0 C3.3 0 6.6 0 10 0 C10 1.65 10 3.3 10 5 C6.7 5 3.4 5 0 5 C0 3.35 0 1.7 0 0 Z " fill="#35474F" transform="translate(210,170)"/>
<path d="M0 0 C3.3 0 6.6 0 10 0 C10 1.65 10 3.3 10 5 C6.7 5 3.4 5 0 5 C0 3.35 0 1.7 0 0 Z " fill="#455A64" transform="translate(185,170)"/>
<path d="M0 0 C3.3 0 6.6 0 10 0 C10 1.65 10 3.3 10 5 C6.7 5 3.4 5 0 5 C0 3.35 0 1.7 0 0 Z " fill="#24313A" transform="translate(275,165)"/>
<path d="M0 0 C3.3 0 6.6 0 10 0 C10 1.65 10 3.3 10 5 C6.7 5 3.4 5 0 5 C0 3.35 0 1.7 0 0 Z " fill="#435A64" transform="translate(270,135)"/>
<path d="M0 0 C3.3 0 6.6 0 10 0 C10 1.65 10 3.3 10 5 C6.7 5 3.4 5 0 5 C0 3.35 0 1.7 0 0 Z " fill="#637C87" transform="translate(220,105)"/>
<path d="M0 0 C1.32 0 2.64 0 4 0 C4 3.3 4 6.6 4 10 C2.35 10 0.7 10 -1 10 C-1.02689216 8.52093108 -1.04634621 7.04172517 -1.0625 5.5625 C-1.07410156 4.73878906 -1.08570313 3.91507813 -1.09765625 3.06640625 C-1 1 -1 1 0 0 Z " fill="#546E79" transform="translate(146,180)"/>
<path d="M0 0 C1.32 0 2.64 0 4 0 C4 3.3 4 6.6 4 10 C2.35 10 0.7 10 -1 10 C-1.02689216 8.52093108 -1.04634621 7.04172517 -1.0625 5.5625 C-1.07410156 4.73878906 -1.08570312 3.91507813 -1.09765625 3.06640625 C-1 1 -1 1 0 0 Z " fill="#647B86" transform="translate(126,170)"/>
<path d="M0 0 C3.3 0 6.6 0 10 0 C9.67 1.65 9.34 3.3 9 5 C6.03 5 3.06 5 0 5 C0 3.35 0 1.7 0 0 Z " fill="#475862" transform="translate(275,170)"/>
<path d="M0 0 C2.97 0 5.94 0 9 0 C9 1.65 9 3.3 9 5 C5.7 5 2.4 5 -1 5 C-0.67 3.35 -0.34 1.7 0 0 Z " fill="#526F7B" transform="translate(181,135)"/>
<path d="M0 0 C2.475 0.495 2.475 0.495 5 1 C5 3.64 5 6.28 5 9 C3.35 9.33 1.7 9.66 0 10 C0 6.7 0 3.4 0 0 Z " fill="#546E78" transform="translate(145,140)"/>
<path d="M0 0 C3.3 0 6.6 0 10 0 C8 2 8 2 5.375 2.125 C4.59125 2.08375 3.8075 2.0425 3 2 C2.25042843 5.47147842 2.25042843 5.47147842 2 9 C4.31 9 6.62 9 9 9 C9 7.35 9 5.7 9 4 C9.33 4 9.66 4 10 4 C10 5.98 10 7.96 10 10 C6.7 10 3.4 10 0 10 C0 6.7 0 3.4 0 0 Z " fill="#96A0A4" transform="translate(150,140)"/>
<path d="M0 0 C1.32 0.33 2.64 0.66 4 1 C3.34 1.66 2.68 2.32 2 3 C1.62995706 5.22658154 1.62995706 5.22658154 1.5859375 7.7890625 C1.54726562 8.73007813 1.50859375 9.67109375 1.46875 10.640625 C1.4378125 11.62546875 1.406875 12.6103125 1.375 13.625 C1.33632812 14.61757812 1.29765625 15.61015625 1.2578125 16.6328125 C1.1633686 19.08835385 1.07780125 21.5438841 1 24 C2.98 23.67 4.96 23.34 7 23 C7 23.66 7 24.32 7 25 C4.69 25 2.38 25 0 25 C0 16.75 0 8.5 0 0 Z " fill="#687B81" transform="translate(135,125)"/>
<path d="M0 0 C1.65 0 3.3 0 5 0 C5.33 1.98 5.66 3.96 6 6 C3.03 5.505 3.03 5.505 0 5 C0 3.35 0 1.7 0 0 Z " fill="#576E79" transform="translate(165,150)"/>
<path d="M0 0 C1.98 0 3.96 0 6 0 C6 1.65 6 3.3 6 5 C4.35 5 2.7 5 1 5 C0.67 3.35 0.34 1.7 0 0 Z " fill="#576E7A" transform="translate(164,135)"/>
<path d="M0 0 C1.65 0 3.3 0 5 0 C5 1.65 5 3.3 5 5 C3.35 5 1.7 5 0 5 C0 3.35 0 1.7 0 0 Z " fill="#000306" transform="translate(240,230)"/>
<path d="M0 0 C1.65 0 3.3 0 5 0 C5 1.65 5 3.3 5 5 C3.35 5 1.7 5 0 5 C0 3.35 0 1.7 0 0 Z " fill="#37464D" transform="translate(230,225)"/>
<path d="M0 0 C1.65 0 3.3 0 5 0 C5 1.65 5 3.3 5 5 C3.35 5 1.7 5 0 5 C0 3.35 0 1.7 0 0 Z " fill="#36464F" transform="translate(230,190)"/>
<path d="M0 0 C1.65 0 3.3 0 5 0 C5 1.65 5 3.3 5 5 C3.35 5 1.7 5 0 5 C0 3.35 0 1.7 0 0 Z " fill="#37474E" transform="translate(210,190)"/>
<path d="M0 0 C1.65 0 3.3 0 5 0 C5 1.65 5 3.3 5 5 C3.35 5 1.7 5 0 5 C0 3.35 0 1.7 0 0 Z " fill="#475863" transform="translate(180,190)"/>
<path d="M0 0 C1.65 0 3.3 0 5 0 C5 1.65 5 3.3 5 5 C3.35 5 1.7 5 0 5 C0 3.35 0 1.7 0 0 Z " fill="#465963" transform="translate(195,175)"/>
<path d="M0 0 C1.65 0 3.3 0 5 0 C5 1.65 5 3.3 5 5 C3.35 5 1.7 5 0 5 C0 3.35 0 1.7 0 0 Z " fill="#354750" transform="translate(195,170)"/>
<path d="M0 0 C1.65 0 3.3 0 5 0 C5 1.65 5 3.3 5 5 C3.35 5 1.7 5 0 5 C0 3.35 0 1.7 0 0 Z " fill="#435A66" transform="translate(195,165)"/>
<path d="M0 0 C1.65 0 3.3 0 5 0 C5 1.65 5 3.3 5 5 C3.35 5 1.7 5 0 5 C0 3.35 0 1.7 0 0 Z " fill="#33474F" transform="translate(245,155)"/>
<path d="M0 0 C1.65 0 3.3 0 5 0 C5 1.65 5 3.3 5 5 C3.35 5 1.7 5 0 5 C0 3.35 0 1.7 0 0 Z " fill="#546E78" transform="translate(240,155)"/>
<path d="M0 0 C1.65 0 3.3 0 5 0 C5 1.65 5 3.3 5 5 C3.35 5 1.7 5 0 5 C0 3.35 0 1.7 0 0 Z " fill="#334852" transform="translate(270,135)"/>
<path d="M0 0 C1.65 0 3.3 0 5 0 C5 1.65 5 3.3 5 5 C3.35 5 1.7 5 0 5 C0 3.35 0 1.7 0 0 Z " fill="#999FA1" transform="translate(195,120)"/>
<path d="M0 0 C1.65 0 3.3 0 5 0 C5 1.65 5 3.3 5 5 C3.35 5 1.7 5 0 5 C0 3.35 0 1.7 0 0 Z " fill="#697B83" transform="translate(190,110)"/>
<path d="M0 0 C1.65 0 3.3 0 5 0 C5 1.65 5 3.3 5 5 C3.35 5 1.7 5 0 5 C0 3.35 0 1.7 0 0 Z " fill="#979FA7" transform="translate(200,100)"/>
<path d="M0 0 C1.32 0 2.64 0 4 0 C4 1.65 4 3.3 4 5 C2.35 5 0.7 5 -1 5 C-0.67 3.35 -0.34 1.7 0 0 Z " fill="#3C454A" transform="translate(206,230)"/>
<path d="M0 0 C1.32 0 2.64 0 4 0 C4 1.65 4 3.3 4 5 C2.35 5 0.7 5 -1 5 C-0.67 3.35 -0.34 1.7 0 0 Z " fill="#536F79" transform="translate(126,170)"/>
<path d="M0 0 C1.65 0 3.3 0 5 0 C5 1.65 5 3.3 5 5 C3.35 4.67 1.7 4.34 0 4 C0 2.68 0 1.36 0 0 Z " fill="#344650" transform="translate(235,160)"/>
<path d="M0 0 C1.65 0 3.3 0 5 0 C4.67 1.65 4.34 3.3 4 5 C2.68 5 1.36 5 0 5 C0 3.35 0 1.7 0 0 Z " fill="#465963" transform="translate(260,150)"/>
<path d="M0 0 C1.65 0 3.3 0 5 0 C4.67 1.65 4.34 3.3 4 5 C2.68 5 1.36 5 0 5 C0 3.35 0 1.7 0 0 Z " fill="#556E79" transform="translate(250,150)"/>
<path d="M0 0 C1.65 0 3.3 0 5 0 C4.67 1.65 4.34 3.3 4 5 C2.68 5 1.36 5 0 5 C0 3.35 0 1.7 0 0 Z " fill="#536F7B" transform="translate(180,150)"/>
<path d="M0 0 C2.475 0.495 2.475 0.495 5 1 C5 2.32 5 3.64 5 5 C3.35 5 1.7 5 0 5 C0 3.35 0 1.7 0 0 Z " fill="#617D88" transform="translate(260,135)"/>
<path d="M0 0 C0.66 0 1.32 0 2 0 C2 1.32 2 2.64 2 4 C-3.28 4 -8.56 4 -14 4 C-14 3.67 -14 3.34 -14 3 C-9.38 2.67 -4.76 2.34 0 2 C0 1.34 0 0.68 0 0 Z " fill="#687A81" transform="translate(183,106)"/>
<path d="M0 0 C1.65 0 3.3 0 5 0 C5 1.65 5 3.3 5 5 C3.35 4.67 1.7 4.34 0 4 C0 2.68 0 1.36 0 0 Z " fill="#526E7B" transform="translate(205,160)"/>
<path d="M0 0 C1.65 0 3.3 0 5 0 C4.67 1.65 4.34 3.3 4 5 C2.68 4.67 1.36 4.34 0 4 C0 2.68 0 1.36 0 0 Z " fill="#617C89" transform="translate(215,120)"/>
<path d="M0 0 C2.475 0.495 2.475 0.495 5 1 C4.34 2.32 3.68 3.64 3 5 C2.01 4.67 1.02 4.34 0 4 C0 2.68 0 1.36 0 0 Z " fill="#576C74" transform="translate(170,130)"/>
<path d="M0 0 C0.66 0.99 1.32 1.98 2 3 C1 4 1 4 -1.5625 4.0625 C-2.7690625 4.0315625 -2.7690625 4.0315625 -4 4 C-4 3.01 -4 2.02 -4 1 C-2.68 0.67 -1.36 0.34 0 0 Z " fill="#9D9D9E" transform="translate(201,110)"/>
</svg>
