<?xml version="1.0" encoding="UTF-8"?>
<svg version="1.1" xmlns="http://www.w3.org/2000/svg" width="500" height="500">
<path d="M0 0 C1.65 0 3.3 0 5 0 C5 1.65 5 3.3 5 5 C6.65 5 8.3 5 10 5 C10 6.65 10 8.3 10 10 C11.65 10 13.3 10 15 10 C15 11.65 15 13.3 15 15 C16.65 15 18.3 15 20 15 C20 13.35 20 11.7 20 10 C21.65 10 23.3 10 25 10 C25 8.35 25 6.7 25 5 C36.55 5 48.1 5 60 5 C60 6.65 60 8.3 60 10 C63.3 10 66.6 10 70 10 C70 8.35 70 6.7 70 5 C71.65 5 73.3 5 75 5 C75 3.35 75 1.7 75 0 C76.65 0 78.3 0 80 0 C80 1.65 80 3.3 80 5 C81.65 5 83.3 5 85 5 C85 11.6 85 18.2 85 25 C83.35 25 81.7 25 80 25 C80 28.3 80 31.6 80 35 C81.65 35 83.3 35 85 35 C85 41.6 85 48.2 85 55 C86.65 55 88.3 55 90 55 C90 58.3 90 61.6 90 65 C88.35 65 86.7 65 85 65 C85 66.65 85 68.3 85 70 C83.35 70 81.7 70 80 70 C80 74.95 80 79.9 80 85 C81.65 85 83.3 85 85 85 C85 88.3 85 91.6 85 95 C86.65 95 88.3 95 90 95 C90 103.25 90 111.5 90 120 C88.35 120 86.7 120 85 120 C85 121.65 85 123.3 85 125 C83.35 125 81.7 125 80 125 C80 123.35 80 121.7 80 120 C78.35 120 76.7 120 75 120 C75 121.65 75 123.3 75 125 C73.35 125 71.7 125 70 125 C70 123.35 70 121.7 70 120 C68.35 120 66.7 120 65 120 C65 123.3 65 126.6 65 130 C66.65 130 68.3 130 70 130 C70 131.65 70 133.3 70 135 C68.35 135 66.7 135 65 135 C65 136.65 65 138.3 65 140 C60.05 140 55.1 140 50 140 C50 138.35 50 136.7 50 135 C48.35 135 46.7 135 45 135 C45 133.35 45 131.7 45 130 C40.05 130 35.1 130 30 130 C30 131.65 30 133.3 30 135 C28.35 135 26.7 135 25 135 C25 136.65 25 138.3 25 140 C20.05 140 15.1 140 10 140 C10 138.35 10 136.7 10 135 C8.35 135 6.7 135 5 135 C5 133.35 5 131.7 5 130 C6.65 130 8.3 130 10 130 C10 126.7 10 123.4 10 120 C8.35 120 6.7 120 5 120 C5 121.65 5 123.3 5 125 C3.35 125 1.7 125 0 125 C0 126.65 0 128.3 0 130 C-1.65 130 -3.3 130 -5 130 C-5 128.35 -5 126.7 -5 125 C-8.3 125 -11.6 125 -15 125 C-15 123.35 -15 121.7 -15 120 C-16.65 120 -18.3 120 -20 120 C-20 106.8 -20 93.6 -20 80 C-18.35 80 -16.7 80 -15 80 C-15 76.7 -15 73.4 -15 70 C-13.35 70 -11.7 70 -10 70 C-10 63.4 -10 56.8 -10 50 C-8.35 50 -6.7 50 -5 50 C-5 46.7 -5 43.4 -5 40 C-3.35 40 -1.7 40 0 40 C0 38.35 0 36.7 0 35 C1.65 35 3.3 35 5 35 C5 33.35 5 31.7 5 30 C3.35 30 1.7 30 0 30 C0 28.35 0 26.7 0 25 C-1.65 25 -3.3 25 -5 25 C-5 18.4 -5 11.8 -5 5 C-3.35 5 -1.7 5 0 5 C0 3.35 0 1.7 0 0 Z M45 76 C45 76.99 45 77.98 45 79 C46.32 79 47.64 79 49 79 C49 78.01 49 77.02 49 76 C47.68 76 46.36 76 45 76 Z M56 76 C56 76.99 56 77.98 56 79 C58.64 79 61.28 79 64 79 C64 78.01 64 77.02 64 76 C61.36 76 58.72 76 56 76 Z M71 76 C71 76.99 71 77.98 71 79 C71.99 79 72.98 79 74 79 C74 78.01 74 77.02 74 76 C73.01 76 72.02 76 71 76 Z M71 115 C71 116.65 71 118.3 71 120 C71.99 120 72.98 120 74 120 C74 118.35 74 116.7 74 115 C73.01 115 72.02 115 71 115 Z M80 115 C80.33 116.65 80.66 118.3 81 120 C82.32 120 83.64 120 85 120 C85 118.35 85 116.7 85 115 C83.35 115 81.7 115 80 115 Z M-4 121 C-2.515 121.99 -2.515 121.99 -1 123 C-1 122.34 -1 121.68 -1 121 C-1.99 121 -2.98 121 -4 121 Z M22 130 C21.67 131.65 21.34 133.3 21 135 C22.32 135 23.64 135 25 135 C25 133.68 25 132.36 25 131 C24.01 130.67 23.02 130.34 22 130 Z M62 130 C61.67 130.99 61.34 131.98 61 133 C61.99 133.33 62.98 133.66 64 134 C64 132.68 64 131.36 64 130 C63.34 130 62.68 130 62 130 Z " fill="#594687" transform="translate(215,180)"/>
<path d="M0 0 C1.65 0 3.3 0 5 0 C5 6.6 5 13.2 5 20 C6.65 20 8.3 20 10 20 C10 23.3 10 26.6 10 30 C8.35 30 6.7 30 5 30 C5 31.65 5 33.3 5 35 C3.35 35 1.7 35 0 35 C0 39.95 0 44.9 0 50 C1.65 50 3.3 50 5 50 C5 53.3 5 56.6 5 60 C6.65 60 8.3 60 10 60 C10 68.25 10 76.5 10 85 C8.35 85 6.7 85 5 85 C5 86.65 5 88.3 5 90 C3.35 90 1.7 90 0 90 C0 88.35 0 86.7 0 85 C-1.65 85 -3.3 85 -5 85 C-5 86.65 -5 88.3 -5 90 C-6.65 90 -8.3 90 -10 90 C-10 88.35 -10 86.7 -10 85 C-11.65 85 -13.3 85 -15 85 C-15 88.3 -15 91.6 -15 95 C-13.35 95 -11.7 95 -10 95 C-10 96.65 -10 98.3 -10 100 C-11.65 100 -13.3 100 -15 100 C-15 101.65 -15 103.3 -15 105 C-19.95 105 -24.9 105 -30 105 C-30 103.35 -30 101.7 -30 100 C-31.65 100 -33.3 100 -35 100 C-35 98.35 -35 96.7 -35 95 C-39.95 95 -44.9 95 -50 95 C-50 96.65 -50 98.3 -50 100 C-51.65 100 -53.3 100 -55 100 C-55 101.65 -55 103.3 -55 105 C-59.95 105 -64.9 105 -70 105 C-70 103.35 -70 101.7 -70 100 C-71.65 100 -73.3 100 -75 100 C-75 98.35 -75 96.7 -75 95 C-73.35 95 -71.7 95 -70 95 C-70 91.7 -70 88.4 -70 85 C-71.65 85 -73.3 85 -75 85 C-75 86.65 -75 88.3 -75 90 C-76.65 90 -78.3 90 -80 90 C-80 86.7 -80 83.4 -80 80 C-78.35 80 -76.7 80 -75 80 C-75 73.4 -75 66.8 -75 60 C-73.02 59.505 -73.02 59.505 -71 59 C-70.67 54.38 -70.34 49.76 -70 45 C-68.35 45 -66.7 45 -65 45 C-65 54.9 -65 64.8 -65 75 C-63.35 75 -61.7 75 -60 75 C-60 76.65 -60 78.3 -60 80 C-58.35 80 -56.7 80 -55 80 C-55 81.65 -55 83.3 -55 85 C-45.1 85 -35.2 85 -25 85 C-25 83.35 -25 81.7 -25 80 C-21.7 80 -18.4 80 -15 80 C-15 71.75 -15 63.5 -15 55 C-19.95 55 -24.9 55 -30 55 C-30 53.35 -30 51.7 -30 50 C-21.75 50 -13.5 50 -5 50 C-5 46.7 -5 43.4 -5 40 C-6.65 40 -8.3 40 -10 40 C-10 41.65 -10 43.3 -10 45 C-11.65 45 -13.3 45 -15 45 C-15 43.35 -15 41.7 -15 40 C-18.3 40 -21.6 40 -25 40 C-25 41.65 -25 43.3 -25 45 C-26.65 45 -28.3 45 -30 45 C-30 43.35 -30 41.7 -30 40 C-31.65 40 -33.3 40 -35 40 C-35 41.65 -35 43.3 -35 45 C-36.65 45 -38.3 45 -40 45 C-40 43.35 -40 41.7 -40 40 C-41.65 40 -43.3 40 -45 40 C-45 38.35 -45 36.7 -45 35 C-48.3 35 -51.6 35 -55 35 C-55 33.35 -55 31.7 -55 30 C-56.65 30 -58.3 30 -60 30 C-60 26.7 -60 23.4 -60 20 C-57.03 20 -54.06 20 -51 20 C-51 16.7 -51 13.4 -51 10 C-49.02 10 -47.04 10 -45 10 C-45 13.3 -45 16.6 -45 20 C-41.7 20 -38.4 20 -35 20 C-35 21.98 -35 23.96 -35 26 C-38.96 26 -42.92 26 -47 26 C-47.495 24.02 -47.495 24.02 -48 22 C-48.66 21.67 -49.32 21.34 -50 21 C-50 23.97 -50 26.94 -50 30 C-46.7 30 -43.4 30 -40 30 C-40 31.32 -40 32.64 -40 34 C-36.37 34 -32.74 34 -29 34 C-29.495 29.545 -29.495 29.545 -30 25 C-28.35 25 -26.7 25 -25 25 C-24.75 30.625 -24.75 30.625 -27 34 C-24.49641128 33.51792644 -24.49641128 33.51792644 -22 32 C-20.62032476 28.46485707 -20.62032476 28.46485707 -20 25 C-19.030625 24.87625 -18.06125 24.7525 -17.0625 24.625 C-16.051875 24.41875 -15.04125 24.2125 -14 24 C-13.67 23.34 -13.34 22.68 -13 22 C-13.99 21.01 -13.99 21.01 -15 20 C-15.1953125 17.6171875 -15.1953125 17.6171875 -15.125 14.875 C-15.10695313 13.96492187 -15.08890625 13.05484375 -15.0703125 12.1171875 C-15.04710937 11.41851562 -15.02390625 10.71984375 -15 10 C-13.35 10 -11.7 10 -10 10 C-10 8.35 -10 6.7 -10 5 C-6.7 5 -3.4 5 0 5 C0 3.35 0 1.7 0 0 Z M-9 80 C-9 81.65 -9 83.3 -9 85 C-8.01 85 -7.02 85 -6 85 C-6 83.35 -6 81.7 -6 80 C-6.99 80 -7.98 80 -9 80 Z M0 80 C0.33 81.65 0.66 83.3 1 85 C2.32 85 3.64 85 5 85 C5 83.35 5 81.7 5 80 C3.35 80 1.7 80 0 80 Z M-58 95 C-58.33 96.65 -58.66 98.3 -59 100 C-57.68 100 -56.36 100 -55 100 C-55 98.68 -55 97.36 -55 96 C-55.99 95.67 -56.98 95.34 -58 95 Z M-18 95 C-18.33 95.99 -18.66 96.98 -19 98 C-18.01 98.33 -17.02 98.66 -16 99 C-16 97.68 -16 96.36 -16 95 C-16.66 95 -17.32 95 -18 95 Z " fill="#3E3161" transform="translate(295,215)"/>
<path d="M0 0 C1.65 0 3.3 0 5 0 C5 9.9 5 19.8 5 30 C6.65 30 8.3 30 10 30 C10 31.65 10 33.3 10 35 C11.65 35 13.3 35 15 35 C15 36.65 15 38.3 15 40 C24.9 40 34.8 40 45 40 C45 38.35 45 36.7 45 35 C46.65 35 48.3 35 50 35 C50.06058594 35.96421875 50.12117188 36.9284375 50.18359375 37.921875 C50.26738281 39.18515625 50.35117187 40.4484375 50.4375 41.75 C50.51871094 43.00296875 50.59992188 44.2559375 50.68359375 45.546875 C51.00837412 49.35294774 51.00837412 49.35294774 52 53 C52.99 53.495 52.99 53.495 54 54 C54 52.68 54 51.36 54 50 C55.98 50 57.96 50 60 50 C60 51.65 60 53.3 60 55 C58.35 55 56.7 55 55 55 C55 56.65 55 58.3 55 60 C50.05 60 45.1 60 40 60 C40 58.35 40 56.7 40 55 C38.35 55 36.7 55 35 55 C35 53.35 35 51.7 35 50 C30.05 50 25.1 50 20 50 C20 51.65 20 53.3 20 55 C18.35 55 16.7 55 15 55 C15 56.65 15 58.3 15 60 C10.05 60 5.1 60 0 60 C0 58.35 0 56.7 0 55 C-1.65 55 -3.3 55 -5 55 C-5 53.35 -5 51.7 -5 50 C-3.35 50 -1.7 50 0 50 C0 46.7 0 43.4 0 40 C-1.65 40 -3.3 40 -5 40 C-5 41.65 -5 43.3 -5 45 C-6.65 45 -8.3 45 -10 45 C-10 41.7 -10 38.4 -10 35 C-8.35 35 -6.7 35 -5 35 C-5 28.4 -5 21.8 -5 15 C-3.68 14.67 -2.36 14.34 -1 14 C-0.67 9.38 -0.34 4.76 0 0 Z M12 50 C11.67 51.65 11.34 53.3 11 55 C12.32 55 13.64 55 15 55 C15 53.68 15 52.36 15 51 C14.01 50.67 13.02 50.34 12 50 Z " fill="#3E3061" transform="translate(225,260)"/>
<path d="M0 0 C1.65 0 3.3 0 5 0 C5 1.65 5 3.3 5 5 C6.65 5 8.3 5 10 5 C10 6.65 10 8.3 10 10 C8.35 10 6.7 10 5 10 C5 11.65 5 13.3 5 15 C3.35 15 1.7 15 0 15 C0 19.95 0 24.9 0 30 C-1.65 30 -3.3 30 -5 30 C-5 33.3 -5 36.6 -5 40 C-6.65 40 -8.3 40 -10 40 C-10 44.62 -10 49.24 -10 54 C-12.475 54.495 -12.475 54.495 -15 55 C-15 64.9 -15 74.8 -15 85 C-13.35 85 -11.7 85 -10 85 C-10 88.3 -10 91.6 -10 95 C-13.3 95 -16.6 95 -20 95 C-20 93.35 -20 91.7 -20 90 C-21.65 90 -23.3 90 -25 90 C-25 76.8 -25 63.6 -25 50 C-23.35 50 -21.7 50 -20 50 C-20 46.7 -20 43.4 -20 40 C-18.35 40 -16.7 40 -15 40 C-15 33.4 -15 26.8 -15 20 C-13.35 20 -11.7 20 -10 20 C-10 16.7 -10 13.4 -10 10 C-8.35 10 -6.7 10 -5 10 C-5 8.35 -5 6.7 -5 5 C-3.35 5 -1.7 5 0 5 C0 3.35 0 1.7 0 0 Z " fill="#3E3164" transform="translate(220,210)"/>
<path d="M0 0 C1.65 0 3.3 0 5 0 C5 6.6 5 13.2 5 20 C6.65 20 8.3 20 10 20 C10 23.3 10 26.6 10 30 C8.35 30 6.7 30 5 30 C5 31.65 5 33.3 5 35 C-14.8 35 -34.6 35 -55 35 C-55 33.35 -55 31.7 -55 30 C-56.65 30 -58.3 30 -60 30 C-60 26.7 -60 23.4 -60 20 C-57.03 20 -54.06 20 -51 20 C-51 16.7 -51 13.4 -51 10 C-49.02 10 -47.04 10 -45 10 C-45 13.3 -45 16.6 -45 20 C-41.7 20 -38.4 20 -35 20 C-35 21.98 -35 23.96 -35 26 C-38.96 26 -42.92 26 -47 26 C-47.33 24.68 -47.66 23.36 -48 22 C-48.66 21.67 -49.32 21.34 -50 21 C-50 23.97 -50 26.94 -50 30 C-46.7 30 -43.4 30 -40 30 C-40 31.32 -40 32.64 -40 34 C-36.37 34 -32.74 34 -29 34 C-29.33 31.03 -29.66 28.06 -30 25 C-28.35 25 -26.7 25 -25 25 C-24.75 30.625 -24.75 30.625 -27 34 C-24.49641128 33.51792644 -24.49641128 33.51792644 -22 32 C-20.62032476 28.46485707 -20.62032476 28.46485707 -20 25 C-19.030625 24.87625 -18.06125 24.7525 -17.0625 24.625 C-16.051875 24.41875 -15.04125 24.2125 -14 24 C-13.67 23.34 -13.34 22.68 -13 22 C-13.66 21.34 -14.32 20.68 -15 20 C-15.1953125 17.6171875 -15.1953125 17.6171875 -15.125 14.875 C-15.10695313 13.96492187 -15.08890625 13.05484375 -15.0703125 12.1171875 C-15.04710937 11.41851562 -15.02390625 10.71984375 -15 10 C-13.35 10 -11.7 10 -10 10 C-10 8.35 -10 6.7 -10 5 C-6.7 5 -3.4 5 0 5 C0 3.35 0 1.7 0 0 Z " fill="#584783" transform="translate(295,215)"/>
<path d="M0 0 C9.9 0 19.8 0 30 0 C30 6.6 30 13.2 30 20 C26.7 20 23.4 20 20 20 C20 18.35 20 16.7 20 15 C18.35 15 16.7 15 15 15 C15 16.65 15 18.3 15 20 C13.35 20 11.7 20 10 20 C10 18.35 10 16.7 10 15 C6.7 15 3.4 15 0 15 C0 13.35 0 11.7 0 10 C-3.3 10 -6.6 10 -10 10 C-10 8.35 -10 6.7 -10 5 C-6.7 5 -3.4 5 0 5 C0 3.35 0 1.7 0 0 Z " fill="#806EAA" transform="translate(255,190)"/>
<path d="M0 0 C1.65 0 3.3 0 5 0 C5 1.65 5 3.3 5 5 C6.65 5 8.3 5 10 5 C10 6.65 10 8.3 10 10 C11.65 10 13.3 10 15 10 C15 13.3 15 16.6 15 20 C16.65 20 18.3 20 20 20 C20 23.3 20 26.6 20 30 C18.35 30 16.7 30 15 30 C15 31.65 15 33.3 15 35 C13.35 35 11.7 35 10 35 C10 33.35 10 31.7 10 30 C6.7 30 3.4 30 0 30 C0 28.35 0 26.7 0 25 C-1.65 25 -3.3 25 -5 25 C-5 18.4 -5 11.8 -5 5 C-3.35 5 -1.7 5 0 5 C0 3.35 0 1.7 0 0 Z " fill="#C0BFC1" transform="translate(215,180)"/>
<path d="M0 0 C2.97 0 5.94 0 9 0 C9 3.3 9 6.6 9 10 C10.65 10 12.3 10 14 10 C14 18.25 14 26.5 14 35 C12.35 35 10.7 35 9 35 C9 36.65 9 38.3 9 40 C7.35 40 5.7 40 4 40 C4 38.35 4 36.7 4 35 C2.35 35 0.7 35 -1 35 C-1 36.65 -1 38.3 -1 40 C-2.65 40 -4.3 40 -6 40 C-6 36.37 -6 32.74 -6 29 C-4.68 29 -3.36 29 -2 29 C-1.96241577 28.00202393 -1.96241577 28.00202393 -1.92407227 26.98388672 C-1.80748864 23.94742513 -1.68504649 20.91122654 -1.5625 17.875 C-1.52318359 16.82828125 -1.48386719 15.7815625 -1.44335938 14.703125 C-1.23868904 9.72806158 -1.00723793 4.89229851 0 0 Z M-5 30 C-5 31.65 -5 33.3 -5 35 C-4.01 35 -3.02 35 -2 35 C-2 33.35 -2 31.7 -2 30 C-2.99 30 -3.98 30 -5 30 Z M4 30 C4.33 31.65 4.66 33.3 5 35 C6.32 35 7.64 35 9 35 C9 33.35 9 31.7 9 30 C7.35 30 5.7 30 4 30 Z " fill="#574783" transform="translate(291,265)"/>
<path d="M0 0 C1.65 0 3.3 0 5 0 C5 6.6 5 13.2 5 20 C6.65 20 8.3 20 10 20 C10 26.6 10 33.2 10 40 C13.3 40 16.6 40 20 40 C20 41.65 20 43.3 20 45 C15.05 45 10.1 45 5 45 C5 43.35 5 41.7 5 40 C3.35 40 1.7 40 0 40 C0 38.35 0 36.7 0 35 C1.65 35 3.3 35 5 35 C5 31.7 5 28.4 5 25 C3.35 25 1.7 25 0 25 C0 26.65 0 28.3 0 30 C-1.65 30 -3.3 30 -5 30 C-5 26.7 -5 23.4 -5 20 C-3.35 20 -1.7 20 0 20 C0 13.4 0 6.8 0 0 Z " fill="#080314" transform="translate(220,275)"/>
<path d="M0 0 C11.55 0 23.1 0 35 0 C35 1.65 35 3.3 35 5 C28.4 5 21.8 5 15 5 C15 6.65 15 8.3 15 10 C11.37 10 7.74 10 4 10 C4 10.99 4 11.98 4 13 C3.34 13 2.68 13 2 13 C1.67 15.31 1.34 17.62 1 20 C-0.98 20 -2.96 20 -5 20 C-5 18.35 -5 16.7 -5 15 C-6.65 15 -8.3 15 -10 15 C-10 13.35 -10 11.7 -10 10 C-8.35 10 -6.7 10 -5 10 C-5 8.35 -5 6.7 -5 5 C-3.35 5 -1.7 5 0 5 C0 3.35 0 1.7 0 0 Z " fill="#52447A" transform="translate(240,185)"/>
<path d="M0 0 C14.85 0 29.7 0 45 0 C45 4.95 45 9.9 45 15 C43.35 15 41.7 15 40 15 C40 11.7 40 8.4 40 5 C38.35 5 36.7 5 35 5 C35 6.65 35 8.3 35 10 C33.35 10 31.7 10 30 10 C30 8.35 30 6.7 30 5 C26.7 5 23.4 5 20 5 C20 6.65 20 8.3 20 10 C18.35 10 16.7 10 15 10 C15 8.35 15 6.7 15 5 C13.35 5 11.7 5 10 5 C10 6.65 10 8.3 10 10 C8.35 10 6.7 10 5 10 C5 8.35 5 6.7 5 5 C3.35 5 1.7 5 0 5 C0 3.35 0 1.7 0 0 Z " fill="#070411" transform="translate(250,250)"/>
<path d="M0 0 C1.65 0 3.3 0 5 0 C5 6.6 5 13.2 5 20 C6.65 20 8.3 20 10 20 C10 23.3 10 26.6 10 30 C8.35 30 6.7 30 5 30 C5 31.65 5 33.3 5 35 C3.35 35 1.7 35 0 35 C0 32.03 0 29.06 0 26 C-3.3 26 -6.6 26 -10 26 C-10 24.02 -10 22.04 -10 20 C-6.7 20 -3.4 20 0 20 C0 16.7 0 13.4 0 10 C-3.3 10 -6.6 10 -10 10 C-10 8.35 -10 6.7 -10 5 C-6.7 5 -3.4 5 0 5 C0 3.35 0 1.7 0 0 Z " fill="#3D325B" transform="translate(295,215)"/>
<path d="M0 0 C1.65 0 3.3 0 5 0 C5 1.65 5 3.3 5 5 C6.65 5 8.3 5 10 5 C10 11.6 10 18.2 10 25 C6.7 25 3.4 25 0 25 C0 23.35 0 21.7 0 20 C-1.65 20 -3.3 20 -5 20 C-5 15.05 -5 10.1 -5 5 C-3.35 5 -1.7 5 0 5 C0 3.35 0 1.7 0 0 Z " fill="#BFBEC0" transform="translate(290,180)"/>
<path d="M0 0 C1.98 0 3.96 0 6 0 C6 3.3 6 6.6 6 10 C9.3 10 12.6 10 16 10 C16 11.98 16 13.96 16 16 C12.04 16 8.08 16 4 16 C3.67 14.68 3.34 13.36 3 12 C2.34 11.67 1.68 11.34 1 11 C1 13.97 1 16.94 1 20 C2.65 20 4.3 20 6 20 C6 21.65 6 23.3 6 25 C2.7 25 -0.6 25 -4 25 C-4 23.35 -4 21.7 -4 20 C-5.65 20 -7.3 20 -9 20 C-9 16.7 -9 13.4 -9 10 C-6.03 10 -3.06 10 0 10 C0 6.7 0 3.4 0 0 Z " fill="#4B3D6E" transform="translate(244,225)"/>
<path d="M0 0 C1.65 0 3.3 0 5 0 C5 1.65 5 3.3 5 5 C6.65 5 8.3 5 10 5 C10 3.35 10 1.7 10 0 C13.3 0 16.6 0 20 0 C20 1.65 20 3.3 20 5 C21.65 5 23.3 5 25 5 C25 3.35 25 1.7 25 0 C26.65 0 28.3 0 30 0 C30 3.3 30 6.6 30 10 C19.77 10 9.54 10 -1 10 C-1.33 9.01 -1.66 8.02 -2 7 C-1.34 6.01 -0.68 5.02 0 4 C1.32 4 2.64 4 4 4 C4 3.01 4 2.02 4 1 C2.68 0.67 1.36 0.34 0 0 Z M11 1 C11 1.99 11 2.98 11 4 C13.64 4 16.28 4 19 4 C19 3.01 19 2.02 19 1 C16.36 1 13.72 1 11 1 Z M26 1 C26 1.99 26 2.98 26 4 C26.99 4 27.98 4 29 4 C29 3.01 29 2.02 29 1 C28.01 1 27.02 1 26 1 Z " fill="#746795" transform="translate(260,255)"/>
<path d="M0 0 C1.65 0 3.3 0 5 0 C5 13.2 5 26.4 5 40 C3.35 40 1.7 40 0 40 C0 26.8 0 13.6 0 0 Z " fill="#080511" transform="translate(195,260)"/>
<path d="M0 0 C11.22 0 22.44 0 34 0 C34 1.65 34 3.3 34 5 C22.78 5 11.56 5 0 5 C0 3.35 0 1.7 0 0 Z " fill="#030309" transform="translate(241,185)"/>
<path d="M0 0 C1.65 0 3.3 0 5 0 C5.125 6.75 5.125 6.75 4 9 C2.68 9 1.36 9 0 9 C0 10.98 0 12.96 0 15 C-1.65 15 -3.3 15 -5 15 C-5 18.3 -5 21.6 -5 25 C-6.65 24.67 -8.3 24.34 -10 24 C-10 19.38 -10 14.76 -10 10 C-8.35 10 -6.7 10 -5 10 C-5 8.35 -5 6.7 -5 5 C-3.35 5 -1.7 5 0 5 C0 3.35 0 1.7 0 0 Z " fill="#090515" transform="translate(285,285)"/>
<path d="M0 0 C1.65 0 3.3 0 5 0 C5 8.25 5 16.5 5 25 C3.35 25 1.7 25 0 25 C0 23.35 0 21.7 0 20 C-1.65 20 -3.3 20 -5 20 C-5 18.35 -5 16.7 -5 15 C-3.35 15 -1.7 15 0 15 C0 10.05 0 5.1 0 0 Z " fill="#08070E" transform="translate(300,275)"/>
<path d="M0 0 C3.3 0 6.6 0 10 0 C10 1.65 10 3.3 10 5 C14.95 5 19.9 5 25 5 C25 6.65 25 8.3 25 10 C18.4 10 11.8 10 5 10 C5 8.35 5 6.7 5 5 C3.35 5 1.7 5 0 5 C0 3.35 0 1.7 0 0 Z " fill="#3E3063" transform="translate(255,265)"/>
<path d="M0 0 C8.25 0 16.5 0 25 0 C25 1.65 25 3.3 25 5 C23.35 5 21.7 5 20 5 C20 6.65 20 8.3 20 10 C18.35 10 16.7 10 15 10 C15 8.35 15 6.7 15 5 C10.05 5 5.1 5 0 5 C0 3.35 0 1.7 0 0 Z " fill="#060214" transform="translate(265,265)"/>
<path d="M0 0 C1.65 0 3.3 0 5 0 C5.02468857 4.5206665 5.04285449 9.0412939 5.05493164 13.56201172 C5.05996552 15.10043013 5.06679308 16.63884375 5.07543945 18.17724609 C5.08754639 20.38640526 5.09323769 22.59550126 5.09765625 24.8046875 C5.10281754 25.49432587 5.10797882 26.18396423 5.11329651 26.89450073 C5.11387171 31.77225659 5.11387171 31.77225659 4 34 C3.01 34 2.02 34 1 34 C1 27.73 1 21.46 1 15 C0.34 14.67 -0.32 14.34 -1 14 C-0.67 9.38 -0.34 4.76 0 0 Z " fill="#3F3167" transform="translate(225,260)"/>
<path d="M0 0 C1.65 0 3.3 0 5 0 C5 6.6 5 13.2 5 20 C3.35 20 1.7 20 0 20 C0 16.7 0 13.4 0 10 C-3.3 10 -6.6 10 -10 10 C-10 8.35 -10 6.7 -10 5 C-6.7 5 -3.4 5 0 5 C0 3.35 0 1.7 0 0 Z " fill="#0B050B" transform="translate(295,215)"/>
<path d="M0 0 C1.65 0 3.3 0 5 0 C5 1.32 5 2.64 5 4 C6.65 4 8.3 4 10 4 C10 4.33 10 4.66 10 5 C8.35 5 6.7 5 5 5 C5.33 7.97 5.66 10.94 6 14 C7.32 14.33 8.64 14.66 10 15 C10 16.65 10 18.3 10 20 C8.35 20 6.7 20 5 20 C5 18.35 5 16.7 5 15 C3.35 15 1.7 15 0 15 C0 16.65 0 18.3 0 20 C-1.65 20 -3.3 20 -5 20 C-5 16.37 -5 12.74 -5 9 C-3.68 9 -2.36 9 -1 9 C-0.67 6.03 -0.34 3.06 0 0 Z M-4 10 C-4 11.65 -4 13.3 -4 15 C-3.01 15 -2.02 15 -1 15 C-1 13.35 -1 11.7 -1 10 C-1.99 10 -2.98 10 -4 10 Z " fill="#473B6E" transform="translate(290,285)"/>
<path d="M0 0 C3.3 0 6.6 0 10 0 C10 1.65 10 3.3 10 5 C13.3 5 16.6 5 20 5 C20 6.65 20 8.3 20 10 C15.05 10 10.1 10 5 10 C5 8.35 5 6.7 5 5 C3.35 5 1.7 5 0 5 C0 3.35 0 1.7 0 0 Z " fill="#0C0814" transform="translate(220,310)"/>
<path d="M0 0 C6.6 0 13.2 0 20 0 C20 3.3 20 6.6 20 10 C18.35 10 16.7 10 15 10 C15 8.35 15 6.7 15 5 C10.05 5 5.1 5 0 5 C0 3.35 0 1.7 0 0 Z " fill="#0C091B" transform="translate(245,305)"/>
<path d="M0 0 C3.3 0 6.6 0 10 0 C10 3.3 10 6.6 10 10 C6.7 10 3.4 10 0 10 C0 6.7 0 3.4 0 0 Z " fill="#E8BA34" transform="translate(285,225)"/>
<path d="M0 0 C1.65 0 3.3 0 5 0 C5 6.6 5 13.2 5 20 C3.35 20 1.7 20 0 20 C0 13.4 0 6.8 0 0 Z " fill="#0A0812" transform="translate(205,230)"/>
<path d="M0 0 C3.3 0 6.6 0 10 0 C10 3.3 10 6.6 10 10 C6.7 10 3.4 10 0 10 C0 6.7 0 3.4 0 0 Z " fill="#E0B43F" transform="translate(250,225)"/>
<path d="M0 0 C1.65 0 3.3 0 5 0 C5 6.6 5 13.2 5 20 C3.35 20 1.7 20 0 20 C0 13.4 0 6.8 0 0 Z " fill="#040309" transform="translate(295,185)"/>
<path d="M0 0 C1.65 0 3.3 0 5 0 C5 6.6 5 13.2 5 20 C3.35 20 1.7 20 0 20 C0 13.4 0 6.8 0 0 Z " fill="#0A0A0F" transform="translate(210,185)"/>
<path d="M0 0 C1.65 0 3.3 0 5 0 C5.25 5.625 5.25 5.625 3 9 C5.64 9 8.28 9 11 9 C11 9.33 11 9.66 11 10 C2.42 10 -6.16 10 -15 10 C-15 8.35 -15 6.7 -15 5 C-13.35 5 -11.7 5 -10 5 C-10 6.32 -10 7.64 -10 9 C-6.37 9 -2.74 9 1 9 C0.67 6.03 0.34 3.06 0 0 Z " fill="#574A7C" transform="translate(265,240)"/>
<path d="M0 0 C4.95 0 9.9 0 15 0 C15 1.65 15 3.3 15 5 C10.05 5 5.1 5 0 5 C0 3.35 0 1.7 0 0 Z " fill="#090511" transform="translate(265,315)"/>
<path d="M0 0 C3.3 0 6.6 0 10 0 C10 3.3 10 6.6 10 10 C8.35 10 6.7 10 5 10 C5 8.35 5 6.7 5 5 C3.35 5 1.7 5 0 5 C0 3.35 0 1.7 0 0 Z " fill="#0B0816" transform="translate(275,190)"/>
<path d="M0 0 C2.97 0 5.94 0 9 0 C8.67 1.32 8.34 2.64 8 4 C6.33927151 4.68132451 4.672233 5.34742127 3 6 C1.65589738 8.01735205 1.65589738 8.01735205 1 10 C-0.98 10 -2.96 10 -5 10 C-5 8.35 -5 6.7 -5 5 C-3.35 5 -1.7 5 0 5 C0 3.35 0 1.7 0 0 Z " fill="#564684" transform="translate(235,305)"/>
<path d="M0 0 C0.99 0 1.98 0 3 0 C3 0.66 3 1.32 3 2 C3.99 2 4.98 2 6 2 C6 2.99 6 3.98 6 5 C6.66 5.33 7.32 5.66 8 6 C8 4.68 8 3.36 8 2 C9.98 2 11.96 2 14 2 C14 3.65 14 5.3 14 7 C10.37 7 6.74 7 3 7 C3 6.34 3 5.68 3 5 C2.38125 5.185625 1.7625 5.37125 1.125 5.5625 C-1 6 -1 6 -3 5 C-3 4.01 -3 3.02 -3 2 C-2.01 2 -1.02 2 0 2 C0 1.34 0 0.68 0 0 Z " fill="#5C5176" transform="translate(271,308)"/>
<path d="M0 0 C4.29 0 8.58 0 13 0 C13 4.95 13 9.9 13 15 C11.35 15 9.7 15 8 15 C8.33 13.68 8.66 12.36 9 11 C9.99 11.99 10.98 12.98 12 14 C11.67 10.7 11.34 7.4 11 4 C9.081875 3.9690625 9.081875 3.9690625 7.125 3.9375 C6.40570313 3.92589844 5.68640625 3.91429687 4.9453125 3.90234375 C2.91814596 3.87350758 2.91814596 3.87350758 1 5 C0.34 4.67 -0.32 4.34 -1 4 C-0.67 3.34 -0.34 2.68 0 2 C0 1.34 0 0.68 0 0 Z " fill="#0B0817" transform="translate(282,250)"/>
<path d="M0 0 C1.32 0 2.64 0 4 0 C4 5.61 4 11.22 4 17 C3.01 17 2.02 17 1 17 C-0.13480527 13.39006828 -0.10015767 10.0157673 -0.0625 6.25 C-0.05347656 5.07953125 -0.04445313 3.9090625 -0.03515625 2.703125 C-0.02355469 1.81109375 -0.01195312 0.9190625 0 0 Z " fill="#06050A" transform="translate(301,275)"/>
<path d="M0 0 C1.1653125 0.00515625 2.330625 0.0103125 3.53125 0.015625 C4.6965625 0.01046875 5.861875 0.0053125 7.0625 0 C10.03125 0.265625 10.03125 0.265625 12.03125 2.265625 C12.42889263 4.25383813 12.76900349 6.25506839 13.03125 8.265625 C11.38125 8.265625 9.73125 8.265625 8.03125 8.265625 C8.03125 6.285625 8.03125 4.305625 8.03125 2.265625 C3.74125 2.265625 -0.54875 2.265625 -4.96875 2.265625 C-2.96875 0.265625 -2.96875 0.265625 0 0 Z " fill="#05030B" transform="translate(251.96875,306.734375)"/>
<path d="M0 0 C1.65 0 3.3 0 5 0 C5.33 1.32 5.66 2.64 6 4 C7.32 4.33 8.64 4.66 10 5 C10 6.65 10 8.3 10 10 C8.35 10 6.7 10 5 10 C5 8.35 5 6.7 5 5 C3.35 5 1.7 5 0 5 C0 3.35 0 1.7 0 0 Z " fill="#0A0913" transform="translate(290,295)"/>
<path d="M0 0 C3.3 0 6.6 0 10 0 C10 1.65 10 3.3 10 5 C6.7 5 3.4 5 0 5 C0 3.35 0 1.7 0 0 Z " fill="#3D325C" transform="translate(220,310)"/>
<path d="M0 0 C3.3 0 6.6 0 10 0 C10 1.65 10 3.3 10 5 C6.7 5 3.4 5 0 5 C0 3.35 0 1.7 0 0 Z " fill="#0A0714" transform="translate(200,300)"/>
<path d="M0 0 C1.65 0 3.3 0 5 0 C5 3.3 5 6.6 5 10 C3.35 10 1.7 10 0 10 C0 6.7 0 3.4 0 0 Z " fill="#060310" transform="translate(295,265)"/>
<path d="M0 0 C1.65 0 3.3 0 5 0 C5 3.3 5 6.6 5 10 C3.35 10 1.7 10 0 10 C0 6.7 0 3.4 0 0 Z " fill="#04020A" transform="translate(200,250)"/>
<path d="M0 0 C3.3 0 6.6 0 10 0 C10 1.65 10 3.3 10 5 C6.7 5 3.4 5 0 5 C0 3.35 0 1.7 0 0 Z " fill="#07020F" transform="translate(240,245)"/>
<path d="M0 0 C1.65 0 3.3 0 5 0 C5 3.3 5 6.6 5 10 C3.35 10 1.7 10 0 10 C0 6.7 0 3.4 0 0 Z " fill="#0A031A" transform="translate(235,235)"/>
<path d="M0 0 C3.3 0 6.6 0 10 0 C10 1.65 10 3.3 10 5 C6.7 5 3.4 5 0 5 C0 3.35 0 1.7 0 0 Z " fill="#070417" transform="translate(285,235)"/>
<path d="M0 0 C3.3 0 6.6 0 10 0 C10 1.65 10 3.3 10 5 C6.7 5 3.4 5 0 5 C0 3.35 0 1.7 0 0 Z " fill="#0E050D" transform="translate(250,235)"/>
<path d="M0 0 C1.65 0 3.3 0 5 0 C5 3.3 5 6.6 5 10 C3.35 10 1.7 10 0 10 C0 6.7 0 3.4 0 0 Z " fill="#0A030F" transform="translate(245,225)"/>
<path d="M0 0 C1.65 0 3.3 0 5 0 C5 3.3 5 6.6 5 10 C3.35 10 1.7 10 0 10 C0 6.7 0 3.4 0 0 Z " fill="#0A031D" transform="translate(260,225)"/>
<path d="M0 0 C1.65 0 3.3 0 5 0 C5 3.3 5 6.6 5 10 C3.35 10 1.7 10 0 10 C0 6.7 0 3.4 0 0 Z " fill="#0B030E" transform="translate(280,225)"/>
<path d="M0 0 C1.65 0 3.3 0 5 0 C5 3.3 5 6.6 5 10 C3.35 10 1.7 10 0 10 C0 6.7 0 3.4 0 0 Z " fill="#0A0615" transform="translate(210,220)"/>
<path d="M0 0 C3.3 0 6.6 0 10 0 C10 1.65 10 3.3 10 5 C6.7 5 3.4 5 0 5 C0 3.35 0 1.7 0 0 Z " fill="#160B12" transform="translate(250,220)"/>
<path d="M0 0 C1.65 0 3.3 0 5 0 C5 3.3 5 6.6 5 10 C3.35 10 1.7 10 0 10 C0 6.7 0 3.4 0 0 Z " fill="#0E091B" transform="translate(290,205)"/>
<path d="M0 0 C1.65 0 3.3 0 5 0 C5 3.3 5 6.6 5 10 C3.35 10 1.7 10 0 10 C0 6.7 0 3.4 0 0 Z " fill="#A0A0A2" transform="translate(215,195)"/>
<path d="M0 0 C1.32 0.33 2.64 0.66 4 1 C3.67 3.64 3.34 6.28 3 9 C1.02 9 -0.96 9 -3 9 C-3 10.98 -3 12.96 -3 15 C-4.20628008 12.66785852 -5.1654738 10.50357861 -6 8 C-4.68 7.01 -3.36 6.02 -2 5 C-1.01 6.485 -1.01 6.485 0 8 C-0.185625 7.236875 -0.37125 6.47375 -0.5625 5.6875 C-1 3 -1 3 0 0 Z " fill="#030309" transform="translate(282,291)"/>
<path d="M0 0 C1.65 0 3.3 0 5 0 C4.95875 0.78375 4.9175 1.5675 4.875 2.375 C4.71271266 5.16116119 4.71271266 5.16116119 7 7 C6.34 7 5.68 7 5 7 C5 7.66 5 8.32 5 9 C7.31 9 9.62 9 12 9 C12 9.33 12 9.66 12 10 C7.71 10 3.42 10 -1 10 C-1.33 9.01 -1.66 8.02 -2 7 C-1.34 6.01 -0.68 5.02 0 4 C1.32 4 2.64 4 4 4 C4 3.01 4 2.02 4 1 C2.68 0.67 1.36 0.34 0 0 Z " fill="#7B6D9C" transform="translate(260,255)"/>
<path d="M0 0 C1.65 0 3.3 0 5 0 C5 2.97 5 5.94 5 9 C3.35 9 1.7 9 0 9 C0 6.03 0 3.06 0 0 Z " fill="#06070A" transform="translate(300,235)"/>
<path d="M0 0 C0 1.65 0 3.3 0 5 C-0.66 5 -1.32 5 -2 5 C-2 6.65 -2 8.3 -2 10 C-3.65 10 -5.3 10 -7 10 C-7.375 7.8125 -7.375 7.8125 -7 5 C-2.5 0 -2.5 0 0 0 Z " fill="#060209" transform="translate(222,295)"/>
<path d="M0 0 C0.33 0 0.66 0 1 0 C1 4.95 1 9.9 1 15 C-0.65 15 -2.3 15 -4 15 C-4 12.36 -4 9.72 -4 7 C-3.34 7.66 -2.68 8.32 -2 9 C-1.34 6.03 -0.68 3.06 0 0 Z " fill="#0D081B" transform="translate(229,295)"/>
<path d="M0 0 C0.33 0 0.66 0 1 0 C1 4.29 1 8.58 1 13 C-0.65 13 -2.3 13 -4 13 C-4 9.37 -4 5.74 -4 2 C-2.68 2 -1.36 2 0 2 C0 1.34 0 0.68 0 0 Z M-3 3 C-3 4.65 -3 6.3 -3 8 C-2.01 8 -1.02 8 0 8 C0 6.35 0 4.7 0 3 C-0.99 3 -1.98 3 -3 3 Z " fill="#57545A" transform="translate(289,292)"/>
<path d="M0 0 C2.31 0 4.62 0 7 0 C7 1.98 7 3.96 7 6 C4.69 6 2.38 6 0 6 C0 4.02 0 2.04 0 0 Z " fill="#F9C218" transform="translate(251,227)"/>
<path d="M0 0 C1.32 0.33 2.64 0.66 4 1 C4.33 3.97 4.66 6.94 5 10 C3.35 10 1.7 10 0 10 C0 6.7 0 3.4 0 0 Z " fill="#392D5A" transform="translate(240,235)"/>
<path d="M0 0 C1.485 1.485 1.485 1.485 3 3 C-8.22 3 -19.44 3 -31 3 C-31 2.67 -31 2.34 -31 2 C-30.09644775 1.97494385 -29.19289551 1.9498877 -28.26196289 1.92407227 C-24.9203572 1.82912683 -21.57893748 1.72988379 -18.23754883 1.62768555 C-16.7893576 1.5842837 -15.34111346 1.54261256 -13.89282227 1.50268555 C-11.81510441 1.44510938 -9.73765427 1.38137972 -7.66015625 1.31640625 C-6.40855713 1.27974854 -5.15695801 1.24309082 -3.86743164 1.20532227 C-1.10369496 1.32196094 -1.10369496 1.32196094 0 0 Z " fill="#070116" transform="translate(272,187)"/>
<path d="M0 0 C0.33 0 0.66 0 1 0 C1.24809955 2.6244748 1.4741699 5.24767145 1.6875 7.875 C1.79674805 8.99455078 1.79674805 8.99455078 1.90820312 10.13671875 C2.07421875 12.3046875 2.07421875 12.3046875 2 16 C-1 18 -1 18 -5 18 C-5 17.01 -5 16.02 -5 15 C-3.35 15 -1.7 15 0 15 C0 10.05 0 5.1 0 0 Z " fill="#0E0721" transform="translate(300,275)"/>
<path d="M0 0 C1.65 0 3.3 0 5 0 C5 1.65 5 3.3 5 5 C1.7 5 -1.6 5 -5 5 C-5 4.34 -5 3.68 -5 3 C-2.03 3.495 -2.03 3.495 1 4 C0.67 2.68 0.34 1.36 0 0 Z " fill="#564976" transform="translate(290,215)"/>
<path d="M0 0 C1.65 0 3.3 0 5 0 C5 1.65 5 3.3 5 5 C3.02 5 1.04 5 -1 5 C-0.67 3.35 -0.34 1.7 0 0 Z " fill="#3F3360" transform="translate(290,245)"/>
<path d="M0 0 C1.65 0 3.3 0 5 0 C5.33 1.65 5.66 3.3 6 5 C4.02 5 2.04 5 0 5 C0 3.35 0 1.7 0 0 Z " fill="#3F3261" transform="translate(250,245)"/>
<path d="M0 0 C1.65 0 3.3 0 5 0 C5 1.65 5 3.3 5 5 C3.35 5 1.7 5 0 5 C0 3.35 0 1.7 0 0 Z " fill="#030309" transform="translate(280,310)"/>
<path d="M0 0 C1.65 0 3.3 0 5 0 C5 1.65 5 3.3 5 5 C3.35 5 1.7 5 0 5 C0 3.35 0 1.7 0 0 Z " fill="#57497F" transform="translate(230,310)"/>
<path d="M0 0 C1.65 0 3.3 0 5 0 C5 1.65 5 3.3 5 5 C3.35 5 1.7 5 0 5 C0 3.35 0 1.7 0 0 Z " fill="#07060F" transform="translate(220,310)"/>
<path d="M0 0 C1.65 0 3.3 0 5 0 C5 1.65 5 3.3 5 5 C3.35 5 1.7 5 0 5 C0 3.35 0 1.7 0 0 Z " fill="#171519" transform="translate(210,305)"/>
<path d="M0 0 C1.65 0 3.3 0 5 0 C5 1.65 5 3.3 5 5 C3.35 5 1.7 5 0 5 C0 3.35 0 1.7 0 0 Z " fill="#3E3164" transform="translate(275,290)"/>
<path d="M0 0 C1.65 0 3.3 0 5 0 C5 1.65 5 3.3 5 5 C3.35 5 1.7 5 0 5 C0 3.35 0 1.7 0 0 Z " fill="#050111" transform="translate(295,245)"/>
<path d="M0 0 C1.65 0 3.3 0 5 0 C5 1.65 5 3.3 5 5 C3.35 5 1.7 5 0 5 C0 3.35 0 1.7 0 0 Z " fill="#0E0623" transform="translate(265,240)"/>
<path d="M0 0 C1.65 0 3.3 0 5 0 C5 1.65 5 3.3 5 5 C3.35 5 1.7 5 0 5 C0 3.35 0 1.7 0 0 Z " fill="#130925" transform="translate(275,240)"/>
<path d="M0 0 C1.65 0 3.3 0 5 0 C5 1.65 5 3.3 5 5 C3.35 5 1.7 5 0 5 C0 3.35 0 1.7 0 0 Z " fill="#04010F" transform="translate(215,215)"/>
<path d="M0 0 C1.65 0 3.3 0 5 0 C5 1.65 5 3.3 5 5 C3.35 5 1.7 5 0 5 C0 3.35 0 1.7 0 0 Z " fill="#12101A" transform="translate(220,210)"/>
<path d="M0 0 C1.65 0 3.3 0 5 0 C5 1.65 5 3.3 5 5 C3.35 5 1.7 5 0 5 C0 3.35 0 1.7 0 0 Z " fill="#9894A4" transform="translate(225,210)"/>
<path d="M0 0 C1.65 0 3.3 0 5 0 C5 1.65 5 3.3 5 5 C3.35 5 1.7 5 0 5 C0 3.35 0 1.7 0 0 Z " fill="#07060A" transform="translate(215,205)"/>
<path d="M0 0 C1.65 0 3.3 0 5 0 C5 1.65 5 3.3 5 5 C3.35 5 1.7 5 0 5 C0 3.35 0 1.7 0 0 Z " fill="#0E0A1B" transform="translate(285,200)"/>
<path d="M0 0 C1.65 0 3.3 0 5 0 C5 1.65 5 3.3 5 5 C3.35 5 1.7 5 0 5 C0 3.35 0 1.7 0 0 Z " fill="#97979C" transform="translate(290,200)"/>
<path d="M0 0 C1.65 0 3.3 0 5 0 C5 1.65 5 3.3 5 5 C3.35 5 1.7 5 0 5 C0 3.35 0 1.7 0 0 Z " fill="#070313" transform="translate(235,200)"/>
<path d="M0 0 C1.65 0 3.3 0 5 0 C5 1.65 5 3.3 5 5 C3.35 5 1.7 5 0 5 C0 3.35 0 1.7 0 0 Z " fill="#0B0811" transform="translate(230,195)"/>
<path d="M0 0 C1.65 0 3.3 0 5 0 C5 1.65 5 3.3 5 5 C3.35 5 1.7 5 0 5 C0 3.35 0 1.7 0 0 Z " fill="#1C1B1E" transform="translate(225,190)"/>
<path d="M0 0 C1.65 0 3.3 0 5 0 C5 1.65 5 3.3 5 5 C3.35 5 1.7 5 0 5 C0 3.35 0 1.7 0 0 Z " fill="#57487F" transform="translate(270,190)"/>
<path d="M0 0 C1.65 0 3.3 0 5 0 C5 1.65 5 3.3 5 5 C3.35 5 1.7 5 0 5 C0 3.35 0 1.7 0 0 Z " fill="#0D0A15" transform="translate(235,190)"/>
<path d="M0 0 C1.65 0 3.3 0 5 0 C5 1.65 5 3.3 5 5 C3.35 5 1.7 5 0 5 C0 3.35 0 1.7 0 0 Z " fill="#101014" transform="translate(285,185)"/>
<path d="M0 0 C1.65 0 3.3 0 5 0 C5 1.65 5 3.3 5 5 C3.35 5 1.7 5 0 5 C0 3.35 0 1.7 0 0 Z " fill="#07070A" transform="translate(220,185)"/>
<path d="M0 0 C1.65 0 3.3 0 5 0 C5 1.65 5 3.3 5 5 C3.35 5 1.7 5 0 5 C0 3.35 0 1.7 0 0 Z " fill="#0F0E12" transform="translate(290,180)"/>
<path d="M0 0 C1.65 0 3.3 0 5 0 C5 1.65 5 3.3 5 5 C3.35 5 1.7 5 0 5 C0 3.35 0 1.7 0 0 Z " fill="#08080A" transform="translate(215,180)"/>
<path d="M0 0 C0.66 0 1.32 0 2 0 C2 2.64 2 5.28 2 8 C0.35 8 -1.3 8 -3 8 C-2.505 6.865625 -2.01 5.73125 -1.5 4.5625 C0.06467617 1.49062936 0.06467617 1.49062936 0 0 Z " fill="#09041A" transform="translate(203,252)"/>
<path d="M0 0 C3.3 0 6.6 0 10 0 C10 0.33 10 0.66 10 1 C7.69 1.66 5.38 2.32 3 3 C3.33 3.66 3.66 4.32 4 5 C2.68 5 1.36 5 0 5 C0 3.35 0 1.7 0 0 Z " fill="#0A041E" transform="translate(240,245)"/>
<path d="M0 0 C2.97 0 5.94 0 9 0 C8.67 0.99 8.34 1.98 8 3 C5.69 3 3.38 3 1 3 C0.67 2.01 0.34 1.02 0 0 Z " fill="#04020C" transform="translate(225,316)"/>
<path d="M0 0 C1.32 0 2.64 0 4 0 C4 1.32 4 2.64 4 4 C0.7 4 -2.6 4 -6 4 C-6 3.67 -6 3.34 -6 3 C-4.02 3 -2.04 3 0 3 C0 2.01 0 1.02 0 0 Z " fill="#5D4A8A" transform="translate(251,191)"/>
<path d="M0 0 C0.66 0 1.32 0 2 0 C3.0625 1.8125 3.0625 1.8125 4 4 C3.67 4.99 3.34 5.98 3 7 C2.34 7 1.68 7 1 7 C0.67 7.66 0.34 8.32 0 9 C0 6.03 0 3.06 0 0 Z " fill="#090305" transform="translate(260,226)"/>
<path d="M0 0 C1.32 0 2.64 0 4 0 C4 1.65 4 3.3 4 5 C2.68 5 1.36 5 0 5 C0 3.35 0 1.7 0 0 Z " fill="#0F0D14" transform="translate(240,310)"/>
<path d="M0 0 C1.32 0 2.64 0 4 0 C4 1.65 4 3.3 4 5 C2.68 5 1.36 5 0 5 C0 3.35 0 1.7 0 0 Z " fill="#0C0910" transform="translate(286,300)"/>
<path d="M0 0 C1.32 0 2.64 0 4 0 C4 0.99 4 1.98 4 3 C3.01 3.495 3.01 3.495 2 4 C1.34227572 7.02934491 1.34227572 7.02934491 1 10 C0.67 10 0.34 10 0 10 C0 6.7 0 3.4 0 0 Z " fill="#3B3153" transform="translate(205,250)"/>
<path d="M0 0 C1.9375 0.3125 1.9375 0.3125 4 1 C4.33 1.99 4.66 2.98 5 4 C4.01 4 3.02 4 2 4 C1.34 5.32 0.68 6.64 0 8 C0 5.36 0 2.72 0 0 Z " fill="#71608F" transform="translate(235,307)"/>
<path d="M0 0 C2.0625 1.75 2.0625 1.75 4 4 C3.75 6.25 3.75 6.25 3 8 C2.01 8 1.02 8 0 8 C0 5.36 0 2.72 0 0 Z " fill="#7D758B" transform="translate(210,297)"/>
<path d="M0 0 C3.3 0 6.6 0 10 0 C9.67 0.66 9.34 1.32 9 2 C6.07286212 2.94934202 4.57168632 3.23176473 1.6875 2.0625 C1.130625 1.711875 0.57375 1.36125 0 1 C0 0.67 0 0.34 0 0 Z " fill="#170601" transform="translate(285,235)"/>
<path d="M0 0 C1.65 0 3.3 0 5 0 C5 1.98 5 3.96 5 6 C4.34 4.68 3.68 3.36 3 2 C2.01 2.99 1.02 3.98 0 5 C0 3.35 0 1.7 0 0 Z " fill="#0F0722" transform="translate(285,285)"/>
<path d="M0 0 C2.97 0 5.94 0 9 0 C9 1.65 9 3.3 9 5 C7 4 7 4 6 2 C2.97065509 1.34227572 2.97065509 1.34227572 0 1 C0 0.67 0 0.34 0 0 Z " fill="#56497B" transform="translate(241,250)"/>
<path d="M0 0 C0.99 0.33 1.98 0.66 3 1 C2.67 2.98 2.34 4.96 2 7 C1.34 7 0.68 7 0 7 C0 4.69 0 2.38 0 0 Z " fill="#090318" transform="translate(300,237)"/>
</svg>
