<?xml version="1.0" encoding="UTF-8"?>
<svg version="1.1" xmlns="http://www.w3.org/2000/svg" width="500" height="500">
<path d="M0 0 C3.3 0 6.6 0 10 0 C10 1.65 10 3.3 10 5 C13.3 5 16.6 5 20 5 C20 6.65 20 8.3 20 10 C23.3 10 26.6 10 30 10 C30 11.65 30 13.3 30 15 C31.65 15 33.3 15 35 15 C35 16.65 35 18.3 35 20 C36.65 20 38.3 20 40 20 C40 23.3 40 26.6 40 30 C41.65 30 43.3 30 45 30 C45 33.3 45 36.6 45 40 C46.65 40 48.3 40 50 40 C50 44.95 50 49.9 50 55 C51.65 55 53.3 55 55 55 C55 56.65 55 58.3 55 60 C58.3 60 61.6 60 65 60 C65 61.65 65 63.3 65 65 C66.65 65 68.3 65 70 65 C70 68.3 70 71.6 70 75 C71.65 75 73.3 75 75 75 C75 78.3 75 81.6 75 85 C76.65 85 78.3 85 80 85 C80 86.65 80 88.3 80 90 C76.7 90 73.4 90 70 90 C70 91.65 70 93.3 70 95 C66.7 95 63.4 95 60 95 C60 98.3 60 101.6 60 105 C58.35 105 56.7 105 55 105 C55 106.65 55 108.3 55 110 C38.5 110 22 110 5 110 C5 111.65 5 113.3 5 115 C1.7 115 -1.6 115 -5 115 C-5 113.35 -5 111.7 -5 110 C-9.95 110 -14.9 110 -20 110 C-20 108.35 -20 106.7 -20 105 C-23.3 105 -26.6 105 -30 105 C-30 103.35 -30 101.7 -30 100 C-31.65 100 -33.3 100 -35 100 C-35 98.35 -35 96.7 -35 95 C-41.6 95 -48.2 95 -55 95 C-55 93.35 -55 91.7 -55 90 C-56.65 90 -58.3 90 -60 90 C-60 81.75 -60 73.5 -60 65 C-58.35 65 -56.7 65 -55 65 C-55 63.35 -55 61.7 -55 60 C-53.35 60 -51.7 60 -50 60 C-50 58.35 -50 56.7 -50 55 C-48.35 55 -46.7 55 -45 55 C-45 51.7 -45 48.4 -45 45 C-43.35 45 -41.7 45 -40 45 C-40 43.35 -40 41.7 -40 40 C-38.35 40 -36.7 40 -35 40 C-35 38.35 -35 36.7 -35 35 C-33.35 35 -31.7 35 -30 35 C-30 33.35 -30 31.7 -30 30 C-28.35 30 -26.7 30 -25 30 C-25 28.35 -25 26.7 -25 25 C-23.35 25 -21.7 25 -20 25 C-20 23.35 -20 21.7 -20 20 C-18.35 20 -16.7 20 -15 20 C-15 18.35 -15 16.7 -15 15 C-13.35 15 -11.7 15 -10 15 C-10 13.35 -10 11.7 -10 10 C-8.35 10 -6.7 10 -5 10 C-5 8.35 -5 6.7 -5 5 C-3.35 5 -1.7 5 0 5 C0 3.35 0 1.7 0 0 Z " fill="#4B4066" transform="translate(225,120)"/>
<path d="M0 0 C1.65 0 3.3 0 5 0 C5 1.65 5 3.3 5 5 C9.95 5 14.9 5 20 5 C20 3.35 20 1.7 20 0 C21.65 0 23.3 0 25 0 C25 3.3 25 6.6 25 10 C23.35 10 21.7 10 20 10 C20 13.3 20 16.6 20 20 C24.95 20 29.9 20 35 20 C35 23.3 35 26.6 35 30 C36.65 30 38.3 30 40 30 C40 28.35 40 26.7 40 25 C44.95 25 49.9 25 55 25 C55 21.7 55 18.4 55 15 C56.65 15 58.3 15 60 15 C60 18.3 60 21.6 60 25 C61.65 25 63.3 25 65 25 C65 26.65 65 28.3 65 30 C61.7 30 58.4 30 55 30 C55 31.65 55 33.3 55 35 C51.7 35 48.4 35 45 35 C45 38.3 45 41.6 45 45 C43.35 45 41.7 45 40 45 C40 46.65 40 48.3 40 50 C23.5 50 7 50 -10 50 C-10 51.65 -10 53.3 -10 55 C-13.3 55 -16.6 55 -20 55 C-20 53.35 -20 51.7 -20 50 C-24.95 50 -29.9 50 -35 50 C-35 48.35 -35 46.7 -35 45 C-38.3 45 -41.6 45 -45 45 C-45 43.35 -45 41.7 -45 40 C-46.65 40 -48.3 40 -50 40 C-50 38.35 -50 36.7 -50 35 C-56.6 35 -63.2 35 -70 35 C-70 33.35 -70 31.7 -70 30 C-71.65 30 -73.3 30 -75 30 C-75 21.75 -75 13.5 -75 5 C-73.35 5 -71.7 5 -70 5 C-70 11.6 -70 18.2 -70 25 C-68.35 25 -66.7 25 -65 25 C-65 23.35 -65 21.7 -65 20 C-63.35 20 -61.7 20 -60 20 C-60 18.35 -60 16.7 -60 15 C-56.7 15 -53.4 15 -50 15 C-50 16.65 -50 18.3 -50 20 C-48.35 20 -46.7 20 -45 20 C-45 21.65 -45 23.3 -45 25 C-46.65 25 -48.3 25 -50 25 C-50 26.65 -50 28.3 -50 30 C-48.35 30 -46.7 30 -45 30 C-45 31.65 -45 33.3 -45 35 C-43.35 35 -41.7 35 -40 35 C-40 33.35 -40 31.7 -40 30 C-36.7 30 -33.4 30 -30 30 C-30 28.35 -30 26.7 -30 25 C-28.35 25 -26.7 25 -25 25 C-25 26.65 -25 28.3 -25 30 C-23.35 30 -21.7 30 -20 30 C-20 31.65 -20 33.3 -20 35 C-15.05 35 -10.1 35 -5 35 C-5 30.05 -5 25.1 -5 20 C-3.35 20 -1.7 20 0 20 C0 21.65 0 23.3 0 25 C1.65 25 3.3 25 5 25 C5 28.3 5 31.6 5 35 C8.3 35 11.6 35 15 35 C15 36.65 15 38.3 15 40 C16.65 40 18.3 40 20 40 C20 38.35 20 36.7 20 35 C23.3 35 26.6 35 30 35 C30 33.35 30 31.7 30 30 C26.7 30 23.4 30 20 30 C20 28.35 20 26.7 20 25 C16.7 25 13.4 25 10 25 C10 23.35 10 21.7 10 20 C8.35 20 6.7 20 5 20 C5 16.7 5 13.4 5 10 C3.35 10 1.7 10 0 10 C0 6.7 0 3.4 0 0 Z " fill="#3C3156" transform="translate(240,180)"/>
<path d="M0 0 C3.3 0 6.6 0 10 0 C10 1.65 10 3.3 10 5 C13.3 5 16.6 5 20 5 C20 9.95 20 14.9 20 20 C16.7 20 13.4 20 10 20 C10 21.65 10 23.3 10 25 C8.35 25 6.7 25 5 25 C5 26.65 5 28.3 5 30 C6.65 30 8.3 30 10 30 C10 31.65 10 33.3 10 35 C6.7 35 3.4 35 0 35 C0 36.65 0 38.3 0 40 C-4.95 40 -9.9 40 -15 40 C-15.33 42.97 -15.66 45.94 -16 49 C-17.98 49.495 -17.98 49.495 -20 50 C-20 51.65 -20 53.3 -20 55 C-26.6 55 -33.2 55 -40 55 C-40 50.05 -40 45.1 -40 40 C-38.35 40 -36.7 40 -35 40 C-35 38.35 -35 36.7 -35 35 C-33.35 35 -31.7 35 -30 35 C-30 33.35 -30 31.7 -30 30 C-28.35 30 -26.7 30 -25 30 C-25 28.35 -25 26.7 -25 25 C-23.35 25 -21.7 25 -20 25 C-20 23.35 -20 21.7 -20 20 C-18.35 20 -16.7 20 -15 20 C-15 18.35 -15 16.7 -15 15 C-13.35 15 -11.7 15 -10 15 C-10 13.35 -10 11.7 -10 10 C-8.35 10 -6.7 10 -5 10 C-5 8.35 -5 6.7 -5 5 C-3.35 5 -1.7 5 0 5 C0 3.35 0 1.7 0 0 Z " fill="#7C709B" transform="translate(225,120)"/>
<path d="M0 0 C1.65 0 3.3 0 5 0 C5 1.65 5 3.3 5 5 C6.65 5 8.3 5 10 5 C10 6.65 10 8.3 10 10 C11.65 10 13.3 10 15 10 C15 11.65 15 13.3 15 15 C19.95 15 24.9 15 30 15 C30 19.95 30 24.9 30 30 C25.05 30 20.1 30 15 30 C15 28.35 15 26.7 15 25 C13.35 25 11.7 25 10 25 C10 23.35 10 21.7 10 20 C8.35 20 6.7 20 5 20 C5 21.65 5 23.3 5 25 C1.7 25 -1.6 25 -5 25 C-5 26.65 -5 28.3 -5 30 C-6.65 30 -8.3 30 -10 30 C-10 28.35 -10 26.7 -10 25 C-11.65 25 -13.3 25 -15 25 C-15 23.35 -15 21.7 -15 20 C-13.35 20 -11.7 20 -10 20 C-10 16.7 -10 13.4 -10 10 C-8.35 10 -6.7 10 -5 10 C-5 8.35 -5 6.7 -5 5 C-3.35 5 -1.7 5 0 5 C0 3.35 0 1.7 0 0 Z " fill="#9388B6" transform="translate(205,185)"/>
<path d="M0 0 C3.3 0 6.6 0 10 0 C10 1.65 10 3.3 10 5 C13.3 5 16.6 5 20 5 C20 6.65 20 8.3 20 10 C16.04 10 12.08 10 8 10 C7.67 10.99 7.34 11.98 7 13 C6.34 12.67 5.68 12.34 5 12 C5 12.99 5 13.98 5 15 C3.35 15 1.7 15 0 15 C0 16.65 0 18.3 0 20 C-1.65 20 -3.3 20 -5 20 C-5 21.65 -5 23.3 -5 25 C-7.64 25 -10.28 25 -13 25 C-13 26.65 -13 28.3 -13 30 C-12.01 30 -11.02 30 -10 30 C-10 31.65 -10 33.3 -10 35 C-13.3 35 -16.6 35 -20 35 C-20 36.65 -20 38.3 -20 40 C-23.3 40 -26.6 40 -30 40 C-30 43.3 -30 46.6 -30 50 C-31.65 50 -33.3 50 -35 50 C-35 48.35 -35 46.7 -35 45 C-36.65 45 -38.3 45 -40 45 C-40 43.35 -40 41.7 -40 40 C-38.35 40 -36.7 40 -35 40 C-35 38.35 -35 36.7 -35 35 C-33.35 35 -31.7 35 -30 35 C-30 33.35 -30 31.7 -30 30 C-28.35 30 -26.7 30 -25 30 C-25 28.35 -25 26.7 -25 25 C-23.35 25 -21.7 25 -20 25 C-20 23.35 -20 21.7 -20 20 C-18.35 20 -16.7 20 -15 20 C-15 18.35 -15 16.7 -15 15 C-13.35 15 -11.7 15 -10 15 C-10 13.35 -10 11.7 -10 10 C-8.35 10 -6.7 10 -5 10 C-5 8.35 -5 6.7 -5 5 C-3.35 5 -1.7 5 0 5 C0 3.35 0 1.7 0 0 Z " fill="#887DA8" transform="translate(225,120)"/>
<path d="M0 0 C3.3 0 6.6 0 10 0 C10 1.65 10 3.3 10 5 C14.95 5 19.9 5 25 5 C25 8.3 25 11.6 25 15 C26.65 15 28.3 15 30 15 C30 18.3 30 21.6 30 25 C31.65 25 33.3 25 35 25 C35 26.65 35 28.3 35 30 C38.3 30 41.6 30 45 30 C45 31.65 45 33.3 45 35 C48.3 35 51.6 35 55 35 C55 36.65 55 38.3 55 40 C51.7 40 48.4 40 45 40 C45 41.65 45 43.3 45 45 C43.35 45 41.7 45 40 45 C40 43.35 40 41.7 40 40 C36.7 40 33.4 40 30 40 C30 36.7 30 33.4 30 30 C28.35 30 26.7 30 25 30 C25 28.35 25 26.7 25 25 C23.35 25 21.7 25 20 25 C20 23.35 20 21.7 20 20 C16.7 20 13.4 20 10 20 C10 18.35 10 16.7 10 15 C8.35 15 6.7 15 5 15 C5 13.35 5 11.7 5 10 C3.35 10 1.7 10 0 10 C0 6.7 0 3.4 0 0 Z " fill="#9488B5" transform="translate(215,175)"/>
<path d="M0 0 C3.3 0 6.6 0 10 0 C10 1.65 10 3.3 10 5 C11.65 5 13.3 5 15 5 C15 13.25 15 21.5 15 30 C13.35 30 11.7 30 10 30 C10 31.65 10 33.3 10 35 C6.7 35 3.4 35 0 35 C0 36.65 0 38.3 0 40 C-1.65 40 -3.3 40 -5 40 C-5 35.05 -5 30.1 -5 25 C-6.65 25 -8.3 25 -10 25 C-10 21.7 -10 18.4 -10 15 C-8.35 15 -6.7 15 -5 15 C-5 13.35 -5 11.7 -5 10 C-3.35 10 -1.7 10 0 10 C0 6.7 0 3.4 0 0 Z " fill="#9488B6" transform="translate(250,135)"/>
<path d="M0 0 C1.65 0 3.3 0 5 0 C5 6.6 5 13.2 5 20 C6.65 20 8.3 20 10 20 C10 18.35 10 16.7 10 15 C11.65 15 13.3 15 15 15 C15 13.35 15 11.7 15 10 C18.3 10 21.6 10 25 10 C25 11.65 25 13.3 25 15 C26.65 15 28.3 15 30 15 C30 16.65 30 18.3 30 20 C28.35 20 26.7 20 25 20 C25 21.65 25 23.3 25 25 C26.65 25 28.3 25 30 25 C30 26.65 30 28.3 30 30 C33.3 30 36.6 30 40 30 C40 33.3 40 36.6 40 40 C36.7 40 33.4 40 30 40 C30 38.35 30 36.7 30 35 C28.35 35 26.7 35 25 35 C25 33.35 25 31.7 25 30 C18.4 30 11.8 30 5 30 C5 28.35 5 26.7 5 25 C3.35 25 1.7 25 0 25 C0 16.75 0 8.5 0 0 Z " fill="#392E53" transform="translate(165,185)"/>
<path d="M0 0 C1.65 0 3.3 0 5 0 C5 3.3 5 6.6 5 10 C8.3 10 11.6 10 15 10 C15 11.65 15 13.3 15 15 C13.35 15 11.7 15 10 15 C10 16.65 10 18.3 10 20 C11.65 20 13.3 20 15 20 C15 21.65 15 23.3 15 25 C16.65 25 18.3 25 20 25 C20 26.65 20 28.3 20 30 C18.35 30 16.7 30 15 30 C15 31.65 15 33.3 15 35 C13.35 35 11.7 35 10 35 C10 33.35 10 31.7 10 30 C6.7 30 3.4 30 0 30 C0 31.65 0 33.3 0 35 C-1.65 35 -3.3 35 -5 35 C-5 36.65 -5 38.3 -5 40 C-6.65 40 -8.3 40 -10 40 C-10 31.75 -10 23.5 -10 15 C-8.35 15 -6.7 15 -5 15 C-5 13.35 -5 11.7 -5 10 C-3.35 10 -1.7 10 0 10 C0 6.7 0 3.4 0 0 Z " fill="#574D74" transform="translate(180,165)"/>
<path d="M0 0 C3.3 0 6.6 0 10 0 C10 1.65 10 3.3 10 5 C11.65 5 13.3 5 15 5 C15 11.6 15 18.2 15 25 C10.05 25 5.1 25 0 25 C0 26.65 0 28.3 0 30 C-1.65 30 -3.3 30 -5 30 C-5 26.7 -5 23.4 -5 20 C-9.95 20 -14.9 20 -20 20 C-20 16.7 -20 13.4 -20 10 C-16.7 10 -13.4 10 -10 10 C-10 8.35 -10 6.7 -10 5 C-8.35 5 -6.7 5 -5 5 C-5 6.65 -5 8.3 -5 10 C-3.35 10 -1.7 10 0 10 C0 11.65 0 13.3 0 15 C1.65 15 3.3 15 5 15 C5 11.7 5 8.4 5 5 C3.35 5 1.7 5 0 5 C0 3.35 0 1.7 0 0 Z " fill="#655A83" transform="translate(280,180)"/>
<path d="M0 0 C1.65 0 3.3 0 5 0 C5 1.65 5 3.3 5 5 C9.95 5 14.9 5 20 5 C20 3.35 20 1.7 20 0 C21.65 0 23.3 0 25 0 C25 3.3 25 6.6 25 10 C23.35 10 21.7 10 20 10 C20 13.3 20 16.6 20 20 C24.95 20 29.9 20 35 20 C35 23.3 35 26.6 35 30 C30.05 30 25.1 30 20 30 C20 28.35 20 26.7 20 25 C16.7 25 13.4 25 10 25 C10 23.35 10 21.7 10 20 C8.35 20 6.7 20 5 20 C5 16.7 5 13.4 5 10 C3.35 10 1.7 10 0 10 C0 6.7 0 3.4 0 0 Z " fill="#3B3155" transform="translate(240,180)"/>
<path d="M0 0 C3.96 0 7.92 0 12 0 C12 3.3 12 6.6 12 10 C8.7 10 5.4 10 2 10 C2 11.65 2 13.3 2 15 C0.35 15 -1.3 15 -3 15 C-3 16.65 -3 18.3 -3 20 C-6.3 20 -9.6 20 -13 20 C-13 21.65 -13 23.3 -13 25 C-14.65 25 -16.3 25 -18 25 C-18 23.35 -18 21.7 -18 20 C-18.99 20 -19.98 20 -21 20 C-21.33 18.35 -21.66 16.7 -22 15 C-18.67465243 13.89155081 -16.37817425 14.15545644 -13 15 C-13 13.35 -13 11.7 -13 10 C-11.35 10 -9.7 10 -8 10 C-8 8.35 -8 6.7 -8 5 C-6.35 5 -4.7 5 -3 5 C-3 4.01 -3 3.02 -3 2 C-2.34 2 -1.68 2 -1 2 C-0.67 1.34 -0.34 0.68 0 0 Z " fill="#9388B7" transform="translate(233,130)"/>
<path d="M0 0 C1.65 0 3.3 0 5 0 C5 3.3 5 6.6 5 10 C6.65 10 8.3 10 10 10 C10 11.65 10 13.3 10 15 C6.7 15 3.4 15 0 15 C0 16.65 0 18.3 0 20 C-3.3 20 -6.6 20 -10 20 C-10 23.3 -10 26.6 -10 30 C-11.65 30 -13.3 30 -15 30 C-15 26.7 -15 23.4 -15 20 C-16.65 20 -18.3 20 -20 20 C-20 18.35 -20 16.7 -20 15 C-18.35 15 -16.7 15 -15 15 C-15 13.35 -15 11.7 -15 10 C-10.05 10 -5.1 10 0 10 C0 6.7 0 3.4 0 0 Z " fill="#2A243D" transform="translate(295,195)"/>
<path d="M0 0 C3.3 0 6.6 0 10 0 C10 1.65 10 3.3 10 5 C14.95 5 19.9 5 25 5 C25 8.3 25 11.6 25 15 C23.35 15 21.7 15 20 15 C19.67 16.65 19.34 18.3 19 20 C16.03 20 13.06 20 10 20 C10 18.35 10 16.7 10 15 C8.35 15 6.7 15 5 15 C5 13.35 5 11.7 5 10 C3.35 10 1.7 10 0 10 C0 6.7 0 3.4 0 0 Z " fill="#9488B6" transform="translate(215,175)"/>
<path d="M0 0 C16.5 0 33 0 50 0 C50 1.65 50 3.3 50 5 C33.5 5 17 5 0 5 C0 3.35 0 1.7 0 0 Z " fill="#2B2240" transform="translate(230,225)"/>
<path d="M0 0 C1.65 0 3.3 0 5 0 C5 6.6 5 13.2 5 20 C0.05 20 -4.9 20 -10 20 C-10 21.65 -10 23.3 -10 25 C-11.65 25 -13.3 25 -15 25 C-15 23.35 -15 21.7 -15 20 C-16.65 20 -18.3 20 -20 20 C-20 16.7 -20 13.4 -20 10 C-18.35 10 -16.7 10 -15 10 C-15 11.65 -15 13.3 -15 15 C-10.05 15 -5.1 15 0 15 C0 10.05 0 5.1 0 0 Z " fill="#5B5179" transform="translate(235,200)"/>
<path d="M0 0 C1.65 0 3.3 0 5 0 C5 3.3 5 6.6 5 10 C6.65 10 8.3 10 10 10 C10 11.65 10 13.3 10 15 C11.65 15 13.3 15 15 15 C15 16.65 15 18.3 15 20 C18.3 20 21.6 20 25 20 C25 21.65 25 23.3 25 25 C20.05 25 15.1 25 10 25 C10 23.35 10 21.7 10 20 C8.35 20 6.7 20 5 20 C5 18.35 5 16.7 5 15 C3.35 15 1.7 15 0 15 C0 13.35 0 11.7 0 10 C-1.65 10 -3.3 10 -5 10 C-5 8.35 -5 6.7 -5 5 C-3.35 5 -1.7 5 0 5 C0 3.35 0 1.7 0 0 Z " fill="#60567E" transform="translate(210,175)"/>
<path d="M0 0 C1.65 0 3.3 0 5 0 C5 4.95 5 9.9 5 15 C6.65 15 8.3 15 10 15 C10 16.65 10 18.3 10 20 C5.05 20 0.1 20 -5 20 C-5 16.7 -5 13.4 -5 10 C-6.65 10 -8.3 10 -10 10 C-10 8.35 -10 6.7 -10 5 C-6.7 5 -3.4 5 0 5 C0 3.35 0 1.7 0 0 Z " fill="#3C3158" transform="translate(210,205)"/>
<path d="M0 0 C1.65 0 3.3 0 5 0 C5 3.3 5 6.6 5 10 C6.65 10 8.3 10 10 10 C10 14.95 10 19.9 10 25 C8.35 25 6.7 25 5 25 C4.731875 24.360625 4.46375 23.72125 4.1875 23.0625 C3.11332248 20.66868314 3.11332248 20.66868314 0 20 C-1.66621616 19.96125079 -3.33394172 19.9549714 -5 20 C-5 18.35 -5 16.7 -5 15 C-3.35 15 -1.7 15 0 15 C0 10.05 0 5.1 0 0 Z " fill="#7B719A" transform="translate(265,150)"/>
<path d="M0 0 C3.3 0 6.6 0 10 0 C10 1.65 10 3.3 10 5 C8.35 5 6.7 5 5 5 C5 6.65 5 8.3 5 10 C0.05 10 -4.9 10 -10 10 C-10 11.65 -10 13.3 -10 15 C-12.31 15 -14.62 15 -17 15 C-16.34 11.7 -15.68 8.4 -15 5 C-10.05 5 -5.1 5 0 5 C0 3.35 0 1.7 0 0 Z " fill="#574D74" transform="translate(225,155)"/>
<path d="M0 0 C5 0 10 0 15 0 C15 1.65 15 3.3 15 5 C16.65 5 18.3 5 20 5 C20 8.3 20 11.6 20 15 C18.35 15 16.7 15 15 15 C15 13.35 15 11.7 15 10 C13.35 10 11.7 10 10 10 C10 8.35 10 6.7 10 5 C8.35 5 6.7 5 5 5 C5 6.65 5 8.3 5 10 C3.35 10 1.7 10 0 10 C0 6.7 0 3.4 0 0 Z " fill="#9488B5" transform="translate(265,180)"/>
<path d="M0 0 C1.65 0 3.3 0 5 0 C5 1.65 5 3.3 5 5 C8.3 5 11.6 5 15 5 C15 3.35 15 1.7 15 0 C18.3 0 21.6 0 25 0 C24.34 1.65 23.68 3.3 23 5 C22.01 5 21.02 5 20 5 C20 6.65 20 8.3 20 10 C13.4 10 6.8 10 0 10 C0 6.7 0 3.4 0 0 Z " fill="#574D74" transform="translate(185,165)"/>
<path d="M0 0 C3.3 0 6.6 0 10 0 C10 1.65 10 3.3 10 5 C13.3 5 16.6 5 20 5 C20 6.65 20 8.3 20 10 C16.04 10 12.08 10 8 10 C7.67 10.99 7.34 11.98 7 13 C6.34 12.67 5.68 12.34 5 12 C5 11.34 5 10.68 5 10 C3.35 10 1.7 10 0 10 C0 6.7 0 3.4 0 0 Z " fill="#9388B3" transform="translate(225,120)"/>
<path d="M0 0 C4.95 0 9.9 0 15 0 C14.67 1.65 14.34 3.3 14 5 C13.0925 5.0825 12.185 5.165 11.25 5.25 C7.92105608 5.68532621 7.92105608 5.68532621 6.1875 8.0625 C3.13286921 10.76803013 0.77540848 10.31888942 -3.171875 10.140625 C-4.07679688 10.07101563 -4.07679688 10.07101563 -5 10 C-5 8.35 -5 6.7 -5 5 C-3.35 5 -1.7 5 0 5 C0 3.35 0 1.7 0 0 Z " fill="#3B3157" transform="translate(280,205)"/>
<path d="M0 0 C1.65 0 3.3 0 5 0 C5 3.3 5 6.6 5 10 C3.35 10 1.7 10 0 10 C0 11.65 0 13.3 0 15 C-1.65 15 -3.3 15 -5 15 C-5 13.35 -5 11.7 -5 10 C-6.65 10 -8.3 10 -10 10 C-10 8.35 -10 6.7 -10 5 C-6.7 5 -3.4 5 0 5 C0 3.35 0 1.7 0 0 Z " fill="#7C709C" transform="translate(200,200)"/>
<path d="M0 0 C1.65 0 3.3 0 5 0 C5 8.25 5 16.5 5 25 C3.35 25 1.7 25 0 25 C0 16.75 0 8.5 0 0 Z " fill="#2B233C" transform="translate(165,185)"/>
<path d="M0 0 C3.3 0 6.6 0 10 0 C10 6.6 10 13.2 10 20 C8.35 20 6.7 20 5 20 C5 15.05 5 10.1 5 5 C3.35 5 1.7 5 0 5 C0 3.35 0 1.7 0 0 Z " fill="#7B709C" transform="translate(240,155)"/>
<path d="M0 0 C1.65 0 3.3 0 5 0 C5 1.65 5 3.3 5 5 C6.65 5 8.3 5 10 5 C10 8.3 10 11.6 10 15 C6.7 15 3.4 15 0 15 C0 10.05 0 5.1 0 0 Z " fill="#7B709B" transform="translate(255,135)"/>
<path d="M0 0 C3.3 0 6.6 0 10 0 C9.67 1.65 9.34 3.3 9 5 C7.68 5 6.36 5 5 5 C5 8.3 5 11.6 5 15 C3.35 15 1.7 15 0 15 C0 13.35 0 11.7 0 10 C-1.65 10 -3.3 10 -5 10 C-5 8.35 -5 6.7 -5 5 C-3.35 5 -1.7 5 0 5 C0 3.35 0 1.7 0 0 Z " fill="#2C2246" transform="translate(195,175)"/>
<path d="M0 0 C3.3 0 6.6 0 10 0 C10 3.3 10 6.6 10 10 C6.7 10 3.4 10 0 10 C-0.80688405 6.05523353 -1.00000429 4.00001715 0 0 Z " fill="#7C719A" transform="translate(235,190)"/>
<path d="M0 0 C1.65 0 3.3 0 5 0 C5 3.3 5 6.6 5 10 C0.05 10 -4.9 10 -10 10 C-10 8.35 -10 6.7 -10 5 C-6.7 5 -3.4 5 0 5 C0 3.35 0 1.7 0 0 Z " fill="#584D74" transform="translate(270,210)"/>
<path d="M0 0 C1.65 0 3.3 0 5 0 C5 1.65 5 3.3 5 5 C8.3 5 11.6 5 15 5 C15 6.65 15 8.3 15 10 C10.05 10 5.1 10 0 10 C0 6.7 0 3.4 0 0 Z " fill="#574D73" transform="translate(245,175)"/>
<path d="M0 0 C3.3 0 6.6 0 10 0 C10 1.65 10 3.3 10 5 C8.35 5 6.7 5 5 5 C5 8.3 5 11.6 5 15 C3.35 15 1.7 15 0 15 C0 10.05 0 5.1 0 0 Z " fill="#3C305B" transform="translate(245,130)"/>
<path d="M0 0 C4.62 0 9.24 0 14 0 C14.66 1.32 15.32 2.64 16 4 C16.66 4.33 17.32 4.66 18 5 C12.06 5 6.12 5 0 5 C0 3.35 0 1.7 0 0 Z " fill="#2B233C" transform="translate(170,210)"/>
<path d="M0 0 C4.95 0 9.9 0 15 0 C15 1.65 15 3.3 15 5 C10.05 5 5.1 5 0 5 C0 3.35 0 1.7 0 0 Z " fill="#2B233E" transform="translate(205,225)"/>
<path d="M0 0 C3.3 0 6.6 0 10 0 C10 3.3 10 6.6 10 10 C8.35 10 6.7 10 5 10 C5 8.35 5 6.7 5 5 C3.35 5 1.7 5 0 5 C0 3.35 0 1.7 0 0 Z " fill="#574D74" transform="translate(200,210)"/>
<path d="M0 0 C4.95 0 9.9 0 15 0 C15 1.65 15 3.3 15 5 C10.05 5 5.1 5 0 5 C0 3.35 0 1.7 0 0 Z " fill="#2C2244" transform="translate(260,205)"/>
<path d="M0 0 C1.65 0 3.3 0 5 0 C5 1.65 5 3.3 5 5 C6.65 5 8.3 5 10 5 C10 6.65 10 8.3 10 10 C6.7 10 3.4 10 0 10 C0 6.7 0 3.4 0 0 Z " fill="#7B7099" transform="translate(270,185)"/>
<path d="M0 0 C1.65 0 3.3 0 5 0 C5 1.65 5 3.3 5 5 C6.65 5 8.3 5 10 5 C10 6.65 10 8.3 10 10 C6.7 10 3.4 10 0 10 C0 6.7 0 3.4 0 0 Z " fill="#9488B4" transform="translate(185,165)"/>
<path d="M0 0 C1.65 0 3.3 0 5 0 C5 4.95 5 9.9 5 15 C3.35 15 1.7 15 0 15 C0 10.05 0 5.1 0 0 Z " fill="#2B223F" transform="translate(270,160)"/>
<path d="M0 0 C3.3 0 6.6 0 10 0 C10 3.3 10 6.6 10 10 C8.35 10 6.7 10 5 10 C5 8.35 5 6.7 5 5 C3.35 5 1.7 5 0 5 C0 3.35 0 1.7 0 0 Z " fill="#7C709F" transform="translate(210,135)"/>
<path d="M0 0 C3.3 0 6.6 0 10 0 C10 3.3 10 6.6 10 10 C8.35 10 6.7 10 5 10 C5 8.35 5 6.7 5 5 C3.35 5 1.7 5 0 5 C0 3.35 0 1.7 0 0 Z " fill="#7B719A" transform="translate(235,130)"/>
<path d="M0 0 C4.95 0 9.9 0 15 0 C15 1.65 15 3.3 15 5 C10.05 5 5.1 5 0 5 C0 3.35 0 1.7 0 0 Z " fill="#3C3256" transform="translate(260,200)"/>
<path d="M0 0 C3.3 0 6.6 0 10 0 C10.33 2.31 10.66 4.62 11 7 C10.01 7.495 10.01 7.495 9 8 C8.34 7.67 7.68 7.34 7 7 C7 7.66 7 8.32 7 9 C6.34 9 5.68 9 5 9 C5 7.68 5 6.36 5 5 C3.35 5 1.7 5 0 5 C0 3.35 0 1.7 0 0 Z " fill="#9388B5" transform="translate(240,200)"/>
<path d="M0 0 C3.3 0 6.6 0 10 0 C10.33 0.99 10.66 1.98 11 3 C10.67 3.66 10.34 4.32 10 5 C6.7 5 3.4 5 0 5 C0 3.35 0 1.7 0 0 Z " fill="#2C2245" transform="translate(250,200)"/>
<path d="M0 0 C-0.33 1.65 -0.66 3.3 -1 5 C-3.97 5 -6.94 5 -10 5 C-10 3.35 -10 1.7 -10 0 C-6.33694766 -0.74926071 -3.57644848 -1.2380014 0 0 Z " fill="#3A3255" transform="translate(285,210)"/>
<path d="M0 0 C3.3 0 6.6 0 10 0 C10 1.65 10 3.3 10 5 C6.7 5 3.4 5 0 5 C0 3.35 0 1.7 0 0 Z " fill="#2B233D" transform="translate(195,220)"/>
<path d="M0 0 C3.3 0 6.6 0 10 0 C10 1.65 10 3.3 10 5 C6.7 5 3.4 5 0 5 C0 3.35 0 1.7 0 0 Z " fill="#584D76" transform="translate(245,215)"/>
<path d="M0 0 C3.3 0 6.6 0 10 0 C10 1.65 10 3.3 10 5 C6.7 5 3.4 5 0 5 C0 3.35 0 1.7 0 0 Z " fill="#3C3158" transform="translate(195,215)"/>
<path d="M0 0 C3.3 0 6.6 0 10 0 C10 1.65 10 3.3 10 5 C6.7 5 3.4 5 0 5 C0 3.35 0 1.7 0 0 Z " fill="#7C719A" transform="translate(260,210)"/>
<path d="M0 0 C3.3 0 6.6 0 10 0 C10 1.65 10 3.3 10 5 C6.7 5 3.4 5 0 5 C0 3.35 0 1.7 0 0 Z " fill="#3C315B" transform="translate(225,195)"/>
<path d="M0 0 C1.65 0 3.3 0 5 0 C5 3.3 5 6.6 5 10 C3.35 10 1.7 10 0 10 C0 6.7 0 3.4 0 0 Z " fill="#584C76" transform="translate(220,190)"/>
<path d="M0 0 C1.65 0 3.3 0 5 0 C5 3.3 5 6.6 5 10 C3.35 10 1.7 10 0 10 C0 6.7 0 3.4 0 0 Z " fill="#2A233F" transform="translate(290,185)"/>
<path d="M0 0 C1.65 0 3.3 0 5 0 C5 3.3 5 6.6 5 10 C3.35 10 1.7 10 0 10 C0 6.7 0 3.4 0 0 Z " fill="#2C2244" transform="translate(255,185)"/>
<path d="M0 0 C3.3 0 6.6 0 10 0 C10 1.65 10 3.3 10 5 C6.7 5 3.4 5 0 5 C0 3.35 0 1.7 0 0 Z " fill="#2A233F" transform="translate(280,180)"/>
<path d="M0 0 C1.65 0 3.3 0 5 0 C5 3.3 5 6.6 5 10 C3.35 10 1.7 10 0 10 C0 6.7 0 3.4 0 0 Z " fill="#2B2244" transform="translate(240,180)"/>
<path d="M0 0 C3.3 0 6.6 0 10 0 C10 1.65 10 3.3 10 5 C6.7 5 3.4 5 0 5 C0 3.35 0 1.7 0 0 Z " fill="#574D74" transform="translate(225,175)"/>
<path d="M0 0 C3.3 0 6.6 0 10 0 C10 1.65 10 3.3 10 5 C6.7 5 3.4 5 0 5 C0 3.35 0 1.7 0 0 Z " fill="#3C315A" transform="translate(250,170)"/>
<path d="M0 0 C3.3 0 6.6 0 10 0 C10 1.65 10 3.3 10 5 C6.7 5 3.4 5 0 5 C0 3.35 0 1.7 0 0 Z " fill="#574D73" transform="translate(215,170)"/>
<path d="M0 0 C1.65 0 3.3 0 5 0 C5 3.3 5 6.6 5 10 C3.35 10 1.7 10 0 10 C0 6.7 0 3.4 0 0 Z " fill="#2B2340" transform="translate(180,165)"/>
<path d="M0 0 C1.65 0 3.3 0 5 0 C5 3.3 5 6.6 5 10 C3.35 10 1.7 10 0 10 C0 6.7 0 3.4 0 0 Z " fill="#574C76" transform="translate(240,160)"/>
<path d="M0 0 C3.3 0 6.6 0 10 0 C10 1.65 10 3.3 10 5 C6.7 5 3.4 5 0 5 C0 3.35 0 1.7 0 0 Z " fill="#9388B3" transform="translate(190,155)"/>
<path d="M0 0 C1.65 0 3.3 0 5 0 C5 3.3 5 6.6 5 10 C3.35 10 1.7 10 0 10 C0 6.7 0 3.4 0 0 Z " fill="#2B233F" transform="translate(265,150)"/>
<path d="M0 0 C3.3 0 6.6 0 10 0 C10 1.65 10 3.3 10 5 C6.7 5 3.4 5 0 5 C0 3.35 0 1.7 0 0 Z " fill="#3B305A" transform="translate(205,150)"/>
<path d="M0 0 C1.65 0 3.3 0 5 0 C5 3.3 5 6.6 5 10 C3.35 10 1.7 10 0 10 C0 6.7 0 3.4 0 0 Z " fill="#2A2340" transform="translate(260,140)"/>
<path d="M0 0 C3.3 0 6.6 0 10 0 C10 1.65 10 3.3 10 5 C6.7 5 3.4 5 0 5 C0 3.35 0 1.7 0 0 Z " fill="#282339" transform="translate(245,130)"/>
<path d="M0 0 C3.3 0 6.6 0 10 0 C10 1.65 10 3.3 10 5 C6.7 5 3.4 5 0 5 C0 3.35 0 1.7 0 0 Z " fill="#2A233F" transform="translate(235,125)"/>
<path d="M0 0 C3.3 0 6.6 0 10 0 C10 1.65 10 3.3 10 5 C6.7 5 3.4 5 0 5 C0 3.35 0 1.7 0 0 Z " fill="#292338" transform="translate(225,120)"/>
<path d="M0 0 C1.32 0 2.64 0 4 0 C4 3.3 4 6.6 4 10 C2.35 10 0.7 10 -1 10 C-1.02689216 8.52093108 -1.04634621 7.04172517 -1.0625 5.5625 C-1.07410156 4.73878906 -1.08570313 3.91507813 -1.09765625 3.06640625 C-1 1 -1 1 0 0 Z " fill="#2B2244" transform="translate(246,190)"/>
<path d="M0 0 C3.3 0 6.6 0 10 0 C10 1.65 10 3.3 10 5 C6.7 5 3.4 5 0 5 C0 3.35 0 1.7 0 0 Z " fill="#29243B" transform="translate(220,230)"/>
<path d="M0 0 C1.32 0 2.64 0 4 0 C5.1577506 3.47325181 5.06866652 6.36067448 5 10 C3.35 10 1.7 10 0 10 C-0.74926071 6.33694766 -1.2380014 3.57644848 0 0 Z " fill="#7C719C" transform="translate(235,190)"/>
<path d="M0 0 C1.65 0 3.3 0 5 0 C5 1.65 5 3.3 5 5 C3.35 5 1.7 5 0 5 C0 3.35 0 1.7 0 0 Z " fill="#584D73" transform="translate(255,220)"/>
<path d="M0 0 C1.65 0 3.3 0 5 0 C5 1.65 5 3.3 5 5 C3.35 5 1.7 5 0 5 C0 3.35 0 1.7 0 0 Z " fill="#7B709A" transform="translate(255,215)"/>
<path d="M0 0 C1.65 0 3.3 0 5 0 C5 1.65 5 3.3 5 5 C3.35 5 1.7 5 0 5 C0 3.35 0 1.7 0 0 Z " fill="#2A233B" transform="translate(190,215)"/>
<path d="M0 0 C1.65 0 3.3 0 5 0 C5 1.65 5 3.3 5 5 C3.35 5 1.7 5 0 5 C0 3.35 0 1.7 0 0 Z " fill="#2B2144" transform="translate(275,210)"/>
<path d="M0 0 C1.65 0 3.3 0 5 0 C5 1.65 5 3.3 5 5 C3.35 5 1.7 5 0 5 C0 3.35 0 1.7 0 0 Z " fill="#7C709D" transform="translate(250,210)"/>
<path d="M0 0 C1.65 0 3.3 0 5 0 C5 1.65 5 3.3 5 5 C3.35 5 1.7 5 0 5 C0 3.35 0 1.7 0 0 Z " fill="#7C709C" transform="translate(230,210)"/>
<path d="M0 0 C1.65 0 3.3 0 5 0 C5 1.65 5 3.3 5 5 C3.35 5 1.7 5 0 5 C0 3.35 0 1.7 0 0 Z " fill="#7C709C" transform="translate(220,210)"/>
<path d="M0 0 C1.65 0 3.3 0 5 0 C5 1.65 5 3.3 5 5 C3.35 5 1.7 5 0 5 C0 3.35 0 1.7 0 0 Z " fill="#3C315A" transform="translate(235,200)"/>
<path d="M0 0 C1.65 0 3.3 0 5 0 C5 1.65 5 3.3 5 5 C3.35 5 1.7 5 0 5 C0 3.35 0 1.7 0 0 Z " fill="#7C719B" transform="translate(230,200)"/>
<path d="M0 0 C1.65 0 3.3 0 5 0 C5 1.65 5 3.3 5 5 C3.35 5 1.7 5 0 5 C0 3.35 0 1.7 0 0 Z " fill="#3B305C" transform="translate(215,200)"/>
<path d="M0 0 C1.65 0 3.3 0 5 0 C5 1.65 5 3.3 5 5 C3.35 5 1.7 5 0 5 C0 3.35 0 1.7 0 0 Z " fill="#584E72" transform="translate(190,195)"/>
<path d="M0 0 C1.65 0 3.3 0 5 0 C5 1.65 5 3.3 5 5 C3.35 5 1.7 5 0 5 C0 3.35 0 1.7 0 0 Z " fill="#574D73" transform="translate(240,195)"/>
<path d="M0 0 C1.65 0 3.3 0 5 0 C5 1.65 5 3.3 5 5 C3.35 5 1.7 5 0 5 C0 3.35 0 1.7 0 0 Z " fill="#3C305D" transform="translate(275,190)"/>
<path d="M0 0 C1.65 0 3.3 0 5 0 C5 1.65 5 3.3 5 5 C3.35 5 1.7 5 0 5 C0 3.35 0 1.7 0 0 Z " fill="#7B709C" transform="translate(225,190)"/>
<path d="M0 0 C1.65 0 3.3 0 5 0 C5 1.65 5 3.3 5 5 C3.35 5 1.7 5 0 5 C0 3.35 0 1.7 0 0 Z " fill="#7B709C" transform="translate(215,190)"/>
<path d="M0 0 C1.65 0 3.3 0 5 0 C5 1.65 5 3.3 5 5 C3.35 5 1.7 5 0 5 C0 3.35 0 1.7 0 0 Z " fill="#574C76" transform="translate(195,190)"/>
<path d="M0 0 C1.65 0 3.3 0 5 0 C5 1.65 5 3.3 5 5 C3.35 5 1.7 5 0 5 C0 3.35 0 1.7 0 0 Z " fill="#2B2145" transform="translate(190,190)"/>
<path d="M0 0 C1.65 0 3.3 0 5 0 C5 1.65 5 3.3 5 5 C3.35 5 1.7 5 0 5 C0 3.35 0 1.7 0 0 Z " fill="#2C2245" transform="translate(195,185)"/>
<path d="M0 0 C1.65 0 3.3 0 5 0 C5 1.65 5 3.3 5 5 C3.35 5 1.7 5 0 5 C0 3.35 0 1.7 0 0 Z " fill="#3C3159" transform="translate(175,185)"/>
<path d="M0 0 C1.65 0 3.3 0 5 0 C5 1.65 5 3.3 5 5 C3.35 5 1.7 5 0 5 C0 3.35 0 1.7 0 0 Z " fill="#3B305B" transform="translate(270,185)"/>
<path d="M0 0 C1.65 0 3.3 0 5 0 C5 1.65 5 3.3 5 5 C3.35 5 1.7 5 0 5 C0 3.35 0 1.7 0 0 Z " fill="#574C77" transform="translate(215,185)"/>
<path d="M0 0 C1.65 0 3.3 0 5 0 C5 1.65 5 3.3 5 5 C3.35 5 1.7 5 0 5 C0 3.35 0 1.7 0 0 Z " fill="#584D75" transform="translate(200,185)"/>
<path d="M0 0 C1.65 0 3.3 0 5 0 C5 1.65 5 3.3 5 5 C3.35 5 1.7 5 0 5 C0 3.35 0 1.7 0 0 Z " fill="#2C2149" transform="translate(260,180)"/>
<path d="M0 0 C1.65 0 3.3 0 5 0 C5 1.65 5 3.3 5 5 C3.35 5 1.7 5 0 5 C0 3.35 0 1.7 0 0 Z " fill="#7B6F9E" transform="translate(220,180)"/>
<path d="M0 0 C1.65 0 3.3 0 5 0 C5 1.65 5 3.3 5 5 C3.35 5 1.7 5 0 5 C0 3.35 0 1.7 0 0 Z " fill="#3B305B" transform="translate(180,180)"/>
<path d="M0 0 C1.65 0 3.3 0 5 0 C5 1.65 5 3.3 5 5 C3.35 5 1.7 5 0 5 C0 3.35 0 1.7 0 0 Z " fill="#7B7199" transform="translate(175,180)"/>
<path d="M0 0 C1.65 0 3.3 0 5 0 C5 1.65 5 3.3 5 5 C3.35 5 1.7 5 0 5 C0 3.35 0 1.7 0 0 Z " fill="#2A243E" transform="translate(170,180)"/>
<path d="M0 0 C1.65 0 3.3 0 5 0 C5 1.65 5 3.3 5 5 C3.35 5 1.7 5 0 5 C0 3.35 0 1.7 0 0 Z " fill="#2A2340" transform="translate(275,175)"/>
<path d="M0 0 C1.65 0 3.3 0 5 0 C5 1.65 5 3.3 5 5 C3.35 5 1.7 5 0 5 C0 3.35 0 1.7 0 0 Z " fill="#2B233E" transform="translate(175,175)"/>
<path d="M0 0 C1.65 0 3.3 0 5 0 C5 1.65 5 3.3 5 5 C3.35 5 1.7 5 0 5 C0 3.35 0 1.7 0 0 Z " fill="#3B305A" transform="translate(265,175)"/>
<path d="M0 0 C1.65 0 3.3 0 5 0 C5 1.65 5 3.3 5 5 C3.35 5 1.7 5 0 5 C0 3.35 0 1.7 0 0 Z " fill="#9389B1" transform="translate(180,175)"/>
<path d="M0 0 C1.65 0 3.3 0 5 0 C5 1.65 5 3.3 5 5 C3.35 5 1.7 5 0 5 C0 3.35 0 1.7 0 0 Z " fill="#2B2244" transform="translate(210,170)"/>
<path d="M0 0 C1.65 0 3.3 0 5 0 C5 1.65 5 3.3 5 5 C3.35 5 1.7 5 0 5 C0 3.35 0 1.7 0 0 Z " fill="#3C3255" transform="translate(205,170)"/>
<path d="M0 0 C1.65 0 3.3 0 5 0 C5 1.65 5 3.3 5 5 C3.35 5 1.7 5 0 5 C0 3.35 0 1.7 0 0 Z " fill="#7C709A" transform="translate(190,170)"/>
<path d="M0 0 C1.65 0 3.3 0 5 0 C5 1.65 5 3.3 5 5 C3.35 5 1.7 5 0 5 C0 3.35 0 1.7 0 0 Z " fill="#3B305A" transform="translate(260,165)"/>
<path d="M0 0 C1.65 0 3.3 0 5 0 C5 1.65 5 3.3 5 5 C3.35 5 1.7 5 0 5 C0 3.35 0 1.7 0 0 Z " fill="#3C315C" transform="translate(190,165)"/>
<path d="M0 0 C1.65 0 3.3 0 5 0 C5 1.65 5 3.3 5 5 C3.35 5 1.7 5 0 5 C0 3.35 0 1.7 0 0 Z " fill="#2A2340" transform="translate(185,160)"/>
<path d="M0 0 C1.65 0 3.3 0 5 0 C5 1.65 5 3.3 5 5 C3.35 5 1.7 5 0 5 C0 3.35 0 1.7 0 0 Z " fill="#2A233E" transform="translate(190,155)"/>
<path d="M0 0 C1.65 0 3.3 0 5 0 C5 1.65 5 3.3 5 5 C3.35 5 1.7 5 0 5 C0 3.35 0 1.7 0 0 Z " fill="#3C3158" transform="translate(200,155)"/>
<path d="M0 0 C1.65 0 3.3 0 5 0 C5 1.65 5 3.3 5 5 C3.35 5 1.7 5 0 5 C0 3.35 0 1.7 0 0 Z " fill="#2A243F" transform="translate(195,150)"/>
<path d="M0 0 C1.65 0 3.3 0 5 0 C5 1.65 5 3.3 5 5 C3.35 5 1.7 5 0 5 C0 3.35 0 1.7 0 0 Z " fill="#9489B3" transform="translate(200,150)"/>
<path d="M0 0 C1.65 0 3.3 0 5 0 C5 1.65 5 3.3 5 5 C3.35 5 1.7 5 0 5 C0 3.35 0 1.7 0 0 Z " fill="#7B709A" transform="translate(260,150)"/>
<path d="M0 0 C1.65 0 3.3 0 5 0 C5 1.65 5 3.3 5 5 C3.35 5 1.7 5 0 5 C0 3.35 0 1.7 0 0 Z " fill="#3B305B" transform="translate(230,145)"/>
<path d="M0 0 C1.65 0 3.3 0 5 0 C5 1.65 5 3.3 5 5 C3.35 5 1.7 5 0 5 C0 3.35 0 1.7 0 0 Z " fill="#2B2341" transform="translate(200,145)"/>
<path d="M0 0 C1.65 0 3.3 0 5 0 C5 1.65 5 3.3 5 5 C3.35 5 1.7 5 0 5 C0 3.35 0 1.7 0 0 Z " fill="#3B3158" transform="translate(240,145)"/>
<path d="M0 0 C1.65 0 3.3 0 5 0 C5 1.65 5 3.3 5 5 C3.35 5 1.7 5 0 5 C0 3.35 0 1.7 0 0 Z " fill="#7C719B" transform="translate(235,145)"/>
<path d="M0 0 C1.65 0 3.3 0 5 0 C5 1.65 5 3.3 5 5 C3.35 5 1.7 5 0 5 C0 3.35 0 1.7 0 0 Z " fill="#2A243F" transform="translate(205,140)"/>
<path d="M0 0 C1.65 0 3.3 0 5 0 C5 1.65 5 3.3 5 5 C3.35 5 1.7 5 0 5 C0 3.35 0 1.7 0 0 Z " fill="#3C315B" transform="translate(235,140)"/>
<path d="M0 0 C1.65 0 3.3 0 5 0 C5 1.65 5 3.3 5 5 C3.35 5 1.7 5 0 5 C0 3.35 0 1.7 0 0 Z " fill="#2B243F" transform="translate(210,135)"/>
<path d="M0 0 C1.65 0 3.3 0 5 0 C5 1.65 5 3.3 5 5 C3.35 5 1.7 5 0 5 C0 3.35 0 1.7 0 0 Z " fill="#2A233E" transform="translate(255,135)"/>
<path d="M0 0 C1.65 0 3.3 0 5 0 C5 1.65 5 3.3 5 5 C3.35 5 1.7 5 0 5 C0 3.35 0 1.7 0 0 Z " fill="#574D74" transform="translate(245,135)"/>
<path d="M0 0 C1.65 0 3.3 0 5 0 C5 1.65 5 3.3 5 5 C3.35 5 1.7 5 0 5 C0 3.35 0 1.7 0 0 Z " fill="#9389B2" transform="translate(215,135)"/>
<path d="M0 0 C1.65 0 3.3 0 5 0 C5 1.65 5 3.3 5 5 C3.35 5 1.7 5 0 5 C0 3.35 0 1.7 0 0 Z " fill="#2B233D" transform="translate(215,130)"/>
<path d="M0 0 C1.65 0 3.3 0 5 0 C5 1.65 5 3.3 5 5 C3.35 5 1.7 5 0 5 C0 3.35 0 1.7 0 0 Z " fill="#2A233D" transform="translate(220,125)"/>
<path d="M0 0 C1.32 0 2.64 0 4 0 C4 1.65 4 3.3 4 5 C2.35 5 0.7 5 -1 5 C-0.67 3.35 -0.34 1.7 0 0 Z " fill="#3C3258" transform="translate(191,210)"/>
<path d="M0 0 C2.475 0.495 2.475 0.495 5 1 C5 2.32 5 3.64 5 5 C3.35 5 1.7 5 0 5 C0 3.35 0 1.7 0 0 Z " fill="#9388B1" transform="translate(190,205)"/>
<path d="M0 0 C1.65 0 3.3 0 5 0 C5 1.65 5 3.3 5 5 C3.35 4.67 1.7 4.34 0 4 C0 2.68 0 1.36 0 0 Z " fill="#2C2146" transform="translate(190,200)"/>
<path d="M0 0 C1.32 0 2.64 0 4 0 C4 1.65 4 3.3 4 5 C2.35 5 0.7 5 -1 5 C-0.67 3.35 -0.34 1.7 0 0 Z " fill="#3C3254" transform="translate(196,180)"/>
<path d="M0 0 C2.475 0.495 2.475 0.495 5 1 C5 2.32 5 3.64 5 5 C3.35 5 1.7 5 0 5 C0 3.35 0 1.7 0 0 Z " fill="#2B2144" transform="translate(190,180)"/>
<path d="M0 0 C1.65 0 3.3 0 5 0 C4.67 1.65 4.34 3.3 4 5 C2.68 5 1.36 5 0 5 C0 3.35 0 1.7 0 0 Z " fill="#3C3255" transform="translate(200,175)"/>
<path d="M0 0 C2 1 2 1 3.875 2.125 C6.39267692 3.1616905 7.48367565 2.89868727 10 2 C10 2.99 10 3.98 10 5 C6.7 5 3.4 5 0 5 C0 3.35 0 1.7 0 0 Z " fill="#2C2445" transform="translate(245,130)"/>
<path d="M0 0 C3.55780196 0.60990891 6.6828589 1.5783681 10 3 C10 3.33 10 3.66 10 4 C6.7 4 3.4 4 0 4 C0 2.68 0 1.36 0 0 Z " fill="#2D2345" transform="translate(225,121)"/>
</svg>
